G04 #@! TF.GenerationSoftware,KiCad,Pcbnew,7.0.5-0*
G04 #@! TF.CreationDate,2023-09-26T17:10:22-04:00*
G04 #@! TF.ProjectId,Rudolph_Tracker,5275646f-6c70-4685-9f54-7261636b6572,rev?*
G04 #@! TF.SameCoordinates,Original*
G04 #@! TF.FileFunction,Copper,L1,Top*
G04 #@! TF.FilePolarity,Positive*
%FSLAX46Y46*%
G04 Gerber Fmt 4.6, Leading zero omitted, Abs format (unit mm)*
G04 Created by KiCad (PCBNEW 7.0.5-0) date 2023-09-26 17:10:22*
%MOMM*%
%LPD*%
G01*
G04 APERTURE LIST*
G04 Aperture macros list*
%AMRoundRect*
0 Rectangle with rounded corners*
0 $1 Rounding radius*
0 $2 $3 $4 $5 $6 $7 $8 $9 X,Y pos of 4 corners*
0 Add a 4 corners polygon primitive as box body*
4,1,4,$2,$3,$4,$5,$6,$7,$8,$9,$2,$3,0*
0 Add four circle primitives for the rounded corners*
1,1,$1+$1,$2,$3*
1,1,$1+$1,$4,$5*
1,1,$1+$1,$6,$7*
1,1,$1+$1,$8,$9*
0 Add four rect primitives between the rounded corners*
20,1,$1+$1,$2,$3,$4,$5,0*
20,1,$1+$1,$4,$5,$6,$7,0*
20,1,$1+$1,$6,$7,$8,$9,0*
20,1,$1+$1,$8,$9,$2,$3,0*%
%AMFreePoly0*
4,1,12,0.600035,0.600035,0.600050,0.600000,0.600050,-1.800000,0.600036,-1.800036,0.600000,-1.800050,0.599965,-1.800036,-1.800035,0.599965,-1.800050,0.600000,-1.800035,0.600035,-1.800000,0.600050,0.600000,0.600050,0.600035,0.600035,0.600035,0.600035,$1*%
G04 Aperture macros list end*
G04 #@! TA.AperFunction,SMDPad,CuDef*
%ADD10RoundRect,0.135000X0.135000X0.185000X-0.135000X0.185000X-0.135000X-0.185000X0.135000X-0.185000X0*%
G04 #@! TD*
G04 #@! TA.AperFunction,SMDPad,CuDef*
%ADD11RoundRect,0.050000X0.050000X-0.387500X0.050000X0.387500X-0.050000X0.387500X-0.050000X-0.387500X0*%
G04 #@! TD*
G04 #@! TA.AperFunction,SMDPad,CuDef*
%ADD12RoundRect,0.050000X0.387500X-0.050000X0.387500X0.050000X-0.387500X0.050000X-0.387500X-0.050000X0*%
G04 #@! TD*
G04 #@! TA.AperFunction,ComponentPad*
%ADD13C,0.600000*%
G04 #@! TD*
G04 #@! TA.AperFunction,SMDPad,CuDef*
%ADD14RoundRect,0.144000X1.456000X-1.456000X1.456000X1.456000X-1.456000X1.456000X-1.456000X-1.456000X0*%
G04 #@! TD*
G04 #@! TA.AperFunction,SMDPad,CuDef*
%ADD15RoundRect,0.200000X-0.200000X-0.275000X0.200000X-0.275000X0.200000X0.275000X-0.200000X0.275000X0*%
G04 #@! TD*
G04 #@! TA.AperFunction,SMDPad,CuDef*
%ADD16RoundRect,0.237500X0.287500X0.237500X-0.287500X0.237500X-0.287500X-0.237500X0.287500X-0.237500X0*%
G04 #@! TD*
G04 #@! TA.AperFunction,SMDPad,CuDef*
%ADD17RoundRect,0.200000X0.200000X0.275000X-0.200000X0.275000X-0.200000X-0.275000X0.200000X-0.275000X0*%
G04 #@! TD*
G04 #@! TA.AperFunction,SMDPad,CuDef*
%ADD18RoundRect,0.237500X-0.237500X0.250000X-0.237500X-0.250000X0.237500X-0.250000X0.237500X0.250000X0*%
G04 #@! TD*
G04 #@! TA.AperFunction,SMDPad,CuDef*
%ADD19RoundRect,0.225000X0.335876X0.017678X0.017678X0.335876X-0.335876X-0.017678X-0.017678X-0.335876X0*%
G04 #@! TD*
G04 #@! TA.AperFunction,SMDPad,CuDef*
%ADD20R,2.400000X2.000000*%
G04 #@! TD*
G04 #@! TA.AperFunction,SMDPad,CuDef*
%ADD21FreePoly0,0.000000*%
G04 #@! TD*
G04 #@! TA.AperFunction,SMDPad,CuDef*
%ADD22R,4.100000X1.700000*%
G04 #@! TD*
G04 #@! TA.AperFunction,SMDPad,CuDef*
%ADD23R,1.200000X0.250000*%
G04 #@! TD*
G04 #@! TA.AperFunction,SMDPad,CuDef*
%ADD24RoundRect,0.140000X0.140000X0.170000X-0.140000X0.170000X-0.140000X-0.170000X0.140000X-0.170000X0*%
G04 #@! TD*
G04 #@! TA.AperFunction,SMDPad,CuDef*
%ADD25RoundRect,0.135000X0.185000X-0.135000X0.185000X0.135000X-0.185000X0.135000X-0.185000X-0.135000X0*%
G04 #@! TD*
G04 #@! TA.AperFunction,SMDPad,CuDef*
%ADD26RoundRect,0.140000X-0.140000X-0.170000X0.140000X-0.170000X0.140000X0.170000X-0.140000X0.170000X0*%
G04 #@! TD*
G04 #@! TA.AperFunction,SMDPad,CuDef*
%ADD27R,1.800000X1.000000*%
G04 #@! TD*
G04 #@! TA.AperFunction,SMDPad,CuDef*
%ADD28R,0.900000X1.000000*%
G04 #@! TD*
G04 #@! TA.AperFunction,SMDPad,CuDef*
%ADD29RoundRect,0.225000X-0.225000X-0.250000X0.225000X-0.250000X0.225000X0.250000X-0.225000X0.250000X0*%
G04 #@! TD*
G04 #@! TA.AperFunction,SMDPad,CuDef*
%ADD30R,0.500000X1.100000*%
G04 #@! TD*
G04 #@! TA.AperFunction,SMDPad,CuDef*
%ADD31R,4.300000X3.400000*%
G04 #@! TD*
G04 #@! TA.AperFunction,SMDPad,CuDef*
%ADD32RoundRect,0.162500X0.367500X0.162500X-0.367500X0.162500X-0.367500X-0.162500X0.367500X-0.162500X0*%
G04 #@! TD*
G04 #@! TA.AperFunction,SMDPad,CuDef*
%ADD33C,1.000000*%
G04 #@! TD*
G04 #@! TA.AperFunction,SMDPad,CuDef*
%ADD34RoundRect,0.140000X0.219203X0.021213X0.021213X0.219203X-0.219203X-0.021213X-0.021213X-0.219203X0*%
G04 #@! TD*
G04 #@! TA.AperFunction,SMDPad,CuDef*
%ADD35RoundRect,0.140000X0.170000X-0.140000X0.170000X0.140000X-0.170000X0.140000X-0.170000X-0.140000X0*%
G04 #@! TD*
G04 #@! TA.AperFunction,SMDPad,CuDef*
%ADD36R,0.600000X1.150000*%
G04 #@! TD*
G04 #@! TA.AperFunction,SMDPad,CuDef*
%ADD37R,0.300000X1.150000*%
G04 #@! TD*
G04 #@! TA.AperFunction,ComponentPad*
%ADD38O,1.000000X2.100000*%
G04 #@! TD*
G04 #@! TA.AperFunction,ComponentPad*
%ADD39O,1.000000X1.800000*%
G04 #@! TD*
G04 #@! TA.AperFunction,SMDPad,CuDef*
%ADD40RoundRect,0.250000X-0.250000X-0.250000X0.250000X-0.250000X0.250000X0.250000X-0.250000X0.250000X0*%
G04 #@! TD*
G04 #@! TA.AperFunction,SMDPad,CuDef*
%ADD41RoundRect,0.225000X0.225000X0.250000X-0.225000X0.250000X-0.225000X-0.250000X0.225000X-0.250000X0*%
G04 #@! TD*
G04 #@! TA.AperFunction,SMDPad,CuDef*
%ADD42RoundRect,0.135000X-0.185000X0.135000X-0.185000X-0.135000X0.185000X-0.135000X0.185000X0.135000X0*%
G04 #@! TD*
G04 #@! TA.AperFunction,SMDPad,CuDef*
%ADD43RoundRect,0.140000X-0.170000X0.140000X-0.170000X-0.140000X0.170000X-0.140000X0.170000X0.140000X0*%
G04 #@! TD*
G04 #@! TA.AperFunction,SMDPad,CuDef*
%ADD44R,0.950000X0.550000*%
G04 #@! TD*
G04 #@! TA.AperFunction,SMDPad,CuDef*
%ADD45RoundRect,0.150000X0.512500X0.150000X-0.512500X0.150000X-0.512500X-0.150000X0.512500X-0.150000X0*%
G04 #@! TD*
G04 #@! TA.AperFunction,SMDPad,CuDef*
%ADD46O,1.500000X0.800000*%
G04 #@! TD*
G04 #@! TA.AperFunction,ViaPad*
%ADD47C,0.800000*%
G04 #@! TD*
G04 #@! TA.AperFunction,ViaPad*
%ADD48C,0.700000*%
G04 #@! TD*
G04 #@! TA.AperFunction,ViaPad*
%ADD49C,0.500000*%
G04 #@! TD*
G04 #@! TA.AperFunction,ViaPad*
%ADD50C,1.000000*%
G04 #@! TD*
G04 #@! TA.AperFunction,ViaPad*
%ADD51C,0.600000*%
G04 #@! TD*
G04 #@! TA.AperFunction,ViaPad*
%ADD52C,0.410000*%
G04 #@! TD*
G04 #@! TA.AperFunction,Conductor*
%ADD53C,0.200000*%
G04 #@! TD*
G04 #@! TA.AperFunction,Conductor*
%ADD54C,0.500000*%
G04 #@! TD*
G04 #@! TA.AperFunction,Conductor*
%ADD55C,1.000000*%
G04 #@! TD*
G04 #@! TA.AperFunction,Conductor*
%ADD56C,0.150000*%
G04 #@! TD*
G04 #@! TA.AperFunction,Conductor*
%ADD57C,0.250000*%
G04 #@! TD*
G04 #@! TA.AperFunction,Conductor*
%ADD58C,0.300000*%
G04 #@! TD*
G04 #@! TA.AperFunction,Conductor*
%ADD59C,0.800000*%
G04 #@! TD*
G04 #@! TA.AperFunction,Conductor*
%ADD60C,0.286000*%
G04 #@! TD*
G04 #@! TA.AperFunction,Conductor*
%ADD61C,0.100000*%
G04 #@! TD*
G04 APERTURE END LIST*
D10*
X94910000Y-127200000D03*
X93890000Y-127200000D03*
D11*
X89900000Y-123137500D03*
X90300000Y-123137500D03*
X90700000Y-123137500D03*
X91100000Y-123137500D03*
X91500000Y-123137500D03*
X91900000Y-123137500D03*
X92300000Y-123137500D03*
X92700000Y-123137500D03*
X93100000Y-123137500D03*
X93500000Y-123137500D03*
X93900000Y-123137500D03*
X94300000Y-123137500D03*
X94700000Y-123137500D03*
X95100000Y-123137500D03*
D12*
X95937500Y-122300000D03*
X95937500Y-121900000D03*
X95937500Y-121500000D03*
X95937500Y-121100000D03*
X95937500Y-120700000D03*
X95937500Y-120300000D03*
X95937500Y-119900000D03*
X95937500Y-119500000D03*
X95937500Y-119100000D03*
X95937500Y-118700000D03*
X95937500Y-118300000D03*
X95937500Y-117900000D03*
X95937500Y-117500000D03*
X95937500Y-117100000D03*
D11*
X95100000Y-116262500D03*
X94700000Y-116262500D03*
X94300000Y-116262500D03*
X93900000Y-116262500D03*
X93500000Y-116262500D03*
X93100000Y-116262500D03*
X92700000Y-116262500D03*
X92300000Y-116262500D03*
X91900000Y-116262500D03*
X91500000Y-116262500D03*
X91100000Y-116262500D03*
X90700000Y-116262500D03*
X90300000Y-116262500D03*
X89900000Y-116262500D03*
D12*
X89062500Y-117100000D03*
X89062500Y-117500000D03*
X89062500Y-117900000D03*
X89062500Y-118300000D03*
X89062500Y-118700000D03*
X89062500Y-119100000D03*
X89062500Y-119500000D03*
X89062500Y-119900000D03*
X89062500Y-120300000D03*
X89062500Y-120700000D03*
X89062500Y-121100000D03*
X89062500Y-121500000D03*
X89062500Y-121900000D03*
X89062500Y-122300000D03*
D13*
X91225000Y-120975000D03*
X92500000Y-120975000D03*
X93775000Y-120975000D03*
X91225000Y-119700000D03*
X92500000Y-119700000D03*
D14*
X92500000Y-119700000D03*
D13*
X93775000Y-119700000D03*
X91225000Y-118425000D03*
X92500000Y-118425000D03*
X93775000Y-118425000D03*
D15*
X90375000Y-109100000D03*
X92025000Y-109100000D03*
D16*
X92175000Y-110700000D03*
X90425000Y-110700000D03*
D17*
X107425000Y-110400000D03*
X105775000Y-110400000D03*
D10*
X94910000Y-128200000D03*
X93890000Y-128200000D03*
X96910000Y-128900000D03*
X95890000Y-128900000D03*
D18*
X104300000Y-110387500D03*
X104300000Y-112212500D03*
D19*
X99548008Y-123148008D03*
X98451992Y-122051992D03*
D20*
X102500000Y-119450000D03*
X102500000Y-123150000D03*
D21*
X102600000Y-110400000D03*
D22*
X101150000Y-114350000D03*
D23*
X72700001Y-121950001D03*
X72700001Y-121450002D03*
X72700001Y-120950000D03*
X72700001Y-120450001D03*
X72700001Y-119950000D03*
X72700001Y-119450000D03*
X72700001Y-118950002D03*
X72700001Y-118450000D03*
X72700001Y-117950001D03*
X72700001Y-117449999D03*
X76100002Y-121950001D03*
X76100002Y-121450002D03*
X76100002Y-120950000D03*
X76100002Y-120450001D03*
X76100002Y-119950000D03*
X76100002Y-119450000D03*
X76100002Y-118950002D03*
X76100002Y-118450000D03*
X76100002Y-117950001D03*
X76100002Y-117449999D03*
D24*
X87880000Y-115200000D03*
X86920000Y-115200000D03*
D25*
X106900000Y-123710000D03*
X106900000Y-122690000D03*
D26*
X98920000Y-119200000D03*
X99880000Y-119200000D03*
D27*
X106300000Y-120350000D03*
X106300000Y-117850000D03*
D24*
X85380000Y-120700000D03*
X84420000Y-120700000D03*
D28*
X98250000Y-126600000D03*
X102350000Y-126600000D03*
X98250000Y-128200000D03*
X102350000Y-128200000D03*
D10*
X96910000Y-127800000D03*
X95890000Y-127800000D03*
D29*
X101525000Y-117400000D03*
X103075000Y-117400000D03*
D30*
X82495000Y-128600000D03*
X83765000Y-128600000D03*
X85035000Y-128600000D03*
X86305000Y-128600000D03*
X86305000Y-122800000D03*
X85035000Y-122800000D03*
X83765000Y-122800000D03*
X82495000Y-122800000D03*
D31*
X84400000Y-125700000D03*
D24*
X87880000Y-116200000D03*
X86920000Y-116200000D03*
D28*
X81550000Y-108600000D03*
X85650000Y-108600000D03*
X81550000Y-110200000D03*
X85650000Y-110200000D03*
D10*
X85410000Y-117700000D03*
X84390000Y-117700000D03*
X100010000Y-120400000D03*
X98990000Y-120400000D03*
D32*
X82000000Y-118150000D03*
X82000000Y-117200000D03*
X82000000Y-116250000D03*
X79800000Y-116250000D03*
X79800000Y-117200000D03*
X79800000Y-118150000D03*
D10*
X85410000Y-118700000D03*
X84390000Y-118700000D03*
D33*
X70800000Y-121300000D03*
D34*
X92439411Y-113839411D03*
X91760589Y-113160589D03*
D35*
X88900000Y-113580000D03*
X88900000Y-112620000D03*
D36*
X78000000Y-113380000D03*
X77200000Y-113380000D03*
D37*
X76050000Y-113380000D03*
X75050000Y-113380000D03*
X74550000Y-113380000D03*
X73550000Y-113380000D03*
D36*
X72400000Y-113380000D03*
X71600000Y-113380000D03*
X71600000Y-113380000D03*
X72400000Y-113380000D03*
D37*
X73050000Y-113380000D03*
X74050000Y-113380000D03*
X75550000Y-113380000D03*
X76550000Y-113380000D03*
D36*
X77200000Y-113380000D03*
X78000000Y-113380000D03*
D38*
X79120000Y-112805000D03*
D39*
X79120000Y-108625000D03*
D38*
X70480000Y-112805000D03*
D39*
X70480000Y-108625000D03*
D26*
X93920000Y-125200000D03*
X94880000Y-125200000D03*
X98920000Y-118200000D03*
X99880000Y-118200000D03*
D40*
X108950000Y-110400000D03*
X111450000Y-110400000D03*
D41*
X87675000Y-113700000D03*
X86125000Y-113700000D03*
D26*
X93920000Y-126200000D03*
X94880000Y-126200000D03*
D42*
X87100000Y-109690000D03*
X87100000Y-110710000D03*
D43*
X88900000Y-127120000D03*
X88900000Y-128080000D03*
X89000000Y-124320000D03*
X89000000Y-125280000D03*
D42*
X105900000Y-122690000D03*
X105900000Y-123710000D03*
D24*
X85380000Y-119700000D03*
X84420000Y-119700000D03*
D44*
X90250000Y-125400000D03*
X90250000Y-126650000D03*
X90250000Y-127900000D03*
X90250000Y-129150000D03*
X92400000Y-129150000D03*
X92400000Y-127900000D03*
X92400000Y-126650000D03*
X92400000Y-125400000D03*
D23*
X109700001Y-121950001D03*
X109700001Y-121450002D03*
X109700001Y-120950000D03*
X109700001Y-120450001D03*
X109700001Y-119950000D03*
X109700001Y-119450000D03*
X109700001Y-118950002D03*
X109700001Y-118450000D03*
X109700001Y-117950001D03*
X109700001Y-117449999D03*
X113100002Y-121950001D03*
X113100002Y-121450002D03*
X113100002Y-120950000D03*
X113100002Y-120450001D03*
X113100002Y-119950000D03*
X113100002Y-119450000D03*
X113100002Y-118950002D03*
X113100002Y-118450000D03*
X113100002Y-117950001D03*
X113100002Y-117449999D03*
D43*
X80900000Y-122720000D03*
X80900000Y-123680000D03*
D45*
X96437500Y-110650000D03*
X96437500Y-108750000D03*
X94162500Y-109700000D03*
D46*
X75150000Y-130105000D03*
X75150000Y-128835000D03*
X75150000Y-127565000D03*
X75150000Y-126295000D03*
D47*
X83200000Y-117600000D03*
X97400000Y-121300000D03*
X74400000Y-119700000D03*
X89000000Y-126200000D03*
X74400000Y-118700000D03*
D48*
X89200000Y-129000000D03*
D49*
X86000000Y-116300000D03*
X86800000Y-112600000D03*
D47*
X95600000Y-125200000D03*
X102900000Y-116000000D03*
D50*
X103700000Y-126600000D03*
D47*
X105900000Y-124600000D03*
X74400000Y-117700000D03*
X108000000Y-114900000D03*
D49*
X105300000Y-112300000D03*
X86000000Y-114700000D03*
D47*
X83300000Y-121100000D03*
D49*
X106900000Y-112300000D03*
D47*
X83300000Y-120200000D03*
D50*
X79700000Y-123700000D03*
D47*
X100500000Y-124200000D03*
D50*
X98200000Y-108700000D03*
D47*
X74400000Y-120700000D03*
D49*
X91100000Y-112700000D03*
D48*
X87000000Y-128600000D03*
D49*
X106100000Y-112300000D03*
X85700000Y-115500000D03*
D47*
X90100000Y-124300000D03*
D51*
X89000000Y-115700000D03*
D49*
X108600000Y-116900000D03*
X114200000Y-114600000D03*
D47*
X86500000Y-119200000D03*
D49*
X114100000Y-113900000D03*
D50*
X73300000Y-125700000D03*
D47*
X81200000Y-120800000D03*
D49*
X114300000Y-117700000D03*
X114200000Y-115300000D03*
D47*
X89300000Y-108400000D03*
D49*
X114000000Y-113300000D03*
D50*
X79600000Y-131300000D03*
X81300000Y-131300000D03*
X77500000Y-130800000D03*
X78600000Y-130800000D03*
X77500000Y-129700000D03*
X78600000Y-129700000D03*
D47*
X70300000Y-118100000D03*
X71300000Y-118100000D03*
X78500000Y-117000000D03*
X71300000Y-117100000D03*
X70300000Y-117100000D03*
X71300000Y-116100000D03*
X70300000Y-116100000D03*
X70300000Y-115100000D03*
X71300000Y-115100000D03*
X77800000Y-115000000D03*
X76800000Y-111700000D03*
X75100000Y-110300000D03*
X73200000Y-112100000D03*
D49*
X92900000Y-124100000D03*
D50*
X98200000Y-110700000D03*
D47*
X109000000Y-113300000D03*
X110200000Y-113100000D03*
X108100000Y-123800000D03*
X111500000Y-121500000D03*
D49*
X105900000Y-121800000D03*
X111100000Y-118600000D03*
D47*
X108100000Y-118800000D03*
X107800000Y-117400000D03*
D52*
X112900000Y-116800000D03*
D50*
X79900000Y-124900000D03*
X73100000Y-127600000D03*
D47*
X98600000Y-115800000D03*
X99400000Y-116700000D03*
D50*
X73100000Y-128900000D03*
X80900000Y-125700000D03*
D47*
X97000000Y-113700000D03*
X96400000Y-112700000D03*
X95400000Y-112700000D03*
X94600000Y-113500000D03*
X90200000Y-113700000D03*
X83100000Y-112300000D03*
X96500000Y-123800000D03*
X94900000Y-124200000D03*
X90200000Y-114900000D03*
D53*
X87300000Y-130100000D02*
X87400000Y-130200000D01*
X87400000Y-130200000D02*
X95200000Y-130200000D01*
X95200000Y-130200000D02*
X95890000Y-129510000D01*
X95890000Y-129510000D02*
X95890000Y-128900000D01*
D54*
X82920000Y-125700000D02*
X84400000Y-125700000D01*
D55*
X81525000Y-108625000D02*
X81550000Y-108600000D01*
X102800000Y-116000000D02*
X102900000Y-116000000D01*
D54*
X78100000Y-113380000D02*
X78645000Y-113380000D01*
X100500000Y-124100000D02*
X99548008Y-123148008D01*
D56*
X86820000Y-112620000D02*
X86800000Y-112600000D01*
D54*
X71600000Y-113380000D02*
X71155000Y-113380000D01*
X94880000Y-126200000D02*
X94880000Y-125200000D01*
X100500000Y-124200000D02*
X100500000Y-124100000D01*
X99880000Y-118200000D02*
X100680000Y-117400000D01*
D56*
X98150000Y-108750000D02*
X98200000Y-108700000D01*
X91760589Y-113160589D02*
X91300000Y-112700000D01*
D53*
X83800000Y-119700000D02*
X84420000Y-119700000D01*
X89000000Y-125280000D02*
X89000000Y-126200000D01*
D54*
X80900000Y-123680000D02*
X79720000Y-123680000D01*
X100680000Y-117400000D02*
X101525000Y-117400000D01*
D55*
X98250000Y-126600000D02*
X102350000Y-126600000D01*
D53*
X96800000Y-120700000D02*
X97400000Y-121300000D01*
X84420000Y-120700000D02*
X83700000Y-120700000D01*
X83700000Y-120700000D02*
X83300000Y-121100000D01*
D55*
X101150000Y-114350000D02*
X102800000Y-116000000D01*
D54*
X80900000Y-123680000D02*
X82920000Y-125700000D01*
X99880000Y-119200000D02*
X99880000Y-118200000D01*
D55*
X101525000Y-114725000D02*
X101150000Y-114350000D01*
X79120000Y-108625000D02*
X81525000Y-108625000D01*
D54*
X82800000Y-117200000D02*
X83200000Y-117600000D01*
D57*
X106900000Y-122710000D02*
X105900000Y-123710000D01*
D53*
X89200000Y-129000000D02*
X88900000Y-128700000D01*
X83300000Y-120200000D02*
X83800000Y-119700000D01*
D56*
X88900000Y-112620000D02*
X86820000Y-112620000D01*
D55*
X101525000Y-117400000D02*
X101525000Y-114725000D01*
D53*
X88900000Y-128700000D02*
X88900000Y-128080000D01*
D57*
X106900000Y-122690000D02*
X106900000Y-122710000D01*
X105900000Y-123710000D02*
X105900000Y-124600000D01*
D54*
X94880000Y-125200000D02*
X95600000Y-125200000D01*
X78645000Y-113380000D02*
X79220000Y-112805000D01*
D56*
X91300000Y-112700000D02*
X91100000Y-112700000D01*
D55*
X81550000Y-108600000D02*
X85650000Y-108600000D01*
D56*
X87000000Y-128600000D02*
X86305000Y-128600000D01*
D58*
X96437500Y-108750000D02*
X98150000Y-108750000D01*
D56*
X79720000Y-123680000D02*
X79700000Y-123700000D01*
D54*
X82000000Y-117200000D02*
X82800000Y-117200000D01*
X71155000Y-113380000D02*
X70580000Y-112805000D01*
D53*
X95937500Y-120700000D02*
X96800000Y-120700000D01*
D55*
X102350000Y-126600000D02*
X103700000Y-126600000D01*
D53*
X97700000Y-117200000D02*
X97700000Y-114500000D01*
X87720000Y-110710000D02*
X86160000Y-110710000D01*
X88610000Y-111600000D02*
X87720000Y-110710000D01*
X95937500Y-117900000D02*
X97000000Y-117900000D01*
X97000000Y-111600000D02*
X88610000Y-111600000D01*
X97000000Y-117900000D02*
X97700000Y-117200000D01*
X97700000Y-114500000D02*
X98000000Y-114200000D01*
X98000000Y-112600000D02*
X97000000Y-111600000D01*
D55*
X85650000Y-110200000D02*
X81550000Y-110200000D01*
D53*
X98000000Y-114200000D02*
X98000000Y-112600000D01*
X86160000Y-110710000D02*
X85650000Y-110200000D01*
D55*
X97550000Y-128900000D02*
X96910000Y-128900000D01*
X98250000Y-128200000D02*
X97550000Y-128900000D01*
X98250000Y-128200000D02*
X102350000Y-128200000D01*
D54*
X102201992Y-121351992D02*
X102500000Y-121650000D01*
X102500000Y-121650000D02*
X102500000Y-123150000D01*
D53*
X98451992Y-120951992D02*
X97800000Y-120300000D01*
D54*
X99151992Y-121351992D02*
X102201992Y-121351992D01*
X98451992Y-122051992D02*
X99151992Y-121351992D01*
D53*
X97800000Y-120300000D02*
X95937500Y-120300000D01*
X98451992Y-122051992D02*
X98451992Y-120951992D01*
D54*
X102500000Y-117975000D02*
X102500000Y-119450000D01*
X103075000Y-117400000D02*
X102500000Y-117975000D01*
X101550000Y-120400000D02*
X102500000Y-119450000D01*
X100010000Y-120400000D02*
X101550000Y-120400000D01*
D53*
X89062500Y-117900000D02*
X88500000Y-117900000D01*
X87880000Y-117280000D02*
X87880000Y-116200000D01*
X86400000Y-120700000D02*
X85380000Y-120700000D01*
X95937500Y-119100000D02*
X98000000Y-119100000D01*
X98000000Y-119100000D02*
X98900000Y-118200000D01*
X89062500Y-119900000D02*
X87200000Y-119900000D01*
X98900000Y-118200000D02*
X98920000Y-118200000D01*
X87200000Y-119900000D02*
X86400000Y-120700000D01*
X89900000Y-117900000D02*
X90100000Y-118100000D01*
X88500000Y-117900000D02*
X87880000Y-117280000D01*
X89062500Y-119900000D02*
X90300000Y-119900000D01*
X95937500Y-119100000D02*
X94700000Y-119100000D01*
X89062500Y-117900000D02*
X89900000Y-117900000D01*
X93500000Y-123137500D02*
X93500000Y-124780000D01*
D59*
X80900000Y-122720000D02*
X81200000Y-122420000D01*
D53*
X86800000Y-119500000D02*
X86500000Y-119200000D01*
D58*
X90250000Y-126650000D02*
X90250000Y-125400000D01*
D53*
X93500000Y-116262500D02*
X93500000Y-114900000D01*
X89062500Y-119500000D02*
X86800000Y-119500000D01*
D58*
X89780000Y-127120000D02*
X88900000Y-127120000D01*
D57*
X108600000Y-116900000D02*
X108600000Y-117700000D01*
D55*
X89300000Y-108400000D02*
X90000000Y-109100000D01*
D53*
X98620000Y-119500000D02*
X98920000Y-119200000D01*
D57*
X113500000Y-113900000D02*
X113200000Y-114200000D01*
D53*
X89062500Y-117500000D02*
X89062500Y-117100000D01*
D54*
X78130000Y-118930000D02*
X78130000Y-119950000D01*
D55*
X89300000Y-108400000D02*
X88600000Y-109100000D01*
D53*
X82415000Y-122720000D02*
X82495000Y-122800000D01*
X96400000Y-126900000D02*
X96910000Y-127410000D01*
X93500000Y-122500000D02*
X93200000Y-122200000D01*
D55*
X76800000Y-123800000D02*
X79390000Y-121210000D01*
D53*
X90200000Y-122200000D02*
X89900000Y-122500000D01*
D54*
X94910000Y-128200000D02*
X94910000Y-127200000D01*
D55*
X75200000Y-123800000D02*
X76800000Y-123800000D01*
D57*
X76100002Y-118950002D02*
X77130002Y-118950002D01*
X113200000Y-114900000D02*
X113200000Y-115400000D01*
D58*
X89170000Y-124320000D02*
X90250000Y-125400000D01*
D55*
X78130000Y-119950000D02*
X79390000Y-121210000D01*
D53*
X94910000Y-127200000D02*
X93920000Y-126210000D01*
D57*
X77130002Y-118950002D02*
X77390000Y-119210000D01*
D59*
X81200000Y-122420000D02*
X81200000Y-120800000D01*
D57*
X113500000Y-113300000D02*
X113200000Y-113600000D01*
D53*
X89062500Y-119100000D02*
X89062500Y-119500000D01*
D57*
X113300000Y-115300000D02*
X113200000Y-115400000D01*
D53*
X93200000Y-122200000D02*
X90200000Y-122200000D01*
D57*
X108850001Y-117950001D02*
X109700001Y-117950001D01*
D54*
X93920000Y-125200000D02*
X93920000Y-126200000D01*
D53*
X89900000Y-123137500D02*
X89000000Y-124037500D01*
X89900000Y-122500000D02*
X89900000Y-123137500D01*
X93500000Y-123137500D02*
X93500000Y-122500000D01*
D55*
X88600000Y-109100000D02*
X87690000Y-109100000D01*
D57*
X114200000Y-114600000D02*
X113500000Y-114600000D01*
D53*
X93500000Y-114900000D02*
X92439411Y-113839411D01*
X89000000Y-124037500D02*
X89000000Y-124320000D01*
X95937500Y-119500000D02*
X95200000Y-119500000D01*
D57*
X114200000Y-115300000D02*
X113300000Y-115300000D01*
X113200000Y-111200000D02*
X113200000Y-113600000D01*
X113200000Y-115400000D02*
X114000000Y-116200000D01*
D53*
X95200000Y-119500000D02*
X94900000Y-119800000D01*
X113100002Y-121950001D02*
X113949999Y-121950001D01*
D57*
X113500000Y-114600000D02*
X113200000Y-114900000D01*
X112400000Y-110400000D02*
X113200000Y-111200000D01*
X113200000Y-114200000D02*
X113200000Y-114900000D01*
D53*
X94900000Y-121100000D02*
X93500000Y-122500000D01*
D57*
X113200000Y-113600000D02*
X113200000Y-114200000D01*
D59*
X79390000Y-121210000D02*
X80900000Y-122720000D01*
D57*
X108600000Y-117700000D02*
X108850001Y-117950001D01*
D54*
X77390000Y-119210000D02*
X78130000Y-119950000D01*
D58*
X90250000Y-126650000D02*
X89780000Y-127120000D01*
D53*
X113949999Y-121950001D02*
X114400000Y-121500000D01*
D55*
X73300000Y-125700000D02*
X75200000Y-123800000D01*
X90000000Y-109100000D02*
X90375000Y-109100000D01*
D57*
X114000000Y-113300000D02*
X113500000Y-113300000D01*
X76100002Y-117950001D02*
X77150001Y-117950001D01*
D53*
X89000000Y-124320000D02*
X89170000Y-124320000D01*
X93500000Y-124780000D02*
X93920000Y-125200000D01*
D57*
X114000000Y-116200000D02*
X114000000Y-116400000D01*
D53*
X93920000Y-126210000D02*
X93920000Y-126200000D01*
X94910000Y-127200000D02*
X95210000Y-126900000D01*
D57*
X77150001Y-117950001D02*
X77400000Y-118200000D01*
D53*
X86600000Y-119700000D02*
X85380000Y-119700000D01*
D55*
X87690000Y-109100000D02*
X87100000Y-109690000D01*
D53*
X89900000Y-123137500D02*
X89900000Y-124100000D01*
D59*
X80900000Y-122720000D02*
X82415000Y-122720000D01*
D53*
X96910000Y-127410000D02*
X96910000Y-127800000D01*
X94900000Y-119800000D02*
X94900000Y-121100000D01*
X89900000Y-124100000D02*
X90100000Y-124300000D01*
D57*
X111450000Y-110400000D02*
X112400000Y-110400000D01*
D54*
X77400000Y-118200000D02*
X78130000Y-118930000D01*
D57*
X114100000Y-113900000D02*
X113500000Y-113900000D01*
D53*
X95937500Y-119500000D02*
X98620000Y-119500000D01*
X86800000Y-119500000D02*
X86600000Y-119700000D01*
X95210000Y-126900000D02*
X96400000Y-126900000D01*
D57*
X76100002Y-119950000D02*
X78130000Y-119950000D01*
D60*
X82250000Y-118400000D02*
X84090000Y-118400000D01*
X82000000Y-118150000D02*
X82250000Y-118400000D01*
X84090000Y-118400000D02*
X84390000Y-118700000D01*
X82000000Y-116250000D02*
X82940000Y-116250000D01*
X82940000Y-116250000D02*
X84390000Y-117700000D01*
X74800000Y-112200000D02*
X75300000Y-112200000D01*
X74550000Y-113380000D02*
X74550000Y-112450000D01*
X74550000Y-112450000D02*
X74800000Y-112200000D01*
X75550000Y-112450000D02*
X75550000Y-113380000D01*
X75300000Y-112200000D02*
X75550000Y-112450000D01*
X75550000Y-114350000D02*
X75550000Y-113380000D01*
X79800000Y-116250000D02*
X77450000Y-116250000D01*
X77450000Y-116250000D02*
X75550000Y-114350000D01*
D57*
X77150000Y-120950000D02*
X77300000Y-121100000D01*
X77300000Y-121100000D02*
X77300000Y-121700000D01*
D56*
X76800000Y-112300000D02*
X77200000Y-112700000D01*
D53*
X77300000Y-113380000D02*
X77300000Y-114500000D01*
D57*
X77300000Y-121700000D02*
X77049999Y-121950001D01*
D53*
X79800000Y-117200000D02*
X78700000Y-117200000D01*
D56*
X77200000Y-112700000D02*
X77200000Y-113380000D01*
D53*
X78700000Y-117200000D02*
X78500000Y-117000000D01*
X77300000Y-114500000D02*
X77800000Y-115000000D01*
D56*
X76800000Y-111700000D02*
X76800000Y-112300000D01*
D57*
X76100002Y-120950000D02*
X77150000Y-120950000D01*
X77049999Y-121950001D02*
X76100002Y-121950001D01*
D60*
X74050000Y-114350000D02*
X74650000Y-114950000D01*
X78350000Y-118150000D02*
X75150000Y-114950000D01*
X79800000Y-118150000D02*
X78350000Y-118150000D01*
X75050000Y-114850000D02*
X75050000Y-113380000D01*
D53*
X75150000Y-114950000D02*
X75050000Y-114850000D01*
D60*
X74650000Y-114950000D02*
X75150000Y-114950000D01*
X74050000Y-113380000D02*
X74050000Y-114350000D01*
D55*
X94162500Y-109700000D02*
X94162500Y-109937500D01*
X93400000Y-110700000D02*
X92175000Y-110700000D01*
X94162500Y-109937500D02*
X93400000Y-110700000D01*
D57*
X92025000Y-109100000D02*
X90425000Y-110700000D01*
D56*
X76050000Y-113380000D02*
X76050000Y-111250000D01*
X76050000Y-111250000D02*
X75100000Y-110300000D01*
D53*
X73050000Y-112250000D02*
X73050000Y-113380000D01*
X73200000Y-112100000D02*
X73050000Y-112250000D01*
X98200000Y-110700000D02*
X96487500Y-110700000D01*
X96487500Y-110700000D02*
X96437500Y-110650000D01*
X92700000Y-123900000D02*
X92700000Y-123137500D01*
X92900000Y-124100000D02*
X92700000Y-123900000D01*
X98490000Y-119900000D02*
X98990000Y-120400000D01*
X95937500Y-119900000D02*
X98490000Y-119900000D01*
D60*
X87400000Y-118700000D02*
X87100000Y-118400000D01*
X85710000Y-118400000D02*
X85410000Y-118700000D01*
X87100000Y-118400000D02*
X85710000Y-118400000D01*
D53*
X89062500Y-118700000D02*
X87400000Y-118700000D01*
X88100000Y-118300000D02*
X87800000Y-118000000D01*
D60*
X87800000Y-118000000D02*
X87500000Y-117700000D01*
D53*
X89062500Y-118300000D02*
X88100000Y-118300000D01*
D60*
X87500000Y-117700000D02*
X85410000Y-117700000D01*
D53*
X86800000Y-130100000D02*
X83995000Y-130100000D01*
X88200000Y-129200000D02*
X87300000Y-130100000D01*
X88200000Y-123162500D02*
X88200000Y-129200000D01*
X89062500Y-122300000D02*
X88200000Y-123162500D01*
X87300000Y-130100000D02*
X86800000Y-130100000D01*
X83995000Y-130100000D02*
X82495000Y-128600000D01*
X95890000Y-128900000D02*
X95890000Y-127800000D01*
X104600000Y-115500000D02*
X104600000Y-124500000D01*
X109000000Y-113300000D02*
X106800000Y-113300000D01*
X106800000Y-113300000D02*
X104600000Y-115500000D01*
X104600000Y-124500000D02*
X104200000Y-124900000D01*
X104200000Y-124900000D02*
X99900000Y-124900000D01*
X96900000Y-121900000D02*
X95937500Y-121900000D01*
X99900000Y-124900000D02*
X96900000Y-121900000D01*
X109300000Y-114000000D02*
X106800000Y-114000000D01*
X99600000Y-125400000D02*
X96500000Y-122300000D01*
X96500000Y-122300000D02*
X95937500Y-122300000D01*
X106800000Y-114000000D02*
X105000000Y-115800000D01*
X105000000Y-115800000D02*
X105000000Y-124800000D01*
X104400000Y-125400000D02*
X99600000Y-125400000D01*
X105000000Y-124800000D02*
X104400000Y-125400000D01*
X110200000Y-113100000D02*
X109300000Y-114000000D01*
D56*
X108100000Y-123800000D02*
X106990000Y-123800000D01*
X106990000Y-123800000D02*
X106900000Y-123710000D01*
X105900000Y-121800000D02*
X105900000Y-122690000D01*
D53*
X93600000Y-127200000D02*
X93300000Y-126900000D01*
X91900000Y-124300000D02*
X91900000Y-124900000D01*
X93300000Y-126300000D02*
X92400000Y-125400000D01*
X92300000Y-123900000D02*
X91900000Y-124300000D01*
X92300000Y-123137500D02*
X92300000Y-123900000D01*
X93300000Y-126900000D02*
X93300000Y-126300000D01*
X93890000Y-127200000D02*
X93600000Y-127200000D01*
X91900000Y-124900000D02*
X92400000Y-125400000D01*
X93890000Y-128200000D02*
X92400000Y-126710000D01*
X91400000Y-124200000D02*
X91400000Y-125700000D01*
X91900000Y-123137500D02*
X91900000Y-123700000D01*
X92350000Y-126650000D02*
X92400000Y-126650000D01*
X92400000Y-126710000D02*
X92400000Y-126650000D01*
X91900000Y-123700000D02*
X91400000Y-124200000D01*
X91400000Y-125700000D02*
X92350000Y-126650000D01*
X87700000Y-129000000D02*
X87700000Y-122700000D01*
X83765000Y-128600000D02*
X84765000Y-129600000D01*
X87100000Y-129600000D02*
X87700000Y-129000000D01*
X84765000Y-129600000D02*
X87100000Y-129600000D01*
X88500000Y-121900000D02*
X89062500Y-121900000D01*
X87700000Y-122700000D02*
X88500000Y-121900000D01*
X85800000Y-127700000D02*
X86700000Y-127700000D01*
X86900000Y-127500000D02*
X86900000Y-122700000D01*
X86700000Y-127700000D02*
X86900000Y-127500000D01*
X85035000Y-128465000D02*
X85800000Y-127700000D01*
X88100000Y-121500000D02*
X89062500Y-121500000D01*
X86900000Y-122700000D02*
X88100000Y-121500000D01*
X85035000Y-128600000D02*
X85035000Y-128465000D01*
X86305000Y-122800000D02*
X86305000Y-122695000D01*
X87900000Y-121100000D02*
X89062500Y-121100000D01*
X86305000Y-122695000D02*
X87900000Y-121100000D01*
X85400000Y-121800000D02*
X86600000Y-121800000D01*
X85035000Y-122800000D02*
X85035000Y-122165000D01*
X87700000Y-120700000D02*
X89062500Y-120700000D01*
X85035000Y-122165000D02*
X85400000Y-121800000D01*
X86600000Y-121800000D02*
X87700000Y-120700000D01*
X87400000Y-120300000D02*
X89062500Y-120300000D01*
X85165000Y-121400000D02*
X86300000Y-121400000D01*
X86300000Y-121400000D02*
X87400000Y-120300000D01*
X83765000Y-122800000D02*
X85165000Y-121400000D01*
X106300000Y-120350000D02*
X106550000Y-120350000D01*
X106550000Y-120350000D02*
X108100000Y-118800000D01*
X107800000Y-117400000D02*
X107350000Y-117850000D01*
X107350000Y-117850000D02*
X106300000Y-117850000D01*
D61*
X102612500Y-110387500D02*
X102600000Y-110400000D01*
D58*
X111000000Y-111900000D02*
X107500000Y-111900000D01*
X112900000Y-116800000D02*
X111500000Y-115400000D01*
D55*
X105762500Y-110387500D02*
X105775000Y-110400000D01*
D58*
X106000000Y-110400000D02*
X105775000Y-110400000D01*
X111500000Y-112400000D02*
X111000000Y-111900000D01*
D55*
X104300000Y-110387500D02*
X102612500Y-110387500D01*
X104300000Y-110387500D02*
X105762500Y-110387500D01*
D58*
X107500000Y-111900000D02*
X106000000Y-110400000D01*
X111500000Y-115400000D02*
X111500000Y-112400000D01*
D59*
X108950000Y-110400000D02*
X107425000Y-110400000D01*
D53*
X97200000Y-118300000D02*
X95937500Y-118300000D01*
X98600000Y-116900000D02*
X97200000Y-118300000D01*
X98600000Y-115800000D02*
X98600000Y-116900000D01*
X99400000Y-116700000D02*
X97400000Y-118700000D01*
X97400000Y-118700000D02*
X95937500Y-118700000D01*
X97000000Y-113700000D02*
X97000000Y-117300000D01*
X97000000Y-117300000D02*
X96800000Y-117500000D01*
X96800000Y-117500000D02*
X95937500Y-117500000D01*
X96400000Y-112700000D02*
X95937500Y-113162500D01*
X95937500Y-113162500D02*
X95937500Y-117100000D01*
X95100000Y-116262500D02*
X95100000Y-114700000D01*
X95400000Y-114400000D02*
X95400000Y-112700000D01*
X95100000Y-114700000D02*
X95400000Y-114400000D01*
X94600000Y-113500000D02*
X94700000Y-113600000D01*
X94700000Y-113600000D02*
X94700000Y-116262500D01*
X93100000Y-115400000D02*
X93100000Y-116262500D01*
X92200000Y-114500000D02*
X93100000Y-115400000D01*
X91000000Y-114500000D02*
X92200000Y-114500000D01*
X90200000Y-113700000D02*
X91000000Y-114500000D01*
X92400000Y-112000000D02*
X83400000Y-112000000D01*
X93900000Y-113500000D02*
X92400000Y-112000000D01*
X93900000Y-116262500D02*
X93900000Y-113500000D01*
X83400000Y-112000000D02*
X83100000Y-112300000D01*
X95100000Y-123137500D02*
X95837500Y-123137500D01*
X95837500Y-123137500D02*
X96500000Y-123800000D01*
X94700000Y-124000000D02*
X94900000Y-124200000D01*
X94700000Y-123137500D02*
X94700000Y-124000000D01*
X90200000Y-114900000D02*
X92000000Y-114900000D01*
X92000000Y-114900000D02*
X92700000Y-115600000D01*
X92700000Y-115600000D02*
X92700000Y-116262500D01*
G04 #@! TA.AperFunction,Conductor*
G36*
X111113181Y-114613181D02*
G01*
X111146666Y-114674504D01*
X111149500Y-114700862D01*
X111149500Y-115350788D01*
X111146861Y-115376232D01*
X111144957Y-115385311D01*
X111144957Y-115385317D01*
X111149023Y-115417937D01*
X111149500Y-115425614D01*
X111149500Y-115429040D01*
X111152232Y-115445420D01*
X111152876Y-115449276D01*
X111153245Y-115451808D01*
X111159427Y-115501393D01*
X111161520Y-115508426D01*
X111163907Y-115515379D01*
X111163908Y-115515381D01*
X111169458Y-115525637D01*
X111187691Y-115559330D01*
X111188864Y-115561608D01*
X111210802Y-115606484D01*
X111210804Y-115606486D01*
X111215071Y-115612464D01*
X111219582Y-115618259D01*
X111256341Y-115652098D01*
X111258190Y-115653872D01*
X112478068Y-116873750D01*
X112508315Y-116923105D01*
X112509535Y-116926860D01*
X112509538Y-116926867D01*
X112509539Y-116926868D01*
X112567854Y-117041318D01*
X112567856Y-117041320D01*
X112567858Y-117041323D01*
X112658676Y-117132141D01*
X112658680Y-117132144D01*
X112658682Y-117132146D01*
X112773132Y-117190461D01*
X112773134Y-117190461D01*
X112773136Y-117190462D01*
X112899998Y-117210555D01*
X112900000Y-117210555D01*
X112900001Y-117210555D01*
X112922205Y-117207037D01*
X112956601Y-117201590D01*
X113025895Y-117210544D01*
X113079347Y-117255540D01*
X113099987Y-117322292D01*
X113100000Y-117324063D01*
X113100000Y-117500501D01*
X113080315Y-117567540D01*
X113027511Y-117613295D01*
X112976000Y-117624501D01*
X112480249Y-117624501D01*
X112421772Y-117636132D01*
X112421771Y-117636133D01*
X112355449Y-117680448D01*
X112311134Y-117746770D01*
X112311133Y-117746771D01*
X112299502Y-117805248D01*
X112299502Y-118094753D01*
X112311133Y-118153230D01*
X112311134Y-118153231D01*
X112355449Y-118219553D01*
X112421771Y-118263868D01*
X112421772Y-118263869D01*
X112480249Y-118275500D01*
X112480252Y-118275501D01*
X112480254Y-118275501D01*
X112976000Y-118275501D01*
X113043039Y-118295186D01*
X113088794Y-118347990D01*
X113100000Y-118399501D01*
X113100000Y-118500502D01*
X113080315Y-118567541D01*
X113027511Y-118613296D01*
X112976000Y-118624502D01*
X112480249Y-118624502D01*
X112421772Y-118636133D01*
X112421771Y-118636134D01*
X112355449Y-118680449D01*
X112311134Y-118746771D01*
X112311133Y-118746772D01*
X112299502Y-118805249D01*
X112299502Y-119094754D01*
X112311133Y-119153231D01*
X112311134Y-119153232D01*
X112355449Y-119219554D01*
X112421771Y-119263869D01*
X112421772Y-119263870D01*
X112480249Y-119275501D01*
X112480252Y-119275502D01*
X112480254Y-119275502D01*
X112976000Y-119275502D01*
X113043039Y-119295187D01*
X113088794Y-119347991D01*
X113100000Y-119399502D01*
X113100000Y-119500500D01*
X113080315Y-119567539D01*
X113027511Y-119613294D01*
X112976000Y-119624500D01*
X112480249Y-119624500D01*
X112421772Y-119636131D01*
X112421771Y-119636132D01*
X112355449Y-119680447D01*
X112311134Y-119746769D01*
X112311133Y-119746770D01*
X112299502Y-119805247D01*
X112299502Y-120094752D01*
X112311133Y-120153229D01*
X112311134Y-120153230D01*
X112355449Y-120219552D01*
X112421771Y-120263867D01*
X112421772Y-120263868D01*
X112480249Y-120275499D01*
X112480252Y-120275500D01*
X112480254Y-120275500D01*
X112976000Y-120275500D01*
X113043039Y-120295185D01*
X113088794Y-120347989D01*
X113100000Y-120399500D01*
X113100000Y-120500500D01*
X113080315Y-120567539D01*
X113027511Y-120613294D01*
X112976000Y-120624500D01*
X112480249Y-120624500D01*
X112421772Y-120636131D01*
X112421771Y-120636132D01*
X112355449Y-120680447D01*
X112311134Y-120746769D01*
X112311133Y-120746770D01*
X112299502Y-120805247D01*
X112299502Y-121094752D01*
X112311133Y-121153229D01*
X112311134Y-121153230D01*
X112355449Y-121219552D01*
X112421771Y-121263867D01*
X112421772Y-121263868D01*
X112480249Y-121275499D01*
X112480252Y-121275500D01*
X112480254Y-121275500D01*
X112976000Y-121275500D01*
X113043039Y-121295185D01*
X113088794Y-121347989D01*
X113100000Y-121399500D01*
X113100000Y-121500501D01*
X113080315Y-121567540D01*
X113027511Y-121613295D01*
X112976000Y-121624501D01*
X112480249Y-121624501D01*
X112421772Y-121636132D01*
X112421771Y-121636133D01*
X112357465Y-121679102D01*
X112290788Y-121699980D01*
X112288574Y-121700000D01*
X112220746Y-121700000D01*
X112153707Y-121680315D01*
X112107952Y-121627511D01*
X112097807Y-121559814D01*
X112105682Y-121499999D01*
X112105682Y-121499998D01*
X112085044Y-121343239D01*
X112085044Y-121343238D01*
X112024536Y-121197159D01*
X111928282Y-121071718D01*
X111802841Y-120975464D01*
X111656762Y-120914956D01*
X111656760Y-120914955D01*
X111500001Y-120894318D01*
X111499999Y-120894318D01*
X111343239Y-120914955D01*
X111343237Y-120914956D01*
X111197160Y-120975463D01*
X111071718Y-121071718D01*
X110975463Y-121197160D01*
X110914956Y-121343237D01*
X110914955Y-121343239D01*
X110894318Y-121499998D01*
X110894318Y-121499999D01*
X110902193Y-121559814D01*
X110891428Y-121628849D01*
X110845048Y-121681105D01*
X110779254Y-121700000D01*
X110511429Y-121700000D01*
X110444390Y-121680315D01*
X110442538Y-121679102D01*
X110378231Y-121636133D01*
X110378230Y-121636132D01*
X110319753Y-121624501D01*
X110319749Y-121624501D01*
X109980616Y-121624501D01*
X109920084Y-121608722D01*
X109900937Y-121598012D01*
X109900934Y-121598011D01*
X109900935Y-121598011D01*
X109833903Y-121578328D01*
X109833899Y-121578327D01*
X109833898Y-121578327D01*
X109822853Y-121576738D01*
X109759301Y-121547714D01*
X109721527Y-121488935D01*
X109721528Y-121419066D01*
X109759304Y-121360288D01*
X109822860Y-121331264D01*
X109840505Y-121330002D01*
X109875991Y-121330002D01*
X109876000Y-121330002D01*
X109919684Y-121325305D01*
X109971195Y-121314099D01*
X109981373Y-121311612D01*
X110021802Y-121290067D01*
X110080117Y-121275500D01*
X110319751Y-121275500D01*
X110319752Y-121275499D01*
X110334569Y-121272552D01*
X110378230Y-121263868D01*
X110378230Y-121263867D01*
X110378232Y-121263867D01*
X110444553Y-121219552D01*
X110488868Y-121153231D01*
X110488868Y-121153229D01*
X110488869Y-121153229D01*
X110500500Y-121094752D01*
X110500501Y-121094750D01*
X110500501Y-120805249D01*
X110500500Y-120805247D01*
X110488869Y-120746770D01*
X110488868Y-120746769D01*
X110444553Y-120680447D01*
X110378231Y-120636132D01*
X110378230Y-120636131D01*
X110319753Y-120624500D01*
X110319749Y-120624500D01*
X110080616Y-120624500D01*
X110020084Y-120608721D01*
X110000937Y-120598011D01*
X110000934Y-120598010D01*
X110000935Y-120598010D01*
X109933897Y-120578325D01*
X109898099Y-120573178D01*
X109834544Y-120544152D01*
X109796771Y-120485373D01*
X109796773Y-120415504D01*
X109834548Y-120356726D01*
X109898104Y-120327703D01*
X109902429Y-120327159D01*
X109919684Y-120325304D01*
X109971195Y-120314098D01*
X109981373Y-120311611D01*
X110021800Y-120290067D01*
X110080115Y-120275500D01*
X110319751Y-120275500D01*
X110319752Y-120275499D01*
X110334569Y-120272552D01*
X110378230Y-120263868D01*
X110378230Y-120263867D01*
X110378232Y-120263867D01*
X110444553Y-120219552D01*
X110488868Y-120153231D01*
X110488868Y-120153229D01*
X110488869Y-120153229D01*
X110500500Y-120094752D01*
X110500501Y-120094750D01*
X110500501Y-119805249D01*
X110500500Y-119805247D01*
X110488869Y-119746770D01*
X110488868Y-119746769D01*
X110444553Y-119680447D01*
X110378231Y-119636132D01*
X110378230Y-119636131D01*
X110319753Y-119624500D01*
X110319749Y-119624500D01*
X110080618Y-119624500D01*
X110020085Y-119608721D01*
X110000937Y-119598010D01*
X110000935Y-119598009D01*
X109933897Y-119578324D01*
X109898099Y-119573177D01*
X109834544Y-119544151D01*
X109796771Y-119485372D01*
X109796773Y-119415503D01*
X109834548Y-119356725D01*
X109898104Y-119327702D01*
X109902429Y-119327158D01*
X109919684Y-119325303D01*
X109971195Y-119314097D01*
X109981373Y-119311610D01*
X110021795Y-119290069D01*
X110080109Y-119275502D01*
X110319751Y-119275502D01*
X110319752Y-119275501D01*
X110334569Y-119272554D01*
X110378230Y-119263870D01*
X110378230Y-119263869D01*
X110378232Y-119263869D01*
X110444553Y-119219554D01*
X110488868Y-119153233D01*
X110488868Y-119153231D01*
X110488869Y-119153231D01*
X110500500Y-119094754D01*
X110500501Y-119094752D01*
X110500501Y-118928530D01*
X110520186Y-118861491D01*
X110572990Y-118815736D01*
X110642148Y-118805792D01*
X110705704Y-118834817D01*
X110718208Y-118847321D01*
X110801951Y-118943967D01*
X110910931Y-119014004D01*
X111035225Y-119050499D01*
X111035227Y-119050500D01*
X111035228Y-119050500D01*
X111164773Y-119050500D01*
X111164773Y-119050499D01*
X111289069Y-119014004D01*
X111398049Y-118943967D01*
X111482882Y-118846063D01*
X111536697Y-118728226D01*
X111555133Y-118600000D01*
X111536697Y-118471774D01*
X111482882Y-118353937D01*
X111398049Y-118256033D01*
X111289069Y-118185996D01*
X111289065Y-118185994D01*
X111289064Y-118185994D01*
X111164774Y-118149500D01*
X111164772Y-118149500D01*
X111035228Y-118149500D01*
X111035226Y-118149500D01*
X110910935Y-118185994D01*
X110910932Y-118185995D01*
X110910931Y-118185996D01*
X110884169Y-118203195D01*
X110801950Y-118256033D01*
X110717118Y-118353937D01*
X110717117Y-118353938D01*
X110663302Y-118471774D01*
X110644762Y-118600727D01*
X110615737Y-118664283D01*
X110556959Y-118702057D01*
X110487089Y-118702057D01*
X110453133Y-118686182D01*
X110378231Y-118636134D01*
X110378230Y-118636133D01*
X110319753Y-118624502D01*
X110319749Y-118624502D01*
X110080622Y-118624502D01*
X110020086Y-118608721D01*
X110000940Y-118598011D01*
X109933903Y-118578326D01*
X109933899Y-118578325D01*
X109933898Y-118578325D01*
X109876000Y-118570000D01*
X109875996Y-118570000D01*
X109139130Y-118570000D01*
X109072091Y-118550315D01*
X109071174Y-118549720D01*
X109068233Y-118547793D01*
X109038169Y-118533903D01*
X109013510Y-118522510D01*
X109013508Y-118522509D01*
X109013505Y-118522508D01*
X108999779Y-118518478D01*
X108941002Y-118480703D01*
X108911977Y-118417147D01*
X108921921Y-118347989D01*
X108967676Y-118295185D01*
X109034715Y-118275501D01*
X110319751Y-118275501D01*
X110319752Y-118275500D01*
X110334569Y-118272553D01*
X110378230Y-118263869D01*
X110378230Y-118263868D01*
X110378232Y-118263868D01*
X110444553Y-118219553D01*
X110488868Y-118153232D01*
X110488868Y-118153230D01*
X110488869Y-118153230D01*
X110500500Y-118094753D01*
X110500501Y-118094751D01*
X110500501Y-117805250D01*
X110500500Y-117805248D01*
X110488869Y-117746771D01*
X110488868Y-117746770D01*
X110444553Y-117680448D01*
X110378231Y-117636133D01*
X110378230Y-117636132D01*
X110319753Y-117624501D01*
X110319749Y-117624501D01*
X109728476Y-117624501D01*
X109049500Y-117624501D01*
X108982461Y-117604816D01*
X108936706Y-117552012D01*
X108925500Y-117500502D01*
X108925500Y-117500501D01*
X108925500Y-117258532D01*
X108945183Y-117191496D01*
X108955778Y-117177342D01*
X108982882Y-117146063D01*
X109036697Y-117028226D01*
X109055133Y-116900000D01*
X109036697Y-116771774D01*
X108982882Y-116653937D01*
X108982880Y-116653935D01*
X108982879Y-116653932D01*
X108930286Y-116593235D01*
X108901262Y-116529679D01*
X108900000Y-116512034D01*
X108900000Y-115400000D01*
X108900000Y-114600000D01*
X111100000Y-114600000D01*
X111113181Y-114613181D01*
G37*
G04 #@! TD.AperFunction*
G04 #@! TA.AperFunction,Conductor*
G36*
X108955612Y-118719685D02*
G01*
X108957465Y-118720899D01*
X109021769Y-118763867D01*
X109021771Y-118763868D01*
X109080248Y-118775499D01*
X109080251Y-118775500D01*
X109876000Y-118775500D01*
X109943039Y-118795185D01*
X109988794Y-118847989D01*
X110000000Y-118899500D01*
X110000000Y-119000500D01*
X109980315Y-119067539D01*
X109927511Y-119113294D01*
X109876000Y-119124500D01*
X109080248Y-119124500D01*
X109021771Y-119136131D01*
X109021770Y-119136132D01*
X108955448Y-119180447D01*
X108911133Y-119246769D01*
X108911132Y-119246770D01*
X108899501Y-119305247D01*
X108899501Y-119594752D01*
X108911132Y-119653229D01*
X108911133Y-119653230D01*
X108955448Y-119719552D01*
X109021770Y-119763867D01*
X109021771Y-119763868D01*
X109080248Y-119775499D01*
X109080251Y-119775500D01*
X109876000Y-119775500D01*
X109943039Y-119795185D01*
X109988794Y-119847989D01*
X110000000Y-119899500D01*
X110000000Y-120000501D01*
X109980315Y-120067540D01*
X109927511Y-120113295D01*
X109876000Y-120124501D01*
X109080248Y-120124501D01*
X109021771Y-120136132D01*
X109021770Y-120136133D01*
X108955448Y-120180448D01*
X108911133Y-120246770D01*
X108911132Y-120246771D01*
X108899501Y-120305248D01*
X108899501Y-120594753D01*
X108911132Y-120653230D01*
X108911133Y-120653231D01*
X108955448Y-120719553D01*
X109021770Y-120763868D01*
X109021771Y-120763869D01*
X109080248Y-120775500D01*
X109080251Y-120775501D01*
X109876000Y-120775501D01*
X109943039Y-120795186D01*
X109988794Y-120847990D01*
X110000000Y-120899501D01*
X110000000Y-121000502D01*
X109980315Y-121067541D01*
X109927511Y-121113296D01*
X109876000Y-121124502D01*
X109080248Y-121124502D01*
X109021771Y-121136133D01*
X109021770Y-121136134D01*
X108955448Y-121180449D01*
X108911133Y-121246771D01*
X108911132Y-121246772D01*
X108899501Y-121305249D01*
X108899501Y-121594754D01*
X108911132Y-121653231D01*
X108911133Y-121653232D01*
X108955448Y-121719554D01*
X109021770Y-121763869D01*
X109021771Y-121763870D01*
X109080248Y-121775501D01*
X109080251Y-121775502D01*
X109080253Y-121775502D01*
X109776000Y-121775502D01*
X109843039Y-121795187D01*
X109888794Y-121847991D01*
X109900000Y-121899502D01*
X109900000Y-131648638D01*
X109880315Y-131715677D01*
X109863681Y-131736319D01*
X109736819Y-131863181D01*
X109675496Y-131896666D01*
X109649138Y-131899500D01*
X104800000Y-131899500D01*
X104800000Y-129300000D01*
X107700000Y-125900000D01*
X107700000Y-124469866D01*
X107719684Y-124402831D01*
X107772487Y-124357076D01*
X107841646Y-124347132D01*
X107871450Y-124355308D01*
X107943238Y-124385044D01*
X108021619Y-124395362D01*
X108099999Y-124405682D01*
X108100000Y-124405682D01*
X108100001Y-124405682D01*
X108152254Y-124398802D01*
X108256762Y-124385044D01*
X108402841Y-124324536D01*
X108528282Y-124228282D01*
X108624536Y-124102841D01*
X108685044Y-123956762D01*
X108705682Y-123800000D01*
X108685044Y-123643238D01*
X108624536Y-123497159D01*
X108528282Y-123371718D01*
X108402841Y-123275464D01*
X108316016Y-123239500D01*
X108256762Y-123214956D01*
X108256760Y-123214955D01*
X108100001Y-123194318D01*
X108099999Y-123194318D01*
X107943239Y-123214955D01*
X107943238Y-123214956D01*
X107871450Y-123244691D01*
X107801981Y-123252159D01*
X107739502Y-123220883D01*
X107703850Y-123160794D01*
X107700000Y-123130136D01*
X107700000Y-119676328D01*
X107719684Y-119609293D01*
X107736312Y-119588658D01*
X107897073Y-119427896D01*
X107958394Y-119394413D01*
X108000936Y-119392640D01*
X108100000Y-119405682D01*
X108100001Y-119405682D01*
X108152254Y-119398802D01*
X108256762Y-119385044D01*
X108402841Y-119324536D01*
X108528282Y-119228282D01*
X108624536Y-119102841D01*
X108685044Y-118956762D01*
X108704653Y-118807814D01*
X108732919Y-118743918D01*
X108791244Y-118705447D01*
X108827592Y-118700000D01*
X108888573Y-118700000D01*
X108955612Y-118719685D01*
G37*
G04 #@! TD.AperFunction*
G04 #@! TA.AperFunction,Conductor*
G36*
X76829895Y-117119685D02*
G01*
X76850537Y-117136319D01*
X76863681Y-117149463D01*
X76897166Y-117210786D01*
X76900000Y-117237144D01*
X76900000Y-117500501D01*
X76880315Y-117567540D01*
X76827511Y-117613295D01*
X76776000Y-117624501D01*
X75480249Y-117624501D01*
X75421772Y-117636132D01*
X75421771Y-117636133D01*
X75355449Y-117680448D01*
X75311134Y-117746770D01*
X75311133Y-117746771D01*
X75299502Y-117805248D01*
X75299502Y-118094753D01*
X75311133Y-118153230D01*
X75311134Y-118153231D01*
X75355449Y-118219553D01*
X75421771Y-118263868D01*
X75421772Y-118263869D01*
X75480249Y-118275500D01*
X75480252Y-118275501D01*
X75480254Y-118275501D01*
X76071527Y-118275501D01*
X76776000Y-118275501D01*
X76843039Y-118295186D01*
X76888794Y-118347990D01*
X76900000Y-118399501D01*
X76900000Y-118500502D01*
X76880315Y-118567541D01*
X76827511Y-118613296D01*
X76776000Y-118624502D01*
X75480249Y-118624502D01*
X75421772Y-118636133D01*
X75421771Y-118636134D01*
X75355449Y-118680449D01*
X75311134Y-118746771D01*
X75311133Y-118746772D01*
X75299502Y-118805249D01*
X75299502Y-119094754D01*
X75311133Y-119153231D01*
X75311134Y-119153232D01*
X75355449Y-119219554D01*
X75421771Y-119263869D01*
X75421772Y-119263870D01*
X75480249Y-119275501D01*
X75480252Y-119275502D01*
X75480254Y-119275502D01*
X76071527Y-119275502D01*
X76776000Y-119275502D01*
X76843039Y-119295187D01*
X76888794Y-119347991D01*
X76900000Y-119399502D01*
X76900000Y-119500500D01*
X76880315Y-119567539D01*
X76827511Y-119613294D01*
X76776000Y-119624500D01*
X75480249Y-119624500D01*
X75421772Y-119636131D01*
X75421771Y-119636132D01*
X75355449Y-119680447D01*
X75311134Y-119746769D01*
X75311133Y-119746770D01*
X75299502Y-119805247D01*
X75299502Y-120094752D01*
X75311133Y-120153229D01*
X75311134Y-120153230D01*
X75355449Y-120219552D01*
X75421771Y-120263867D01*
X75421772Y-120263868D01*
X75480249Y-120275499D01*
X75480252Y-120275500D01*
X75480254Y-120275500D01*
X76071527Y-120275500D01*
X76776000Y-120275500D01*
X76843039Y-120295185D01*
X76888794Y-120347989D01*
X76900000Y-120399500D01*
X76900000Y-120500500D01*
X76880315Y-120567539D01*
X76827511Y-120613294D01*
X76776000Y-120624500D01*
X75480249Y-120624500D01*
X75421772Y-120636131D01*
X75421771Y-120636132D01*
X75355449Y-120680447D01*
X75311134Y-120746769D01*
X75311133Y-120746770D01*
X75299502Y-120805247D01*
X75299502Y-121094752D01*
X75311133Y-121153229D01*
X75311134Y-121153230D01*
X75355449Y-121219552D01*
X75421771Y-121263867D01*
X75421772Y-121263868D01*
X75480249Y-121275499D01*
X75480252Y-121275500D01*
X75480254Y-121275500D01*
X76071527Y-121275500D01*
X76776000Y-121275500D01*
X76843039Y-121295185D01*
X76888794Y-121347989D01*
X76900000Y-121399500D01*
X76900000Y-121470500D01*
X76880315Y-121537539D01*
X76827511Y-121583294D01*
X76776000Y-121594500D01*
X73454947Y-121594500D01*
X73420012Y-121589477D01*
X73382046Y-121578329D01*
X73382044Y-121578328D01*
X73382038Y-121578327D01*
X73324386Y-121570037D01*
X73260833Y-121541012D01*
X73223059Y-121482233D01*
X73223060Y-121412363D01*
X73260836Y-121353586D01*
X73316752Y-121327458D01*
X73316438Y-121326011D01*
X73319682Y-121325305D01*
X73319684Y-121325305D01*
X73371195Y-121314099D01*
X73381373Y-121311612D01*
X73462085Y-121268602D01*
X73514889Y-121222847D01*
X73532843Y-121205256D01*
X73577490Y-121125439D01*
X73597175Y-121058400D01*
X73605500Y-121000502D01*
X73605500Y-120899501D01*
X73600803Y-120855817D01*
X73589597Y-120804306D01*
X73587110Y-120794128D01*
X73544100Y-120713416D01*
X73498345Y-120660612D01*
X73498339Y-120660605D01*
X73480757Y-120642661D01*
X73480756Y-120642660D01*
X73480754Y-120642658D01*
X73480752Y-120642657D01*
X73480750Y-120642655D01*
X73400940Y-120598012D01*
X73400935Y-120598010D01*
X73333897Y-120578325D01*
X73298099Y-120573178D01*
X73234544Y-120544152D01*
X73196771Y-120485373D01*
X73196773Y-120415504D01*
X73234548Y-120356726D01*
X73298104Y-120327703D01*
X73302429Y-120327159D01*
X73319684Y-120325304D01*
X73371195Y-120314098D01*
X73381373Y-120311611D01*
X73462085Y-120268601D01*
X73514889Y-120222846D01*
X73532843Y-120205255D01*
X73577490Y-120125438D01*
X73597175Y-120058399D01*
X73605500Y-120000501D01*
X73605500Y-119899500D01*
X73600803Y-119855816D01*
X73589597Y-119804305D01*
X73587110Y-119794127D01*
X73544100Y-119713415D01*
X73498345Y-119660611D01*
X73498339Y-119660604D01*
X73480757Y-119642660D01*
X73480756Y-119642659D01*
X73480754Y-119642657D01*
X73480752Y-119642656D01*
X73480750Y-119642654D01*
X73400940Y-119598011D01*
X73400935Y-119598009D01*
X73333897Y-119578324D01*
X73298099Y-119573177D01*
X73234544Y-119544151D01*
X73196771Y-119485372D01*
X73196773Y-119415503D01*
X73234548Y-119356725D01*
X73298104Y-119327702D01*
X73302429Y-119327158D01*
X73319684Y-119325303D01*
X73371195Y-119314097D01*
X73381373Y-119311610D01*
X73462085Y-119268600D01*
X73514889Y-119222845D01*
X73532843Y-119205254D01*
X73577490Y-119125437D01*
X73597175Y-119058398D01*
X73605500Y-119000500D01*
X73605500Y-118899500D01*
X73600803Y-118855816D01*
X73589597Y-118804305D01*
X73587110Y-118794127D01*
X73544100Y-118713415D01*
X73498345Y-118660611D01*
X73498339Y-118660604D01*
X73480757Y-118642660D01*
X73480756Y-118642659D01*
X73480754Y-118642657D01*
X73480752Y-118642656D01*
X73480750Y-118642654D01*
X73400940Y-118598011D01*
X73400935Y-118598009D01*
X73333897Y-118578324D01*
X73298099Y-118573177D01*
X73234544Y-118544151D01*
X73196771Y-118485372D01*
X73196773Y-118415503D01*
X73234548Y-118356725D01*
X73298104Y-118327702D01*
X73302429Y-118327158D01*
X73319684Y-118325303D01*
X73371195Y-118314097D01*
X73381373Y-118311610D01*
X73462085Y-118268600D01*
X73514889Y-118222845D01*
X73532843Y-118205254D01*
X73577490Y-118125437D01*
X73597175Y-118058398D01*
X73605500Y-118000500D01*
X73605500Y-117899499D01*
X73600803Y-117855815D01*
X73589597Y-117804304D01*
X73587110Y-117794126D01*
X73544100Y-117713414D01*
X73498345Y-117660610D01*
X73498339Y-117660603D01*
X73480757Y-117642659D01*
X73480756Y-117642658D01*
X73480754Y-117642656D01*
X73480752Y-117642655D01*
X73480750Y-117642653D01*
X73400940Y-117598010D01*
X73400935Y-117598008D01*
X73333897Y-117578323D01*
X73298099Y-117573176D01*
X73234544Y-117544150D01*
X73196771Y-117485371D01*
X73196773Y-117415502D01*
X73234548Y-117356724D01*
X73298104Y-117327701D01*
X73302429Y-117327157D01*
X73319684Y-117325302D01*
X73371195Y-117314096D01*
X73381373Y-117311609D01*
X73462085Y-117268599D01*
X73514889Y-117222844D01*
X73532843Y-117205253D01*
X73556217Y-117163465D01*
X73606124Y-117114567D01*
X73664437Y-117100000D01*
X76762856Y-117100000D01*
X76829895Y-117119685D01*
G37*
G04 #@! TD.AperFunction*
G04 #@! TA.AperFunction,Conductor*
G36*
X72652293Y-112619685D02*
G01*
X72698048Y-112672489D01*
X72707992Y-112741647D01*
X72706871Y-112748191D01*
X72699500Y-112785247D01*
X72699500Y-113974752D01*
X72711131Y-114033229D01*
X72711132Y-114033230D01*
X72755447Y-114099552D01*
X72821769Y-114143867D01*
X72821770Y-114143868D01*
X72880247Y-114155499D01*
X72880250Y-114155500D01*
X72880252Y-114155500D01*
X73219749Y-114155500D01*
X73251808Y-114149123D01*
X73321399Y-114155350D01*
X73376577Y-114198212D01*
X73399822Y-114264102D01*
X73400000Y-114270740D01*
X73400000Y-117000499D01*
X73380315Y-117067538D01*
X73327511Y-117113293D01*
X73276000Y-117124499D01*
X72080248Y-117124499D01*
X72021771Y-117136130D01*
X72021770Y-117136131D01*
X71955448Y-117180446D01*
X71911133Y-117246768D01*
X71911132Y-117246769D01*
X71899501Y-117305246D01*
X71899501Y-117594751D01*
X71911132Y-117653228D01*
X71911133Y-117653229D01*
X71955448Y-117719551D01*
X72021770Y-117763866D01*
X72021771Y-117763867D01*
X72080248Y-117775498D01*
X72080251Y-117775499D01*
X73276000Y-117775499D01*
X73343039Y-117795184D01*
X73388794Y-117847988D01*
X73400000Y-117899499D01*
X73400000Y-118000500D01*
X73380315Y-118067539D01*
X73327511Y-118113294D01*
X73276000Y-118124500D01*
X72080248Y-118124500D01*
X72021771Y-118136131D01*
X72021770Y-118136132D01*
X71955448Y-118180447D01*
X71911133Y-118246769D01*
X71911132Y-118246770D01*
X71899501Y-118305247D01*
X71899501Y-118594752D01*
X71911132Y-118653229D01*
X71911133Y-118653230D01*
X71955448Y-118719552D01*
X72021770Y-118763867D01*
X72021771Y-118763868D01*
X72080248Y-118775499D01*
X72080251Y-118775500D01*
X73276000Y-118775500D01*
X73343039Y-118795185D01*
X73388794Y-118847989D01*
X73400000Y-118899500D01*
X73400000Y-119000500D01*
X73380315Y-119067539D01*
X73327511Y-119113294D01*
X73276000Y-119124500D01*
X72080248Y-119124500D01*
X72021771Y-119136131D01*
X72021770Y-119136132D01*
X71955448Y-119180447D01*
X71911133Y-119246769D01*
X71911132Y-119246770D01*
X71899501Y-119305247D01*
X71899501Y-119594752D01*
X71911132Y-119653229D01*
X71911133Y-119653230D01*
X71955448Y-119719552D01*
X72021770Y-119763867D01*
X72021771Y-119763868D01*
X72080248Y-119775499D01*
X72080251Y-119775500D01*
X73276000Y-119775500D01*
X73343039Y-119795185D01*
X73388794Y-119847989D01*
X73400000Y-119899500D01*
X73400000Y-120000501D01*
X73380315Y-120067540D01*
X73327511Y-120113295D01*
X73276000Y-120124501D01*
X72080248Y-120124501D01*
X72021771Y-120136132D01*
X72021770Y-120136133D01*
X71955448Y-120180448D01*
X71911133Y-120246770D01*
X71911132Y-120246771D01*
X71899501Y-120305248D01*
X71899501Y-120594753D01*
X71911132Y-120653230D01*
X71911133Y-120653231D01*
X71955448Y-120719553D01*
X72021770Y-120763868D01*
X72021771Y-120763869D01*
X72080248Y-120775500D01*
X72080251Y-120775501D01*
X73276000Y-120775501D01*
X73343039Y-120795186D01*
X73388794Y-120847990D01*
X73400000Y-120899501D01*
X73400000Y-121000502D01*
X73380315Y-121067541D01*
X73327511Y-121113296D01*
X73276000Y-121124502D01*
X72080248Y-121124502D01*
X72021771Y-121136133D01*
X72021770Y-121136134D01*
X71955448Y-121180449D01*
X71911133Y-121246771D01*
X71911132Y-121246772D01*
X71899501Y-121305249D01*
X71899501Y-121594754D01*
X71911132Y-121653231D01*
X71911133Y-121653232D01*
X71955448Y-121719554D01*
X72021770Y-121763869D01*
X72021771Y-121763870D01*
X72080248Y-121775501D01*
X72080251Y-121775502D01*
X73324140Y-121775502D01*
X73391179Y-121795187D01*
X73397152Y-121800000D01*
X71700000Y-121800000D01*
X71700000Y-122300000D01*
X69824500Y-122300000D01*
X69757461Y-122280315D01*
X69711706Y-122227511D01*
X69700500Y-122176000D01*
X69700500Y-113856763D01*
X69720185Y-113789724D01*
X69772989Y-113743969D01*
X69842147Y-113734025D01*
X69905703Y-113763050D01*
X69926547Y-113786320D01*
X69951817Y-113822929D01*
X69957504Y-113827967D01*
X70079150Y-113935736D01*
X70229773Y-114014789D01*
X70229775Y-114014790D01*
X70394944Y-114055500D01*
X70565056Y-114055500D01*
X70730225Y-114014790D01*
X70809692Y-113973081D01*
X70880849Y-113935736D01*
X70880850Y-113935734D01*
X70880852Y-113935734D01*
X70898444Y-113920148D01*
X70961673Y-113890427D01*
X71030937Y-113899608D01*
X71084242Y-113944779D01*
X71102288Y-113988770D01*
X71111132Y-114033230D01*
X71155447Y-114099552D01*
X71221769Y-114143867D01*
X71221770Y-114143868D01*
X71280247Y-114155499D01*
X71280250Y-114155500D01*
X71280252Y-114155500D01*
X71919750Y-114155500D01*
X71919751Y-114155499D01*
X71934568Y-114152552D01*
X71978229Y-114143868D01*
X71978229Y-114143867D01*
X71978231Y-114143867D01*
X72044552Y-114099552D01*
X72088867Y-114033231D01*
X72088867Y-114033229D01*
X72088868Y-114033229D01*
X72100499Y-113974752D01*
X72100500Y-113974750D01*
X72100500Y-112876518D01*
X72120185Y-112809479D01*
X72172989Y-112763724D01*
X72175077Y-112762793D01*
X72185609Y-112758219D01*
X72297665Y-112667054D01*
X72307944Y-112652491D01*
X72362688Y-112609074D01*
X72409249Y-112600000D01*
X72585254Y-112600000D01*
X72652293Y-112619685D01*
G37*
G04 #@! TD.AperFunction*
G04 #@! TA.AperFunction,Conductor*
G36*
X114642539Y-115819685D02*
G01*
X114688294Y-115872489D01*
X114699500Y-115924000D01*
X114699500Y-121576000D01*
X114679815Y-121643039D01*
X114627011Y-121688794D01*
X114575500Y-121700000D01*
X114024502Y-121700000D01*
X113957463Y-121680315D01*
X113911708Y-121627511D01*
X113900502Y-121576000D01*
X113900502Y-121305251D01*
X113900501Y-121305249D01*
X113888870Y-121246772D01*
X113888869Y-121246771D01*
X113844554Y-121180449D01*
X113778232Y-121136134D01*
X113778231Y-121136133D01*
X113719754Y-121124502D01*
X113719750Y-121124502D01*
X113324000Y-121124502D01*
X113256961Y-121104817D01*
X113211206Y-121052013D01*
X113200000Y-121000502D01*
X113200000Y-120899501D01*
X113219685Y-120832462D01*
X113272489Y-120786707D01*
X113324000Y-120775501D01*
X113719752Y-120775501D01*
X113719753Y-120775500D01*
X113734570Y-120772553D01*
X113778231Y-120763869D01*
X113778231Y-120763868D01*
X113778233Y-120763868D01*
X113844554Y-120719553D01*
X113888869Y-120653232D01*
X113888869Y-120653230D01*
X113888870Y-120653230D01*
X113900501Y-120594753D01*
X113900502Y-120594751D01*
X113900502Y-120305250D01*
X113900501Y-120305248D01*
X113888870Y-120246771D01*
X113888869Y-120246770D01*
X113844554Y-120180448D01*
X113778232Y-120136133D01*
X113778231Y-120136132D01*
X113719754Y-120124501D01*
X113719750Y-120124501D01*
X113324000Y-120124501D01*
X113256961Y-120104816D01*
X113211206Y-120052012D01*
X113200000Y-120000501D01*
X113200000Y-119899500D01*
X113219685Y-119832461D01*
X113272489Y-119786706D01*
X113324000Y-119775500D01*
X113719752Y-119775500D01*
X113719753Y-119775499D01*
X113734570Y-119772552D01*
X113778231Y-119763868D01*
X113778231Y-119763867D01*
X113778233Y-119763867D01*
X113844554Y-119719552D01*
X113888869Y-119653231D01*
X113888869Y-119653229D01*
X113888870Y-119653229D01*
X113900501Y-119594752D01*
X113900502Y-119594750D01*
X113900502Y-119305249D01*
X113900501Y-119305247D01*
X113888870Y-119246770D01*
X113888869Y-119246769D01*
X113844554Y-119180447D01*
X113778232Y-119136132D01*
X113778231Y-119136131D01*
X113719754Y-119124500D01*
X113719750Y-119124500D01*
X113324000Y-119124500D01*
X113256961Y-119104815D01*
X113211206Y-119052011D01*
X113200000Y-119000500D01*
X113200000Y-118899500D01*
X113219685Y-118832461D01*
X113272489Y-118786706D01*
X113324000Y-118775500D01*
X113719752Y-118775500D01*
X113719753Y-118775499D01*
X113734570Y-118772552D01*
X113778231Y-118763868D01*
X113778231Y-118763867D01*
X113778233Y-118763867D01*
X113844554Y-118719552D01*
X113888869Y-118653231D01*
X113888869Y-118653229D01*
X113888870Y-118653229D01*
X113900501Y-118594752D01*
X113900502Y-118594750D01*
X113900502Y-118305249D01*
X113900501Y-118305247D01*
X113888870Y-118246770D01*
X113888869Y-118246769D01*
X113844554Y-118180447D01*
X113778232Y-118136132D01*
X113778231Y-118136131D01*
X113719754Y-118124500D01*
X113719750Y-118124500D01*
X113324000Y-118124500D01*
X113256961Y-118104815D01*
X113211206Y-118052011D01*
X113200000Y-118000500D01*
X113200000Y-117899499D01*
X113219685Y-117832460D01*
X113272489Y-117786705D01*
X113324000Y-117775499D01*
X113719752Y-117775499D01*
X113719753Y-117775498D01*
X113734570Y-117772551D01*
X113778231Y-117763867D01*
X113778231Y-117763866D01*
X113778233Y-117763866D01*
X113844554Y-117719551D01*
X113888869Y-117653230D01*
X113888869Y-117653228D01*
X113888870Y-117653228D01*
X113900501Y-117594751D01*
X113900502Y-117594749D01*
X113900502Y-117305248D01*
X113900501Y-117305246D01*
X113888870Y-117246769D01*
X113888869Y-117246768D01*
X113844554Y-117180446D01*
X113778232Y-117136131D01*
X113778231Y-117136130D01*
X113719754Y-117124499D01*
X113719750Y-117124499D01*
X113392112Y-117124499D01*
X113325073Y-117104814D01*
X113279318Y-117052010D01*
X113269374Y-116982852D01*
X113281625Y-116944208D01*
X113290461Y-116926868D01*
X113310555Y-116800000D01*
X113290461Y-116673132D01*
X113242386Y-116578779D01*
X113229491Y-116510115D01*
X113255767Y-116445375D01*
X113265182Y-116434817D01*
X113863680Y-115836318D01*
X113925004Y-115802834D01*
X113951362Y-115800000D01*
X114575500Y-115800000D01*
X114642539Y-115819685D01*
G37*
G04 #@! TD.AperFunction*
G04 #@! TA.AperFunction,Conductor*
G36*
X90661281Y-112320185D02*
G01*
X90707036Y-112372989D01*
X90716980Y-112442147D01*
X90707036Y-112476011D01*
X90663303Y-112571772D01*
X90663302Y-112571773D01*
X90644867Y-112700000D01*
X90663302Y-112828225D01*
X90708330Y-112926820D01*
X90717118Y-112946063D01*
X90801951Y-113043967D01*
X90910931Y-113114004D01*
X91035225Y-113150499D01*
X91035227Y-113150500D01*
X91080815Y-113150500D01*
X91147854Y-113170185D01*
X91193609Y-113222989D01*
X91197337Y-113232090D01*
X91241955Y-113354679D01*
X91241956Y-113354680D01*
X91272398Y-113394353D01*
X91272406Y-113394362D01*
X91526818Y-113648773D01*
X91526827Y-113648781D01*
X91558316Y-113672944D01*
X91566499Y-113679223D01*
X91679337Y-113720292D01*
X91679339Y-113720292D01*
X91799413Y-113720292D01*
X91799415Y-113720292D01*
X91912253Y-113679223D01*
X91951931Y-113648776D01*
X92248775Y-113351931D01*
X92279223Y-113312253D01*
X92320292Y-113199415D01*
X92320292Y-113079337D01*
X92279223Y-112966499D01*
X92248776Y-112926820D01*
X91994358Y-112672403D01*
X91994357Y-112672402D01*
X91994350Y-112672396D01*
X91954683Y-112641958D01*
X91954682Y-112641957D01*
X91954679Y-112641955D01*
X91876017Y-112613325D01*
X91841841Y-112600886D01*
X91721763Y-112600886D01*
X91721762Y-112600886D01*
X91699758Y-112608895D01*
X91630029Y-112613325D01*
X91569669Y-112580053D01*
X91531759Y-112542143D01*
X91506647Y-112505977D01*
X91492961Y-112476008D01*
X91483019Y-112406852D01*
X91512044Y-112343297D01*
X91570823Y-112305523D01*
X91605757Y-112300500D01*
X92224167Y-112300500D01*
X92291206Y-112320185D01*
X92311847Y-112336818D01*
X93463682Y-113488653D01*
X93497166Y-113549974D01*
X93500000Y-113576332D01*
X93500000Y-114976000D01*
X93480315Y-115043039D01*
X93427511Y-115088794D01*
X93376000Y-115100000D01*
X93276333Y-115100000D01*
X93209294Y-115080315D01*
X93188652Y-115063681D01*
X92456922Y-114331951D01*
X92451278Y-114325465D01*
X92443956Y-114315770D01*
X92408624Y-114283560D01*
X92406573Y-114281602D01*
X92392797Y-114267826D01*
X92390586Y-114266311D01*
X92383853Y-114260978D01*
X92360933Y-114240084D01*
X92354470Y-114237580D01*
X92329192Y-114224256D01*
X92323481Y-114220344D01*
X92323478Y-114220343D01*
X92323479Y-114220343D01*
X92293302Y-114213244D01*
X92285094Y-114210703D01*
X92256173Y-114199500D01*
X92249249Y-114199500D01*
X92220858Y-114196206D01*
X92214119Y-114194621D01*
X92183409Y-114198905D01*
X92174834Y-114199500D01*
X91175833Y-114199500D01*
X91108794Y-114179815D01*
X91088152Y-114163181D01*
X90827898Y-113902927D01*
X90794413Y-113841604D01*
X90792640Y-113799063D01*
X90805682Y-113700000D01*
X90795738Y-113624471D01*
X90785044Y-113543239D01*
X90785044Y-113543238D01*
X90724536Y-113397159D01*
X90628282Y-113271718D01*
X90502841Y-113175464D01*
X90490096Y-113170185D01*
X90356762Y-113114956D01*
X90356760Y-113114955D01*
X90200001Y-113094318D01*
X90199999Y-113094318D01*
X90043239Y-113114955D01*
X90043237Y-113114956D01*
X89897160Y-113175463D01*
X89771718Y-113271718D01*
X89400000Y-112900000D01*
X89400000Y-112880817D01*
X89403123Y-112858946D01*
X89402734Y-112858895D01*
X89406771Y-112828225D01*
X89410500Y-112799901D01*
X89410499Y-112440100D01*
X89410499Y-112440099D01*
X89410499Y-112440096D01*
X89410234Y-112436054D01*
X89411307Y-112435983D01*
X89421344Y-112371645D01*
X89467726Y-112319391D01*
X89533515Y-112300500D01*
X90594242Y-112300500D01*
X90661281Y-112320185D01*
G37*
G04 #@! TD.AperFunction*
G04 #@! TA.AperFunction,Conductor*
G36*
X94869994Y-117319652D02*
G01*
X94898724Y-117369414D01*
X94900000Y-117384000D01*
X94900000Y-119216000D01*
X94880348Y-119269994D01*
X94830586Y-119298724D01*
X94816000Y-119300000D01*
X94384499Y-119300000D01*
X94330505Y-119280348D01*
X94301775Y-119230586D01*
X94300499Y-119216000D01*
X94300499Y-118203644D01*
X94300498Y-118203636D01*
X94300358Y-118202565D01*
X94300000Y-118197088D01*
X94300000Y-117900000D01*
X94002913Y-117900000D01*
X93997429Y-117899640D01*
X93996363Y-117899500D01*
X93996359Y-117899500D01*
X91003644Y-117899500D01*
X91003633Y-117899501D01*
X91002574Y-117899641D01*
X90997092Y-117900000D01*
X90700000Y-117900000D01*
X90700000Y-118197083D01*
X90699641Y-118202564D01*
X90699500Y-118203637D01*
X90699500Y-119676519D01*
X90699501Y-120016000D01*
X90679849Y-120069994D01*
X90630087Y-120098724D01*
X90615501Y-120100000D01*
X90084000Y-120100000D01*
X90030006Y-120080348D01*
X90001276Y-120030586D01*
X90000000Y-120016000D01*
X90000000Y-117384000D01*
X90019652Y-117330006D01*
X90069414Y-117301276D01*
X90084000Y-117300000D01*
X94816000Y-117300000D01*
X94869994Y-117319652D01*
G37*
G04 #@! TD.AperFunction*
G04 #@! TA.AperFunction,Conductor*
G36*
X81443039Y-126819685D02*
G01*
X81488794Y-126872489D01*
X81500000Y-126924000D01*
X81500000Y-129400000D01*
X76900000Y-129400000D01*
X76900000Y-126924000D01*
X76919685Y-126856961D01*
X76972489Y-126811206D01*
X77024000Y-126800000D01*
X81376000Y-126800000D01*
X81443039Y-126819685D01*
G37*
G04 #@! TD.AperFunction*
G04 #@! TA.AperFunction,Conductor*
G36*
X111043039Y-114419685D02*
G01*
X111088794Y-114472489D01*
X111100000Y-114524000D01*
X111100000Y-115100000D01*
X110800000Y-115400000D01*
X107651362Y-115400000D01*
X107584323Y-115380315D01*
X107563681Y-115363681D01*
X107536319Y-115336319D01*
X107502834Y-115274996D01*
X107500000Y-115248638D01*
X107500000Y-114851362D01*
X107519685Y-114784323D01*
X107536319Y-114763681D01*
X107863681Y-114436319D01*
X107925004Y-114402834D01*
X107951362Y-114400000D01*
X110976000Y-114400000D01*
X111043039Y-114419685D01*
G37*
G04 #@! TD.AperFunction*
G04 #@! TA.AperFunction,Conductor*
G36*
X88408431Y-112919685D02*
G01*
X88442964Y-112952873D01*
X88446774Y-112958314D01*
X88446776Y-112958316D01*
X88531684Y-113043224D01*
X88640513Y-113093972D01*
X88690099Y-113100500D01*
X89109900Y-113100499D01*
X89159487Y-113093972D01*
X89268316Y-113043224D01*
X89353224Y-112958316D01*
X89354065Y-112956511D01*
X89378768Y-112921231D01*
X89399999Y-112900000D01*
X89400000Y-112900000D01*
X90000000Y-112900000D01*
X90000000Y-113132865D01*
X89897160Y-113175463D01*
X89771718Y-113271718D01*
X89675463Y-113397160D01*
X89614956Y-113543237D01*
X89614955Y-113543239D01*
X89594318Y-113699998D01*
X89594318Y-113700001D01*
X89614955Y-113856760D01*
X89614956Y-113856762D01*
X89675464Y-114002841D01*
X89771718Y-114128282D01*
X89867300Y-114201625D01*
X89908502Y-114258052D01*
X89912657Y-114327798D01*
X89878444Y-114388719D01*
X89867304Y-114398372D01*
X89771718Y-114471717D01*
X89771718Y-114471718D01*
X89675463Y-114597160D01*
X89614956Y-114743237D01*
X89614955Y-114743239D01*
X89594318Y-114899998D01*
X89594318Y-114900001D01*
X89614955Y-115056760D01*
X89614956Y-115056762D01*
X89675464Y-115202841D01*
X89771718Y-115328282D01*
X89897159Y-115424536D01*
X89897160Y-115424536D01*
X89897161Y-115424537D01*
X89923452Y-115435427D01*
X89977856Y-115479267D01*
X89999921Y-115545561D01*
X90000000Y-115549988D01*
X90000000Y-115842202D01*
X89999701Y-115848282D01*
X89999500Y-115850323D01*
X89999500Y-116674673D01*
X89999701Y-116676712D01*
X90000000Y-116682795D01*
X90000000Y-117032470D01*
X89980315Y-117099509D01*
X89938000Y-117139857D01*
X89916903Y-117152036D01*
X89916895Y-117152042D01*
X89876166Y-117182893D01*
X89876163Y-117182896D01*
X89826547Y-117259717D01*
X89826546Y-117259718D01*
X89806892Y-117313716D01*
X89794500Y-117383997D01*
X89794500Y-117475500D01*
X89774815Y-117542539D01*
X89722011Y-117588294D01*
X89670500Y-117599500D01*
X88675834Y-117599500D01*
X88608795Y-117579815D01*
X88588153Y-117563181D01*
X88216819Y-117191847D01*
X88183334Y-117130524D01*
X88180500Y-117104166D01*
X88180500Y-116742402D01*
X88200185Y-116675363D01*
X88216819Y-116654721D01*
X88251856Y-116619684D01*
X88303224Y-116568316D01*
X88353972Y-116459487D01*
X88360500Y-116409901D01*
X88360499Y-115990100D01*
X88353972Y-115940513D01*
X88303224Y-115831684D01*
X88218316Y-115746776D01*
X88109487Y-115696028D01*
X88109485Y-115696027D01*
X88109486Y-115696027D01*
X88059902Y-115689500D01*
X87700105Y-115689500D01*
X87684386Y-115691569D01*
X87650513Y-115696028D01*
X87650511Y-115696029D01*
X87650509Y-115696029D01*
X87541685Y-115746775D01*
X87487681Y-115800779D01*
X87426357Y-115834263D01*
X87356665Y-115829278D01*
X87312322Y-115800782D01*
X87312319Y-115800779D01*
X87299222Y-115787682D01*
X87265737Y-115726363D01*
X87270719Y-115656671D01*
X87299221Y-115612319D01*
X87299220Y-115612319D01*
X87343224Y-115568316D01*
X87393972Y-115459487D01*
X87400500Y-115409901D01*
X87400499Y-114990100D01*
X87393972Y-114940513D01*
X87343224Y-114831684D01*
X87258316Y-114746776D01*
X87250645Y-114739105D01*
X87251514Y-114738235D01*
X87214748Y-114692233D01*
X87205500Y-114645243D01*
X87205500Y-113024000D01*
X87225185Y-112956961D01*
X87277989Y-112911206D01*
X87329500Y-112900000D01*
X88341392Y-112900000D01*
X88408431Y-112919685D01*
G37*
G04 #@! TD.AperFunction*
G04 #@! TA.AperFunction,Conductor*
G36*
X82138025Y-129319685D02*
G01*
X82139873Y-129320895D01*
X82166769Y-129338867D01*
X82166772Y-129338867D01*
X82166773Y-129338868D01*
X82225247Y-129350499D01*
X82225250Y-129350500D01*
X82769167Y-129350500D01*
X82836206Y-129370185D01*
X82856848Y-129386819D01*
X83738078Y-130268049D01*
X83743721Y-130274533D01*
X83751041Y-130284226D01*
X83751042Y-130284228D01*
X83775659Y-130306669D01*
X83786375Y-130316439D01*
X83788423Y-130318394D01*
X83802203Y-130332174D01*
X83804413Y-130333688D01*
X83811143Y-130339018D01*
X83822016Y-130348930D01*
X83834064Y-130359914D01*
X83834065Y-130359914D01*
X83834067Y-130359916D01*
X83840530Y-130362419D01*
X83865807Y-130375743D01*
X83871519Y-130379656D01*
X83901702Y-130386754D01*
X83909903Y-130389294D01*
X83938827Y-130400500D01*
X83945751Y-130400500D01*
X83974141Y-130403793D01*
X83980881Y-130405379D01*
X84011590Y-130401095D01*
X84020166Y-130400500D01*
X86743827Y-130400500D01*
X87124288Y-130400500D01*
X87191327Y-130420185D01*
X87203511Y-130429108D01*
X87207195Y-130432167D01*
X87207198Y-130432169D01*
X87207203Y-130432174D01*
X87209413Y-130433688D01*
X87216143Y-130439018D01*
X87225245Y-130447316D01*
X87239064Y-130459914D01*
X87239065Y-130459914D01*
X87239067Y-130459916D01*
X87245530Y-130462419D01*
X87270807Y-130475743D01*
X87276519Y-130479656D01*
X87306702Y-130486754D01*
X87314903Y-130489294D01*
X87343827Y-130500500D01*
X87350751Y-130500500D01*
X87379141Y-130503793D01*
X87385881Y-130505379D01*
X87416590Y-130501095D01*
X87425166Y-130500500D01*
X95137159Y-130500500D01*
X95145733Y-130501095D01*
X95157761Y-130502772D01*
X95157761Y-130502771D01*
X95157765Y-130502773D01*
X95200920Y-130500778D01*
X95205510Y-130500566D01*
X95208373Y-130500500D01*
X95227843Y-130500500D01*
X95227844Y-130500500D01*
X95230468Y-130500009D01*
X95239021Y-130499016D01*
X95240245Y-130498959D01*
X95269992Y-130497585D01*
X95276322Y-130494789D01*
X95303629Y-130486332D01*
X95310433Y-130485061D01*
X95336797Y-130468736D01*
X95344392Y-130464733D01*
X95372765Y-130452206D01*
X95377661Y-130447309D01*
X95400069Y-130429561D01*
X95405952Y-130425919D01*
X95424649Y-130401158D01*
X95430266Y-130394703D01*
X96058059Y-129766910D01*
X96064532Y-129761279D01*
X96074224Y-129753959D01*
X96074228Y-129753958D01*
X96106459Y-129718600D01*
X96108367Y-129716602D01*
X96122174Y-129702797D01*
X96123684Y-129700592D01*
X96129023Y-129693851D01*
X96131763Y-129690844D01*
X96149916Y-129670933D01*
X96152416Y-129664478D01*
X96165749Y-129639182D01*
X96169656Y-129633481D01*
X96176757Y-129603285D01*
X96179292Y-129595101D01*
X96190500Y-129566173D01*
X96190500Y-129559248D01*
X96193795Y-129530855D01*
X96195378Y-129524123D01*
X96195379Y-129524119D01*
X96192740Y-129505203D01*
X96191096Y-129493411D01*
X96190500Y-129484843D01*
X96190500Y-129484842D01*
X96190500Y-129471187D01*
X96210176Y-129404150D01*
X96262975Y-129358389D01*
X96332133Y-129348438D01*
X96395692Y-129377456D01*
X96407314Y-129388951D01*
X96438365Y-129424000D01*
X96442071Y-129428183D01*
X96524157Y-129484843D01*
X96582068Y-129524817D01*
X96582069Y-129524817D01*
X96582070Y-129524818D01*
X96640043Y-129546804D01*
X96710949Y-129573695D01*
X96741128Y-129585140D01*
X96817028Y-129594356D01*
X96867626Y-129600500D01*
X96867628Y-129600500D01*
X97526952Y-129600500D01*
X97530697Y-129600613D01*
X97538042Y-129601057D01*
X97592606Y-129604358D01*
X97630314Y-129597447D01*
X97653621Y-129593177D01*
X97657325Y-129592613D01*
X97675170Y-129590446D01*
X97718872Y-129585140D01*
X97728335Y-129581550D01*
X97749961Y-129575522D01*
X97750893Y-129575351D01*
X97759932Y-129573695D01*
X97816512Y-129548229D01*
X97819942Y-129546809D01*
X97877930Y-129524818D01*
X97886266Y-129519062D01*
X97905821Y-129508034D01*
X97915057Y-129503878D01*
X97963896Y-129465613D01*
X97966876Y-129463421D01*
X98017929Y-129428183D01*
X98059080Y-129381731D01*
X98061600Y-129379055D01*
X98104337Y-129336318D01*
X98165661Y-129302833D01*
X98192018Y-129300000D01*
X104799999Y-129300000D01*
X104800000Y-129300000D01*
X104800000Y-131899500D01*
X77024000Y-131899500D01*
X76956961Y-131879815D01*
X76911206Y-131827011D01*
X76900000Y-131775500D01*
X76900000Y-129400000D01*
X81500000Y-129400000D01*
X81500000Y-129300000D01*
X82070986Y-129300000D01*
X82138025Y-129319685D01*
G37*
G04 #@! TD.AperFunction*
G04 #@! TA.AperFunction,Conductor*
G36*
X76843039Y-121819685D02*
G01*
X76888794Y-121872489D01*
X76900000Y-121924000D01*
X76900000Y-122176000D01*
X76880315Y-122243039D01*
X76827511Y-122288794D01*
X76776000Y-122300000D01*
X71700000Y-122300000D01*
X71700000Y-121800000D01*
X73397152Y-121800000D01*
X76776000Y-121800000D01*
X76843039Y-121819685D01*
G37*
G04 #@! TD.AperFunction*
G04 #@! TA.AperFunction,Conductor*
G36*
X86943039Y-112320185D02*
G01*
X86988794Y-112372989D01*
X87000000Y-112424500D01*
X87000000Y-116576000D01*
X86980315Y-116643039D01*
X86927511Y-116688794D01*
X86876000Y-116700000D01*
X85424000Y-116700000D01*
X85356961Y-116680315D01*
X85311206Y-116627511D01*
X85300000Y-116576000D01*
X85300000Y-112951361D01*
X85319685Y-112884322D01*
X85336314Y-112863685D01*
X85863181Y-112336818D01*
X85924504Y-112303334D01*
X85950862Y-112300500D01*
X86876000Y-112300500D01*
X86943039Y-112320185D01*
G37*
G04 #@! TD.AperFunction*
G04 #@! TA.AperFunction,Conductor*
G36*
X104725706Y-111519685D02*
G01*
X104733062Y-111524796D01*
X105100000Y-111800000D01*
X106852956Y-111800000D01*
X106919995Y-111819685D01*
X106940637Y-111836319D01*
X107217362Y-112113044D01*
X107233486Y-112132899D01*
X107238563Y-112140669D01*
X107252162Y-112151253D01*
X107292975Y-112207963D01*
X107300000Y-112249107D01*
X107300000Y-112875500D01*
X107280315Y-112942539D01*
X107227511Y-112988294D01*
X107176000Y-112999500D01*
X106862842Y-112999500D01*
X106854268Y-112998905D01*
X106842239Y-112997227D01*
X106842236Y-112997227D01*
X106817220Y-112998383D01*
X106794491Y-112999434D01*
X106791628Y-112999500D01*
X106772156Y-112999500D01*
X106769619Y-112999735D01*
X106763894Y-113000000D01*
X103724000Y-113000000D01*
X103656961Y-112980315D01*
X103611206Y-112927511D01*
X103600000Y-112876000D01*
X103600000Y-111624000D01*
X103619685Y-111556961D01*
X103672489Y-111511206D01*
X103724000Y-111500000D01*
X104658667Y-111500000D01*
X104725706Y-111519685D01*
G37*
G04 #@! TD.AperFunction*
G04 #@! TA.AperFunction,Conductor*
G36*
X91681271Y-127419685D02*
G01*
X91727026Y-127472489D01*
X91736970Y-127541647D01*
X91735850Y-127548190D01*
X91724500Y-127605252D01*
X91724500Y-128194752D01*
X91736131Y-128253229D01*
X91736132Y-128253230D01*
X91780447Y-128319552D01*
X91846769Y-128363867D01*
X91846770Y-128363868D01*
X91905247Y-128375499D01*
X91905250Y-128375500D01*
X91905252Y-128375500D01*
X92894749Y-128375500D01*
X92951808Y-128364150D01*
X93021399Y-128370377D01*
X93076577Y-128413239D01*
X93099822Y-128479129D01*
X93100000Y-128485767D01*
X93100000Y-129775500D01*
X93080315Y-129842539D01*
X93027511Y-129888294D01*
X92976000Y-129899500D01*
X88524000Y-129899500D01*
X88456961Y-129879815D01*
X88411206Y-129827011D01*
X88400000Y-129775500D01*
X88400000Y-129476315D01*
X88419685Y-129409276D01*
X88428603Y-129397098D01*
X88432168Y-129392804D01*
X88432170Y-129392800D01*
X88432174Y-129392797D01*
X88433684Y-129390592D01*
X88439023Y-129383851D01*
X88441763Y-129380844D01*
X88459916Y-129360933D01*
X88462416Y-129354478D01*
X88475749Y-129329182D01*
X88479656Y-129323481D01*
X88486757Y-129293285D01*
X88489292Y-129285101D01*
X88500500Y-129256173D01*
X88500500Y-129249248D01*
X88503795Y-129220855D01*
X88505378Y-129214123D01*
X88505379Y-129214119D01*
X88501095Y-129183408D01*
X88500500Y-129174833D01*
X88500500Y-127716933D01*
X88520185Y-127649894D01*
X88572989Y-127604139D01*
X88640683Y-127593994D01*
X88690099Y-127600500D01*
X89109900Y-127600499D01*
X89159487Y-127593972D01*
X89268316Y-127543224D01*
X89304720Y-127506819D01*
X89366044Y-127473334D01*
X89392402Y-127470500D01*
X89730789Y-127470500D01*
X89756234Y-127473138D01*
X89765315Y-127475043D01*
X89781005Y-127473087D01*
X89797939Y-127470977D01*
X89805615Y-127470500D01*
X89809035Y-127470500D01*
X89809040Y-127470500D01*
X89818303Y-127468954D01*
X89829278Y-127467123D01*
X89831811Y-127466753D01*
X89881393Y-127460573D01*
X89881399Y-127460569D01*
X89888451Y-127458470D01*
X89895377Y-127456092D01*
X89895381Y-127456092D01*
X89924266Y-127440459D01*
X89939329Y-127432308D01*
X89941590Y-127431143D01*
X89979531Y-127412596D01*
X90033986Y-127400000D01*
X91614232Y-127400000D01*
X91681271Y-127419685D01*
G37*
G04 #@! TD.AperFunction*
M02*
