G04 #@! TF.GenerationSoftware,KiCad,Pcbnew,7.0.5-0*
G04 #@! TF.CreationDate,2023-09-26T17:10:22-04:00*
G04 #@! TF.ProjectId,Rudolph_Tracker,5275646f-6c70-4685-9f54-7261636b6572,rev?*
G04 #@! TF.SameCoordinates,Original*
G04 #@! TF.FileFunction,Legend,Bot*
G04 #@! TF.FilePolarity,Positive*
%FSLAX46Y46*%
G04 Gerber Fmt 4.6, Leading zero omitted, Abs format (unit mm)*
G04 Created by KiCad (PCBNEW 7.0.5-0) date 2023-09-26 17:10:22*
%MOMM*%
%LPD*%
G01*
G04 APERTURE LIST*
G04 Aperture macros list*
%AMRoundRect*
0 Rectangle with rounded corners*
0 $1 Rounding radius*
0 $2 $3 $4 $5 $6 $7 $8 $9 X,Y pos of 4 corners*
0 Add a 4 corners polygon primitive as box body*
4,1,4,$2,$3,$4,$5,$6,$7,$8,$9,$2,$3,0*
0 Add four circle primitives for the rounded corners*
1,1,$1+$1,$2,$3*
1,1,$1+$1,$4,$5*
1,1,$1+$1,$6,$7*
1,1,$1+$1,$8,$9*
0 Add four rect primitives between the rounded corners*
20,1,$1+$1,$2,$3,$4,$5,0*
20,1,$1+$1,$4,$5,$6,$7,0*
20,1,$1+$1,$6,$7,$8,$9,0*
20,1,$1+$1,$8,$9,$2,$3,0*%
G04 Aperture macros list end*
%ADD10C,0.150000*%
%ADD11C,0.125000*%
%ADD12C,0.075000*%
%ADD13C,0.120000*%
%ADD14C,0.100000*%
%ADD15C,0.650000*%
%ADD16O,1.000000X2.100000*%
%ADD17O,1.000000X1.800000*%
%ADD18R,1.000000X1.000000*%
%ADD19R,2.200000X1.050000*%
%ADD20C,1.000000*%
%ADD21RoundRect,0.135000X-0.185000X0.135000X-0.185000X-0.135000X0.185000X-0.135000X0.185000X0.135000X0*%
%ADD22RoundRect,0.322500X0.322500X-1.177500X0.322500X1.177500X-0.322500X1.177500X-0.322500X-1.177500X0*%
%ADD23RoundRect,0.325000X0.325000X-1.175000X0.325000X1.175000X-0.325000X1.175000X-0.325000X-1.175000X0*%
%ADD24RoundRect,0.325000X0.325000X-0.925000X0.325000X0.925000X-0.325000X0.925000X-0.325000X-0.925000X0*%
%ADD25RoundRect,0.325000X-1.425000X-0.325000X1.425000X-0.325000X1.425000X0.325000X-1.425000X0.325000X0*%
%ADD26RoundRect,0.225000X-0.225000X-0.250000X0.225000X-0.250000X0.225000X0.250000X-0.225000X0.250000X0*%
%ADD27C,0.700000*%
%ADD28C,0.500000*%
%ADD29O,1.500000X0.800000*%
%ADD30C,0.270000*%
%ADD31R,2.259800X1.362800*%
%ADD32RoundRect,0.135000X0.135000X0.185000X-0.135000X0.185000X-0.135000X-0.185000X0.135000X-0.185000X0*%
%ADD33RoundRect,0.225000X0.225000X0.250000X-0.225000X0.250000X-0.225000X-0.250000X0.225000X-0.250000X0*%
%ADD34RoundRect,0.135000X0.185000X-0.135000X0.185000X0.135000X-0.185000X0.135000X-0.185000X-0.135000X0*%
G04 APERTURE END LIST*
D10*
X109233333Y-108054819D02*
X109233333Y-108769104D01*
X109233333Y-108769104D02*
X109280952Y-108911961D01*
X109280952Y-108911961D02*
X109376190Y-109007200D01*
X109376190Y-109007200D02*
X109519047Y-109054819D01*
X109519047Y-109054819D02*
X109614285Y-109054819D01*
X108328571Y-108388152D02*
X108328571Y-109054819D01*
X108566666Y-108007200D02*
X108804761Y-108721485D01*
X108804761Y-108721485D02*
X108185714Y-108721485D01*
X72361904Y-128406819D02*
X71790476Y-128406819D01*
X72076190Y-129406819D02*
X72076190Y-128406819D01*
X71457142Y-129406819D02*
X71457142Y-128406819D01*
X71457142Y-128406819D02*
X71076190Y-128406819D01*
X71076190Y-128406819D02*
X70980952Y-128454438D01*
X70980952Y-128454438D02*
X70933333Y-128502057D01*
X70933333Y-128502057D02*
X70885714Y-128597295D01*
X70885714Y-128597295D02*
X70885714Y-128740152D01*
X70885714Y-128740152D02*
X70933333Y-128835390D01*
X70933333Y-128835390D02*
X70980952Y-128883009D01*
X70980952Y-128883009D02*
X71076190Y-128930628D01*
X71076190Y-128930628D02*
X71457142Y-128930628D01*
X69933333Y-129406819D02*
X70504761Y-129406819D01*
X70219047Y-129406819D02*
X70219047Y-128406819D01*
X70219047Y-128406819D02*
X70314285Y-128549676D01*
X70314285Y-128549676D02*
X70409523Y-128644914D01*
X70409523Y-128644914D02*
X70504761Y-128692533D01*
D11*
X113321428Y-113424809D02*
X113488094Y-113186714D01*
X113607142Y-113424809D02*
X113607142Y-112924809D01*
X113607142Y-112924809D02*
X113416666Y-112924809D01*
X113416666Y-112924809D02*
X113369047Y-112948619D01*
X113369047Y-112948619D02*
X113345237Y-112972428D01*
X113345237Y-112972428D02*
X113321428Y-113020047D01*
X113321428Y-113020047D02*
X113321428Y-113091476D01*
X113321428Y-113091476D02*
X113345237Y-113139095D01*
X113345237Y-113139095D02*
X113369047Y-113162904D01*
X113369047Y-113162904D02*
X113416666Y-113186714D01*
X113416666Y-113186714D02*
X113607142Y-113186714D01*
X112845237Y-113424809D02*
X113130951Y-113424809D01*
X112988094Y-113424809D02*
X112988094Y-112924809D01*
X112988094Y-112924809D02*
X113035713Y-112996238D01*
X113035713Y-112996238D02*
X113083332Y-113043857D01*
X113083332Y-113043857D02*
X113130951Y-113067666D01*
X112678571Y-112924809D02*
X112345238Y-112924809D01*
X112345238Y-112924809D02*
X112559523Y-113424809D01*
D10*
X108045180Y-122261904D02*
X107235657Y-122261904D01*
X107235657Y-122261904D02*
X107140419Y-122214285D01*
X107140419Y-122214285D02*
X107092800Y-122166666D01*
X107092800Y-122166666D02*
X107045180Y-122071428D01*
X107045180Y-122071428D02*
X107045180Y-121880952D01*
X107045180Y-121880952D02*
X107092800Y-121785714D01*
X107092800Y-121785714D02*
X107140419Y-121738095D01*
X107140419Y-121738095D02*
X107235657Y-121690476D01*
X107235657Y-121690476D02*
X108045180Y-121690476D01*
X107616609Y-121071428D02*
X107664228Y-121166666D01*
X107664228Y-121166666D02*
X107711847Y-121214285D01*
X107711847Y-121214285D02*
X107807085Y-121261904D01*
X107807085Y-121261904D02*
X107854704Y-121261904D01*
X107854704Y-121261904D02*
X107949942Y-121214285D01*
X107949942Y-121214285D02*
X107997561Y-121166666D01*
X107997561Y-121166666D02*
X108045180Y-121071428D01*
X108045180Y-121071428D02*
X108045180Y-120880952D01*
X108045180Y-120880952D02*
X107997561Y-120785714D01*
X107997561Y-120785714D02*
X107949942Y-120738095D01*
X107949942Y-120738095D02*
X107854704Y-120690476D01*
X107854704Y-120690476D02*
X107807085Y-120690476D01*
X107807085Y-120690476D02*
X107711847Y-120738095D01*
X107711847Y-120738095D02*
X107664228Y-120785714D01*
X107664228Y-120785714D02*
X107616609Y-120880952D01*
X107616609Y-120880952D02*
X107616609Y-121071428D01*
X107616609Y-121071428D02*
X107568990Y-121166666D01*
X107568990Y-121166666D02*
X107521371Y-121214285D01*
X107521371Y-121214285D02*
X107426133Y-121261904D01*
X107426133Y-121261904D02*
X107235657Y-121261904D01*
X107235657Y-121261904D02*
X107140419Y-121214285D01*
X107140419Y-121214285D02*
X107092800Y-121166666D01*
X107092800Y-121166666D02*
X107045180Y-121071428D01*
X107045180Y-121071428D02*
X107045180Y-120880952D01*
X107045180Y-120880952D02*
X107092800Y-120785714D01*
X107092800Y-120785714D02*
X107140419Y-120738095D01*
X107140419Y-120738095D02*
X107235657Y-120690476D01*
X107235657Y-120690476D02*
X107426133Y-120690476D01*
X107426133Y-120690476D02*
X107521371Y-120738095D01*
X107521371Y-120738095D02*
X107568990Y-120785714D01*
X107568990Y-120785714D02*
X107616609Y-120880952D01*
D12*
X108706314Y-115807143D02*
X108720600Y-115792857D01*
X108720600Y-115792857D02*
X108734885Y-115750000D01*
X108734885Y-115750000D02*
X108734885Y-115721428D01*
X108734885Y-115721428D02*
X108720600Y-115678571D01*
X108720600Y-115678571D02*
X108692028Y-115650000D01*
X108692028Y-115650000D02*
X108663457Y-115635714D01*
X108663457Y-115635714D02*
X108606314Y-115621428D01*
X108606314Y-115621428D02*
X108563457Y-115621428D01*
X108563457Y-115621428D02*
X108506314Y-115635714D01*
X108506314Y-115635714D02*
X108477742Y-115650000D01*
X108477742Y-115650000D02*
X108449171Y-115678571D01*
X108449171Y-115678571D02*
X108434885Y-115721428D01*
X108434885Y-115721428D02*
X108434885Y-115750000D01*
X108434885Y-115750000D02*
X108449171Y-115792857D01*
X108449171Y-115792857D02*
X108463457Y-115807143D01*
X108463457Y-115921428D02*
X108449171Y-115935714D01*
X108449171Y-115935714D02*
X108434885Y-115964286D01*
X108434885Y-115964286D02*
X108434885Y-116035714D01*
X108434885Y-116035714D02*
X108449171Y-116064286D01*
X108449171Y-116064286D02*
X108463457Y-116078571D01*
X108463457Y-116078571D02*
X108492028Y-116092857D01*
X108492028Y-116092857D02*
X108520600Y-116092857D01*
X108520600Y-116092857D02*
X108563457Y-116078571D01*
X108563457Y-116078571D02*
X108734885Y-115907143D01*
X108734885Y-115907143D02*
X108734885Y-116092857D01*
X108434885Y-116364285D02*
X108434885Y-116221428D01*
X108434885Y-116221428D02*
X108577742Y-116207142D01*
X108577742Y-116207142D02*
X108563457Y-116221428D01*
X108563457Y-116221428D02*
X108549171Y-116250000D01*
X108549171Y-116250000D02*
X108549171Y-116321428D01*
X108549171Y-116321428D02*
X108563457Y-116350000D01*
X108563457Y-116350000D02*
X108577742Y-116364285D01*
X108577742Y-116364285D02*
X108606314Y-116378571D01*
X108606314Y-116378571D02*
X108677742Y-116378571D01*
X108677742Y-116378571D02*
X108706314Y-116364285D01*
X108706314Y-116364285D02*
X108720600Y-116350000D01*
X108720600Y-116350000D02*
X108734885Y-116321428D01*
X108734885Y-116321428D02*
X108734885Y-116250000D01*
X108734885Y-116250000D02*
X108720600Y-116221428D01*
X108720600Y-116221428D02*
X108706314Y-116207142D01*
D11*
X73666666Y-130724809D02*
X73666666Y-131081952D01*
X73666666Y-131081952D02*
X73690475Y-131153380D01*
X73690475Y-131153380D02*
X73738094Y-131201000D01*
X73738094Y-131201000D02*
X73809523Y-131224809D01*
X73809523Y-131224809D02*
X73857142Y-131224809D01*
X73166666Y-131224809D02*
X73452380Y-131224809D01*
X73309523Y-131224809D02*
X73309523Y-130724809D01*
X73309523Y-130724809D02*
X73357142Y-130796238D01*
X73357142Y-130796238D02*
X73404761Y-130843857D01*
X73404761Y-130843857D02*
X73452380Y-130867666D01*
D10*
X99954819Y-117438095D02*
X100764342Y-117438095D01*
X100764342Y-117438095D02*
X100859580Y-117485714D01*
X100859580Y-117485714D02*
X100907200Y-117533333D01*
X100907200Y-117533333D02*
X100954819Y-117628571D01*
X100954819Y-117628571D02*
X100954819Y-117819047D01*
X100954819Y-117819047D02*
X100907200Y-117914285D01*
X100907200Y-117914285D02*
X100859580Y-117961904D01*
X100859580Y-117961904D02*
X100764342Y-118009523D01*
X100764342Y-118009523D02*
X99954819Y-118009523D01*
X99954819Y-118914285D02*
X99954819Y-118723809D01*
X99954819Y-118723809D02*
X100002438Y-118628571D01*
X100002438Y-118628571D02*
X100050057Y-118580952D01*
X100050057Y-118580952D02*
X100192914Y-118485714D01*
X100192914Y-118485714D02*
X100383390Y-118438095D01*
X100383390Y-118438095D02*
X100764342Y-118438095D01*
X100764342Y-118438095D02*
X100859580Y-118485714D01*
X100859580Y-118485714D02*
X100907200Y-118533333D01*
X100907200Y-118533333D02*
X100954819Y-118628571D01*
X100954819Y-118628571D02*
X100954819Y-118819047D01*
X100954819Y-118819047D02*
X100907200Y-118914285D01*
X100907200Y-118914285D02*
X100859580Y-118961904D01*
X100859580Y-118961904D02*
X100764342Y-119009523D01*
X100764342Y-119009523D02*
X100526247Y-119009523D01*
X100526247Y-119009523D02*
X100431009Y-118961904D01*
X100431009Y-118961904D02*
X100383390Y-118914285D01*
X100383390Y-118914285D02*
X100335771Y-118819047D01*
X100335771Y-118819047D02*
X100335771Y-118628571D01*
X100335771Y-118628571D02*
X100383390Y-118533333D01*
X100383390Y-118533333D02*
X100431009Y-118485714D01*
X100431009Y-118485714D02*
X100526247Y-118438095D01*
D11*
X111786248Y-113331680D02*
X111735740Y-113045470D01*
X111988278Y-113129649D02*
X111634725Y-112776096D01*
X111634725Y-112776096D02*
X111500038Y-112910783D01*
X111500038Y-112910783D02*
X111483202Y-112961291D01*
X111483202Y-112961291D02*
X111483202Y-112994962D01*
X111483202Y-112994962D02*
X111500038Y-113045470D01*
X111500038Y-113045470D02*
X111550546Y-113095978D01*
X111550546Y-113095978D02*
X111601053Y-113112813D01*
X111601053Y-113112813D02*
X111634725Y-113112813D01*
X111634725Y-113112813D02*
X111685233Y-113095978D01*
X111685233Y-113095978D02*
X111819920Y-112961291D01*
X111449530Y-113668397D02*
X111651561Y-113466367D01*
X111550546Y-113567382D02*
X111196992Y-113213829D01*
X111196992Y-113213829D02*
X111281172Y-113230665D01*
X111281172Y-113230665D02*
X111348515Y-113230665D01*
X111348515Y-113230665D02*
X111399023Y-113213829D01*
X110792931Y-113617889D02*
X110860275Y-113550546D01*
X110860275Y-113550546D02*
X110910783Y-113533710D01*
X110910783Y-113533710D02*
X110944454Y-113533710D01*
X110944454Y-113533710D02*
X111028634Y-113550546D01*
X111028634Y-113550546D02*
X111112813Y-113601054D01*
X111112813Y-113601054D02*
X111247500Y-113735741D01*
X111247500Y-113735741D02*
X111264336Y-113786248D01*
X111264336Y-113786248D02*
X111264336Y-113819920D01*
X111264336Y-113819920D02*
X111247500Y-113870428D01*
X111247500Y-113870428D02*
X111180157Y-113937771D01*
X111180157Y-113937771D02*
X111129649Y-113954607D01*
X111129649Y-113954607D02*
X111095977Y-113954607D01*
X111095977Y-113954607D02*
X111045470Y-113937771D01*
X111045470Y-113937771D02*
X110961290Y-113853592D01*
X110961290Y-113853592D02*
X110944454Y-113803084D01*
X110944454Y-113803084D02*
X110944454Y-113769412D01*
X110944454Y-113769412D02*
X110961290Y-113718905D01*
X110961290Y-113718905D02*
X111028634Y-113651561D01*
X111028634Y-113651561D02*
X111079141Y-113634725D01*
X111079141Y-113634725D02*
X111112813Y-113634725D01*
X111112813Y-113634725D02*
X111163321Y-113651561D01*
X112136178Y-125822400D02*
X112136178Y-126179543D01*
X112350464Y-125750971D02*
X111600464Y-126000971D01*
X111600464Y-126000971D02*
X112350464Y-126250971D01*
X111957607Y-126500971D02*
X111957607Y-126750971D01*
X112350464Y-126858114D02*
X112350464Y-126500971D01*
X112350464Y-126500971D02*
X111600464Y-126500971D01*
X111600464Y-126500971D02*
X111600464Y-126858114D01*
X112350464Y-127572399D02*
X112350464Y-127143828D01*
X112350464Y-127358113D02*
X111600464Y-127358113D01*
X111600464Y-127358113D02*
X111707607Y-127286685D01*
X111707607Y-127286685D02*
X111779035Y-127215256D01*
X111779035Y-127215256D02*
X111814750Y-127143828D01*
X73773333Y-108524809D02*
X73939999Y-108286714D01*
X74059047Y-108524809D02*
X74059047Y-108024809D01*
X74059047Y-108024809D02*
X73868571Y-108024809D01*
X73868571Y-108024809D02*
X73820952Y-108048619D01*
X73820952Y-108048619D02*
X73797142Y-108072428D01*
X73797142Y-108072428D02*
X73773333Y-108120047D01*
X73773333Y-108120047D02*
X73773333Y-108191476D01*
X73773333Y-108191476D02*
X73797142Y-108239095D01*
X73797142Y-108239095D02*
X73820952Y-108262904D01*
X73820952Y-108262904D02*
X73868571Y-108286714D01*
X73868571Y-108286714D02*
X74059047Y-108286714D01*
X73606666Y-108024809D02*
X73297142Y-108024809D01*
X73297142Y-108024809D02*
X73463809Y-108215285D01*
X73463809Y-108215285D02*
X73392380Y-108215285D01*
X73392380Y-108215285D02*
X73344761Y-108239095D01*
X73344761Y-108239095D02*
X73320952Y-108262904D01*
X73320952Y-108262904D02*
X73297142Y-108310523D01*
X73297142Y-108310523D02*
X73297142Y-108429571D01*
X73297142Y-108429571D02*
X73320952Y-108477190D01*
X73320952Y-108477190D02*
X73344761Y-108501000D01*
X73344761Y-108501000D02*
X73392380Y-108524809D01*
X73392380Y-108524809D02*
X73535237Y-108524809D01*
X73535237Y-108524809D02*
X73582856Y-108501000D01*
X73582856Y-108501000D02*
X73606666Y-108477190D01*
X75983333Y-122677190D02*
X76007142Y-122701000D01*
X76007142Y-122701000D02*
X76078571Y-122724809D01*
X76078571Y-122724809D02*
X76126190Y-122724809D01*
X76126190Y-122724809D02*
X76197618Y-122701000D01*
X76197618Y-122701000D02*
X76245237Y-122653380D01*
X76245237Y-122653380D02*
X76269047Y-122605761D01*
X76269047Y-122605761D02*
X76292856Y-122510523D01*
X76292856Y-122510523D02*
X76292856Y-122439095D01*
X76292856Y-122439095D02*
X76269047Y-122343857D01*
X76269047Y-122343857D02*
X76245237Y-122296238D01*
X76245237Y-122296238D02*
X76197618Y-122248619D01*
X76197618Y-122248619D02*
X76126190Y-122224809D01*
X76126190Y-122224809D02*
X76078571Y-122224809D01*
X76078571Y-122224809D02*
X76007142Y-122248619D01*
X76007142Y-122248619D02*
X75983333Y-122272428D01*
X75816666Y-122224809D02*
X75483333Y-122224809D01*
X75483333Y-122224809D02*
X75697618Y-122724809D01*
X74424809Y-110616666D02*
X74186714Y-110450000D01*
X74424809Y-110330952D02*
X73924809Y-110330952D01*
X73924809Y-110330952D02*
X73924809Y-110521428D01*
X73924809Y-110521428D02*
X73948619Y-110569047D01*
X73948619Y-110569047D02*
X73972428Y-110592857D01*
X73972428Y-110592857D02*
X74020047Y-110616666D01*
X74020047Y-110616666D02*
X74091476Y-110616666D01*
X74091476Y-110616666D02*
X74139095Y-110592857D01*
X74139095Y-110592857D02*
X74162904Y-110569047D01*
X74162904Y-110569047D02*
X74186714Y-110521428D01*
X74186714Y-110521428D02*
X74186714Y-110330952D01*
X74091476Y-111045238D02*
X74424809Y-111045238D01*
X73901000Y-110926190D02*
X74258142Y-110807143D01*
X74258142Y-110807143D02*
X74258142Y-111116666D01*
D13*
X112800000Y-111700000D02*
X113000000Y-111700000D01*
X113000000Y-111700000D02*
X113000000Y-110900000D01*
X110000000Y-111500000D02*
X110200000Y-111700000D01*
X110000000Y-110900000D02*
X110000000Y-111500000D01*
X110000000Y-110900000D02*
X109500000Y-110900000D01*
X110000000Y-109500000D02*
X109500000Y-109500000D01*
X113000000Y-109500000D02*
X113000000Y-108700000D01*
X110000000Y-108700000D02*
X110000000Y-109500000D01*
X110200000Y-108700000D02*
X110000000Y-108700000D01*
X113000000Y-108700000D02*
X112800000Y-108700000D01*
X71800000Y-130400000D02*
G75*
G03*
X71800000Y-130400000I-700000J0D01*
G01*
X113680000Y-114446359D02*
X113680000Y-114753641D01*
X112920000Y-114446359D02*
X112920000Y-114753641D01*
X106800000Y-129700000D02*
X97800000Y-129700000D01*
X106800000Y-129700000D02*
X106800000Y-117700000D01*
X78200000Y-109700000D02*
X78200000Y-129700000D01*
X106800000Y-109700000D02*
X96800000Y-109700000D01*
X109959420Y-114290000D02*
X110240580Y-114290000D01*
X109959420Y-115310000D02*
X110240580Y-115310000D01*
D14*
X74781000Y-126930000D02*
X75670000Y-126930000D01*
X74781000Y-125660000D02*
X75670000Y-125660000D01*
X74781000Y-125660000D02*
G75*
G03*
X74781000Y-126930000I0J-635000D01*
G01*
X109250000Y-115950000D02*
X113750000Y-115950000D01*
X113750000Y-115950000D02*
X113750000Y-120450000D01*
X113750000Y-120450000D02*
X109250000Y-120450000D01*
X109250000Y-120450000D02*
X109250000Y-115950000D01*
D13*
X112580000Y-114446359D02*
X112580000Y-114753641D01*
X111820000Y-114446359D02*
X111820000Y-114753641D01*
D10*
X113131900Y-124235420D02*
X113131900Y-129164580D01*
X110668100Y-129164580D02*
X110668100Y-124235420D01*
X111976200Y-121717701D02*
G75*
G03*
X111976200Y-121717701I-76200J0D01*
G01*
D13*
X73843641Y-109580000D02*
X73536359Y-109580000D01*
X73843641Y-108820000D02*
X73536359Y-108820000D01*
X76040580Y-124210000D02*
X75759420Y-124210000D01*
X76040580Y-123190000D02*
X75759420Y-123190000D01*
X72820000Y-110853641D02*
X72820000Y-110546359D01*
X73580000Y-110853641D02*
X73580000Y-110546359D01*
%LPC*%
D15*
X77690000Y-112305000D03*
X71910000Y-112305000D03*
D16*
X79120000Y-112805000D03*
D17*
X79120000Y-108625000D03*
D16*
X70480000Y-112805000D03*
D17*
X70480000Y-108625000D03*
D18*
X110000000Y-110200000D03*
D19*
X111500000Y-111675000D03*
D18*
X113000000Y-110200000D03*
D19*
X111500000Y-108725000D03*
D20*
X71100000Y-130400000D03*
D21*
X113300000Y-114090000D03*
X113300000Y-115110000D03*
D22*
X95645000Y-129200000D03*
D23*
X93100000Y-129200000D03*
X90560000Y-129200000D03*
X88020000Y-129200000D03*
X85480000Y-129200000D03*
X82940000Y-129200000D03*
X80400000Y-129200000D03*
D24*
X80400000Y-110450000D03*
D23*
X82940000Y-110200000D03*
X85480000Y-110200000D03*
X88020000Y-110200000D03*
X90560000Y-110200000D03*
X93100000Y-110200000D03*
D22*
X95645000Y-110200000D03*
D25*
X106250000Y-111030000D03*
X106250000Y-113570000D03*
X106250000Y-116110000D03*
D26*
X109325000Y-114800000D03*
X110875000Y-114800000D03*
D27*
X76305000Y-130740000D03*
D28*
X76305000Y-129470000D03*
X76305000Y-128200000D03*
X76305000Y-126930000D03*
D27*
X76305000Y-125660000D03*
D29*
X75150000Y-126295000D03*
X75150000Y-127565000D03*
X75150000Y-128835000D03*
X75150000Y-130105000D03*
D30*
X109500000Y-116200000D03*
X109500000Y-116700000D03*
X109500000Y-117200000D03*
X109500000Y-117700000D03*
X109500000Y-118200000D03*
X109500000Y-118700000D03*
X109500000Y-119200000D03*
X109500000Y-119700000D03*
X109488389Y-120210711D03*
X110000000Y-116200000D03*
X110000000Y-116700000D03*
X110000000Y-119700000D03*
X110000000Y-120200000D03*
X110500000Y-116200000D03*
X110500000Y-117200000D03*
X110500000Y-117700000D03*
X110500000Y-118200000D03*
X110500000Y-118700000D03*
X110500000Y-119200000D03*
X110500000Y-120200000D03*
X111000000Y-116200000D03*
X111000000Y-116700000D03*
X111000000Y-120200000D03*
X111500000Y-116200000D03*
X111500000Y-116700000D03*
X111500000Y-117200000D03*
X111500000Y-117700000D03*
X111500000Y-119200000D03*
X111500000Y-120200000D03*
X112000000Y-116200000D03*
X112000000Y-117200000D03*
X112000000Y-117700000D03*
X112000000Y-119200000D03*
X112000000Y-120200000D03*
X112500000Y-116200000D03*
X112500000Y-117200000D03*
X112500000Y-117700000D03*
X112500000Y-118200000D03*
X112500000Y-118700000D03*
X112500000Y-119200000D03*
X112500000Y-120200000D03*
X113000000Y-116200000D03*
X113000000Y-119700000D03*
X113000000Y-120200000D03*
X113500000Y-116200000D03*
X113500000Y-116700000D03*
X113500000Y-117200000D03*
X113500000Y-117700000D03*
X113500000Y-118200000D03*
X113500000Y-118700000D03*
X113500000Y-119200000D03*
X113500000Y-119700000D03*
X113500000Y-120200000D03*
D21*
X112200000Y-114090000D03*
X112200000Y-115110000D03*
D31*
X111900000Y-123237299D03*
X111900000Y-130162701D03*
D32*
X74200000Y-109200000D03*
X73180000Y-109200000D03*
D33*
X76675000Y-123700000D03*
X75125000Y-123700000D03*
D34*
X73200000Y-111210000D03*
X73200000Y-110190000D03*
%LPD*%
M02*
