M48
; DRILL file {KiCad 7.0.5-0} date 2023 September 26, Tuesday 17:10:17
; FORMAT={-:-/ absolute / metric / decimal}
; #@! TF.CreationDate,2023-09-26T17:10:17-04:00
; #@! TF.GenerationSoftware,Kicad,Pcbnew,7.0.5-0
; #@! TF.FileFunction,Plated,1,4,PTH
FMAT,2
METRIC
; #@! TA.AperFunction,Plated,PTH,ViaDrill
T1C0.300
; #@! TA.AperFunction,Plated,PTH,ComponentDrill
T2C0.350
; #@! TA.AperFunction,Plated,PTH,ViaDrill
T3C0.400
; #@! TA.AperFunction,Plated,PTH,ViaDrill
T4C0.600
; #@! TA.AperFunction,Plated,PTH,ComponentDrill
T5C0.600
%
G90
G05
T1
X85.7Y-115.5
X86.0Y-114.7
X86.0Y-116.3
X86.8Y-112.6
X91.1Y-112.7
X92.9Y-124.1
X105.3Y-112.3
X105.9Y-121.8
X106.1Y-112.3
X106.9Y-112.3
X108.6Y-116.9
X111.1Y-118.6
X112.9Y-116.8
X114.0Y-113.3
X114.1Y-113.9
X114.2Y-114.6
X114.2Y-115.3
X114.3Y-117.7
T2
X91.225Y-118.425
X91.225Y-119.7
X91.225Y-120.975
X92.5Y-118.425
X92.5Y-119.7
X92.5Y-120.975
X93.775Y-118.425
X93.775Y-119.7
X93.775Y-120.975
T3
X70.3Y-115.1
X70.3Y-116.1
X70.3Y-117.1
X70.3Y-118.1
X71.3Y-115.1
X71.3Y-116.1
X71.3Y-117.1
X71.3Y-118.1
X73.2Y-112.1
X74.4Y-117.7
X74.4Y-118.7
X74.4Y-119.7
X74.4Y-120.7
X75.1Y-110.3
X76.8Y-111.7
X77.8Y-115.0
X78.5Y-117.0
X81.2Y-120.8
X83.1Y-112.3
X83.2Y-117.6
X83.3Y-120.2
X83.3Y-121.1
X86.5Y-119.2
X87.0Y-128.6
X89.0Y-115.7
X89.0Y-126.2
X89.2Y-129.0
X89.3Y-108.4
X90.1Y-124.3
X90.2Y-113.7
X90.2Y-114.9
X94.6Y-113.5
X94.9Y-124.2
X95.4Y-112.7
X95.6Y-125.2
X96.4Y-112.7
X96.5Y-123.8
X97.0Y-113.7
X97.4Y-121.3
X98.6Y-115.8
X99.4Y-116.7
X100.5Y-124.2
X102.9Y-116.0
X105.9Y-124.6
X107.8Y-117.4
X108.1Y-118.8
X108.1Y-123.8
X109.0Y-113.3
X110.2Y-113.1
X111.5Y-121.5
T4
X73.1Y-127.6
X73.1Y-128.9
X73.3Y-125.7
X77.5Y-129.7
X77.5Y-130.8
X78.6Y-129.7
X78.6Y-130.8
X79.6Y-131.3
X79.7Y-123.7
X79.9Y-124.9
X80.9Y-125.7
X81.3Y-131.3
X98.2Y-108.7
X98.2Y-110.7
X103.7Y-126.6
X108.0Y-114.9
T5
G00X70.48Y-109.025
M15
G01X70.48Y-108.225
M16
G05
G00X70.48Y-113.355
M15
G01X70.48Y-112.255
M16
G05
G00X79.12Y-109.025
M15
G01X79.12Y-108.225
M16
G05
G00X79.12Y-113.355
M15
G01X79.12Y-112.255
M16
G05
T0
M30
