G04 #@! TF.GenerationSoftware,KiCad,Pcbnew,7.0.5-0*
G04 #@! TF.CreationDate,2023-09-26T15:14:25-04:00*
G04 #@! TF.ProjectId,PowerPack,506f7765-7250-4616-936b-2e6b69636164,rev?*
G04 #@! TF.SameCoordinates,Original*
G04 #@! TF.FileFunction,Copper,L4,Bot*
G04 #@! TF.FilePolarity,Positive*
%FSLAX46Y46*%
G04 Gerber Fmt 4.6, Leading zero omitted, Abs format (unit mm)*
G04 Created by KiCad (PCBNEW 7.0.5-0) date 2023-09-26 15:14:25*
%MOMM*%
%LPD*%
G01*
G04 APERTURE LIST*
G04 #@! TA.AperFunction,ComponentPad*
%ADD10C,2.000000*%
G04 #@! TD*
G04 #@! TA.AperFunction,ComponentPad*
%ADD11C,0.600000*%
G04 #@! TD*
G04 #@! TA.AperFunction,ComponentPad*
%ADD12C,1.400000*%
G04 #@! TD*
G04 #@! TA.AperFunction,ComponentPad*
%ADD13R,3.500000X3.500000*%
G04 #@! TD*
G04 #@! TA.AperFunction,ComponentPad*
%ADD14C,3.500000*%
G04 #@! TD*
G04 #@! TA.AperFunction,SMDPad,CuDef*
%ADD15R,1.800000X0.250000*%
G04 #@! TD*
G04 #@! TA.AperFunction,ViaPad*
%ADD16C,1.000000*%
G04 #@! TD*
G04 #@! TA.AperFunction,ViaPad*
%ADD17C,0.800000*%
G04 #@! TD*
G04 #@! TA.AperFunction,ViaPad*
%ADD18C,0.450000*%
G04 #@! TD*
G04 #@! TA.AperFunction,ViaPad*
%ADD19C,0.406400*%
G04 #@! TD*
G04 #@! TA.AperFunction,Conductor*
%ADD20C,0.200000*%
G04 #@! TD*
G04 #@! TA.AperFunction,Conductor*
%ADD21C,1.000000*%
G04 #@! TD*
G04 #@! TA.AperFunction,Conductor*
%ADD22C,0.150000*%
G04 #@! TD*
G04 #@! TA.AperFunction,Conductor*
%ADD23C,0.250000*%
G04 #@! TD*
G04 APERTURE END LIST*
D10*
X138500000Y-70750000D03*
X132750000Y-52750000D03*
D11*
X124910000Y-65722500D03*
X125860000Y-65722500D03*
X126810000Y-65722500D03*
X124910000Y-64722500D03*
X125860000Y-64722500D03*
X126810000Y-64722500D03*
D12*
X113000000Y-43575000D03*
X124000000Y-43575000D03*
D13*
X121000000Y-53575000D03*
D14*
X116000000Y-53575000D03*
D10*
X98200000Y-53000000D03*
X99300000Y-69800000D03*
D15*
X135000001Y-65250001D03*
X135000001Y-64750002D03*
X135000001Y-64250000D03*
X135000001Y-63750001D03*
X135000001Y-63250000D03*
X135000001Y-62750000D03*
X135000001Y-62250002D03*
X135000001Y-61750000D03*
X135000001Y-61250001D03*
X135000001Y-60749999D03*
X139000001Y-65250001D03*
X139000001Y-64750002D03*
X139000001Y-64250000D03*
X139000001Y-63750001D03*
X139000001Y-63250000D03*
X139000001Y-62750000D03*
X139000001Y-62250002D03*
X139000001Y-61750000D03*
X139000001Y-61250001D03*
X139000001Y-60749999D03*
X98000001Y-65250001D03*
X98000001Y-64750002D03*
X98000001Y-64250000D03*
X98000001Y-63750001D03*
X98000001Y-63250000D03*
X98000001Y-62750000D03*
X98000001Y-62250002D03*
X98000001Y-61750000D03*
X98000001Y-61250001D03*
X98000001Y-60749999D03*
X102000001Y-65250001D03*
X102000001Y-64750002D03*
X102000001Y-64250000D03*
X102000001Y-63750001D03*
X102000001Y-63250000D03*
X102000001Y-62750000D03*
X102000001Y-62250002D03*
X102000001Y-61750000D03*
X102000001Y-61250001D03*
X102000001Y-60749999D03*
D16*
X135500000Y-60000000D03*
D17*
X129500000Y-69400000D03*
X130400000Y-58000000D03*
D16*
X134400000Y-60000000D03*
D17*
X104000000Y-64500000D03*
X104000000Y-65400000D03*
X105700000Y-52400000D03*
X112190828Y-54824535D03*
X109850000Y-61900000D03*
X115550000Y-64400000D03*
D18*
X113150000Y-66300000D03*
D17*
X116450000Y-64400000D03*
D18*
X113100000Y-65600000D03*
D17*
X110750000Y-61900000D03*
D18*
X113150000Y-67500000D03*
D17*
X116450000Y-69400000D03*
D18*
X113100000Y-68200000D03*
D17*
X115550000Y-69400000D03*
X109850000Y-71900000D03*
X110750000Y-71900000D03*
X132500000Y-72000000D03*
X135000000Y-69500000D03*
X135000000Y-70750000D03*
X133750000Y-72000000D03*
X133750000Y-70750000D03*
X135000000Y-72000000D03*
X133750000Y-69500000D03*
X136250000Y-70750000D03*
X136250000Y-72000000D03*
X132500000Y-69500000D03*
X132500000Y-70750000D03*
X136250000Y-69500000D03*
X127000000Y-67700000D03*
X123100000Y-68100000D03*
X126900000Y-62550000D03*
X121600000Y-63675000D03*
X123300000Y-57400000D03*
X138500000Y-55500000D03*
X100600000Y-61700000D03*
X123300000Y-56500000D03*
X134750000Y-54250000D03*
X100600000Y-60800000D03*
X138500000Y-54250000D03*
X136000000Y-54250000D03*
X137250000Y-55500000D03*
X136000000Y-56750000D03*
X138500000Y-56750000D03*
X137250000Y-54250000D03*
X136000000Y-55500000D03*
X134750000Y-56750000D03*
X134750000Y-55500000D03*
X137250000Y-56750000D03*
D16*
X102600000Y-53400000D03*
D19*
X110850000Y-66500000D03*
D20*
X101050002Y-64750002D02*
X100700000Y-64400000D01*
X100700000Y-64400000D02*
X100700000Y-63500000D01*
X102000001Y-64750002D02*
X101050002Y-64750002D01*
X99300000Y-66550000D02*
X99300000Y-69800000D01*
X97999999Y-65250001D02*
X99300000Y-66550000D01*
D21*
X111424535Y-54824535D02*
X109000000Y-52400000D01*
X112190828Y-54824535D02*
X111424535Y-54824535D01*
X109000000Y-52400000D02*
X105700000Y-52400000D01*
D20*
X123100000Y-68100000D02*
X126600000Y-68100000D01*
X126600000Y-68100000D02*
X127000000Y-67700000D01*
D22*
X122725000Y-62550000D02*
X126900000Y-62550000D01*
X121600000Y-63675000D02*
X122725000Y-62550000D01*
D23*
X139000001Y-61250001D02*
X135000001Y-61250001D01*
D21*
X102300000Y-57000000D02*
X110850000Y-65550000D01*
X102300000Y-53700000D02*
X102300000Y-57000000D01*
X102600000Y-53400000D02*
X102300000Y-53700000D01*
X110850000Y-65550000D02*
X110850000Y-66500000D01*
G04 #@! TA.AperFunction,Conductor*
G36*
X132095755Y-50814220D02*
G01*
X132114500Y-50859475D01*
X132114500Y-51778177D01*
X132095755Y-51823432D01*
X132084193Y-51832590D01*
X132065801Y-51843978D01*
X131910968Y-51985126D01*
X131784710Y-52152321D01*
X131784708Y-52152324D01*
X131691325Y-52339862D01*
X131633988Y-52541379D01*
X131614657Y-52749999D01*
X131614657Y-52750000D01*
X131633988Y-52958620D01*
X131691325Y-53160137D01*
X131784708Y-53347675D01*
X131784710Y-53347678D01*
X131784711Y-53347679D01*
X131784712Y-53347681D01*
X131818229Y-53392065D01*
X131910968Y-53514873D01*
X131910970Y-53514875D01*
X131910971Y-53514876D01*
X131963557Y-53562814D01*
X132065805Y-53656025D01*
X132084189Y-53667407D01*
X132112799Y-53707167D01*
X132114500Y-53721822D01*
X132114500Y-55223492D01*
X132124813Y-55275340D01*
X132124815Y-55275348D01*
X132136893Y-55304505D01*
X132143559Y-55320598D01*
X132143560Y-55320600D01*
X132143562Y-55320603D01*
X132155636Y-55338673D01*
X132172932Y-55364558D01*
X137095755Y-60287381D01*
X137114500Y-60332635D01*
X137114500Y-60930501D01*
X137095755Y-60975756D01*
X137050500Y-60994501D01*
X134087148Y-60994501D01*
X134049080Y-61002072D01*
X134005914Y-61030915D01*
X134005913Y-61030916D01*
X133977072Y-61074081D01*
X133977070Y-61074085D01*
X133969501Y-61112141D01*
X133969501Y-61387853D01*
X133977072Y-61425921D01*
X133989010Y-61443787D01*
X134005915Y-61469087D01*
X134049082Y-61497930D01*
X134049083Y-61497930D01*
X134049085Y-61497931D01*
X134074341Y-61502954D01*
X134087146Y-61505501D01*
X134969668Y-61505500D01*
X134969682Y-61505501D01*
X134974834Y-61505501D01*
X137050500Y-61505501D01*
X137095755Y-61524246D01*
X137114500Y-61569501D01*
X137114500Y-64473492D01*
X137124813Y-64525340D01*
X137124815Y-64525348D01*
X137140096Y-64562238D01*
X137143559Y-64570598D01*
X137143560Y-64570600D01*
X137143562Y-64570603D01*
X137172931Y-64614557D01*
X137962964Y-65404590D01*
X137976837Y-65425352D01*
X137977071Y-65425916D01*
X137977072Y-65425920D01*
X137986686Y-65440308D01*
X138005913Y-65469085D01*
X138005914Y-65469086D01*
X138005915Y-65469087D01*
X138049082Y-65497930D01*
X138049088Y-65497931D01*
X138049644Y-65498162D01*
X138070411Y-65512036D01*
X138135442Y-65577068D01*
X138179402Y-65606441D01*
X138207937Y-65618260D01*
X138224651Y-65625184D01*
X138224653Y-65625184D01*
X138224657Y-65625186D01*
X138245398Y-65629311D01*
X138276507Y-65635500D01*
X138276510Y-65635500D01*
X139436003Y-65635500D01*
X139461926Y-65630343D01*
X139487853Y-65625186D01*
X139533108Y-65606441D01*
X139558534Y-65592557D01*
X139606441Y-65533108D01*
X139606441Y-65533107D01*
X139609313Y-65529544D01*
X139611551Y-65531347D01*
X139643472Y-65507479D01*
X139659266Y-65505500D01*
X139912853Y-65505500D01*
X139912855Y-65505500D01*
X139950920Y-65497930D01*
X139994087Y-65469087D01*
X140022930Y-65425920D01*
X140030501Y-65387856D01*
X140030500Y-65112147D01*
X140022930Y-65074082D01*
X140017631Y-65066152D01*
X140008409Y-65052351D01*
X139994087Y-65030915D01*
X139994086Y-65030914D01*
X139994085Y-65030913D01*
X139950920Y-65002072D01*
X139950916Y-65002070D01*
X139912860Y-64994501D01*
X139912856Y-64994501D01*
X139656486Y-64994501D01*
X139611231Y-64975756D01*
X139600315Y-64961174D01*
X139592556Y-64946966D01*
X139533107Y-64899059D01*
X139487859Y-64880316D01*
X139487850Y-64880314D01*
X139436003Y-64870001D01*
X139436000Y-64870001D01*
X138169001Y-64870001D01*
X138123746Y-64851256D01*
X138105001Y-64806001D01*
X138105001Y-64694002D01*
X138123746Y-64648747D01*
X138169001Y-64630002D01*
X139436003Y-64630002D01*
X139461926Y-64624844D01*
X139487853Y-64619688D01*
X139533108Y-64600943D01*
X139558534Y-64587059D01*
X139605046Y-64529340D01*
X139648038Y-64505866D01*
X139654879Y-64505499D01*
X139912853Y-64505499D01*
X139912855Y-64505499D01*
X139950920Y-64497929D01*
X139994087Y-64469086D01*
X140022930Y-64425919D01*
X140023077Y-64425183D01*
X140030500Y-64387859D01*
X140030501Y-64387855D01*
X140030500Y-64112146D01*
X140022930Y-64074081D01*
X140022428Y-64073330D01*
X140006064Y-64048839D01*
X139994087Y-64030914D01*
X139994086Y-64030913D01*
X139994085Y-64030912D01*
X139950920Y-64002071D01*
X139950916Y-64002069D01*
X139912860Y-63994500D01*
X139912856Y-63994500D01*
X139656486Y-63994500D01*
X139611231Y-63975755D01*
X139600315Y-63961173D01*
X139592556Y-63946965D01*
X139533107Y-63899058D01*
X139487859Y-63880315D01*
X139487850Y-63880313D01*
X139436003Y-63870000D01*
X139436000Y-63870000D01*
X138169001Y-63870000D01*
X138123746Y-63851255D01*
X138105001Y-63806000D01*
X138105001Y-63694001D01*
X138123746Y-63648746D01*
X138169001Y-63630001D01*
X139436003Y-63630001D01*
X139461926Y-63624844D01*
X139487853Y-63619687D01*
X139533108Y-63600942D01*
X139558534Y-63587058D01*
X139605045Y-63529340D01*
X139648036Y-63505866D01*
X139654878Y-63505499D01*
X139912853Y-63505499D01*
X139912855Y-63505499D01*
X139950920Y-63497929D01*
X139994087Y-63469086D01*
X140022930Y-63425919D01*
X140030501Y-63387855D01*
X140030500Y-63112146D01*
X140022930Y-63074081D01*
X140018096Y-63066847D01*
X140000411Y-63040379D01*
X139994087Y-63030914D01*
X139994086Y-63030913D01*
X139994085Y-63030912D01*
X139950920Y-63002071D01*
X139950916Y-63002069D01*
X139912860Y-62994500D01*
X139912856Y-62994500D01*
X139656486Y-62994500D01*
X139611231Y-62975755D01*
X139600315Y-62961172D01*
X139592557Y-62946965D01*
X139533107Y-62899057D01*
X139487859Y-62880314D01*
X139487850Y-62880312D01*
X139436003Y-62869999D01*
X139436000Y-62869999D01*
X138169001Y-62869999D01*
X138123746Y-62851254D01*
X138105001Y-62805999D01*
X138105001Y-62694000D01*
X138123746Y-62648745D01*
X138169001Y-62630000D01*
X139436003Y-62630000D01*
X139461926Y-62624842D01*
X139487853Y-62619686D01*
X139533108Y-62600941D01*
X139558534Y-62587057D01*
X139605042Y-62529343D01*
X139648035Y-62505868D01*
X139654876Y-62505501D01*
X139912853Y-62505501D01*
X139912855Y-62505501D01*
X139950920Y-62497931D01*
X139994087Y-62469088D01*
X140022930Y-62425921D01*
X140024736Y-62416844D01*
X140030409Y-62388318D01*
X140030501Y-62387857D01*
X140030500Y-62112148D01*
X140022930Y-62074083D01*
X140017629Y-62066150D01*
X139995581Y-62033152D01*
X139994087Y-62030916D01*
X139994086Y-62030915D01*
X139994085Y-62030914D01*
X139950920Y-62002073D01*
X139950916Y-62002071D01*
X139912860Y-61994502D01*
X139912856Y-61994502D01*
X139656487Y-61994502D01*
X139611232Y-61975757D01*
X139600316Y-61961174D01*
X139592557Y-61946965D01*
X139533107Y-61899057D01*
X139487859Y-61880314D01*
X139487850Y-61880312D01*
X139436003Y-61869999D01*
X139436000Y-61869999D01*
X138169001Y-61869999D01*
X138123746Y-61851254D01*
X138105001Y-61805999D01*
X138105001Y-61694000D01*
X138123746Y-61648745D01*
X138169001Y-61630000D01*
X139436003Y-61630000D01*
X139461926Y-61624842D01*
X139487853Y-61619686D01*
X139533108Y-61600941D01*
X139558534Y-61587057D01*
X139591113Y-61546628D01*
X139605044Y-61529342D01*
X139648036Y-61505867D01*
X139654877Y-61505500D01*
X139912853Y-61505500D01*
X139912855Y-61505500D01*
X139950920Y-61497930D01*
X139994087Y-61469087D01*
X140022930Y-61425920D01*
X140030501Y-61387856D01*
X140030500Y-61112147D01*
X140022930Y-61074082D01*
X140016193Y-61064000D01*
X140000409Y-61040377D01*
X139994087Y-61030915D01*
X139994086Y-61030914D01*
X139994085Y-61030913D01*
X139950920Y-61002072D01*
X139950916Y-61002070D01*
X139912860Y-60994501D01*
X139912856Y-60994501D01*
X139656487Y-60994501D01*
X139611232Y-60975756D01*
X139600316Y-60961173D01*
X139592557Y-60946964D01*
X139533107Y-60899056D01*
X139487859Y-60880313D01*
X139487850Y-60880311D01*
X139436003Y-60869998D01*
X139436000Y-60869998D01*
X138169001Y-60869998D01*
X138123746Y-60851253D01*
X138105001Y-60805998D01*
X138105001Y-60693999D01*
X138123746Y-60648744D01*
X138169001Y-60629999D01*
X139436003Y-60629999D01*
X139461926Y-60624842D01*
X139487853Y-60619685D01*
X139533108Y-60600940D01*
X139558534Y-60587056D01*
X139606441Y-60527607D01*
X139625186Y-60482352D01*
X139635500Y-60430499D01*
X139635500Y-50859475D01*
X139654245Y-50814220D01*
X139699500Y-50795475D01*
X140842222Y-50795475D01*
X140842246Y-50795476D01*
X140847387Y-50795475D01*
X140847391Y-50795477D01*
X140892884Y-50795475D01*
X140897064Y-50795749D01*
X140937131Y-50801022D01*
X140990026Y-50807985D01*
X141006156Y-50812307D01*
X141086934Y-50845766D01*
X141101397Y-50854116D01*
X141170765Y-50907347D01*
X141182572Y-50919155D01*
X141235796Y-50988525D01*
X141244147Y-51002990D01*
X141277600Y-51083769D01*
X141281923Y-51099910D01*
X141290766Y-51167131D01*
X141294201Y-51193237D01*
X141294474Y-51197418D01*
X141294469Y-51247654D01*
X141294475Y-51247727D01*
X141294475Y-74745040D01*
X141294473Y-74745069D01*
X141294474Y-74792885D01*
X141294200Y-74797065D01*
X141281965Y-74890027D01*
X141277641Y-74906167D01*
X141244182Y-74986947D01*
X141235828Y-75001416D01*
X141182600Y-75070785D01*
X141170785Y-75082600D01*
X141101416Y-75135828D01*
X141086947Y-75144182D01*
X141006167Y-75177641D01*
X140990027Y-75181965D01*
X140897065Y-75194200D01*
X140892885Y-75194474D01*
X140851952Y-75194473D01*
X140847391Y-75194473D01*
X140847390Y-75194473D01*
X140842246Y-75194473D01*
X140842222Y-75194475D01*
X96697085Y-75194475D01*
X96692907Y-75194201D01*
X96670813Y-75191291D01*
X96599947Y-75181959D01*
X96583809Y-75177634D01*
X96503033Y-75144172D01*
X96488567Y-75135820D01*
X96419202Y-75082590D01*
X96407390Y-75070777D01*
X96380777Y-75036093D01*
X96354163Y-75001406D01*
X96345812Y-74986939D01*
X96312357Y-74906162D01*
X96308033Y-74890024D01*
X96307042Y-74882498D01*
X96295748Y-74796685D01*
X96295475Y-74792509D01*
X96295477Y-74747391D01*
X96295475Y-74747387D01*
X96295476Y-74745068D01*
X96295475Y-74745040D01*
X96295475Y-73136002D01*
X131664500Y-73136002D01*
X131674813Y-73187850D01*
X131674814Y-73187855D01*
X131674816Y-73187859D01*
X131693559Y-73233108D01*
X131693561Y-73233111D01*
X131693562Y-73233114D01*
X131707443Y-73258534D01*
X131766892Y-73306441D01*
X131812140Y-73325184D01*
X131812144Y-73325185D01*
X131812147Y-73325186D01*
X131832888Y-73329311D01*
X131863997Y-73335500D01*
X131864000Y-73335500D01*
X139936003Y-73335500D01*
X139961926Y-73330343D01*
X139987853Y-73325186D01*
X140033108Y-73306441D01*
X140058534Y-73292557D01*
X140106441Y-73233108D01*
X140125186Y-73187853D01*
X140135500Y-73136000D01*
X140135500Y-69726510D01*
X140135500Y-69726509D01*
X140135500Y-69726507D01*
X140125186Y-69674659D01*
X140125184Y-69674651D01*
X140118260Y-69657937D01*
X140106441Y-69629402D01*
X140077068Y-69585442D01*
X136954245Y-66462618D01*
X136935500Y-66417363D01*
X136935500Y-62126507D01*
X136925186Y-62074659D01*
X136925184Y-62074651D01*
X136917529Y-62056172D01*
X136906441Y-62029402D01*
X136877068Y-61985442D01*
X136714558Y-61822932D01*
X136714557Y-61822931D01*
X136670603Y-61793562D01*
X136670600Y-61793560D01*
X136670598Y-61793559D01*
X136658544Y-61788566D01*
X136625348Y-61774815D01*
X136625340Y-61774813D01*
X136573493Y-61764500D01*
X136573490Y-61764500D01*
X136071130Y-61764500D01*
X136066560Y-61764724D01*
X136064479Y-61764827D01*
X136048687Y-61766383D01*
X135986692Y-61788566D01*
X135986691Y-61788566D01*
X135986687Y-61788568D01*
X135945962Y-61815779D01*
X135910487Y-61851254D01*
X135865233Y-61869999D01*
X134363994Y-61869999D01*
X134312147Y-61880312D01*
X134312138Y-61880315D01*
X134266902Y-61899052D01*
X134266888Y-61899059D01*
X134241466Y-61912941D01*
X134194953Y-61970660D01*
X134151961Y-61994135D01*
X134145121Y-61994502D01*
X134087148Y-61994502D01*
X134049080Y-62002073D01*
X134005914Y-62030916D01*
X134005913Y-62030917D01*
X133977072Y-62074082D01*
X133977070Y-62074086D01*
X133969501Y-62112142D01*
X133969501Y-62387854D01*
X133977072Y-62425922D01*
X133989026Y-62443812D01*
X134005915Y-62469088D01*
X134049082Y-62497931D01*
X134049083Y-62497931D01*
X134049085Y-62497932D01*
X134074341Y-62502955D01*
X134087146Y-62505502D01*
X134143514Y-62505501D01*
X134188768Y-62524245D01*
X134199684Y-62538826D01*
X134207443Y-62553034D01*
X134266892Y-62600941D01*
X134312140Y-62619684D01*
X134312144Y-62619685D01*
X134312147Y-62619686D01*
X134328979Y-62623034D01*
X134363997Y-62630000D01*
X134364000Y-62630000D01*
X135831000Y-62630000D01*
X135876255Y-62648745D01*
X135895000Y-62693999D01*
X135895001Y-62805998D01*
X135876256Y-62851253D01*
X135831002Y-62869999D01*
X134363994Y-62869999D01*
X134312147Y-62880312D01*
X134312138Y-62880315D01*
X134266902Y-62899052D01*
X134266888Y-62899059D01*
X134241466Y-62912941D01*
X134194955Y-62970658D01*
X134151963Y-62994133D01*
X134145123Y-62994500D01*
X134087148Y-62994500D01*
X134049080Y-63002071D01*
X134005914Y-63030914D01*
X134005913Y-63030915D01*
X133977072Y-63074080D01*
X133977070Y-63074084D01*
X133969501Y-63112140D01*
X133969501Y-63387852D01*
X133977072Y-63425920D01*
X134005915Y-63469086D01*
X134005916Y-63469087D01*
X134027498Y-63483507D01*
X134049082Y-63497929D01*
X134049083Y-63497929D01*
X134049085Y-63497930D01*
X134074341Y-63502953D01*
X134087146Y-63505500D01*
X134143513Y-63505499D01*
X134188767Y-63524243D01*
X134199684Y-63538826D01*
X134207443Y-63553035D01*
X134266892Y-63600942D01*
X134312140Y-63619685D01*
X134312144Y-63619686D01*
X134312147Y-63619687D01*
X134328979Y-63623035D01*
X134363997Y-63630001D01*
X134364000Y-63630001D01*
X135831000Y-63630001D01*
X135876255Y-63648746D01*
X135895000Y-63694000D01*
X135895001Y-63805999D01*
X135876256Y-63851254D01*
X135831002Y-63870000D01*
X134363994Y-63870000D01*
X134312147Y-63880313D01*
X134312138Y-63880316D01*
X134266902Y-63899053D01*
X134266888Y-63899060D01*
X134241466Y-63912942D01*
X134194956Y-63970658D01*
X134151964Y-63994133D01*
X134145124Y-63994500D01*
X134087148Y-63994500D01*
X134049080Y-64002071D01*
X134005914Y-64030914D01*
X134005913Y-64030915D01*
X133977072Y-64074080D01*
X133977070Y-64074084D01*
X133969501Y-64112140D01*
X133969501Y-64387852D01*
X133977072Y-64425920D01*
X134005915Y-64469086D01*
X134005916Y-64469087D01*
X134012506Y-64473490D01*
X134049082Y-64497929D01*
X134049083Y-64497929D01*
X134049085Y-64497930D01*
X134074341Y-64502953D01*
X134087146Y-64505500D01*
X134143512Y-64505499D01*
X134188766Y-64524243D01*
X134199682Y-64538825D01*
X134207442Y-64553035D01*
X134207441Y-64553035D01*
X134266892Y-64600943D01*
X134312140Y-64619686D01*
X134312144Y-64619687D01*
X134312147Y-64619688D01*
X134332888Y-64623813D01*
X134363997Y-64630002D01*
X134364000Y-64630002D01*
X135831000Y-64630002D01*
X135876255Y-64648747D01*
X135895000Y-64694001D01*
X135895001Y-64806000D01*
X135876256Y-64851255D01*
X135831002Y-64870001D01*
X134363994Y-64870001D01*
X134312147Y-64880314D01*
X134312142Y-64880315D01*
X134266889Y-64899061D01*
X134241465Y-64912943D01*
X134194953Y-64970660D01*
X134151961Y-64994134D01*
X134145122Y-64994501D01*
X134087148Y-64994501D01*
X134049080Y-65002072D01*
X134005914Y-65030915D01*
X134005913Y-65030916D01*
X133977072Y-65074081D01*
X133977070Y-65074085D01*
X133969501Y-65112141D01*
X133969501Y-65387853D01*
X133977072Y-65425921D01*
X133977510Y-65426576D01*
X134005915Y-65469087D01*
X134049082Y-65497930D01*
X134049083Y-65497930D01*
X134049085Y-65497931D01*
X134074341Y-65502954D01*
X134087146Y-65505501D01*
X134100497Y-65505500D01*
X134145752Y-65524242D01*
X134164500Y-65569496D01*
X134164500Y-66417363D01*
X134145755Y-66462618D01*
X131722930Y-68885443D01*
X131693557Y-68929404D01*
X131693555Y-68929408D01*
X131674816Y-68974649D01*
X131674813Y-68974659D01*
X131664500Y-69026506D01*
X131664500Y-73136002D01*
X96295475Y-73136002D01*
X96295475Y-71900003D01*
X109314922Y-71900003D01*
X109333152Y-72038483D01*
X109333155Y-72038491D01*
X109386607Y-72167535D01*
X109386608Y-72167538D01*
X109386609Y-72167539D01*
X109471643Y-72278357D01*
X109582461Y-72363391D01*
X109711512Y-72416846D01*
X109711514Y-72416846D01*
X109711516Y-72416847D01*
X109849996Y-72435078D01*
X109850000Y-72435078D01*
X109850004Y-72435078D01*
X109988483Y-72416847D01*
X109988484Y-72416846D01*
X109988488Y-72416846D01*
X110117539Y-72363391D01*
X110228357Y-72278357D01*
X110249225Y-72251160D01*
X110291645Y-72226669D01*
X110338960Y-72239346D01*
X110350774Y-72251160D01*
X110371643Y-72278357D01*
X110482461Y-72363391D01*
X110611512Y-72416846D01*
X110611514Y-72416846D01*
X110611516Y-72416847D01*
X110749996Y-72435078D01*
X110750000Y-72435078D01*
X110750004Y-72435078D01*
X110888483Y-72416847D01*
X110888484Y-72416846D01*
X110888488Y-72416846D01*
X111017539Y-72363391D01*
X111128357Y-72278357D01*
X111213391Y-72167539D01*
X111266846Y-72038488D01*
X111285078Y-71900000D01*
X111285078Y-71899996D01*
X111266847Y-71761516D01*
X111266846Y-71761514D01*
X111266846Y-71761512D01*
X111213391Y-71632461D01*
X111128357Y-71521643D01*
X111017539Y-71436609D01*
X111017538Y-71436608D01*
X111017535Y-71436607D01*
X110888491Y-71383155D01*
X110888483Y-71383152D01*
X110750004Y-71364922D01*
X110749996Y-71364922D01*
X110611516Y-71383152D01*
X110611508Y-71383155D01*
X110482464Y-71436607D01*
X110482461Y-71436608D01*
X110371643Y-71521643D01*
X110350775Y-71548839D01*
X110308354Y-71573330D01*
X110261039Y-71560653D01*
X110249225Y-71548839D01*
X110228357Y-71521643D01*
X110117539Y-71436609D01*
X110117538Y-71436608D01*
X110117535Y-71436607D01*
X109988491Y-71383155D01*
X109988483Y-71383152D01*
X109850004Y-71364922D01*
X109849996Y-71364922D01*
X109711516Y-71383152D01*
X109711508Y-71383155D01*
X109582464Y-71436607D01*
X109582461Y-71436608D01*
X109471643Y-71521643D01*
X109386608Y-71632461D01*
X109386607Y-71632464D01*
X109333155Y-71761508D01*
X109333152Y-71761516D01*
X109314922Y-71899996D01*
X109314922Y-71900003D01*
X96295475Y-71900003D01*
X96295475Y-65836002D01*
X96864500Y-65836002D01*
X96874813Y-65887850D01*
X96874814Y-65887855D01*
X96882389Y-65906141D01*
X96893559Y-65933108D01*
X96893561Y-65933111D01*
X96893562Y-65933114D01*
X96907443Y-65958534D01*
X96966892Y-66006441D01*
X97012140Y-66025184D01*
X97012144Y-66025185D01*
X97012147Y-66025186D01*
X97032888Y-66029311D01*
X97063997Y-66035500D01*
X97064000Y-66035500D01*
X98433013Y-66035500D01*
X98478268Y-66054245D01*
X99050755Y-66626731D01*
X99069500Y-66671986D01*
X99069500Y-68639860D01*
X99050755Y-68685115D01*
X99017263Y-68702770D01*
X99001382Y-68705739D01*
X98989299Y-68707998D01*
X98989297Y-68707998D01*
X98989295Y-68707999D01*
X98793932Y-68783683D01*
X98615799Y-68893979D01*
X98460968Y-69035126D01*
X98334710Y-69202321D01*
X98334708Y-69202324D01*
X98241325Y-69389862D01*
X98183988Y-69591379D01*
X98164657Y-69799999D01*
X98164657Y-69800000D01*
X98183988Y-70008620D01*
X98241325Y-70210137D01*
X98334708Y-70397675D01*
X98334710Y-70397678D01*
X98460968Y-70564873D01*
X98615799Y-70706020D01*
X98615801Y-70706021D01*
X98615803Y-70706023D01*
X98793934Y-70816317D01*
X98793933Y-70816317D01*
X98989296Y-70892001D01*
X98989299Y-70892002D01*
X98989302Y-70892002D01*
X98989308Y-70892004D01*
X99075730Y-70908158D01*
X99195244Y-70930500D01*
X99404756Y-70930500D01*
X99575135Y-70898650D01*
X99610691Y-70892004D01*
X99610693Y-70892003D01*
X99610701Y-70892002D01*
X99806066Y-70816317D01*
X99984197Y-70706023D01*
X100139029Y-70564876D01*
X100265288Y-70397681D01*
X100358676Y-70210133D01*
X100416012Y-70008619D01*
X100435343Y-69800000D01*
X100416012Y-69591381D01*
X100361560Y-69400003D01*
X115014922Y-69400003D01*
X115033152Y-69538483D01*
X115033155Y-69538491D01*
X115086607Y-69667535D01*
X115086608Y-69667538D01*
X115086609Y-69667539D01*
X115171643Y-69778357D01*
X115282461Y-69863391D01*
X115411512Y-69916846D01*
X115411514Y-69916846D01*
X115411516Y-69916847D01*
X115549996Y-69935078D01*
X115550000Y-69935078D01*
X115550004Y-69935078D01*
X115688483Y-69916847D01*
X115688484Y-69916846D01*
X115688488Y-69916846D01*
X115817539Y-69863391D01*
X115928357Y-69778357D01*
X115949225Y-69751160D01*
X115991645Y-69726669D01*
X116038960Y-69739346D01*
X116050774Y-69751160D01*
X116071643Y-69778357D01*
X116182461Y-69863391D01*
X116311512Y-69916846D01*
X116311514Y-69916846D01*
X116311516Y-69916847D01*
X116449996Y-69935078D01*
X116450000Y-69935078D01*
X116450004Y-69935078D01*
X116588483Y-69916847D01*
X116588484Y-69916846D01*
X116588488Y-69916846D01*
X116717539Y-69863391D01*
X116828357Y-69778357D01*
X116913391Y-69667539D01*
X116966846Y-69538488D01*
X116985078Y-69400000D01*
X116985078Y-69399996D01*
X116966847Y-69261516D01*
X116966846Y-69261514D01*
X116966846Y-69261512D01*
X116913391Y-69132461D01*
X116828357Y-69021643D01*
X116717539Y-68936609D01*
X116717538Y-68936608D01*
X116717535Y-68936607D01*
X116588491Y-68883155D01*
X116588483Y-68883152D01*
X116450004Y-68864922D01*
X116449996Y-68864922D01*
X116311516Y-68883152D01*
X116311508Y-68883155D01*
X116182464Y-68936607D01*
X116182461Y-68936608D01*
X116132873Y-68974659D01*
X116071643Y-69021643D01*
X116067912Y-69026506D01*
X116050775Y-69048839D01*
X116008354Y-69073330D01*
X115961039Y-69060653D01*
X115949225Y-69048839D01*
X115928357Y-69021643D01*
X115817539Y-68936609D01*
X115817538Y-68936608D01*
X115817535Y-68936607D01*
X115688491Y-68883155D01*
X115688483Y-68883152D01*
X115550004Y-68864922D01*
X115549996Y-68864922D01*
X115411516Y-68883152D01*
X115411508Y-68883155D01*
X115282464Y-68936607D01*
X115282461Y-68936608D01*
X115171643Y-69021643D01*
X115086608Y-69132461D01*
X115086607Y-69132464D01*
X115033155Y-69261508D01*
X115033152Y-69261516D01*
X115014922Y-69399996D01*
X115014922Y-69400003D01*
X100361560Y-69400003D01*
X100358676Y-69389867D01*
X100294761Y-69261508D01*
X100265291Y-69202324D01*
X100265289Y-69202321D01*
X100265288Y-69202320D01*
X100265288Y-69202319D01*
X100167881Y-69073330D01*
X100139031Y-69035126D01*
X99984200Y-68893979D01*
X99806067Y-68783683D01*
X99610704Y-68707999D01*
X99610703Y-68707998D01*
X99610701Y-68707998D01*
X99594764Y-68705018D01*
X99582737Y-68702770D01*
X99541699Y-68676026D01*
X99530500Y-68639860D01*
X99530500Y-68200000D01*
X112740069Y-68200000D01*
X112757684Y-68311223D01*
X112757687Y-68311230D01*
X112808805Y-68411556D01*
X112808808Y-68411559D01*
X112808810Y-68411562D01*
X112888438Y-68491190D01*
X112888440Y-68491191D01*
X112888443Y-68491194D01*
X112988769Y-68542312D01*
X112988775Y-68542315D01*
X113100000Y-68559931D01*
X113211225Y-68542315D01*
X113243757Y-68525738D01*
X113311556Y-68491194D01*
X113311557Y-68491192D01*
X113311562Y-68491190D01*
X113391190Y-68411562D01*
X113391192Y-68411557D01*
X113391194Y-68411556D01*
X113432494Y-68330500D01*
X113442315Y-68311225D01*
X113459931Y-68200000D01*
X113444093Y-68100003D01*
X122564922Y-68100003D01*
X122583152Y-68238483D01*
X122583155Y-68238491D01*
X122636607Y-68367535D01*
X122636608Y-68367538D01*
X122636609Y-68367539D01*
X122721643Y-68478357D01*
X122832461Y-68563391D01*
X122961512Y-68616846D01*
X122961514Y-68616846D01*
X122961516Y-68616847D01*
X123099996Y-68635078D01*
X123100000Y-68635078D01*
X123100004Y-68635078D01*
X123238483Y-68616847D01*
X123238484Y-68616846D01*
X123238488Y-68616846D01*
X123367539Y-68563391D01*
X123478357Y-68478357D01*
X123563391Y-68367539D01*
X123563392Y-68367535D01*
X123565488Y-68363906D01*
X123567382Y-68364999D01*
X123596990Y-68335377D01*
X123621496Y-68330500D01*
X126593115Y-68330500D01*
X126594783Y-68330543D01*
X126636864Y-68332749D01*
X126660964Y-68323496D01*
X126670589Y-68320644D01*
X126695847Y-68315277D01*
X126704117Y-68309267D01*
X126718796Y-68301296D01*
X126728344Y-68297632D01*
X126746596Y-68279379D01*
X126754235Y-68272855D01*
X126775122Y-68257681D01*
X126780234Y-68248825D01*
X126790401Y-68235573D01*
X126794234Y-68231740D01*
X126839488Y-68212996D01*
X126857256Y-68216531D01*
X126857463Y-68215761D01*
X126861508Y-68216844D01*
X126861512Y-68216846D01*
X126907674Y-68222923D01*
X126999996Y-68235078D01*
X127000000Y-68235078D01*
X127000004Y-68235078D01*
X127138483Y-68216847D01*
X127138484Y-68216846D01*
X127138488Y-68216846D01*
X127267539Y-68163391D01*
X127378357Y-68078357D01*
X127463391Y-67967539D01*
X127516846Y-67838488D01*
X127516847Y-67838483D01*
X127535078Y-67700003D01*
X127535078Y-67699996D01*
X127516847Y-67561516D01*
X127516846Y-67561514D01*
X127516846Y-67561512D01*
X127463391Y-67432461D01*
X127378357Y-67321643D01*
X127267539Y-67236609D01*
X127267538Y-67236608D01*
X127267535Y-67236607D01*
X127138491Y-67183155D01*
X127138483Y-67183152D01*
X127000004Y-67164922D01*
X126999996Y-67164922D01*
X126861516Y-67183152D01*
X126861508Y-67183155D01*
X126732464Y-67236607D01*
X126732461Y-67236608D01*
X126621643Y-67321643D01*
X126536608Y-67432461D01*
X126536607Y-67432464D01*
X126483155Y-67561508D01*
X126483152Y-67561516D01*
X126464922Y-67699996D01*
X126464922Y-67700003D01*
X126477711Y-67797146D01*
X126465034Y-67844461D01*
X126422613Y-67868952D01*
X126414259Y-67869500D01*
X123621496Y-67869500D01*
X123576241Y-67850755D01*
X123566180Y-67835694D01*
X123565488Y-67836094D01*
X123563391Y-67832461D01*
X123544450Y-67807777D01*
X123478357Y-67721643D01*
X123367539Y-67636609D01*
X123367538Y-67636608D01*
X123367535Y-67636607D01*
X123238491Y-67583155D01*
X123238483Y-67583152D01*
X123100004Y-67564922D01*
X123099996Y-67564922D01*
X122961516Y-67583152D01*
X122961508Y-67583155D01*
X122832464Y-67636607D01*
X122832461Y-67636608D01*
X122721643Y-67721643D01*
X122636608Y-67832461D01*
X122636607Y-67832464D01*
X122583155Y-67961508D01*
X122583152Y-67961516D01*
X122564922Y-68099996D01*
X122564922Y-68100003D01*
X113444093Y-68100003D01*
X113442315Y-68088775D01*
X113437006Y-68078356D01*
X113391194Y-67988443D01*
X113391191Y-67988440D01*
X113391190Y-67988438D01*
X113312807Y-67910055D01*
X113294063Y-67864802D01*
X113312808Y-67819547D01*
X113329006Y-67807778D01*
X113361562Y-67791190D01*
X113441190Y-67711562D01*
X113441192Y-67711557D01*
X113441194Y-67711556D01*
X113479381Y-67636609D01*
X113492315Y-67611225D01*
X113509931Y-67500000D01*
X113492315Y-67388775D01*
X113492312Y-67388769D01*
X113441194Y-67288443D01*
X113441191Y-67288440D01*
X113441190Y-67288438D01*
X113361562Y-67208810D01*
X113361559Y-67208808D01*
X113361556Y-67208805D01*
X113261230Y-67157687D01*
X113261223Y-67157684D01*
X113150000Y-67140069D01*
X113038776Y-67157684D01*
X113038769Y-67157687D01*
X112938443Y-67208805D01*
X112858805Y-67288443D01*
X112807687Y-67388769D01*
X112807684Y-67388776D01*
X112790069Y-67499999D01*
X112790069Y-67500000D01*
X112807684Y-67611223D01*
X112807687Y-67611230D01*
X112858805Y-67711556D01*
X112858808Y-67711559D01*
X112858810Y-67711562D01*
X112937191Y-67789943D01*
X112955936Y-67835197D01*
X112937191Y-67880452D01*
X112920993Y-67892221D01*
X112888440Y-67908808D01*
X112808805Y-67988443D01*
X112757687Y-68088769D01*
X112757684Y-68088776D01*
X112740069Y-68199999D01*
X112740069Y-68200000D01*
X99530500Y-68200000D01*
X99530500Y-66556883D01*
X99530544Y-66555208D01*
X99532749Y-66513136D01*
X99523496Y-66489032D01*
X99520643Y-66479402D01*
X99515277Y-66454153D01*
X99509263Y-66445876D01*
X99501293Y-66431194D01*
X99497632Y-66421657D01*
X99497632Y-66421656D01*
X99479377Y-66403401D01*
X99472855Y-66395764D01*
X99457682Y-66374879D01*
X99457680Y-66374877D01*
X99448824Y-66369764D01*
X99435570Y-66359594D01*
X99220730Y-66144755D01*
X99201985Y-66099500D01*
X99220730Y-66054245D01*
X99265985Y-66035500D01*
X104636003Y-66035500D01*
X104661926Y-66030343D01*
X104687853Y-66025186D01*
X104733108Y-66006441D01*
X104758534Y-65992557D01*
X104806441Y-65933108D01*
X104825186Y-65887853D01*
X104831374Y-65856741D01*
X104835500Y-65836002D01*
X104835500Y-64063997D01*
X104828919Y-64030913D01*
X104825186Y-64012147D01*
X104806441Y-63966892D01*
X104792557Y-63941466D01*
X104786528Y-63936607D01*
X104733107Y-63893558D01*
X104687859Y-63874815D01*
X104687850Y-63874813D01*
X104636003Y-63864500D01*
X104636000Y-63864500D01*
X102943492Y-63864500D01*
X102943119Y-63864518D01*
X102936879Y-63864824D01*
X102936862Y-63864825D01*
X102936855Y-63864826D01*
X102929094Y-63865589D01*
X102917766Y-63866703D01*
X102917755Y-63866704D01*
X102917751Y-63866705D01*
X102912821Y-63867435D01*
X102911148Y-63867684D01*
X102907846Y-63868341D01*
X102905689Y-63868770D01*
X102893205Y-63870000D01*
X101106793Y-63870000D01*
X101094312Y-63868771D01*
X101093288Y-63868567D01*
X101088854Y-63867685D01*
X101082257Y-63866706D01*
X101063143Y-63864825D01*
X101056522Y-63864500D01*
X101056512Y-63864500D01*
X100994499Y-63864500D01*
X100994496Y-63864500D01*
X100942648Y-63874813D01*
X100942643Y-63874814D01*
X100900771Y-63892158D01*
X100897394Y-63893558D01*
X100897384Y-63893562D01*
X100871964Y-63907443D01*
X100824057Y-63966892D01*
X100805314Y-64012140D01*
X100805312Y-64012149D01*
X100794999Y-64063997D01*
X100794999Y-64278014D01*
X100805312Y-64329862D01*
X100805314Y-64329870D01*
X100820595Y-64366760D01*
X100824058Y-64375120D01*
X100824059Y-64375122D01*
X100824061Y-64375125D01*
X100843128Y-64403661D01*
X100853431Y-64419080D01*
X101005921Y-64571570D01*
X101049881Y-64600943D01*
X101078416Y-64612762D01*
X101095130Y-64619686D01*
X101095132Y-64619686D01*
X101095136Y-64619688D01*
X101115877Y-64623813D01*
X101146986Y-64630002D01*
X101146989Y-64630002D01*
X102831000Y-64630002D01*
X102876255Y-64648747D01*
X102895000Y-64694002D01*
X102895000Y-64806001D01*
X102876255Y-64851256D01*
X102831000Y-64870001D01*
X101110562Y-64870001D01*
X101083205Y-64863859D01*
X101078481Y-64861625D01*
X101078474Y-64861622D01*
X101078471Y-64861621D01*
X101044007Y-64851166D01*
X101042235Y-64850571D01*
X101034409Y-64847684D01*
X101034400Y-64847681D01*
X101027228Y-64845556D01*
X101012706Y-64839206D01*
X101010878Y-64838119D01*
X101002200Y-64833406D01*
X100985183Y-64819990D01*
X100983373Y-64817980D01*
X100982151Y-64816658D01*
X100979792Y-64814175D01*
X100979777Y-64814159D01*
X100978592Y-64812943D01*
X100833184Y-64667535D01*
X100657103Y-64491453D01*
X100650430Y-64485601D01*
X100650425Y-64485597D01*
X100644498Y-64481049D01*
X100633201Y-64469900D01*
X100631909Y-64468261D01*
X100631893Y-64468242D01*
X100631882Y-64468228D01*
X100622485Y-64457226D01*
X100609785Y-64433834D01*
X100607223Y-64425183D01*
X100604677Y-64403661D01*
X100604817Y-64400992D01*
X100604886Y-64399235D01*
X100604976Y-64395795D01*
X100605000Y-64394008D01*
X100605000Y-63596009D01*
X100605000Y-63596006D01*
X100594687Y-63544162D01*
X100594686Y-63544155D01*
X100578826Y-63505866D01*
X100575943Y-63498905D01*
X100575936Y-63498892D01*
X100546570Y-63454944D01*
X99754245Y-62662619D01*
X99735500Y-62617364D01*
X99735500Y-62573492D01*
X100064500Y-62573492D01*
X100074813Y-62625340D01*
X100074815Y-62625348D01*
X100084507Y-62648745D01*
X100093559Y-62670598D01*
X100093560Y-62670600D01*
X100093562Y-62670603D01*
X100122931Y-62714557D01*
X100122932Y-62714558D01*
X100979943Y-63571569D01*
X101023903Y-63600942D01*
X101052438Y-63612761D01*
X101069152Y-63619685D01*
X101069154Y-63619685D01*
X101069158Y-63619687D01*
X101085990Y-63623035D01*
X101121008Y-63630001D01*
X101121011Y-63630001D01*
X102894507Y-63630001D01*
X102903893Y-63630693D01*
X102906909Y-63631140D01*
X102906914Y-63631140D01*
X102906930Y-63631143D01*
X102922725Y-63632698D01*
X102987853Y-63623036D01*
X103033108Y-63604291D01*
X103058534Y-63590407D01*
X103106441Y-63530958D01*
X103119718Y-63498905D01*
X103125184Y-63485709D01*
X103125184Y-63485706D01*
X103125186Y-63485703D01*
X103134839Y-63437174D01*
X103135500Y-63433852D01*
X103135500Y-63062833D01*
X103135500Y-63062822D01*
X103135173Y-63056176D01*
X103133617Y-63040379D01*
X103111435Y-62978384D01*
X103111433Y-62978382D01*
X103111433Y-62978380D01*
X103084224Y-62937659D01*
X103084219Y-62937652D01*
X103065643Y-62915425D01*
X102997994Y-62880039D01*
X102997989Y-62880037D01*
X102949951Y-62870482D01*
X102949948Y-62870482D01*
X102939848Y-62870482D01*
X102938682Y-62869999D01*
X102912855Y-62869999D01*
X101169001Y-62869999D01*
X101123746Y-62851254D01*
X101105001Y-62805999D01*
X101105001Y-62694000D01*
X101123746Y-62648745D01*
X101169001Y-62630000D01*
X102894507Y-62630000D01*
X102903893Y-62630692D01*
X102906909Y-62631139D01*
X102906914Y-62631139D01*
X102906930Y-62631142D01*
X102922725Y-62632697D01*
X102987853Y-62623035D01*
X103033108Y-62604290D01*
X103058534Y-62590406D01*
X103106441Y-62530957D01*
X103125186Y-62485702D01*
X103134839Y-62437173D01*
X103135500Y-62433851D01*
X103135500Y-62062833D01*
X103135500Y-62062822D01*
X103135173Y-62056176D01*
X103133617Y-62040379D01*
X103111435Y-61978384D01*
X103111433Y-61978382D01*
X103111433Y-61978380D01*
X103084224Y-61937659D01*
X103084219Y-61937652D01*
X103065643Y-61915425D01*
X102997994Y-61880039D01*
X102997989Y-61880037D01*
X102949951Y-61870482D01*
X102949948Y-61870482D01*
X102939848Y-61870482D01*
X102938682Y-61869999D01*
X102912855Y-61869999D01*
X101185676Y-61869999D01*
X101140421Y-61851254D01*
X101121676Y-61805999D01*
X101122223Y-61797646D01*
X101135078Y-61699997D01*
X101135078Y-61695805D01*
X101137146Y-61695805D01*
X101148058Y-61655049D01*
X101190474Y-61630549D01*
X101198840Y-61630000D01*
X102894507Y-61630000D01*
X102903893Y-61630692D01*
X102906909Y-61631139D01*
X102906914Y-61631139D01*
X102906930Y-61631142D01*
X102922725Y-61632697D01*
X102987853Y-61623035D01*
X103033108Y-61604290D01*
X103058534Y-61590406D01*
X103106441Y-61530957D01*
X103115072Y-61510118D01*
X103125184Y-61485708D01*
X103125184Y-61485705D01*
X103125186Y-61485702D01*
X103134839Y-61437173D01*
X103135500Y-61433851D01*
X103135500Y-61062832D01*
X103135500Y-61062821D01*
X103135173Y-61056175D01*
X103133617Y-61040378D01*
X103111435Y-60978383D01*
X103111433Y-60978381D01*
X103111433Y-60978379D01*
X103084224Y-60937658D01*
X103084219Y-60937651D01*
X103065643Y-60915424D01*
X102997994Y-60880038D01*
X102997989Y-60880036D01*
X102949951Y-60870481D01*
X102949948Y-60870481D01*
X102939848Y-60870481D01*
X102938682Y-60869998D01*
X102912855Y-60869998D01*
X101198841Y-60869998D01*
X101153586Y-60851253D01*
X101134841Y-60805998D01*
X101135078Y-60802377D01*
X101135078Y-60799996D01*
X101116846Y-60661513D01*
X101111432Y-60648442D01*
X101107790Y-60611461D01*
X101109884Y-60600936D01*
X101110138Y-60599658D01*
X101111114Y-60593079D01*
X101112670Y-60577285D01*
X101103009Y-60512147D01*
X101084264Y-60466892D01*
X101070380Y-60441466D01*
X101010931Y-60393559D01*
X101010930Y-60393558D01*
X100965682Y-60374815D01*
X100965673Y-60374813D01*
X100915044Y-60364742D01*
X100888569Y-60352746D01*
X100867543Y-60336611D01*
X100867535Y-60336607D01*
X100738491Y-60283155D01*
X100738483Y-60283152D01*
X100600004Y-60264922D01*
X100599996Y-60264922D01*
X100461516Y-60283152D01*
X100461508Y-60283155D01*
X100332464Y-60336607D01*
X100332456Y-60336611D01*
X100313349Y-60351274D01*
X100274388Y-60364500D01*
X100263997Y-60364500D01*
X100212149Y-60374813D01*
X100212144Y-60374814D01*
X100170272Y-60392158D01*
X100166895Y-60393558D01*
X100166885Y-60393562D01*
X100141465Y-60407443D01*
X100093558Y-60466892D01*
X100074815Y-60512140D01*
X100074813Y-60512149D01*
X100064500Y-60563997D01*
X100064500Y-62573492D01*
X99735500Y-62573492D01*
X99735500Y-61063997D01*
X99728919Y-61030913D01*
X99725186Y-61012147D01*
X99706441Y-60966892D01*
X99692557Y-60941466D01*
X99639930Y-60899056D01*
X99633107Y-60893558D01*
X99587859Y-60874815D01*
X99587850Y-60874813D01*
X99536003Y-60864500D01*
X99536000Y-60864500D01*
X98943482Y-60864500D01*
X98943109Y-60864518D01*
X98936869Y-60864824D01*
X98936852Y-60864825D01*
X98936845Y-60864826D01*
X98929084Y-60865589D01*
X98917756Y-60866703D01*
X98917745Y-60866704D01*
X98917741Y-60866705D01*
X98911152Y-60867682D01*
X98911145Y-60867683D01*
X98911134Y-60867685D01*
X98907574Y-60868393D01*
X98905690Y-60868768D01*
X98893205Y-60869998D01*
X97105490Y-60869998D01*
X97096101Y-60869305D01*
X97093080Y-60868857D01*
X97093076Y-60868856D01*
X97093072Y-60868856D01*
X97077288Y-60867301D01*
X97077287Y-60867301D01*
X97077286Y-60867301D01*
X97059102Y-60869998D01*
X97012146Y-60876962D01*
X96966888Y-60895708D01*
X96941465Y-60909591D01*
X96893558Y-60969040D01*
X96874815Y-61014288D01*
X96874813Y-61014297D01*
X96864500Y-61066145D01*
X96864500Y-61437171D01*
X96864824Y-61443787D01*
X96866378Y-61459596D01*
X96866378Y-61459598D01*
X96866379Y-61459599D01*
X96888557Y-61521598D01*
X96915767Y-61562329D01*
X96934339Y-61584556D01*
X97001987Y-61619953D01*
X97050028Y-61629515D01*
X97060153Y-61629515D01*
X97061323Y-61630000D01*
X97087147Y-61630000D01*
X98831000Y-61630000D01*
X98876255Y-61648745D01*
X98895000Y-61694000D01*
X98895000Y-61805999D01*
X98876255Y-61851254D01*
X98831000Y-61869999D01*
X97105485Y-61869999D01*
X97096102Y-61869307D01*
X97094874Y-61869125D01*
X97093081Y-61868859D01*
X97093068Y-61868858D01*
X97077285Y-61867303D01*
X97077284Y-61867303D01*
X97044715Y-61872133D01*
X97012146Y-61876964D01*
X96966888Y-61895710D01*
X96941465Y-61909593D01*
X96893558Y-61969042D01*
X96874815Y-62014290D01*
X96874813Y-62014299D01*
X96864500Y-62066147D01*
X96864500Y-62437171D01*
X96864824Y-62443787D01*
X96866378Y-62459596D01*
X96866378Y-62459598D01*
X96866379Y-62459599D01*
X96888557Y-62521598D01*
X96915767Y-62562329D01*
X96934339Y-62584556D01*
X97001987Y-62619953D01*
X97050028Y-62629515D01*
X97060153Y-62629515D01*
X97061323Y-62630000D01*
X97087147Y-62630000D01*
X98831000Y-62630000D01*
X98876255Y-62648745D01*
X98895000Y-62694000D01*
X98895000Y-62805999D01*
X98876255Y-62851254D01*
X98831000Y-62869999D01*
X97105485Y-62869999D01*
X97096102Y-62869307D01*
X97094874Y-62869125D01*
X97093081Y-62868859D01*
X97093068Y-62868858D01*
X97077285Y-62867303D01*
X97077284Y-62867303D01*
X97044715Y-62872133D01*
X97012146Y-62876964D01*
X96966888Y-62895710D01*
X96941465Y-62909593D01*
X96893558Y-62969042D01*
X96874815Y-63014290D01*
X96874813Y-63014299D01*
X96864500Y-63066147D01*
X96864500Y-63437172D01*
X96864824Y-63443788D01*
X96864825Y-63443803D01*
X96864826Y-63443813D01*
X96865437Y-63450025D01*
X96866378Y-63459597D01*
X96866378Y-63459599D01*
X96866379Y-63459600D01*
X96888557Y-63521599D01*
X96915767Y-63562330D01*
X96934339Y-63584557D01*
X97001987Y-63619954D01*
X97050028Y-63629516D01*
X97060153Y-63629516D01*
X97061323Y-63630001D01*
X97087147Y-63630001D01*
X98831000Y-63630001D01*
X98876255Y-63648746D01*
X98895000Y-63694001D01*
X98895000Y-63806000D01*
X98876255Y-63851255D01*
X98831000Y-63870000D01*
X97105485Y-63870000D01*
X97096102Y-63869308D01*
X97094874Y-63869126D01*
X97093081Y-63868860D01*
X97093068Y-63868859D01*
X97077285Y-63867304D01*
X97077284Y-63867304D01*
X97059107Y-63870000D01*
X97012146Y-63876965D01*
X96966888Y-63895711D01*
X96941465Y-63909594D01*
X96893558Y-63969043D01*
X96874815Y-64014291D01*
X96874813Y-64014300D01*
X96864500Y-64066148D01*
X96864500Y-64437173D01*
X96864824Y-64443789D01*
X96866378Y-64459598D01*
X96866378Y-64459600D01*
X96866379Y-64459601D01*
X96888557Y-64521600D01*
X96915767Y-64562331D01*
X96934339Y-64584558D01*
X97001987Y-64619955D01*
X97050028Y-64629517D01*
X97060153Y-64629517D01*
X97061323Y-64630002D01*
X97087147Y-64630002D01*
X98831000Y-64630002D01*
X98876255Y-64648747D01*
X98895000Y-64694002D01*
X98895000Y-64806001D01*
X98876255Y-64851256D01*
X98831000Y-64870001D01*
X97105485Y-64870001D01*
X97096102Y-64869309D01*
X97094874Y-64869127D01*
X97093081Y-64868861D01*
X97093068Y-64868860D01*
X97077285Y-64867305D01*
X97077284Y-64867305D01*
X97059107Y-64870001D01*
X97012146Y-64876966D01*
X96966888Y-64895712D01*
X96941465Y-64909595D01*
X96893558Y-64969044D01*
X96874815Y-65014292D01*
X96874813Y-65014301D01*
X96864500Y-65066149D01*
X96864500Y-65836002D01*
X96295475Y-65836002D01*
X96295475Y-53680037D01*
X101664801Y-53680037D01*
X101669358Y-53728232D01*
X101669500Y-53731246D01*
X101669500Y-56923324D01*
X101667959Y-56937283D01*
X101667309Y-56940189D01*
X101667308Y-56940197D01*
X101669484Y-57009392D01*
X101669500Y-57010397D01*
X101669500Y-57039674D01*
X101670555Y-57048029D01*
X101670791Y-57051031D01*
X101672312Y-57099407D01*
X101672312Y-57099412D01*
X101672313Y-57099416D01*
X101672314Y-57099419D01*
X101679286Y-57123419D01*
X101681322Y-57133249D01*
X101684455Y-57158047D01*
X101684456Y-57158049D01*
X101702273Y-57203052D01*
X101703250Y-57205904D01*
X101716757Y-57252392D01*
X101716759Y-57252397D01*
X101729478Y-57273905D01*
X101733895Y-57282920D01*
X101743097Y-57306161D01*
X101743099Y-57306164D01*
X101759680Y-57328985D01*
X101771550Y-57345322D01*
X101773200Y-57347835D01*
X101797844Y-57389505D01*
X101797849Y-57389511D01*
X101815522Y-57407184D01*
X101822044Y-57414821D01*
X101836731Y-57435036D01*
X101836732Y-57435037D01*
X101874025Y-57465888D01*
X101876256Y-57467919D01*
X110200755Y-65792417D01*
X110219500Y-65837672D01*
X110219500Y-66539665D01*
X110234453Y-66658039D01*
X110234455Y-66658045D01*
X110293096Y-66806159D01*
X110293096Y-66806160D01*
X110386731Y-66935036D01*
X110386732Y-66935037D01*
X110509476Y-67036580D01*
X110653616Y-67104407D01*
X110757653Y-67124253D01*
X110810090Y-67134256D01*
X110810091Y-67134256D01*
X110810096Y-67134257D01*
X110969083Y-67124254D01*
X111120587Y-67075028D01*
X111255090Y-66989670D01*
X111364139Y-66873544D01*
X111440883Y-66733947D01*
X111463599Y-66645476D01*
X111480499Y-66579657D01*
X111480500Y-66579649D01*
X111480500Y-65626673D01*
X111482042Y-65612708D01*
X111482691Y-65609807D01*
X111482383Y-65600000D01*
X112740069Y-65600000D01*
X112757684Y-65711223D01*
X112757687Y-65711230D01*
X112808805Y-65811556D01*
X112808808Y-65811559D01*
X112808810Y-65811562D01*
X112888438Y-65891190D01*
X112888440Y-65891191D01*
X112888441Y-65891192D01*
X112920992Y-65907778D01*
X112952804Y-65945025D01*
X112948960Y-65993858D01*
X112937191Y-66010057D01*
X112858805Y-66088443D01*
X112807687Y-66188769D01*
X112807684Y-66188776D01*
X112790069Y-66299999D01*
X112790069Y-66300000D01*
X112807684Y-66411223D01*
X112807687Y-66411230D01*
X112858805Y-66511556D01*
X112858808Y-66511559D01*
X112858810Y-66511562D01*
X112938438Y-66591190D01*
X112938440Y-66591191D01*
X112938443Y-66591194D01*
X113038769Y-66642312D01*
X113038775Y-66642315D01*
X113150000Y-66659931D01*
X113261225Y-66642315D01*
X113293757Y-66625738D01*
X113361556Y-66591194D01*
X113361557Y-66591192D01*
X113361562Y-66591190D01*
X113441190Y-66511562D01*
X113441192Y-66511557D01*
X113441194Y-66511556D01*
X113482140Y-66431194D01*
X113492315Y-66411225D01*
X113509931Y-66300000D01*
X113492315Y-66188775D01*
X113492312Y-66188769D01*
X113441194Y-66088443D01*
X113441191Y-66088440D01*
X113441190Y-66088438D01*
X113361562Y-66008810D01*
X113361559Y-66008808D01*
X113361558Y-66008807D01*
X113329007Y-65992221D01*
X113297195Y-65954973D01*
X113301039Y-65906141D01*
X113312802Y-65889949D01*
X113391190Y-65811562D01*
X113391192Y-65811557D01*
X113391194Y-65811556D01*
X113442312Y-65711230D01*
X113442315Y-65711225D01*
X113459931Y-65600000D01*
X113442315Y-65488775D01*
X113432284Y-65469088D01*
X113391194Y-65388443D01*
X113391191Y-65388440D01*
X113391190Y-65388438D01*
X113311562Y-65308810D01*
X113311559Y-65308808D01*
X113311556Y-65308805D01*
X113211230Y-65257687D01*
X113211223Y-65257684D01*
X113100000Y-65240069D01*
X112988776Y-65257684D01*
X112988769Y-65257687D01*
X112888443Y-65308805D01*
X112808805Y-65388443D01*
X112757687Y-65488769D01*
X112757684Y-65488776D01*
X112740069Y-65599999D01*
X112740069Y-65600000D01*
X111482383Y-65600000D01*
X111480514Y-65540593D01*
X111480499Y-65539599D01*
X111480499Y-65529544D01*
X111480500Y-65510334D01*
X111479443Y-65501971D01*
X111479207Y-65498980D01*
X111477687Y-65450584D01*
X111470712Y-65426576D01*
X111468677Y-65416750D01*
X111465545Y-65391955D01*
X111447724Y-65346944D01*
X111446747Y-65344090D01*
X111433244Y-65297612D01*
X111433243Y-65297608D01*
X111420522Y-65276097D01*
X111416105Y-65267081D01*
X111406903Y-65243840D01*
X111406900Y-65243835D01*
X111378448Y-65204675D01*
X111376791Y-65202153D01*
X111352153Y-65160491D01*
X111334477Y-65142815D01*
X111327954Y-65135177D01*
X111313269Y-65114964D01*
X111275973Y-65084109D01*
X111273742Y-65082079D01*
X110591666Y-64400003D01*
X115014922Y-64400003D01*
X115033152Y-64538483D01*
X115033155Y-64538491D01*
X115086607Y-64667535D01*
X115086608Y-64667538D01*
X115086609Y-64667539D01*
X115171643Y-64778357D01*
X115282461Y-64863391D01*
X115411512Y-64916846D01*
X115411514Y-64916846D01*
X115411516Y-64916847D01*
X115549996Y-64935078D01*
X115550000Y-64935078D01*
X115550004Y-64935078D01*
X115688483Y-64916847D01*
X115688484Y-64916846D01*
X115688488Y-64916846D01*
X115817539Y-64863391D01*
X115928357Y-64778357D01*
X115949225Y-64751160D01*
X115991645Y-64726669D01*
X116038960Y-64739346D01*
X116050774Y-64751160D01*
X116071643Y-64778357D01*
X116182461Y-64863391D01*
X116311512Y-64916846D01*
X116311514Y-64916846D01*
X116311516Y-64916847D01*
X116449996Y-64935078D01*
X116450000Y-64935078D01*
X116450004Y-64935078D01*
X116588483Y-64916847D01*
X116588484Y-64916846D01*
X116588488Y-64916846D01*
X116717539Y-64863391D01*
X116828357Y-64778357D01*
X116913391Y-64667539D01*
X116966846Y-64538488D01*
X116966847Y-64538483D01*
X116985078Y-64400003D01*
X116985078Y-64399996D01*
X116966847Y-64261516D01*
X116966846Y-64261514D01*
X116966846Y-64261512D01*
X116913391Y-64132461D01*
X116828357Y-64021643D01*
X116743322Y-63956393D01*
X116717538Y-63936608D01*
X116717535Y-63936607D01*
X116588491Y-63883155D01*
X116588483Y-63883152D01*
X116450004Y-63864922D01*
X116449996Y-63864922D01*
X116311516Y-63883152D01*
X116311508Y-63883155D01*
X116182464Y-63936607D01*
X116182461Y-63936608D01*
X116071643Y-64021643D01*
X116050775Y-64048839D01*
X116008354Y-64073330D01*
X115961039Y-64060653D01*
X115949225Y-64048839D01*
X115928357Y-64021643D01*
X115843322Y-63956393D01*
X115817538Y-63936608D01*
X115817535Y-63936607D01*
X115688491Y-63883155D01*
X115688483Y-63883152D01*
X115550004Y-63864922D01*
X115549996Y-63864922D01*
X115411516Y-63883152D01*
X115411508Y-63883155D01*
X115282464Y-63936607D01*
X115282461Y-63936608D01*
X115171643Y-64021643D01*
X115086608Y-64132461D01*
X115086607Y-64132464D01*
X115033155Y-64261508D01*
X115033152Y-64261516D01*
X115014922Y-64399996D01*
X115014922Y-64400003D01*
X110591666Y-64400003D01*
X109866666Y-63675003D01*
X121064922Y-63675003D01*
X121083152Y-63813483D01*
X121083155Y-63813491D01*
X121136607Y-63942535D01*
X121136608Y-63942538D01*
X121136609Y-63942539D01*
X121221643Y-64053357D01*
X121332461Y-64138391D01*
X121461512Y-64191846D01*
X121461514Y-64191846D01*
X121461516Y-64191847D01*
X121599996Y-64210078D01*
X121600000Y-64210078D01*
X121600004Y-64210078D01*
X121738483Y-64191847D01*
X121738484Y-64191846D01*
X121738488Y-64191846D01*
X121867539Y-64138391D01*
X121978357Y-64053357D01*
X122063391Y-63942539D01*
X122116846Y-63813488D01*
X122135078Y-63675000D01*
X122135078Y-63674996D01*
X122116847Y-63536516D01*
X122116846Y-63536514D01*
X122116846Y-63536512D01*
X122107512Y-63513980D01*
X122107512Y-63464997D01*
X122121383Y-63444236D01*
X122791375Y-62774245D01*
X122836631Y-62755500D01*
X126368148Y-62755500D01*
X126413403Y-62774245D01*
X126427276Y-62795009D01*
X126436606Y-62817533D01*
X126436606Y-62817535D01*
X126436608Y-62817538D01*
X126436609Y-62817539D01*
X126521643Y-62928357D01*
X126632461Y-63013391D01*
X126761512Y-63066846D01*
X126761514Y-63066846D01*
X126761516Y-63066847D01*
X126899996Y-63085078D01*
X126900000Y-63085078D01*
X126900004Y-63085078D01*
X127038483Y-63066847D01*
X127038484Y-63066846D01*
X127038488Y-63066846D01*
X127167539Y-63013391D01*
X127278357Y-62928357D01*
X127363391Y-62817539D01*
X127416846Y-62688488D01*
X127419201Y-62670603D01*
X127435078Y-62550003D01*
X127435078Y-62549996D01*
X127416847Y-62411516D01*
X127416846Y-62411514D01*
X127416846Y-62411512D01*
X127363391Y-62282461D01*
X127278357Y-62171643D01*
X127167539Y-62086609D01*
X127167538Y-62086608D01*
X127167535Y-62086607D01*
X127038491Y-62033155D01*
X127038483Y-62033152D01*
X126900004Y-62014922D01*
X126899996Y-62014922D01*
X126761516Y-62033152D01*
X126761508Y-62033155D01*
X126632464Y-62086607D01*
X126632461Y-62086608D01*
X126521643Y-62171643D01*
X126436606Y-62282464D01*
X126436606Y-62282466D01*
X126427276Y-62304991D01*
X126392640Y-62339628D01*
X126368148Y-62344500D01*
X122770788Y-62344500D01*
X122749650Y-62340908D01*
X122748601Y-62340541D01*
X122748600Y-62340541D01*
X122731670Y-62342448D01*
X122715245Y-62344299D01*
X122711659Y-62344500D01*
X122701845Y-62344500D01*
X122694823Y-62346102D01*
X122692270Y-62346685D01*
X122688733Y-62347286D01*
X122655380Y-62351043D01*
X122655379Y-62351044D01*
X122654431Y-62351640D01*
X122634639Y-62359839D01*
X122633543Y-62360089D01*
X122607297Y-62381018D01*
X122604372Y-62383094D01*
X122596059Y-62388318D01*
X122596058Y-62388319D01*
X122589115Y-62395261D01*
X122586442Y-62397650D01*
X122560204Y-62418576D01*
X122560200Y-62418581D01*
X122559715Y-62419588D01*
X122547313Y-62437064D01*
X121830765Y-63153612D01*
X121785510Y-63172357D01*
X121761020Y-63167486D01*
X121738488Y-63158153D01*
X121600004Y-63139922D01*
X121599996Y-63139922D01*
X121461516Y-63158152D01*
X121461508Y-63158155D01*
X121332464Y-63211607D01*
X121332461Y-63211608D01*
X121221643Y-63296643D01*
X121136608Y-63407461D01*
X121136607Y-63407464D01*
X121083155Y-63536508D01*
X121083152Y-63536516D01*
X121064922Y-63674996D01*
X121064922Y-63675003D01*
X109866666Y-63675003D01*
X108091666Y-61900003D01*
X109314922Y-61900003D01*
X109333152Y-62038483D01*
X109333155Y-62038491D01*
X109386607Y-62167535D01*
X109386608Y-62167538D01*
X109386609Y-62167539D01*
X109471643Y-62278357D01*
X109582461Y-62363391D01*
X109711512Y-62416846D01*
X109711514Y-62416846D01*
X109711516Y-62416847D01*
X109849996Y-62435078D01*
X109850000Y-62435078D01*
X109850004Y-62435078D01*
X109988483Y-62416847D01*
X109988484Y-62416846D01*
X109988488Y-62416846D01*
X110117539Y-62363391D01*
X110228357Y-62278357D01*
X110249225Y-62251160D01*
X110291645Y-62226669D01*
X110338960Y-62239346D01*
X110350774Y-62251160D01*
X110371643Y-62278357D01*
X110482461Y-62363391D01*
X110611512Y-62416846D01*
X110611514Y-62416846D01*
X110611516Y-62416847D01*
X110749996Y-62435078D01*
X110750000Y-62435078D01*
X110750004Y-62435078D01*
X110888483Y-62416847D01*
X110888484Y-62416846D01*
X110888488Y-62416846D01*
X111017539Y-62363391D01*
X111128357Y-62278357D01*
X111213391Y-62167539D01*
X111266846Y-62038488D01*
X111267548Y-62033155D01*
X111285078Y-61900003D01*
X111285078Y-61899996D01*
X111266847Y-61761516D01*
X111266846Y-61761514D01*
X111266846Y-61761512D01*
X111213391Y-61632461D01*
X111128357Y-61521643D01*
X111018274Y-61437173D01*
X111017538Y-61436608D01*
X111017535Y-61436607D01*
X110888491Y-61383155D01*
X110888483Y-61383152D01*
X110750004Y-61364922D01*
X110749996Y-61364922D01*
X110611516Y-61383152D01*
X110611508Y-61383155D01*
X110482464Y-61436607D01*
X110482461Y-61436608D01*
X110371643Y-61521643D01*
X110350775Y-61548839D01*
X110308354Y-61573330D01*
X110261039Y-61560653D01*
X110249225Y-61548839D01*
X110228357Y-61521643D01*
X110118274Y-61437173D01*
X110117538Y-61436608D01*
X110117535Y-61436607D01*
X109988491Y-61383155D01*
X109988483Y-61383152D01*
X109850004Y-61364922D01*
X109849996Y-61364922D01*
X109711516Y-61383152D01*
X109711508Y-61383155D01*
X109582464Y-61436607D01*
X109582461Y-61436608D01*
X109471643Y-61521643D01*
X109386608Y-61632461D01*
X109386607Y-61632464D01*
X109333155Y-61761508D01*
X109333152Y-61761516D01*
X109314922Y-61899996D01*
X109314922Y-61900003D01*
X108091666Y-61900003D01*
X103591665Y-57400003D01*
X122764922Y-57400003D01*
X122783152Y-57538483D01*
X122783155Y-57538491D01*
X122836607Y-57667535D01*
X122836608Y-57667538D01*
X122836609Y-57667539D01*
X122921643Y-57778357D01*
X123032461Y-57863391D01*
X123161512Y-57916846D01*
X123161514Y-57916846D01*
X123161516Y-57916847D01*
X123299996Y-57935078D01*
X123300000Y-57935078D01*
X123300004Y-57935078D01*
X123438483Y-57916847D01*
X123438484Y-57916846D01*
X123438488Y-57916846D01*
X123567539Y-57863391D01*
X123678357Y-57778357D01*
X123763391Y-57667539D01*
X123816846Y-57538488D01*
X123816847Y-57538483D01*
X123835078Y-57400003D01*
X123835078Y-57399996D01*
X123816847Y-57261516D01*
X123816846Y-57261514D01*
X123816846Y-57261512D01*
X123763391Y-57132461D01*
X123678357Y-57021643D01*
X123678355Y-57021642D01*
X123678355Y-57021641D01*
X123678353Y-57021639D01*
X123651160Y-57000773D01*
X123626668Y-56958352D01*
X123639347Y-56911038D01*
X123651157Y-56899227D01*
X123678357Y-56878357D01*
X123763391Y-56767539D01*
X123816846Y-56638488D01*
X123835078Y-56500000D01*
X123835078Y-56499996D01*
X123816847Y-56361516D01*
X123816846Y-56361514D01*
X123816846Y-56361512D01*
X123763391Y-56232461D01*
X123678357Y-56121643D01*
X123567539Y-56036609D01*
X123567538Y-56036608D01*
X123567535Y-56036607D01*
X123438491Y-55983155D01*
X123438483Y-55983152D01*
X123300004Y-55964922D01*
X123299996Y-55964922D01*
X123161516Y-55983152D01*
X123161508Y-55983155D01*
X123032464Y-56036607D01*
X123032461Y-56036608D01*
X122921643Y-56121643D01*
X122836608Y-56232461D01*
X122836607Y-56232464D01*
X122783155Y-56361508D01*
X122783152Y-56361516D01*
X122764922Y-56499996D01*
X122764922Y-56500003D01*
X122783152Y-56638483D01*
X122783155Y-56638491D01*
X122836607Y-56767535D01*
X122836608Y-56767538D01*
X122836609Y-56767539D01*
X122921643Y-56878357D01*
X122948838Y-56899224D01*
X122973329Y-56941645D01*
X122960652Y-56988960D01*
X122948840Y-57000772D01*
X122921644Y-57021641D01*
X122836608Y-57132461D01*
X122836607Y-57132464D01*
X122783155Y-57261508D01*
X122783152Y-57261516D01*
X122764922Y-57399996D01*
X122764922Y-57400003D01*
X103591665Y-57400003D01*
X102949245Y-56757583D01*
X102930500Y-56712328D01*
X102930500Y-53987671D01*
X102949245Y-53942416D01*
X103031672Y-53859989D01*
X103033071Y-53858671D01*
X103075402Y-53821170D01*
X103108450Y-53773291D01*
X103109474Y-53771893D01*
X103147011Y-53723501D01*
X103151560Y-53712986D01*
X103157629Y-53702043D01*
X103162381Y-53695160D01*
X103184155Y-53637744D01*
X103184663Y-53636491D01*
X103210278Y-53577302D01*
X103211540Y-53569329D01*
X103214913Y-53556641D01*
X103216675Y-53551997D01*
X103224463Y-53487846D01*
X103224600Y-53486864D01*
X103235198Y-53419962D01*
X103234758Y-53415310D01*
X103234942Y-53401552D01*
X103235131Y-53400000D01*
X103226959Y-53332705D01*
X103226874Y-53331910D01*
X103226359Y-53326457D01*
X103220206Y-53261368D01*
X103219775Y-53260172D01*
X103217769Y-53251719D01*
X103217601Y-53251761D01*
X103216675Y-53248007D01*
X103216675Y-53248003D01*
X103191415Y-53181398D01*
X103166245Y-53111484D01*
X103165608Y-53110547D01*
X103163741Y-53107432D01*
X103162380Y-53104839D01*
X103120114Y-53043606D01*
X103111207Y-53030500D01*
X103076704Y-52979729D01*
X103017706Y-52927715D01*
X102960796Y-52877297D01*
X102960794Y-52877296D01*
X102960554Y-52877083D01*
X102958097Y-52875162D01*
X102957218Y-52874387D01*
X102957214Y-52874384D01*
X102957210Y-52874381D01*
X102907690Y-52849149D01*
X102889676Y-52839970D01*
X102825225Y-52806143D01*
X102821606Y-52804771D01*
X102821739Y-52804418D01*
X102819066Y-52803422D01*
X102819066Y-52803425D01*
X102815274Y-52802060D01*
X102764615Y-52790736D01*
X102744598Y-52786261D01*
X102743946Y-52786108D01*
X102676557Y-52769500D01*
X102675350Y-52769353D01*
X102662715Y-52767959D01*
X102659807Y-52767309D01*
X102659806Y-52767309D01*
X102659802Y-52767308D01*
X102601516Y-52769140D01*
X102590593Y-52769484D01*
X102589602Y-52769500D01*
X102523443Y-52769500D01*
X102520248Y-52770287D01*
X102506955Y-52772112D01*
X102500585Y-52772312D01*
X102437165Y-52790736D01*
X102435897Y-52791077D01*
X102374781Y-52806141D01*
X102374776Y-52806143D01*
X102368861Y-52809247D01*
X102356989Y-52814030D01*
X102347608Y-52816757D01*
X102347606Y-52816757D01*
X102347606Y-52816758D01*
X102293533Y-52848734D01*
X102292116Y-52849524D01*
X102239205Y-52877295D01*
X102231665Y-52883975D01*
X102221811Y-52891152D01*
X102210492Y-52897846D01*
X102168334Y-52940003D01*
X102166927Y-52941327D01*
X102124599Y-52978828D01*
X102124597Y-52978831D01*
X102116957Y-52989898D01*
X102109544Y-52998792D01*
X101908382Y-53199954D01*
X101897427Y-53208731D01*
X101894913Y-53210326D01*
X101894911Y-53210328D01*
X101847521Y-53260792D01*
X101846823Y-53261512D01*
X101826114Y-53282223D01*
X101826113Y-53282225D01*
X101820951Y-53288881D01*
X101818993Y-53291173D01*
X101785863Y-53326453D01*
X101785860Y-53326457D01*
X101773820Y-53348357D01*
X101768310Y-53356746D01*
X101752986Y-53376502D01*
X101733758Y-53420934D01*
X101732431Y-53423641D01*
X101709119Y-53466046D01*
X101709116Y-53466055D01*
X101702901Y-53490259D01*
X101699649Y-53499757D01*
X101689722Y-53522698D01*
X101682147Y-53570518D01*
X101681535Y-53573471D01*
X101669500Y-53620342D01*
X101669500Y-53645339D01*
X101668712Y-53655349D01*
X101668605Y-53656025D01*
X101664801Y-53680037D01*
X96295475Y-53680037D01*
X96295475Y-52360096D01*
X105065743Y-52360096D01*
X105075746Y-52519083D01*
X105124972Y-52670587D01*
X105210330Y-52805090D01*
X105326456Y-52914139D01*
X105466053Y-52990883D01*
X105466057Y-52990884D01*
X105620342Y-53030499D01*
X105620348Y-53030499D01*
X105620349Y-53030500D01*
X108712328Y-53030500D01*
X108757583Y-53049245D01*
X110924488Y-55216150D01*
X110933268Y-55227109D01*
X110934863Y-55229623D01*
X110934866Y-55229626D01*
X110985326Y-55277011D01*
X110986048Y-55277711D01*
X110998268Y-55289930D01*
X111006752Y-55298414D01*
X111011188Y-55301855D01*
X111013416Y-55303584D01*
X111015706Y-55305540D01*
X111050991Y-55338674D01*
X111072892Y-55350714D01*
X111081284Y-55356227D01*
X111101031Y-55371545D01*
X111145461Y-55390772D01*
X111148169Y-55392099D01*
X111178484Y-55408763D01*
X111190588Y-55415418D01*
X111214797Y-55421633D01*
X111224294Y-55424886D01*
X111247233Y-55434813D01*
X111280246Y-55440041D01*
X111295048Y-55442386D01*
X111298003Y-55442998D01*
X111344879Y-55455034D01*
X111344882Y-55455034D01*
X111344884Y-55455035D01*
X111369879Y-55455035D01*
X111379889Y-55455822D01*
X111404572Y-55459732D01*
X111452760Y-55455177D01*
X111455774Y-55455035D01*
X112230494Y-55455035D01*
X112348867Y-55440081D01*
X112348868Y-55440080D01*
X112348873Y-55440080D01*
X112496988Y-55381438D01*
X112625865Y-55287803D01*
X112727408Y-55165059D01*
X112795235Y-55020919D01*
X112825085Y-54864439D01*
X112815082Y-54705452D01*
X112765856Y-54553948D01*
X112680498Y-54419445D01*
X112564372Y-54310396D01*
X112564371Y-54310395D01*
X112424773Y-54233651D01*
X112424770Y-54233650D01*
X112270485Y-54194035D01*
X112270479Y-54194035D01*
X111712206Y-54194035D01*
X111666951Y-54175290D01*
X111066661Y-53575000D01*
X114114696Y-53575000D01*
X114133885Y-53843302D01*
X114133887Y-53843314D01*
X114191061Y-54106144D01*
X114191062Y-54106147D01*
X114285069Y-54358190D01*
X114391960Y-54553944D01*
X114413981Y-54594272D01*
X114575182Y-54809612D01*
X114765388Y-54999818D01*
X114980728Y-55161019D01*
X114988123Y-55165057D01*
X115216809Y-55289930D01*
X115216813Y-55289931D01*
X115216816Y-55289933D01*
X115468848Y-55383936D01*
X115468851Y-55383936D01*
X115468852Y-55383937D01*
X115468855Y-55383938D01*
X115639060Y-55420963D01*
X115731693Y-55441114D01*
X116000000Y-55460304D01*
X116268307Y-55441114D01*
X116438519Y-55404086D01*
X116531144Y-55383938D01*
X116531147Y-55383937D01*
X116531146Y-55383937D01*
X116531152Y-55383936D01*
X116783184Y-55289933D01*
X116783188Y-55289930D01*
X116783190Y-55289930D01*
X116842556Y-55257513D01*
X117019272Y-55161019D01*
X117234612Y-54999818D01*
X117424818Y-54809612D01*
X117586019Y-54594272D01*
X117714933Y-54358184D01*
X117808936Y-54106152D01*
X117866114Y-53843307D01*
X117885304Y-53575000D01*
X117866114Y-53306693D01*
X117808936Y-53043848D01*
X117714933Y-52791816D01*
X117714931Y-52791813D01*
X117714930Y-52791809D01*
X117586022Y-52555734D01*
X117586019Y-52555728D01*
X117424818Y-52340388D01*
X117234612Y-52150182D01*
X117019272Y-51988981D01*
X117012212Y-51985126D01*
X116783190Y-51860069D01*
X116531147Y-51766062D01*
X116531144Y-51766061D01*
X116268314Y-51708887D01*
X116268302Y-51708885D01*
X116000000Y-51689696D01*
X115731697Y-51708885D01*
X115731685Y-51708887D01*
X115468855Y-51766061D01*
X115468852Y-51766062D01*
X115216809Y-51860069D01*
X114980734Y-51988977D01*
X114980730Y-51988979D01*
X114980728Y-51988981D01*
X114954809Y-52008384D01*
X114765387Y-52150182D01*
X114575182Y-52340387D01*
X114477871Y-52470379D01*
X114424723Y-52541379D01*
X114413977Y-52555734D01*
X114285069Y-52791809D01*
X114191062Y-53043852D01*
X114191061Y-53043855D01*
X114133887Y-53306685D01*
X114133885Y-53306697D01*
X114114696Y-53575000D01*
X111066661Y-53575000D01*
X109500046Y-52008384D01*
X109491263Y-51997420D01*
X109490888Y-51996830D01*
X109489670Y-51994910D01*
X109439205Y-51947521D01*
X109438482Y-51946821D01*
X109428392Y-51936731D01*
X109417783Y-51926121D01*
X109417778Y-51926117D01*
X109417776Y-51926115D01*
X109411126Y-51920958D01*
X109408831Y-51918998D01*
X109373543Y-51885860D01*
X109361196Y-51879072D01*
X109351639Y-51873818D01*
X109343249Y-51868307D01*
X109323500Y-51852988D01*
X109279069Y-51833760D01*
X109276362Y-51832433D01*
X109233953Y-51809119D01*
X109233947Y-51809117D01*
X109209737Y-51802900D01*
X109200248Y-51799652D01*
X109177302Y-51789722D01*
X109177299Y-51789721D01*
X109129480Y-51782147D01*
X109126526Y-51781535D01*
X109079657Y-51769500D01*
X109079651Y-51769500D01*
X109054661Y-51769500D01*
X109044649Y-51768712D01*
X109019960Y-51764801D01*
X108974806Y-51769070D01*
X108971765Y-51769358D01*
X108968753Y-51769500D01*
X105660334Y-51769500D01*
X105541960Y-51784453D01*
X105541954Y-51784455D01*
X105393840Y-51843096D01*
X105393839Y-51843096D01*
X105264963Y-51936731D01*
X105264962Y-51936732D01*
X105163419Y-52059477D01*
X105095593Y-52203615D01*
X105095591Y-52203623D01*
X105065743Y-52360090D01*
X105065743Y-52360096D01*
X96295475Y-52360096D01*
X96295475Y-51197085D01*
X96295749Y-51192903D01*
X96302874Y-51138797D01*
X96307991Y-51099935D01*
X96312312Y-51083809D01*
X96345781Y-51003013D01*
X96354129Y-50988553D01*
X96407367Y-50919172D01*
X96419172Y-50907367D01*
X96488553Y-50854129D01*
X96503013Y-50845781D01*
X96583809Y-50812312D01*
X96599935Y-50807991D01*
X96692907Y-50795748D01*
X96697085Y-50795475D01*
X132050500Y-50795475D01*
X132095755Y-50814220D01*
G37*
G04 #@! TD.AperFunction*
G04 #@! TA.AperFunction,Conductor*
G36*
X139981255Y-69681255D02*
G01*
X140000000Y-69726510D01*
X140000000Y-73136000D01*
X139981255Y-73181255D01*
X139936000Y-73200000D01*
X131864000Y-73200000D01*
X131818745Y-73181255D01*
X131800000Y-73136000D01*
X131800000Y-69026509D01*
X131818744Y-68981255D01*
X134300000Y-66500000D01*
X136800000Y-66500000D01*
X139981255Y-69681255D01*
G37*
G04 #@! TD.AperFunction*
G04 #@! TA.AperFunction,Conductor*
G36*
X99581255Y-61018745D02*
G01*
X99600000Y-61064000D01*
X99600000Y-62700000D01*
X100450755Y-63550755D01*
X100469500Y-63596009D01*
X100469500Y-64393115D01*
X100469456Y-64394783D01*
X100467251Y-64436864D01*
X100467251Y-64436866D01*
X100467252Y-64436867D01*
X100476503Y-64460967D01*
X100479355Y-64470596D01*
X100484721Y-64495843D01*
X100484724Y-64495849D01*
X100490732Y-64504118D01*
X100498703Y-64518798D01*
X100502367Y-64528343D01*
X100520621Y-64546597D01*
X100527143Y-64554234D01*
X100542319Y-64575122D01*
X100551170Y-64580232D01*
X100564428Y-64590404D01*
X100882148Y-64908125D01*
X100883285Y-64909322D01*
X100911490Y-64940647D01*
X100935085Y-64951151D01*
X100943895Y-64955935D01*
X100956754Y-64964286D01*
X100964148Y-64969088D01*
X100965553Y-64970000D01*
X100975651Y-64971599D01*
X100991667Y-64976343D01*
X101001008Y-64980502D01*
X101003584Y-64980502D01*
X101039138Y-64991287D01*
X101049082Y-64997931D01*
X101049084Y-64997931D01*
X101049086Y-64997932D01*
X101068114Y-65001716D01*
X101087146Y-65005502D01*
X102912855Y-65005501D01*
X102950920Y-64997931D01*
X102994087Y-64969088D01*
X103022930Y-64925921D01*
X103026354Y-64908709D01*
X103030500Y-64887861D01*
X103030501Y-64887857D01*
X103030500Y-64612148D01*
X103022930Y-64574083D01*
X102994087Y-64530916D01*
X102994086Y-64530915D01*
X102994085Y-64530914D01*
X102950920Y-64502073D01*
X102950916Y-64502071D01*
X102912860Y-64494502D01*
X102912856Y-64494502D01*
X101146989Y-64494502D01*
X101101734Y-64475757D01*
X100949244Y-64323267D01*
X100930499Y-64278012D01*
X100930499Y-64064000D01*
X100949244Y-64018745D01*
X100994499Y-64000000D01*
X101053187Y-64000000D01*
X101065672Y-64001229D01*
X101087146Y-64005501D01*
X102912855Y-64005500D01*
X102934331Y-64001228D01*
X102946814Y-64000000D01*
X104636000Y-64000000D01*
X104681255Y-64018745D01*
X104700000Y-64064000D01*
X104700000Y-65836000D01*
X104681255Y-65881255D01*
X104636000Y-65900000D01*
X97064000Y-65900000D01*
X97018745Y-65881255D01*
X97000000Y-65836000D01*
X97000000Y-65066152D01*
X97018745Y-65020897D01*
X97064000Y-65002152D01*
X97076486Y-65003382D01*
X97080976Y-65004274D01*
X97087146Y-65005502D01*
X98912855Y-65005501D01*
X98950920Y-64997931D01*
X98994087Y-64969088D01*
X99022930Y-64925921D01*
X99026354Y-64908709D01*
X99030500Y-64887861D01*
X99030501Y-64887857D01*
X99030500Y-64612148D01*
X99022930Y-64574083D01*
X98994087Y-64530916D01*
X98994086Y-64530915D01*
X98994085Y-64530914D01*
X98950920Y-64502073D01*
X98950916Y-64502071D01*
X98912859Y-64494502D01*
X97087147Y-64494502D01*
X97076479Y-64496624D01*
X97028438Y-64487062D01*
X97001228Y-64446331D01*
X97000000Y-64433852D01*
X97000000Y-64066151D01*
X97018745Y-64020896D01*
X97064000Y-64002151D01*
X97076486Y-64003381D01*
X97080976Y-64004273D01*
X97087146Y-64005501D01*
X98912855Y-64005500D01*
X98950920Y-63997930D01*
X98994087Y-63969087D01*
X99022930Y-63925920D01*
X99030501Y-63887856D01*
X99030500Y-63612147D01*
X99022930Y-63574082D01*
X98994087Y-63530915D01*
X98994086Y-63530914D01*
X98994085Y-63530913D01*
X98950920Y-63502072D01*
X98950916Y-63502070D01*
X98912859Y-63494501D01*
X97087147Y-63494501D01*
X97076479Y-63496623D01*
X97028438Y-63487061D01*
X97001228Y-63446330D01*
X97000000Y-63433851D01*
X97000000Y-63066150D01*
X97018745Y-63020895D01*
X97064000Y-63002150D01*
X97076486Y-63003380D01*
X97080976Y-63004272D01*
X97087146Y-63005500D01*
X98912855Y-63005499D01*
X98950920Y-62997929D01*
X98994087Y-62969086D01*
X99022930Y-62925919D01*
X99030501Y-62887855D01*
X99030500Y-62612146D01*
X99022930Y-62574081D01*
X98994087Y-62530914D01*
X98994086Y-62530913D01*
X98994085Y-62530912D01*
X98950920Y-62502071D01*
X98950916Y-62502069D01*
X98912859Y-62494500D01*
X97087147Y-62494500D01*
X97076479Y-62496622D01*
X97028438Y-62487060D01*
X97001228Y-62446329D01*
X97000000Y-62433850D01*
X97000000Y-62066150D01*
X97018745Y-62020895D01*
X97064000Y-62002150D01*
X97076486Y-62003380D01*
X97080976Y-62004272D01*
X97087146Y-62005500D01*
X98912855Y-62005499D01*
X98950920Y-61997929D01*
X98994087Y-61969086D01*
X99022930Y-61925919D01*
X99030501Y-61887855D01*
X99030500Y-61612146D01*
X99022930Y-61574081D01*
X98994087Y-61530914D01*
X98994086Y-61530913D01*
X98994085Y-61530912D01*
X98950920Y-61502071D01*
X98950916Y-61502069D01*
X98912859Y-61494500D01*
X97087147Y-61494500D01*
X97076479Y-61496622D01*
X97028438Y-61487060D01*
X97001228Y-61446329D01*
X97000000Y-61433850D01*
X97000000Y-61066148D01*
X97018745Y-61020893D01*
X97064000Y-61002148D01*
X97076484Y-61003378D01*
X97087146Y-61005499D01*
X98912855Y-61005498D01*
X98934321Y-61001228D01*
X98946804Y-61000000D01*
X99536000Y-61000000D01*
X99581255Y-61018745D01*
G37*
G04 #@! TD.AperFunction*
G04 #@! TA.AperFunction,Conductor*
G36*
X136618745Y-61918745D02*
G01*
X136781255Y-62081255D01*
X136800000Y-62126510D01*
X136800000Y-66500000D01*
X134300000Y-66500000D01*
X134300000Y-65069500D01*
X134318745Y-65024246D01*
X134363997Y-65005501D01*
X135912855Y-65005501D01*
X135950920Y-64997931D01*
X135994087Y-64969088D01*
X136022930Y-64925921D01*
X136030501Y-64887857D01*
X136030500Y-64612148D01*
X136022930Y-64574083D01*
X135994087Y-64530916D01*
X135994086Y-64530915D01*
X135994085Y-64530914D01*
X135950920Y-64502073D01*
X135950916Y-64502071D01*
X135912860Y-64494502D01*
X134364000Y-64494502D01*
X134318745Y-64475757D01*
X134300000Y-64430502D01*
X134300000Y-64069500D01*
X134318745Y-64024245D01*
X134363997Y-64005500D01*
X135912855Y-64005500D01*
X135950920Y-63997930D01*
X135994087Y-63969087D01*
X136022930Y-63925920D01*
X136030501Y-63887856D01*
X136030500Y-63612147D01*
X136022930Y-63574082D01*
X135994087Y-63530915D01*
X135994086Y-63530914D01*
X135994085Y-63530913D01*
X135950920Y-63502072D01*
X135950916Y-63502070D01*
X135912860Y-63494501D01*
X134364000Y-63494501D01*
X134318745Y-63475756D01*
X134300000Y-63430501D01*
X134300000Y-63069499D01*
X134318745Y-63024244D01*
X134363997Y-63005499D01*
X135912855Y-63005499D01*
X135950920Y-62997929D01*
X135994087Y-62969086D01*
X136022930Y-62925919D01*
X136030501Y-62887855D01*
X136030500Y-62612146D01*
X136022930Y-62574081D01*
X135994087Y-62530914D01*
X135994086Y-62530913D01*
X135994085Y-62530912D01*
X135950920Y-62502071D01*
X135950916Y-62502069D01*
X135912860Y-62494500D01*
X134364000Y-62494500D01*
X134318745Y-62475755D01*
X134300000Y-62430500D01*
X134300000Y-62069499D01*
X134318745Y-62024244D01*
X134363997Y-62005499D01*
X135912855Y-62005499D01*
X135950920Y-61997929D01*
X135994087Y-61969086D01*
X136021242Y-61928444D01*
X136061971Y-61901230D01*
X136074457Y-61900000D01*
X136573490Y-61900000D01*
X136618745Y-61918745D01*
G37*
G04 #@! TD.AperFunction*
G04 #@! TA.AperFunction,Conductor*
G36*
X139481255Y-50814220D02*
G01*
X139500000Y-50859475D01*
X139500000Y-60430499D01*
X139481255Y-60475754D01*
X139436000Y-60494499D01*
X138087148Y-60494499D01*
X138049080Y-60502070D01*
X138005914Y-60530913D01*
X138005913Y-60530914D01*
X137977072Y-60574079D01*
X137977070Y-60574083D01*
X137969501Y-60612139D01*
X137969501Y-60887851D01*
X137977072Y-60925919D01*
X138005914Y-60969085D01*
X138005915Y-60969085D01*
X138049082Y-60997928D01*
X138049083Y-60997928D01*
X138049085Y-60997929D01*
X138074341Y-61002952D01*
X138087146Y-61005499D01*
X139436000Y-61005498D01*
X139481255Y-61024243D01*
X139500000Y-61069498D01*
X139500000Y-61430500D01*
X139481255Y-61475755D01*
X139436000Y-61494500D01*
X138087148Y-61494500D01*
X138049080Y-61502071D01*
X138005914Y-61530914D01*
X138005913Y-61530915D01*
X137977072Y-61574080D01*
X137977070Y-61574084D01*
X137969501Y-61612140D01*
X137969501Y-61887852D01*
X137977072Y-61925920D01*
X138005915Y-61969085D01*
X138005915Y-61969086D01*
X138049082Y-61997929D01*
X138049083Y-61997929D01*
X138049085Y-61997930D01*
X138069916Y-62002073D01*
X138087146Y-62005500D01*
X139436000Y-62005499D01*
X139481255Y-62024244D01*
X139500000Y-62069499D01*
X139500000Y-62430500D01*
X139481255Y-62475755D01*
X139436000Y-62494500D01*
X138087148Y-62494500D01*
X138049080Y-62502071D01*
X138005914Y-62530914D01*
X138005913Y-62530915D01*
X137977072Y-62574080D01*
X137977070Y-62574084D01*
X137969501Y-62612140D01*
X137969501Y-62887852D01*
X137977072Y-62925920D01*
X138005915Y-62969085D01*
X138005915Y-62969086D01*
X138049082Y-62997929D01*
X138049083Y-62997929D01*
X138049085Y-62997930D01*
X138069906Y-63002071D01*
X138087146Y-63005500D01*
X139436000Y-63005499D01*
X139481255Y-63024244D01*
X139500000Y-63069499D01*
X139500000Y-63430501D01*
X139481255Y-63475756D01*
X139436000Y-63494501D01*
X138087148Y-63494501D01*
X138049080Y-63502072D01*
X138005914Y-63530915D01*
X138005913Y-63530916D01*
X137977072Y-63574081D01*
X137977070Y-63574085D01*
X137969501Y-63612141D01*
X137969501Y-63887853D01*
X137977072Y-63925921D01*
X138005915Y-63969087D01*
X138049082Y-63997930D01*
X138049083Y-63997930D01*
X138049085Y-63997931D01*
X138069901Y-64002071D01*
X138087146Y-64005501D01*
X139436000Y-64005500D01*
X139481255Y-64024245D01*
X139500000Y-64069500D01*
X139500000Y-64430502D01*
X139481255Y-64475757D01*
X139436000Y-64494502D01*
X138087148Y-64494502D01*
X138049080Y-64502073D01*
X138005914Y-64530916D01*
X138005913Y-64530917D01*
X137977072Y-64574082D01*
X137977070Y-64574086D01*
X137969501Y-64612142D01*
X137969501Y-64887854D01*
X137977072Y-64925922D01*
X138005914Y-64969088D01*
X138005915Y-64969088D01*
X138049082Y-64997931D01*
X138049083Y-64997931D01*
X138049085Y-64997932D01*
X138069901Y-65002072D01*
X138087146Y-65005502D01*
X139436000Y-65005501D01*
X139481255Y-65024246D01*
X139500000Y-65069501D01*
X139500000Y-65436000D01*
X139481255Y-65481255D01*
X139436000Y-65500000D01*
X138276510Y-65500000D01*
X138231255Y-65481255D01*
X137268745Y-64518745D01*
X137250000Y-64473490D01*
X137250000Y-60250000D01*
X132268745Y-55268745D01*
X132250000Y-55223490D01*
X132250000Y-50859475D01*
X132268745Y-50814220D01*
X132314000Y-50795475D01*
X139436000Y-50795475D01*
X139481255Y-50814220D01*
G37*
G04 #@! TD.AperFunction*
G04 #@! TA.AperFunction,Conductor*
G36*
X100959078Y-60518745D02*
G01*
X100977823Y-60564000D01*
X100976593Y-60576485D01*
X100969501Y-60612140D01*
X100969501Y-60887851D01*
X100977072Y-60925919D01*
X101005914Y-60969085D01*
X101005915Y-60969085D01*
X101049082Y-60997928D01*
X101049083Y-60997928D01*
X101049085Y-60997929D01*
X101074341Y-61002952D01*
X101087146Y-61005499D01*
X102912855Y-61005498D01*
X102923514Y-61003378D01*
X102971557Y-61012934D01*
X102998770Y-61053662D01*
X103000000Y-61066148D01*
X103000000Y-61433849D01*
X102981255Y-61479104D01*
X102936000Y-61497849D01*
X102923516Y-61496620D01*
X102912856Y-61494500D01*
X101087148Y-61494500D01*
X101049080Y-61502071D01*
X101005914Y-61530914D01*
X101005913Y-61530915D01*
X100977072Y-61574080D01*
X100977070Y-61574084D01*
X100969501Y-61612140D01*
X100969501Y-61887852D01*
X100977072Y-61925920D01*
X101005915Y-61969086D01*
X101049082Y-61997929D01*
X101049083Y-61997929D01*
X101049085Y-61997930D01*
X101074341Y-62002953D01*
X101087146Y-62005500D01*
X102912855Y-62005499D01*
X102923514Y-62003379D01*
X102971557Y-62012935D01*
X102998770Y-62053663D01*
X103000000Y-62066149D01*
X103000000Y-62433849D01*
X102981255Y-62479104D01*
X102936000Y-62497849D01*
X102923516Y-62496620D01*
X102912856Y-62494500D01*
X101087148Y-62494500D01*
X101049080Y-62502071D01*
X101005914Y-62530914D01*
X101005913Y-62530915D01*
X100977072Y-62574080D01*
X100977070Y-62574084D01*
X100969501Y-62612140D01*
X100969501Y-62887852D01*
X100977072Y-62925920D01*
X101005915Y-62969086D01*
X101049082Y-62997929D01*
X101049083Y-62997929D01*
X101049085Y-62997930D01*
X101074341Y-63002953D01*
X101087146Y-63005500D01*
X102912855Y-63005499D01*
X102923514Y-63003379D01*
X102971557Y-63012935D01*
X102998770Y-63053663D01*
X103000000Y-63066149D01*
X103000000Y-63433850D01*
X102981255Y-63479105D01*
X102936000Y-63497850D01*
X102923516Y-63496621D01*
X102912856Y-63494501D01*
X101121011Y-63494501D01*
X101075756Y-63475756D01*
X100218745Y-62618745D01*
X100200000Y-62573490D01*
X100200000Y-60564000D01*
X100218745Y-60518745D01*
X100264000Y-60500000D01*
X100913823Y-60500000D01*
X100959078Y-60518745D01*
G37*
G04 #@! TD.AperFunction*
M02*
