G04 #@! TF.GenerationSoftware,KiCad,Pcbnew,7.0.5-0*
G04 #@! TF.CreationDate,2023-09-26T17:17:08-04:00*
G04 #@! TF.ProjectId,PowerPack,506f7765-7250-4616-936b-2e6b69636164,rev?*
G04 #@! TF.SameCoordinates,Original*
G04 #@! TF.FileFunction,Legend,Top*
G04 #@! TF.FilePolarity,Positive*
%FSLAX46Y46*%
G04 Gerber Fmt 4.6, Leading zero omitted, Abs format (unit mm)*
G04 Created by KiCad (PCBNEW 7.0.5-0) date 2023-09-26 17:17:08*
%MOMM*%
%LPD*%
G01*
G04 APERTURE LIST*
G04 Aperture macros list*
%AMRoundRect*
0 Rectangle with rounded corners*
0 $1 Rounding radius*
0 $2 $3 $4 $5 $6 $7 $8 $9 X,Y pos of 4 corners*
0 Add a 4 corners polygon primitive as box body*
4,1,4,$2,$3,$4,$5,$6,$7,$8,$9,$2,$3,0*
0 Add four circle primitives for the rounded corners*
1,1,$1+$1,$2,$3*
1,1,$1+$1,$4,$5*
1,1,$1+$1,$6,$7*
1,1,$1+$1,$8,$9*
0 Add four rect primitives between the rounded corners*
20,1,$1+$1,$2,$3,$4,$5,0*
20,1,$1+$1,$4,$5,$6,$7,0*
20,1,$1+$1,$6,$7,$8,$9,0*
20,1,$1+$1,$8,$9,$2,$3,0*%
%AMFreePoly0*
4,1,6,1.000000,0.000000,0.500000,-0.750000,-0.500000,-0.750000,-0.500000,0.750000,0.500000,0.750000,1.000000,0.000000,1.000000,0.000000,$1*%
%AMFreePoly1*
4,1,6,0.500000,-0.750000,-0.650000,-0.750000,-0.150000,0.000000,-0.650000,0.750000,0.500000,0.750000,0.500000,-0.750000,0.500000,-0.750000,$1*%
G04 Aperture macros list end*
%ADD10C,0.125000*%
%ADD11C,0.150000*%
%ADD12C,0.120000*%
%ADD13RoundRect,0.225000X0.225000X0.250000X-0.225000X0.250000X-0.225000X-0.250000X0.225000X-0.250000X0*%
%ADD14RoundRect,0.250000X-0.250000X-0.475000X0.250000X-0.475000X0.250000X0.475000X-0.250000X0.475000X0*%
%ADD15RoundRect,0.135000X0.185000X-0.135000X0.185000X0.135000X-0.185000X0.135000X-0.185000X-0.135000X0*%
%ADD16RoundRect,0.250001X0.849999X-0.462499X0.849999X0.462499X-0.849999X0.462499X-0.849999X-0.462499X0*%
%ADD17RoundRect,0.135000X0.135000X0.185000X-0.135000X0.185000X-0.135000X-0.185000X0.135000X-0.185000X0*%
%ADD18RoundRect,0.225000X-0.250000X0.225000X-0.250000X-0.225000X0.250000X-0.225000X0.250000X0.225000X0*%
%ADD19RoundRect,0.225000X-0.225000X-0.250000X0.225000X-0.250000X0.225000X0.250000X-0.225000X0.250000X0*%
%ADD20RoundRect,0.135000X-0.185000X0.135000X-0.185000X-0.135000X0.185000X-0.135000X0.185000X0.135000X0*%
%ADD21RoundRect,0.250001X1.074999X-0.462499X1.074999X0.462499X-1.074999X0.462499X-1.074999X-0.462499X0*%
%ADD22RoundRect,0.250000X-0.262500X-0.450000X0.262500X-0.450000X0.262500X0.450000X-0.262500X0.450000X0*%
%ADD23RoundRect,0.225000X0.250000X-0.225000X0.250000X0.225000X-0.250000X0.225000X-0.250000X-0.225000X0*%
%ADD24RoundRect,0.140000X0.140000X0.170000X-0.140000X0.170000X-0.140000X-0.170000X0.140000X-0.170000X0*%
%ADD25C,0.254000*%
%ADD26C,2.000000*%
%ADD27RoundRect,0.135000X-0.135000X-0.185000X0.135000X-0.185000X0.135000X0.185000X-0.135000X0.185000X0*%
%ADD28RoundRect,0.250001X-0.462499X-1.074999X0.462499X-1.074999X0.462499X1.074999X-0.462499X1.074999X0*%
%ADD29RoundRect,0.140000X0.170000X-0.140000X0.170000X0.140000X-0.170000X0.140000X-0.170000X-0.140000X0*%
%ADD30RoundRect,0.250001X-0.849999X0.462499X-0.849999X-0.462499X0.849999X-0.462499X0.849999X0.462499X0*%
%ADD31R,0.300000X0.650000*%
%ADD32R,2.500000X1.700000*%
%ADD33RoundRect,0.062500X-0.325000X-0.062500X0.325000X-0.062500X0.325000X0.062500X-0.325000X0.062500X0*%
%ADD34RoundRect,0.250000X-0.250000X-0.400000X0.250000X-0.400000X0.250000X0.400000X-0.250000X0.400000X0*%
%ADD35RoundRect,0.250000X-0.475000X0.250000X-0.475000X-0.250000X0.475000X-0.250000X0.475000X0.250000X0*%
%ADD36R,0.399999X1.050000*%
%ADD37R,0.599999X0.200000*%
%ADD38C,1.400000*%
%ADD39R,3.500000X3.500000*%
%ADD40C,3.500000*%
%ADD41FreePoly0,90.000000*%
%ADD42FreePoly1,90.000000*%
%ADD43RoundRect,0.250000X0.450000X-0.262500X0.450000X0.262500X-0.450000X0.262500X-0.450000X-0.262500X0*%
G04 APERTURE END LIST*
D10*
X109516666Y-53277190D02*
X109492857Y-53301000D01*
X109492857Y-53301000D02*
X109421428Y-53324809D01*
X109421428Y-53324809D02*
X109373809Y-53324809D01*
X109373809Y-53324809D02*
X109302381Y-53301000D01*
X109302381Y-53301000D02*
X109254762Y-53253380D01*
X109254762Y-53253380D02*
X109230952Y-53205761D01*
X109230952Y-53205761D02*
X109207143Y-53110523D01*
X109207143Y-53110523D02*
X109207143Y-53039095D01*
X109207143Y-53039095D02*
X109230952Y-52943857D01*
X109230952Y-52943857D02*
X109254762Y-52896238D01*
X109254762Y-52896238D02*
X109302381Y-52848619D01*
X109302381Y-52848619D02*
X109373809Y-52824809D01*
X109373809Y-52824809D02*
X109421428Y-52824809D01*
X109421428Y-52824809D02*
X109492857Y-52848619D01*
X109492857Y-52848619D02*
X109516666Y-52872428D01*
X109969047Y-52824809D02*
X109730952Y-52824809D01*
X109730952Y-52824809D02*
X109707143Y-53062904D01*
X109707143Y-53062904D02*
X109730952Y-53039095D01*
X109730952Y-53039095D02*
X109778571Y-53015285D01*
X109778571Y-53015285D02*
X109897619Y-53015285D01*
X109897619Y-53015285D02*
X109945238Y-53039095D01*
X109945238Y-53039095D02*
X109969047Y-53062904D01*
X109969047Y-53062904D02*
X109992857Y-53110523D01*
X109992857Y-53110523D02*
X109992857Y-53229571D01*
X109992857Y-53229571D02*
X109969047Y-53277190D01*
X109969047Y-53277190D02*
X109945238Y-53301000D01*
X109945238Y-53301000D02*
X109897619Y-53324809D01*
X109897619Y-53324809D02*
X109778571Y-53324809D01*
X109778571Y-53324809D02*
X109730952Y-53301000D01*
X109730952Y-53301000D02*
X109707143Y-53277190D01*
X112628571Y-73877190D02*
X112604762Y-73901000D01*
X112604762Y-73901000D02*
X112533333Y-73924809D01*
X112533333Y-73924809D02*
X112485714Y-73924809D01*
X112485714Y-73924809D02*
X112414286Y-73901000D01*
X112414286Y-73901000D02*
X112366667Y-73853380D01*
X112366667Y-73853380D02*
X112342857Y-73805761D01*
X112342857Y-73805761D02*
X112319048Y-73710523D01*
X112319048Y-73710523D02*
X112319048Y-73639095D01*
X112319048Y-73639095D02*
X112342857Y-73543857D01*
X112342857Y-73543857D02*
X112366667Y-73496238D01*
X112366667Y-73496238D02*
X112414286Y-73448619D01*
X112414286Y-73448619D02*
X112485714Y-73424809D01*
X112485714Y-73424809D02*
X112533333Y-73424809D01*
X112533333Y-73424809D02*
X112604762Y-73448619D01*
X112604762Y-73448619D02*
X112628571Y-73472428D01*
X113104762Y-73924809D02*
X112819048Y-73924809D01*
X112961905Y-73924809D02*
X112961905Y-73424809D01*
X112961905Y-73424809D02*
X112914286Y-73496238D01*
X112914286Y-73496238D02*
X112866667Y-73543857D01*
X112866667Y-73543857D02*
X112819048Y-73567666D01*
X113533333Y-73591476D02*
X113533333Y-73924809D01*
X113414285Y-73401000D02*
X113295238Y-73758142D01*
X113295238Y-73758142D02*
X113604761Y-73758142D01*
X115277190Y-70921428D02*
X115301000Y-70945237D01*
X115301000Y-70945237D02*
X115324809Y-71016666D01*
X115324809Y-71016666D02*
X115324809Y-71064285D01*
X115324809Y-71064285D02*
X115301000Y-71135713D01*
X115301000Y-71135713D02*
X115253380Y-71183332D01*
X115253380Y-71183332D02*
X115205761Y-71207142D01*
X115205761Y-71207142D02*
X115110523Y-71230951D01*
X115110523Y-71230951D02*
X115039095Y-71230951D01*
X115039095Y-71230951D02*
X114943857Y-71207142D01*
X114943857Y-71207142D02*
X114896238Y-71183332D01*
X114896238Y-71183332D02*
X114848619Y-71135713D01*
X114848619Y-71135713D02*
X114824809Y-71064285D01*
X114824809Y-71064285D02*
X114824809Y-71016666D01*
X114824809Y-71016666D02*
X114848619Y-70945237D01*
X114848619Y-70945237D02*
X114872428Y-70921428D01*
X115324809Y-70445237D02*
X115324809Y-70730951D01*
X115324809Y-70588094D02*
X114824809Y-70588094D01*
X114824809Y-70588094D02*
X114896238Y-70635713D01*
X114896238Y-70635713D02*
X114943857Y-70683332D01*
X114943857Y-70683332D02*
X114967666Y-70730951D01*
X114824809Y-70278571D02*
X114824809Y-69969047D01*
X114824809Y-69969047D02*
X115015285Y-70135714D01*
X115015285Y-70135714D02*
X115015285Y-70064285D01*
X115015285Y-70064285D02*
X115039095Y-70016666D01*
X115039095Y-70016666D02*
X115062904Y-69992857D01*
X115062904Y-69992857D02*
X115110523Y-69969047D01*
X115110523Y-69969047D02*
X115229571Y-69969047D01*
X115229571Y-69969047D02*
X115277190Y-69992857D01*
X115277190Y-69992857D02*
X115301000Y-70016666D01*
X115301000Y-70016666D02*
X115324809Y-70064285D01*
X115324809Y-70064285D02*
X115324809Y-70207142D01*
X115324809Y-70207142D02*
X115301000Y-70254761D01*
X115301000Y-70254761D02*
X115277190Y-70278571D01*
X131877190Y-62021428D02*
X131901000Y-62045237D01*
X131901000Y-62045237D02*
X131924809Y-62116666D01*
X131924809Y-62116666D02*
X131924809Y-62164285D01*
X131924809Y-62164285D02*
X131901000Y-62235713D01*
X131901000Y-62235713D02*
X131853380Y-62283332D01*
X131853380Y-62283332D02*
X131805761Y-62307142D01*
X131805761Y-62307142D02*
X131710523Y-62330951D01*
X131710523Y-62330951D02*
X131639095Y-62330951D01*
X131639095Y-62330951D02*
X131543857Y-62307142D01*
X131543857Y-62307142D02*
X131496238Y-62283332D01*
X131496238Y-62283332D02*
X131448619Y-62235713D01*
X131448619Y-62235713D02*
X131424809Y-62164285D01*
X131424809Y-62164285D02*
X131424809Y-62116666D01*
X131424809Y-62116666D02*
X131448619Y-62045237D01*
X131448619Y-62045237D02*
X131472428Y-62021428D01*
X131472428Y-61830951D02*
X131448619Y-61807142D01*
X131448619Y-61807142D02*
X131424809Y-61759523D01*
X131424809Y-61759523D02*
X131424809Y-61640475D01*
X131424809Y-61640475D02*
X131448619Y-61592856D01*
X131448619Y-61592856D02*
X131472428Y-61569047D01*
X131472428Y-61569047D02*
X131520047Y-61545237D01*
X131520047Y-61545237D02*
X131567666Y-61545237D01*
X131567666Y-61545237D02*
X131639095Y-61569047D01*
X131639095Y-61569047D02*
X131924809Y-61854761D01*
X131924809Y-61854761D02*
X131924809Y-61545237D01*
X131424809Y-61235714D02*
X131424809Y-61188095D01*
X131424809Y-61188095D02*
X131448619Y-61140476D01*
X131448619Y-61140476D02*
X131472428Y-61116666D01*
X131472428Y-61116666D02*
X131520047Y-61092857D01*
X131520047Y-61092857D02*
X131615285Y-61069047D01*
X131615285Y-61069047D02*
X131734333Y-61069047D01*
X131734333Y-61069047D02*
X131829571Y-61092857D01*
X131829571Y-61092857D02*
X131877190Y-61116666D01*
X131877190Y-61116666D02*
X131901000Y-61140476D01*
X131901000Y-61140476D02*
X131924809Y-61188095D01*
X131924809Y-61188095D02*
X131924809Y-61235714D01*
X131924809Y-61235714D02*
X131901000Y-61283333D01*
X131901000Y-61283333D02*
X131877190Y-61307142D01*
X131877190Y-61307142D02*
X131829571Y-61330952D01*
X131829571Y-61330952D02*
X131734333Y-61354761D01*
X131734333Y-61354761D02*
X131615285Y-61354761D01*
X131615285Y-61354761D02*
X131520047Y-61330952D01*
X131520047Y-61330952D02*
X131472428Y-61307142D01*
X131472428Y-61307142D02*
X131448619Y-61283333D01*
X131448619Y-61283333D02*
X131424809Y-61235714D01*
X107224809Y-56321428D02*
X106986714Y-56488094D01*
X107224809Y-56607142D02*
X106724809Y-56607142D01*
X106724809Y-56607142D02*
X106724809Y-56416666D01*
X106724809Y-56416666D02*
X106748619Y-56369047D01*
X106748619Y-56369047D02*
X106772428Y-56345237D01*
X106772428Y-56345237D02*
X106820047Y-56321428D01*
X106820047Y-56321428D02*
X106891476Y-56321428D01*
X106891476Y-56321428D02*
X106939095Y-56345237D01*
X106939095Y-56345237D02*
X106962904Y-56369047D01*
X106962904Y-56369047D02*
X106986714Y-56416666D01*
X106986714Y-56416666D02*
X106986714Y-56607142D01*
X107224809Y-55845237D02*
X107224809Y-56130951D01*
X107224809Y-55988094D02*
X106724809Y-55988094D01*
X106724809Y-55988094D02*
X106796238Y-56035713D01*
X106796238Y-56035713D02*
X106843857Y-56083332D01*
X106843857Y-56083332D02*
X106867666Y-56130951D01*
X106724809Y-55535714D02*
X106724809Y-55488095D01*
X106724809Y-55488095D02*
X106748619Y-55440476D01*
X106748619Y-55440476D02*
X106772428Y-55416666D01*
X106772428Y-55416666D02*
X106820047Y-55392857D01*
X106820047Y-55392857D02*
X106915285Y-55369047D01*
X106915285Y-55369047D02*
X107034333Y-55369047D01*
X107034333Y-55369047D02*
X107129571Y-55392857D01*
X107129571Y-55392857D02*
X107177190Y-55416666D01*
X107177190Y-55416666D02*
X107201000Y-55440476D01*
X107201000Y-55440476D02*
X107224809Y-55488095D01*
X107224809Y-55488095D02*
X107224809Y-55535714D01*
X107224809Y-55535714D02*
X107201000Y-55583333D01*
X107201000Y-55583333D02*
X107177190Y-55607142D01*
X107177190Y-55607142D02*
X107129571Y-55630952D01*
X107129571Y-55630952D02*
X107034333Y-55654761D01*
X107034333Y-55654761D02*
X106915285Y-55654761D01*
X106915285Y-55654761D02*
X106820047Y-55630952D01*
X106820047Y-55630952D02*
X106772428Y-55607142D01*
X106772428Y-55607142D02*
X106748619Y-55583333D01*
X106748619Y-55583333D02*
X106724809Y-55535714D01*
X115116666Y-63677190D02*
X115092857Y-63701000D01*
X115092857Y-63701000D02*
X115021428Y-63724809D01*
X115021428Y-63724809D02*
X114973809Y-63724809D01*
X114973809Y-63724809D02*
X114902381Y-63701000D01*
X114902381Y-63701000D02*
X114854762Y-63653380D01*
X114854762Y-63653380D02*
X114830952Y-63605761D01*
X114830952Y-63605761D02*
X114807143Y-63510523D01*
X114807143Y-63510523D02*
X114807143Y-63439095D01*
X114807143Y-63439095D02*
X114830952Y-63343857D01*
X114830952Y-63343857D02*
X114854762Y-63296238D01*
X114854762Y-63296238D02*
X114902381Y-63248619D01*
X114902381Y-63248619D02*
X114973809Y-63224809D01*
X114973809Y-63224809D02*
X115021428Y-63224809D01*
X115021428Y-63224809D02*
X115092857Y-63248619D01*
X115092857Y-63248619D02*
X115116666Y-63272428D01*
X115283333Y-63224809D02*
X115616666Y-63224809D01*
X115616666Y-63224809D02*
X115402381Y-63724809D01*
X131124809Y-65283333D02*
X131124809Y-65521428D01*
X131124809Y-65521428D02*
X130624809Y-65521428D01*
X130624809Y-65164285D02*
X130624809Y-64854761D01*
X130624809Y-64854761D02*
X130815285Y-65021428D01*
X130815285Y-65021428D02*
X130815285Y-64949999D01*
X130815285Y-64949999D02*
X130839095Y-64902380D01*
X130839095Y-64902380D02*
X130862904Y-64878571D01*
X130862904Y-64878571D02*
X130910523Y-64854761D01*
X130910523Y-64854761D02*
X131029571Y-64854761D01*
X131029571Y-64854761D02*
X131077190Y-64878571D01*
X131077190Y-64878571D02*
X131101000Y-64902380D01*
X131101000Y-64902380D02*
X131124809Y-64949999D01*
X131124809Y-64949999D02*
X131124809Y-65092856D01*
X131124809Y-65092856D02*
X131101000Y-65140475D01*
X131101000Y-65140475D02*
X131077190Y-65164285D01*
X119978571Y-63824809D02*
X119811905Y-63586714D01*
X119692857Y-63824809D02*
X119692857Y-63324809D01*
X119692857Y-63324809D02*
X119883333Y-63324809D01*
X119883333Y-63324809D02*
X119930952Y-63348619D01*
X119930952Y-63348619D02*
X119954762Y-63372428D01*
X119954762Y-63372428D02*
X119978571Y-63420047D01*
X119978571Y-63420047D02*
X119978571Y-63491476D01*
X119978571Y-63491476D02*
X119954762Y-63539095D01*
X119954762Y-63539095D02*
X119930952Y-63562904D01*
X119930952Y-63562904D02*
X119883333Y-63586714D01*
X119883333Y-63586714D02*
X119692857Y-63586714D01*
X120454762Y-63824809D02*
X120169048Y-63824809D01*
X120311905Y-63824809D02*
X120311905Y-63324809D01*
X120311905Y-63324809D02*
X120264286Y-63396238D01*
X120264286Y-63396238D02*
X120216667Y-63443857D01*
X120216667Y-63443857D02*
X120169048Y-63467666D01*
X120907142Y-63324809D02*
X120669047Y-63324809D01*
X120669047Y-63324809D02*
X120645238Y-63562904D01*
X120645238Y-63562904D02*
X120669047Y-63539095D01*
X120669047Y-63539095D02*
X120716666Y-63515285D01*
X120716666Y-63515285D02*
X120835714Y-63515285D01*
X120835714Y-63515285D02*
X120883333Y-63539095D01*
X120883333Y-63539095D02*
X120907142Y-63562904D01*
X120907142Y-63562904D02*
X120930952Y-63610523D01*
X120930952Y-63610523D02*
X120930952Y-63729571D01*
X120930952Y-63729571D02*
X120907142Y-63777190D01*
X120907142Y-63777190D02*
X120883333Y-63801000D01*
X120883333Y-63801000D02*
X120835714Y-63824809D01*
X120835714Y-63824809D02*
X120716666Y-63824809D01*
X120716666Y-63824809D02*
X120669047Y-63801000D01*
X120669047Y-63801000D02*
X120645238Y-63777190D01*
X104016666Y-51824809D02*
X103850000Y-51586714D01*
X103730952Y-51824809D02*
X103730952Y-51324809D01*
X103730952Y-51324809D02*
X103921428Y-51324809D01*
X103921428Y-51324809D02*
X103969047Y-51348619D01*
X103969047Y-51348619D02*
X103992857Y-51372428D01*
X103992857Y-51372428D02*
X104016666Y-51420047D01*
X104016666Y-51420047D02*
X104016666Y-51491476D01*
X104016666Y-51491476D02*
X103992857Y-51539095D01*
X103992857Y-51539095D02*
X103969047Y-51562904D01*
X103969047Y-51562904D02*
X103921428Y-51586714D01*
X103921428Y-51586714D02*
X103730952Y-51586714D01*
X104302381Y-51539095D02*
X104254762Y-51515285D01*
X104254762Y-51515285D02*
X104230952Y-51491476D01*
X104230952Y-51491476D02*
X104207143Y-51443857D01*
X104207143Y-51443857D02*
X104207143Y-51420047D01*
X104207143Y-51420047D02*
X104230952Y-51372428D01*
X104230952Y-51372428D02*
X104254762Y-51348619D01*
X104254762Y-51348619D02*
X104302381Y-51324809D01*
X104302381Y-51324809D02*
X104397619Y-51324809D01*
X104397619Y-51324809D02*
X104445238Y-51348619D01*
X104445238Y-51348619D02*
X104469047Y-51372428D01*
X104469047Y-51372428D02*
X104492857Y-51420047D01*
X104492857Y-51420047D02*
X104492857Y-51443857D01*
X104492857Y-51443857D02*
X104469047Y-51491476D01*
X104469047Y-51491476D02*
X104445238Y-51515285D01*
X104445238Y-51515285D02*
X104397619Y-51539095D01*
X104397619Y-51539095D02*
X104302381Y-51539095D01*
X104302381Y-51539095D02*
X104254762Y-51562904D01*
X104254762Y-51562904D02*
X104230952Y-51586714D01*
X104230952Y-51586714D02*
X104207143Y-51634333D01*
X104207143Y-51634333D02*
X104207143Y-51729571D01*
X104207143Y-51729571D02*
X104230952Y-51777190D01*
X104230952Y-51777190D02*
X104254762Y-51801000D01*
X104254762Y-51801000D02*
X104302381Y-51824809D01*
X104302381Y-51824809D02*
X104397619Y-51824809D01*
X104397619Y-51824809D02*
X104445238Y-51801000D01*
X104445238Y-51801000D02*
X104469047Y-51777190D01*
X104469047Y-51777190D02*
X104492857Y-51729571D01*
X104492857Y-51729571D02*
X104492857Y-51634333D01*
X104492857Y-51634333D02*
X104469047Y-51586714D01*
X104469047Y-51586714D02*
X104445238Y-51562904D01*
X104445238Y-51562904D02*
X104397619Y-51539095D01*
X101216666Y-57377190D02*
X101192857Y-57401000D01*
X101192857Y-57401000D02*
X101121428Y-57424809D01*
X101121428Y-57424809D02*
X101073809Y-57424809D01*
X101073809Y-57424809D02*
X101002381Y-57401000D01*
X101002381Y-57401000D02*
X100954762Y-57353380D01*
X100954762Y-57353380D02*
X100930952Y-57305761D01*
X100930952Y-57305761D02*
X100907143Y-57210523D01*
X100907143Y-57210523D02*
X100907143Y-57139095D01*
X100907143Y-57139095D02*
X100930952Y-57043857D01*
X100930952Y-57043857D02*
X100954762Y-56996238D01*
X100954762Y-56996238D02*
X101002381Y-56948619D01*
X101002381Y-56948619D02*
X101073809Y-56924809D01*
X101073809Y-56924809D02*
X101121428Y-56924809D01*
X101121428Y-56924809D02*
X101192857Y-56948619D01*
X101192857Y-56948619D02*
X101216666Y-56972428D01*
X101407143Y-56972428D02*
X101430952Y-56948619D01*
X101430952Y-56948619D02*
X101478571Y-56924809D01*
X101478571Y-56924809D02*
X101597619Y-56924809D01*
X101597619Y-56924809D02*
X101645238Y-56948619D01*
X101645238Y-56948619D02*
X101669047Y-56972428D01*
X101669047Y-56972428D02*
X101692857Y-57020047D01*
X101692857Y-57020047D02*
X101692857Y-57067666D01*
X101692857Y-57067666D02*
X101669047Y-57139095D01*
X101669047Y-57139095D02*
X101383333Y-57424809D01*
X101383333Y-57424809D02*
X101692857Y-57424809D01*
X114616666Y-59977190D02*
X114592857Y-60001000D01*
X114592857Y-60001000D02*
X114521428Y-60024809D01*
X114521428Y-60024809D02*
X114473809Y-60024809D01*
X114473809Y-60024809D02*
X114402381Y-60001000D01*
X114402381Y-60001000D02*
X114354762Y-59953380D01*
X114354762Y-59953380D02*
X114330952Y-59905761D01*
X114330952Y-59905761D02*
X114307143Y-59810523D01*
X114307143Y-59810523D02*
X114307143Y-59739095D01*
X114307143Y-59739095D02*
X114330952Y-59643857D01*
X114330952Y-59643857D02*
X114354762Y-59596238D01*
X114354762Y-59596238D02*
X114402381Y-59548619D01*
X114402381Y-59548619D02*
X114473809Y-59524809D01*
X114473809Y-59524809D02*
X114521428Y-59524809D01*
X114521428Y-59524809D02*
X114592857Y-59548619D01*
X114592857Y-59548619D02*
X114616666Y-59572428D01*
X115045238Y-59691476D02*
X115045238Y-60024809D01*
X114926190Y-59501000D02*
X114807143Y-59858142D01*
X114807143Y-59858142D02*
X115116666Y-59858142D01*
X107516666Y-54824809D02*
X107350000Y-54586714D01*
X107230952Y-54824809D02*
X107230952Y-54324809D01*
X107230952Y-54324809D02*
X107421428Y-54324809D01*
X107421428Y-54324809D02*
X107469047Y-54348619D01*
X107469047Y-54348619D02*
X107492857Y-54372428D01*
X107492857Y-54372428D02*
X107516666Y-54420047D01*
X107516666Y-54420047D02*
X107516666Y-54491476D01*
X107516666Y-54491476D02*
X107492857Y-54539095D01*
X107492857Y-54539095D02*
X107469047Y-54562904D01*
X107469047Y-54562904D02*
X107421428Y-54586714D01*
X107421428Y-54586714D02*
X107230952Y-54586714D01*
X107754762Y-54824809D02*
X107850000Y-54824809D01*
X107850000Y-54824809D02*
X107897619Y-54801000D01*
X107897619Y-54801000D02*
X107921428Y-54777190D01*
X107921428Y-54777190D02*
X107969047Y-54705761D01*
X107969047Y-54705761D02*
X107992857Y-54610523D01*
X107992857Y-54610523D02*
X107992857Y-54420047D01*
X107992857Y-54420047D02*
X107969047Y-54372428D01*
X107969047Y-54372428D02*
X107945238Y-54348619D01*
X107945238Y-54348619D02*
X107897619Y-54324809D01*
X107897619Y-54324809D02*
X107802381Y-54324809D01*
X107802381Y-54324809D02*
X107754762Y-54348619D01*
X107754762Y-54348619D02*
X107730952Y-54372428D01*
X107730952Y-54372428D02*
X107707143Y-54420047D01*
X107707143Y-54420047D02*
X107707143Y-54539095D01*
X107707143Y-54539095D02*
X107730952Y-54586714D01*
X107730952Y-54586714D02*
X107754762Y-54610523D01*
X107754762Y-54610523D02*
X107802381Y-54634333D01*
X107802381Y-54634333D02*
X107897619Y-54634333D01*
X107897619Y-54634333D02*
X107945238Y-54610523D01*
X107945238Y-54610523D02*
X107969047Y-54586714D01*
X107969047Y-54586714D02*
X107992857Y-54539095D01*
X126516666Y-56324809D02*
X126278571Y-56324809D01*
X126278571Y-56324809D02*
X126278571Y-55824809D01*
X126897619Y-55991476D02*
X126897619Y-56324809D01*
X126778571Y-55801000D02*
X126659524Y-56158142D01*
X126659524Y-56158142D02*
X126969047Y-56158142D01*
X107224809Y-58083333D02*
X106986714Y-58249999D01*
X107224809Y-58369047D02*
X106724809Y-58369047D01*
X106724809Y-58369047D02*
X106724809Y-58178571D01*
X106724809Y-58178571D02*
X106748619Y-58130952D01*
X106748619Y-58130952D02*
X106772428Y-58107142D01*
X106772428Y-58107142D02*
X106820047Y-58083333D01*
X106820047Y-58083333D02*
X106891476Y-58083333D01*
X106891476Y-58083333D02*
X106939095Y-58107142D01*
X106939095Y-58107142D02*
X106962904Y-58130952D01*
X106962904Y-58130952D02*
X106986714Y-58178571D01*
X106986714Y-58178571D02*
X106986714Y-58369047D01*
X106891476Y-57654761D02*
X107224809Y-57654761D01*
X106701000Y-57773809D02*
X107058142Y-57892856D01*
X107058142Y-57892856D02*
X107058142Y-57583333D01*
X118678571Y-66774809D02*
X118511905Y-66536714D01*
X118392857Y-66774809D02*
X118392857Y-66274809D01*
X118392857Y-66274809D02*
X118583333Y-66274809D01*
X118583333Y-66274809D02*
X118630952Y-66298619D01*
X118630952Y-66298619D02*
X118654762Y-66322428D01*
X118654762Y-66322428D02*
X118678571Y-66370047D01*
X118678571Y-66370047D02*
X118678571Y-66441476D01*
X118678571Y-66441476D02*
X118654762Y-66489095D01*
X118654762Y-66489095D02*
X118630952Y-66512904D01*
X118630952Y-66512904D02*
X118583333Y-66536714D01*
X118583333Y-66536714D02*
X118392857Y-66536714D01*
X119154762Y-66774809D02*
X118869048Y-66774809D01*
X119011905Y-66774809D02*
X119011905Y-66274809D01*
X119011905Y-66274809D02*
X118964286Y-66346238D01*
X118964286Y-66346238D02*
X118916667Y-66393857D01*
X118916667Y-66393857D02*
X118869048Y-66417666D01*
X119583333Y-66441476D02*
X119583333Y-66774809D01*
X119464285Y-66251000D02*
X119345238Y-66608142D01*
X119345238Y-66608142D02*
X119654761Y-66608142D01*
X110316666Y-73077190D02*
X110292857Y-73101000D01*
X110292857Y-73101000D02*
X110221428Y-73124809D01*
X110221428Y-73124809D02*
X110173809Y-73124809D01*
X110173809Y-73124809D02*
X110102381Y-73101000D01*
X110102381Y-73101000D02*
X110054762Y-73053380D01*
X110054762Y-73053380D02*
X110030952Y-73005761D01*
X110030952Y-73005761D02*
X110007143Y-72910523D01*
X110007143Y-72910523D02*
X110007143Y-72839095D01*
X110007143Y-72839095D02*
X110030952Y-72743857D01*
X110030952Y-72743857D02*
X110054762Y-72696238D01*
X110054762Y-72696238D02*
X110102381Y-72648619D01*
X110102381Y-72648619D02*
X110173809Y-72624809D01*
X110173809Y-72624809D02*
X110221428Y-72624809D01*
X110221428Y-72624809D02*
X110292857Y-72648619D01*
X110292857Y-72648619D02*
X110316666Y-72672428D01*
X110554762Y-73124809D02*
X110650000Y-73124809D01*
X110650000Y-73124809D02*
X110697619Y-73101000D01*
X110697619Y-73101000D02*
X110721428Y-73077190D01*
X110721428Y-73077190D02*
X110769047Y-73005761D01*
X110769047Y-73005761D02*
X110792857Y-72910523D01*
X110792857Y-72910523D02*
X110792857Y-72720047D01*
X110792857Y-72720047D02*
X110769047Y-72672428D01*
X110769047Y-72672428D02*
X110745238Y-72648619D01*
X110745238Y-72648619D02*
X110697619Y-72624809D01*
X110697619Y-72624809D02*
X110602381Y-72624809D01*
X110602381Y-72624809D02*
X110554762Y-72648619D01*
X110554762Y-72648619D02*
X110530952Y-72672428D01*
X110530952Y-72672428D02*
X110507143Y-72720047D01*
X110507143Y-72720047D02*
X110507143Y-72839095D01*
X110507143Y-72839095D02*
X110530952Y-72886714D01*
X110530952Y-72886714D02*
X110554762Y-72910523D01*
X110554762Y-72910523D02*
X110602381Y-72934333D01*
X110602381Y-72934333D02*
X110697619Y-72934333D01*
X110697619Y-72934333D02*
X110745238Y-72910523D01*
X110745238Y-72910523D02*
X110769047Y-72886714D01*
X110769047Y-72886714D02*
X110792857Y-72839095D01*
X124278571Y-69277190D02*
X124254762Y-69301000D01*
X124254762Y-69301000D02*
X124183333Y-69324809D01*
X124183333Y-69324809D02*
X124135714Y-69324809D01*
X124135714Y-69324809D02*
X124064286Y-69301000D01*
X124064286Y-69301000D02*
X124016667Y-69253380D01*
X124016667Y-69253380D02*
X123992857Y-69205761D01*
X123992857Y-69205761D02*
X123969048Y-69110523D01*
X123969048Y-69110523D02*
X123969048Y-69039095D01*
X123969048Y-69039095D02*
X123992857Y-68943857D01*
X123992857Y-68943857D02*
X124016667Y-68896238D01*
X124016667Y-68896238D02*
X124064286Y-68848619D01*
X124064286Y-68848619D02*
X124135714Y-68824809D01*
X124135714Y-68824809D02*
X124183333Y-68824809D01*
X124183333Y-68824809D02*
X124254762Y-68848619D01*
X124254762Y-68848619D02*
X124278571Y-68872428D01*
X124754762Y-69324809D02*
X124469048Y-69324809D01*
X124611905Y-69324809D02*
X124611905Y-68824809D01*
X124611905Y-68824809D02*
X124564286Y-68896238D01*
X124564286Y-68896238D02*
X124516667Y-68943857D01*
X124516667Y-68943857D02*
X124469048Y-68967666D01*
X124921428Y-68824809D02*
X125254761Y-68824809D01*
X125254761Y-68824809D02*
X125040476Y-69324809D01*
X111619047Y-64824809D02*
X111619047Y-65229571D01*
X111619047Y-65229571D02*
X111642857Y-65277190D01*
X111642857Y-65277190D02*
X111666666Y-65301000D01*
X111666666Y-65301000D02*
X111714285Y-65324809D01*
X111714285Y-65324809D02*
X111809523Y-65324809D01*
X111809523Y-65324809D02*
X111857142Y-65301000D01*
X111857142Y-65301000D02*
X111880952Y-65277190D01*
X111880952Y-65277190D02*
X111904761Y-65229571D01*
X111904761Y-65229571D02*
X111904761Y-64824809D01*
X112095238Y-64824809D02*
X112404762Y-64824809D01*
X112404762Y-64824809D02*
X112238095Y-65015285D01*
X112238095Y-65015285D02*
X112309524Y-65015285D01*
X112309524Y-65015285D02*
X112357143Y-65039095D01*
X112357143Y-65039095D02*
X112380952Y-65062904D01*
X112380952Y-65062904D02*
X112404762Y-65110523D01*
X112404762Y-65110523D02*
X112404762Y-65229571D01*
X112404762Y-65229571D02*
X112380952Y-65277190D01*
X112380952Y-65277190D02*
X112357143Y-65301000D01*
X112357143Y-65301000D02*
X112309524Y-65324809D01*
X112309524Y-65324809D02*
X112166667Y-65324809D01*
X112166667Y-65324809D02*
X112119048Y-65301000D01*
X112119048Y-65301000D02*
X112095238Y-65277190D01*
X102824809Y-56583333D02*
X102586714Y-56749999D01*
X102824809Y-56869047D02*
X102324809Y-56869047D01*
X102324809Y-56869047D02*
X102324809Y-56678571D01*
X102324809Y-56678571D02*
X102348619Y-56630952D01*
X102348619Y-56630952D02*
X102372428Y-56607142D01*
X102372428Y-56607142D02*
X102420047Y-56583333D01*
X102420047Y-56583333D02*
X102491476Y-56583333D01*
X102491476Y-56583333D02*
X102539095Y-56607142D01*
X102539095Y-56607142D02*
X102562904Y-56630952D01*
X102562904Y-56630952D02*
X102586714Y-56678571D01*
X102586714Y-56678571D02*
X102586714Y-56869047D01*
X102324809Y-56154761D02*
X102324809Y-56249999D01*
X102324809Y-56249999D02*
X102348619Y-56297618D01*
X102348619Y-56297618D02*
X102372428Y-56321428D01*
X102372428Y-56321428D02*
X102443857Y-56369047D01*
X102443857Y-56369047D02*
X102539095Y-56392856D01*
X102539095Y-56392856D02*
X102729571Y-56392856D01*
X102729571Y-56392856D02*
X102777190Y-56369047D01*
X102777190Y-56369047D02*
X102801000Y-56345237D01*
X102801000Y-56345237D02*
X102824809Y-56297618D01*
X102824809Y-56297618D02*
X102824809Y-56202380D01*
X102824809Y-56202380D02*
X102801000Y-56154761D01*
X102801000Y-56154761D02*
X102777190Y-56130952D01*
X102777190Y-56130952D02*
X102729571Y-56107142D01*
X102729571Y-56107142D02*
X102610523Y-56107142D01*
X102610523Y-56107142D02*
X102562904Y-56130952D01*
X102562904Y-56130952D02*
X102539095Y-56154761D01*
X102539095Y-56154761D02*
X102515285Y-56202380D01*
X102515285Y-56202380D02*
X102515285Y-56297618D01*
X102515285Y-56297618D02*
X102539095Y-56345237D01*
X102539095Y-56345237D02*
X102562904Y-56369047D01*
X102562904Y-56369047D02*
X102610523Y-56392856D01*
X137869048Y-72974809D02*
X138154762Y-72974809D01*
X138011905Y-73474809D02*
X138011905Y-72974809D01*
X138321428Y-73474809D02*
X138321428Y-72974809D01*
X138321428Y-72974809D02*
X138511904Y-72974809D01*
X138511904Y-72974809D02*
X138559523Y-72998619D01*
X138559523Y-72998619D02*
X138583333Y-73022428D01*
X138583333Y-73022428D02*
X138607142Y-73070047D01*
X138607142Y-73070047D02*
X138607142Y-73141476D01*
X138607142Y-73141476D02*
X138583333Y-73189095D01*
X138583333Y-73189095D02*
X138559523Y-73212904D01*
X138559523Y-73212904D02*
X138511904Y-73236714D01*
X138511904Y-73236714D02*
X138321428Y-73236714D01*
X138773809Y-72974809D02*
X139083333Y-72974809D01*
X139083333Y-72974809D02*
X138916666Y-73165285D01*
X138916666Y-73165285D02*
X138988095Y-73165285D01*
X138988095Y-73165285D02*
X139035714Y-73189095D01*
X139035714Y-73189095D02*
X139059523Y-73212904D01*
X139059523Y-73212904D02*
X139083333Y-73260523D01*
X139083333Y-73260523D02*
X139083333Y-73379571D01*
X139083333Y-73379571D02*
X139059523Y-73427190D01*
X139059523Y-73427190D02*
X139035714Y-73451000D01*
X139035714Y-73451000D02*
X138988095Y-73474809D01*
X138988095Y-73474809D02*
X138845238Y-73474809D01*
X138845238Y-73474809D02*
X138797619Y-73451000D01*
X138797619Y-73451000D02*
X138773809Y-73427190D01*
X121078571Y-62477190D02*
X121054762Y-62501000D01*
X121054762Y-62501000D02*
X120983333Y-62524809D01*
X120983333Y-62524809D02*
X120935714Y-62524809D01*
X120935714Y-62524809D02*
X120864286Y-62501000D01*
X120864286Y-62501000D02*
X120816667Y-62453380D01*
X120816667Y-62453380D02*
X120792857Y-62405761D01*
X120792857Y-62405761D02*
X120769048Y-62310523D01*
X120769048Y-62310523D02*
X120769048Y-62239095D01*
X120769048Y-62239095D02*
X120792857Y-62143857D01*
X120792857Y-62143857D02*
X120816667Y-62096238D01*
X120816667Y-62096238D02*
X120864286Y-62048619D01*
X120864286Y-62048619D02*
X120935714Y-62024809D01*
X120935714Y-62024809D02*
X120983333Y-62024809D01*
X120983333Y-62024809D02*
X121054762Y-62048619D01*
X121054762Y-62048619D02*
X121078571Y-62072428D01*
X121554762Y-62524809D02*
X121269048Y-62524809D01*
X121411905Y-62524809D02*
X121411905Y-62024809D01*
X121411905Y-62024809D02*
X121364286Y-62096238D01*
X121364286Y-62096238D02*
X121316667Y-62143857D01*
X121316667Y-62143857D02*
X121269048Y-62167666D01*
X121840476Y-62239095D02*
X121792857Y-62215285D01*
X121792857Y-62215285D02*
X121769047Y-62191476D01*
X121769047Y-62191476D02*
X121745238Y-62143857D01*
X121745238Y-62143857D02*
X121745238Y-62120047D01*
X121745238Y-62120047D02*
X121769047Y-62072428D01*
X121769047Y-62072428D02*
X121792857Y-62048619D01*
X121792857Y-62048619D02*
X121840476Y-62024809D01*
X121840476Y-62024809D02*
X121935714Y-62024809D01*
X121935714Y-62024809D02*
X121983333Y-62048619D01*
X121983333Y-62048619D02*
X122007142Y-62072428D01*
X122007142Y-62072428D02*
X122030952Y-62120047D01*
X122030952Y-62120047D02*
X122030952Y-62143857D01*
X122030952Y-62143857D02*
X122007142Y-62191476D01*
X122007142Y-62191476D02*
X121983333Y-62215285D01*
X121983333Y-62215285D02*
X121935714Y-62239095D01*
X121935714Y-62239095D02*
X121840476Y-62239095D01*
X121840476Y-62239095D02*
X121792857Y-62262904D01*
X121792857Y-62262904D02*
X121769047Y-62286714D01*
X121769047Y-62286714D02*
X121745238Y-62334333D01*
X121745238Y-62334333D02*
X121745238Y-62429571D01*
X121745238Y-62429571D02*
X121769047Y-62477190D01*
X121769047Y-62477190D02*
X121792857Y-62501000D01*
X121792857Y-62501000D02*
X121840476Y-62524809D01*
X121840476Y-62524809D02*
X121935714Y-62524809D01*
X121935714Y-62524809D02*
X121983333Y-62501000D01*
X121983333Y-62501000D02*
X122007142Y-62477190D01*
X122007142Y-62477190D02*
X122030952Y-62429571D01*
X122030952Y-62429571D02*
X122030952Y-62334333D01*
X122030952Y-62334333D02*
X122007142Y-62286714D01*
X122007142Y-62286714D02*
X121983333Y-62262904D01*
X121983333Y-62262904D02*
X121935714Y-62239095D01*
X129178571Y-68377190D02*
X129154762Y-68401000D01*
X129154762Y-68401000D02*
X129083333Y-68424809D01*
X129083333Y-68424809D02*
X129035714Y-68424809D01*
X129035714Y-68424809D02*
X128964286Y-68401000D01*
X128964286Y-68401000D02*
X128916667Y-68353380D01*
X128916667Y-68353380D02*
X128892857Y-68305761D01*
X128892857Y-68305761D02*
X128869048Y-68210523D01*
X128869048Y-68210523D02*
X128869048Y-68139095D01*
X128869048Y-68139095D02*
X128892857Y-68043857D01*
X128892857Y-68043857D02*
X128916667Y-67996238D01*
X128916667Y-67996238D02*
X128964286Y-67948619D01*
X128964286Y-67948619D02*
X129035714Y-67924809D01*
X129035714Y-67924809D02*
X129083333Y-67924809D01*
X129083333Y-67924809D02*
X129154762Y-67948619D01*
X129154762Y-67948619D02*
X129178571Y-67972428D01*
X129654762Y-68424809D02*
X129369048Y-68424809D01*
X129511905Y-68424809D02*
X129511905Y-67924809D01*
X129511905Y-67924809D02*
X129464286Y-67996238D01*
X129464286Y-67996238D02*
X129416667Y-68043857D01*
X129416667Y-68043857D02*
X129369048Y-68067666D01*
X130083333Y-67924809D02*
X129988095Y-67924809D01*
X129988095Y-67924809D02*
X129940476Y-67948619D01*
X129940476Y-67948619D02*
X129916666Y-67972428D01*
X129916666Y-67972428D02*
X129869047Y-68043857D01*
X129869047Y-68043857D02*
X129845238Y-68139095D01*
X129845238Y-68139095D02*
X129845238Y-68329571D01*
X129845238Y-68329571D02*
X129869047Y-68377190D01*
X129869047Y-68377190D02*
X129892857Y-68401000D01*
X129892857Y-68401000D02*
X129940476Y-68424809D01*
X129940476Y-68424809D02*
X130035714Y-68424809D01*
X130035714Y-68424809D02*
X130083333Y-68401000D01*
X130083333Y-68401000D02*
X130107142Y-68377190D01*
X130107142Y-68377190D02*
X130130952Y-68329571D01*
X130130952Y-68329571D02*
X130130952Y-68210523D01*
X130130952Y-68210523D02*
X130107142Y-68162904D01*
X130107142Y-68162904D02*
X130083333Y-68139095D01*
X130083333Y-68139095D02*
X130035714Y-68115285D01*
X130035714Y-68115285D02*
X129940476Y-68115285D01*
X129940476Y-68115285D02*
X129892857Y-68139095D01*
X129892857Y-68139095D02*
X129869047Y-68162904D01*
X129869047Y-68162904D02*
X129845238Y-68210523D01*
D11*
X134588095Y-52204819D02*
X135159523Y-52204819D01*
X134873809Y-53204819D02*
X134873809Y-52204819D01*
X135492857Y-53204819D02*
X135492857Y-52204819D01*
X135492857Y-52204819D02*
X135873809Y-52204819D01*
X135873809Y-52204819D02*
X135969047Y-52252438D01*
X135969047Y-52252438D02*
X136016666Y-52300057D01*
X136016666Y-52300057D02*
X136064285Y-52395295D01*
X136064285Y-52395295D02*
X136064285Y-52538152D01*
X136064285Y-52538152D02*
X136016666Y-52633390D01*
X136016666Y-52633390D02*
X135969047Y-52681009D01*
X135969047Y-52681009D02*
X135873809Y-52728628D01*
X135873809Y-52728628D02*
X135492857Y-52728628D01*
X136921428Y-52538152D02*
X136921428Y-53204819D01*
X136683333Y-52157200D02*
X136445238Y-52871485D01*
X136445238Y-52871485D02*
X137064285Y-52871485D01*
D10*
X104016666Y-57324809D02*
X103850000Y-57086714D01*
X103730952Y-57324809D02*
X103730952Y-56824809D01*
X103730952Y-56824809D02*
X103921428Y-56824809D01*
X103921428Y-56824809D02*
X103969047Y-56848619D01*
X103969047Y-56848619D02*
X103992857Y-56872428D01*
X103992857Y-56872428D02*
X104016666Y-56920047D01*
X104016666Y-56920047D02*
X104016666Y-56991476D01*
X104016666Y-56991476D02*
X103992857Y-57039095D01*
X103992857Y-57039095D02*
X103969047Y-57062904D01*
X103969047Y-57062904D02*
X103921428Y-57086714D01*
X103921428Y-57086714D02*
X103730952Y-57086714D01*
X104183333Y-56824809D02*
X104516666Y-56824809D01*
X104516666Y-56824809D02*
X104302381Y-57324809D01*
X114524809Y-58083333D02*
X114286714Y-58249999D01*
X114524809Y-58369047D02*
X114024809Y-58369047D01*
X114024809Y-58369047D02*
X114024809Y-58178571D01*
X114024809Y-58178571D02*
X114048619Y-58130952D01*
X114048619Y-58130952D02*
X114072428Y-58107142D01*
X114072428Y-58107142D02*
X114120047Y-58083333D01*
X114120047Y-58083333D02*
X114191476Y-58083333D01*
X114191476Y-58083333D02*
X114239095Y-58107142D01*
X114239095Y-58107142D02*
X114262904Y-58130952D01*
X114262904Y-58130952D02*
X114286714Y-58178571D01*
X114286714Y-58178571D02*
X114286714Y-58369047D01*
X114024809Y-57916666D02*
X114024809Y-57607142D01*
X114024809Y-57607142D02*
X114215285Y-57773809D01*
X114215285Y-57773809D02*
X114215285Y-57702380D01*
X114215285Y-57702380D02*
X114239095Y-57654761D01*
X114239095Y-57654761D02*
X114262904Y-57630952D01*
X114262904Y-57630952D02*
X114310523Y-57607142D01*
X114310523Y-57607142D02*
X114429571Y-57607142D01*
X114429571Y-57607142D02*
X114477190Y-57630952D01*
X114477190Y-57630952D02*
X114501000Y-57654761D01*
X114501000Y-57654761D02*
X114524809Y-57702380D01*
X114524809Y-57702380D02*
X114524809Y-57845237D01*
X114524809Y-57845237D02*
X114501000Y-57892856D01*
X114501000Y-57892856D02*
X114477190Y-57916666D01*
X121616666Y-71724809D02*
X121378571Y-71724809D01*
X121378571Y-71724809D02*
X121378571Y-71224809D01*
X121759524Y-71272428D02*
X121783333Y-71248619D01*
X121783333Y-71248619D02*
X121830952Y-71224809D01*
X121830952Y-71224809D02*
X121950000Y-71224809D01*
X121950000Y-71224809D02*
X121997619Y-71248619D01*
X121997619Y-71248619D02*
X122021428Y-71272428D01*
X122021428Y-71272428D02*
X122045238Y-71320047D01*
X122045238Y-71320047D02*
X122045238Y-71367666D01*
X122045238Y-71367666D02*
X122021428Y-71439095D01*
X122021428Y-71439095D02*
X121735714Y-71724809D01*
X121735714Y-71724809D02*
X122045238Y-71724809D01*
X131777190Y-60021428D02*
X131801000Y-60045237D01*
X131801000Y-60045237D02*
X131824809Y-60116666D01*
X131824809Y-60116666D02*
X131824809Y-60164285D01*
X131824809Y-60164285D02*
X131801000Y-60235713D01*
X131801000Y-60235713D02*
X131753380Y-60283332D01*
X131753380Y-60283332D02*
X131705761Y-60307142D01*
X131705761Y-60307142D02*
X131610523Y-60330951D01*
X131610523Y-60330951D02*
X131539095Y-60330951D01*
X131539095Y-60330951D02*
X131443857Y-60307142D01*
X131443857Y-60307142D02*
X131396238Y-60283332D01*
X131396238Y-60283332D02*
X131348619Y-60235713D01*
X131348619Y-60235713D02*
X131324809Y-60164285D01*
X131324809Y-60164285D02*
X131324809Y-60116666D01*
X131324809Y-60116666D02*
X131348619Y-60045237D01*
X131348619Y-60045237D02*
X131372428Y-60021428D01*
X131824809Y-59545237D02*
X131824809Y-59830951D01*
X131824809Y-59688094D02*
X131324809Y-59688094D01*
X131324809Y-59688094D02*
X131396238Y-59735713D01*
X131396238Y-59735713D02*
X131443857Y-59783332D01*
X131443857Y-59783332D02*
X131467666Y-59830951D01*
X131824809Y-59307142D02*
X131824809Y-59211904D01*
X131824809Y-59211904D02*
X131801000Y-59164285D01*
X131801000Y-59164285D02*
X131777190Y-59140476D01*
X131777190Y-59140476D02*
X131705761Y-59092857D01*
X131705761Y-59092857D02*
X131610523Y-59069047D01*
X131610523Y-59069047D02*
X131420047Y-59069047D01*
X131420047Y-59069047D02*
X131372428Y-59092857D01*
X131372428Y-59092857D02*
X131348619Y-59116666D01*
X131348619Y-59116666D02*
X131324809Y-59164285D01*
X131324809Y-59164285D02*
X131324809Y-59259523D01*
X131324809Y-59259523D02*
X131348619Y-59307142D01*
X131348619Y-59307142D02*
X131372428Y-59330952D01*
X131372428Y-59330952D02*
X131420047Y-59354761D01*
X131420047Y-59354761D02*
X131539095Y-59354761D01*
X131539095Y-59354761D02*
X131586714Y-59330952D01*
X131586714Y-59330952D02*
X131610523Y-59307142D01*
X131610523Y-59307142D02*
X131634333Y-59259523D01*
X131634333Y-59259523D02*
X131634333Y-59164285D01*
X131634333Y-59164285D02*
X131610523Y-59116666D01*
X131610523Y-59116666D02*
X131586714Y-59092857D01*
X131586714Y-59092857D02*
X131539095Y-59069047D01*
X109277190Y-64421428D02*
X109301000Y-64445237D01*
X109301000Y-64445237D02*
X109324809Y-64516666D01*
X109324809Y-64516666D02*
X109324809Y-64564285D01*
X109324809Y-64564285D02*
X109301000Y-64635713D01*
X109301000Y-64635713D02*
X109253380Y-64683332D01*
X109253380Y-64683332D02*
X109205761Y-64707142D01*
X109205761Y-64707142D02*
X109110523Y-64730951D01*
X109110523Y-64730951D02*
X109039095Y-64730951D01*
X109039095Y-64730951D02*
X108943857Y-64707142D01*
X108943857Y-64707142D02*
X108896238Y-64683332D01*
X108896238Y-64683332D02*
X108848619Y-64635713D01*
X108848619Y-64635713D02*
X108824809Y-64564285D01*
X108824809Y-64564285D02*
X108824809Y-64516666D01*
X108824809Y-64516666D02*
X108848619Y-64445237D01*
X108848619Y-64445237D02*
X108872428Y-64421428D01*
X109324809Y-63945237D02*
X109324809Y-64230951D01*
X109324809Y-64088094D02*
X108824809Y-64088094D01*
X108824809Y-64088094D02*
X108896238Y-64135713D01*
X108896238Y-64135713D02*
X108943857Y-64183332D01*
X108943857Y-64183332D02*
X108967666Y-64230951D01*
X108872428Y-63754761D02*
X108848619Y-63730952D01*
X108848619Y-63730952D02*
X108824809Y-63683333D01*
X108824809Y-63683333D02*
X108824809Y-63564285D01*
X108824809Y-63564285D02*
X108848619Y-63516666D01*
X108848619Y-63516666D02*
X108872428Y-63492857D01*
X108872428Y-63492857D02*
X108920047Y-63469047D01*
X108920047Y-63469047D02*
X108967666Y-63469047D01*
X108967666Y-63469047D02*
X109039095Y-63492857D01*
X109039095Y-63492857D02*
X109324809Y-63778571D01*
X109324809Y-63778571D02*
X109324809Y-63469047D01*
X106504809Y-70621428D02*
X106266714Y-70788094D01*
X106504809Y-70907142D02*
X106004809Y-70907142D01*
X106004809Y-70907142D02*
X106004809Y-70716666D01*
X106004809Y-70716666D02*
X106028619Y-70669047D01*
X106028619Y-70669047D02*
X106052428Y-70645237D01*
X106052428Y-70645237D02*
X106100047Y-70621428D01*
X106100047Y-70621428D02*
X106171476Y-70621428D01*
X106171476Y-70621428D02*
X106219095Y-70645237D01*
X106219095Y-70645237D02*
X106242904Y-70669047D01*
X106242904Y-70669047D02*
X106266714Y-70716666D01*
X106266714Y-70716666D02*
X106266714Y-70907142D01*
X106504809Y-70145237D02*
X106504809Y-70430951D01*
X106504809Y-70288094D02*
X106004809Y-70288094D01*
X106004809Y-70288094D02*
X106076238Y-70335713D01*
X106076238Y-70335713D02*
X106123857Y-70383332D01*
X106123857Y-70383332D02*
X106147666Y-70430951D01*
X106052428Y-69954761D02*
X106028619Y-69930952D01*
X106028619Y-69930952D02*
X106004809Y-69883333D01*
X106004809Y-69883333D02*
X106004809Y-69764285D01*
X106004809Y-69764285D02*
X106028619Y-69716666D01*
X106028619Y-69716666D02*
X106052428Y-69692857D01*
X106052428Y-69692857D02*
X106100047Y-69669047D01*
X106100047Y-69669047D02*
X106147666Y-69669047D01*
X106147666Y-69669047D02*
X106219095Y-69692857D01*
X106219095Y-69692857D02*
X106504809Y-69978571D01*
X106504809Y-69978571D02*
X106504809Y-69669047D01*
X115116666Y-61777190D02*
X115092857Y-61801000D01*
X115092857Y-61801000D02*
X115021428Y-61824809D01*
X115021428Y-61824809D02*
X114973809Y-61824809D01*
X114973809Y-61824809D02*
X114902381Y-61801000D01*
X114902381Y-61801000D02*
X114854762Y-61753380D01*
X114854762Y-61753380D02*
X114830952Y-61705761D01*
X114830952Y-61705761D02*
X114807143Y-61610523D01*
X114807143Y-61610523D02*
X114807143Y-61539095D01*
X114807143Y-61539095D02*
X114830952Y-61443857D01*
X114830952Y-61443857D02*
X114854762Y-61396238D01*
X114854762Y-61396238D02*
X114902381Y-61348619D01*
X114902381Y-61348619D02*
X114973809Y-61324809D01*
X114973809Y-61324809D02*
X115021428Y-61324809D01*
X115021428Y-61324809D02*
X115092857Y-61348619D01*
X115092857Y-61348619D02*
X115116666Y-61372428D01*
X115545238Y-61324809D02*
X115450000Y-61324809D01*
X115450000Y-61324809D02*
X115402381Y-61348619D01*
X115402381Y-61348619D02*
X115378571Y-61372428D01*
X115378571Y-61372428D02*
X115330952Y-61443857D01*
X115330952Y-61443857D02*
X115307143Y-61539095D01*
X115307143Y-61539095D02*
X115307143Y-61729571D01*
X115307143Y-61729571D02*
X115330952Y-61777190D01*
X115330952Y-61777190D02*
X115354762Y-61801000D01*
X115354762Y-61801000D02*
X115402381Y-61824809D01*
X115402381Y-61824809D02*
X115497619Y-61824809D01*
X115497619Y-61824809D02*
X115545238Y-61801000D01*
X115545238Y-61801000D02*
X115569047Y-61777190D01*
X115569047Y-61777190D02*
X115592857Y-61729571D01*
X115592857Y-61729571D02*
X115592857Y-61610523D01*
X115592857Y-61610523D02*
X115569047Y-61562904D01*
X115569047Y-61562904D02*
X115545238Y-61539095D01*
X115545238Y-61539095D02*
X115497619Y-61515285D01*
X115497619Y-61515285D02*
X115402381Y-61515285D01*
X115402381Y-61515285D02*
X115354762Y-61539095D01*
X115354762Y-61539095D02*
X115330952Y-61562904D01*
X115330952Y-61562904D02*
X115307143Y-61610523D01*
X117524809Y-65383333D02*
X117524809Y-65621428D01*
X117524809Y-65621428D02*
X117024809Y-65621428D01*
X117524809Y-64954761D02*
X117524809Y-65240475D01*
X117524809Y-65097618D02*
X117024809Y-65097618D01*
X117024809Y-65097618D02*
X117096238Y-65145237D01*
X117096238Y-65145237D02*
X117143857Y-65192856D01*
X117143857Y-65192856D02*
X117167666Y-65240475D01*
X106777190Y-65821428D02*
X106801000Y-65845237D01*
X106801000Y-65845237D02*
X106824809Y-65916666D01*
X106824809Y-65916666D02*
X106824809Y-65964285D01*
X106824809Y-65964285D02*
X106801000Y-66035713D01*
X106801000Y-66035713D02*
X106753380Y-66083332D01*
X106753380Y-66083332D02*
X106705761Y-66107142D01*
X106705761Y-66107142D02*
X106610523Y-66130951D01*
X106610523Y-66130951D02*
X106539095Y-66130951D01*
X106539095Y-66130951D02*
X106443857Y-66107142D01*
X106443857Y-66107142D02*
X106396238Y-66083332D01*
X106396238Y-66083332D02*
X106348619Y-66035713D01*
X106348619Y-66035713D02*
X106324809Y-65964285D01*
X106324809Y-65964285D02*
X106324809Y-65916666D01*
X106324809Y-65916666D02*
X106348619Y-65845237D01*
X106348619Y-65845237D02*
X106372428Y-65821428D01*
X106824809Y-65345237D02*
X106824809Y-65630951D01*
X106824809Y-65488094D02*
X106324809Y-65488094D01*
X106324809Y-65488094D02*
X106396238Y-65535713D01*
X106396238Y-65535713D02*
X106443857Y-65583332D01*
X106443857Y-65583332D02*
X106467666Y-65630951D01*
X106824809Y-64869047D02*
X106824809Y-65154761D01*
X106824809Y-65011904D02*
X106324809Y-65011904D01*
X106324809Y-65011904D02*
X106396238Y-65059523D01*
X106396238Y-65059523D02*
X106443857Y-65107142D01*
X106443857Y-65107142D02*
X106467666Y-65154761D01*
X109377190Y-62483333D02*
X109401000Y-62507142D01*
X109401000Y-62507142D02*
X109424809Y-62578571D01*
X109424809Y-62578571D02*
X109424809Y-62626190D01*
X109424809Y-62626190D02*
X109401000Y-62697618D01*
X109401000Y-62697618D02*
X109353380Y-62745237D01*
X109353380Y-62745237D02*
X109305761Y-62769047D01*
X109305761Y-62769047D02*
X109210523Y-62792856D01*
X109210523Y-62792856D02*
X109139095Y-62792856D01*
X109139095Y-62792856D02*
X109043857Y-62769047D01*
X109043857Y-62769047D02*
X108996238Y-62745237D01*
X108996238Y-62745237D02*
X108948619Y-62697618D01*
X108948619Y-62697618D02*
X108924809Y-62626190D01*
X108924809Y-62626190D02*
X108924809Y-62578571D01*
X108924809Y-62578571D02*
X108948619Y-62507142D01*
X108948619Y-62507142D02*
X108972428Y-62483333D01*
X109139095Y-62197618D02*
X109115285Y-62245237D01*
X109115285Y-62245237D02*
X109091476Y-62269047D01*
X109091476Y-62269047D02*
X109043857Y-62292856D01*
X109043857Y-62292856D02*
X109020047Y-62292856D01*
X109020047Y-62292856D02*
X108972428Y-62269047D01*
X108972428Y-62269047D02*
X108948619Y-62245237D01*
X108948619Y-62245237D02*
X108924809Y-62197618D01*
X108924809Y-62197618D02*
X108924809Y-62102380D01*
X108924809Y-62102380D02*
X108948619Y-62054761D01*
X108948619Y-62054761D02*
X108972428Y-62030952D01*
X108972428Y-62030952D02*
X109020047Y-62007142D01*
X109020047Y-62007142D02*
X109043857Y-62007142D01*
X109043857Y-62007142D02*
X109091476Y-62030952D01*
X109091476Y-62030952D02*
X109115285Y-62054761D01*
X109115285Y-62054761D02*
X109139095Y-62102380D01*
X109139095Y-62102380D02*
X109139095Y-62197618D01*
X109139095Y-62197618D02*
X109162904Y-62245237D01*
X109162904Y-62245237D02*
X109186714Y-62269047D01*
X109186714Y-62269047D02*
X109234333Y-62292856D01*
X109234333Y-62292856D02*
X109329571Y-62292856D01*
X109329571Y-62292856D02*
X109377190Y-62269047D01*
X109377190Y-62269047D02*
X109401000Y-62245237D01*
X109401000Y-62245237D02*
X109424809Y-62197618D01*
X109424809Y-62197618D02*
X109424809Y-62102380D01*
X109424809Y-62102380D02*
X109401000Y-62054761D01*
X109401000Y-62054761D02*
X109377190Y-62030952D01*
X109377190Y-62030952D02*
X109329571Y-62007142D01*
X109329571Y-62007142D02*
X109234333Y-62007142D01*
X109234333Y-62007142D02*
X109186714Y-62030952D01*
X109186714Y-62030952D02*
X109162904Y-62054761D01*
X109162904Y-62054761D02*
X109139095Y-62102380D01*
X121824809Y-68580952D02*
X122229571Y-68580952D01*
X122229571Y-68580952D02*
X122277190Y-68557142D01*
X122277190Y-68557142D02*
X122301000Y-68533333D01*
X122301000Y-68533333D02*
X122324809Y-68485714D01*
X122324809Y-68485714D02*
X122324809Y-68390476D01*
X122324809Y-68390476D02*
X122301000Y-68342857D01*
X122301000Y-68342857D02*
X122277190Y-68319047D01*
X122277190Y-68319047D02*
X122229571Y-68295238D01*
X122229571Y-68295238D02*
X121824809Y-68295238D01*
X121824809Y-67819047D02*
X121824809Y-68057142D01*
X121824809Y-68057142D02*
X122062904Y-68080951D01*
X122062904Y-68080951D02*
X122039095Y-68057142D01*
X122039095Y-68057142D02*
X122015285Y-68009523D01*
X122015285Y-68009523D02*
X122015285Y-67890475D01*
X122015285Y-67890475D02*
X122039095Y-67842856D01*
X122039095Y-67842856D02*
X122062904Y-67819047D01*
X122062904Y-67819047D02*
X122110523Y-67795237D01*
X122110523Y-67795237D02*
X122229571Y-67795237D01*
X122229571Y-67795237D02*
X122277190Y-67819047D01*
X122277190Y-67819047D02*
X122301000Y-67842856D01*
X122301000Y-67842856D02*
X122324809Y-67890475D01*
X122324809Y-67890475D02*
X122324809Y-68009523D01*
X122324809Y-68009523D02*
X122301000Y-68057142D01*
X122301000Y-68057142D02*
X122277190Y-68080951D01*
X106390447Y-53024809D02*
X106390447Y-53429571D01*
X106390447Y-53429571D02*
X106414257Y-53477190D01*
X106414257Y-53477190D02*
X106438066Y-53501000D01*
X106438066Y-53501000D02*
X106485685Y-53524809D01*
X106485685Y-53524809D02*
X106580923Y-53524809D01*
X106580923Y-53524809D02*
X106628542Y-53501000D01*
X106628542Y-53501000D02*
X106652352Y-53477190D01*
X106652352Y-53477190D02*
X106676161Y-53429571D01*
X106676161Y-53429571D02*
X106676161Y-53024809D01*
X106890448Y-53072428D02*
X106914257Y-53048619D01*
X106914257Y-53048619D02*
X106961876Y-53024809D01*
X106961876Y-53024809D02*
X107080924Y-53024809D01*
X107080924Y-53024809D02*
X107128543Y-53048619D01*
X107128543Y-53048619D02*
X107152352Y-53072428D01*
X107152352Y-53072428D02*
X107176162Y-53120047D01*
X107176162Y-53120047D02*
X107176162Y-53167666D01*
X107176162Y-53167666D02*
X107152352Y-53239095D01*
X107152352Y-53239095D02*
X106866638Y-53524809D01*
X106866638Y-53524809D02*
X107176162Y-53524809D01*
X128478571Y-55177190D02*
X128454762Y-55201000D01*
X128454762Y-55201000D02*
X128383333Y-55224809D01*
X128383333Y-55224809D02*
X128335714Y-55224809D01*
X128335714Y-55224809D02*
X128264286Y-55201000D01*
X128264286Y-55201000D02*
X128216667Y-55153380D01*
X128216667Y-55153380D02*
X128192857Y-55105761D01*
X128192857Y-55105761D02*
X128169048Y-55010523D01*
X128169048Y-55010523D02*
X128169048Y-54939095D01*
X128169048Y-54939095D02*
X128192857Y-54843857D01*
X128192857Y-54843857D02*
X128216667Y-54796238D01*
X128216667Y-54796238D02*
X128264286Y-54748619D01*
X128264286Y-54748619D02*
X128335714Y-54724809D01*
X128335714Y-54724809D02*
X128383333Y-54724809D01*
X128383333Y-54724809D02*
X128454762Y-54748619D01*
X128454762Y-54748619D02*
X128478571Y-54772428D01*
X128669048Y-54772428D02*
X128692857Y-54748619D01*
X128692857Y-54748619D02*
X128740476Y-54724809D01*
X128740476Y-54724809D02*
X128859524Y-54724809D01*
X128859524Y-54724809D02*
X128907143Y-54748619D01*
X128907143Y-54748619D02*
X128930952Y-54772428D01*
X128930952Y-54772428D02*
X128954762Y-54820047D01*
X128954762Y-54820047D02*
X128954762Y-54867666D01*
X128954762Y-54867666D02*
X128930952Y-54939095D01*
X128930952Y-54939095D02*
X128645238Y-55224809D01*
X128645238Y-55224809D02*
X128954762Y-55224809D01*
X129430952Y-55224809D02*
X129145238Y-55224809D01*
X129288095Y-55224809D02*
X129288095Y-54724809D01*
X129288095Y-54724809D02*
X129240476Y-54796238D01*
X129240476Y-54796238D02*
X129192857Y-54843857D01*
X129192857Y-54843857D02*
X129145238Y-54867666D01*
X111019047Y-55024809D02*
X111019047Y-55429571D01*
X111019047Y-55429571D02*
X111042857Y-55477190D01*
X111042857Y-55477190D02*
X111066666Y-55501000D01*
X111066666Y-55501000D02*
X111114285Y-55524809D01*
X111114285Y-55524809D02*
X111209523Y-55524809D01*
X111209523Y-55524809D02*
X111257142Y-55501000D01*
X111257142Y-55501000D02*
X111280952Y-55477190D01*
X111280952Y-55477190D02*
X111304761Y-55429571D01*
X111304761Y-55429571D02*
X111304761Y-55024809D01*
X111804762Y-55524809D02*
X111519048Y-55524809D01*
X111661905Y-55524809D02*
X111661905Y-55024809D01*
X111661905Y-55024809D02*
X111614286Y-55096238D01*
X111614286Y-55096238D02*
X111566667Y-55143857D01*
X111566667Y-55143857D02*
X111519048Y-55167666D01*
X109516666Y-61407190D02*
X109492857Y-61431000D01*
X109492857Y-61431000D02*
X109421428Y-61454809D01*
X109421428Y-61454809D02*
X109373809Y-61454809D01*
X109373809Y-61454809D02*
X109302381Y-61431000D01*
X109302381Y-61431000D02*
X109254762Y-61383380D01*
X109254762Y-61383380D02*
X109230952Y-61335761D01*
X109230952Y-61335761D02*
X109207143Y-61240523D01*
X109207143Y-61240523D02*
X109207143Y-61169095D01*
X109207143Y-61169095D02*
X109230952Y-61073857D01*
X109230952Y-61073857D02*
X109254762Y-61026238D01*
X109254762Y-61026238D02*
X109302381Y-60978619D01*
X109302381Y-60978619D02*
X109373809Y-60954809D01*
X109373809Y-60954809D02*
X109421428Y-60954809D01*
X109421428Y-60954809D02*
X109492857Y-60978619D01*
X109492857Y-60978619D02*
X109516666Y-61002428D01*
X109992857Y-61454809D02*
X109707143Y-61454809D01*
X109850000Y-61454809D02*
X109850000Y-60954809D01*
X109850000Y-60954809D02*
X109802381Y-61026238D01*
X109802381Y-61026238D02*
X109754762Y-61073857D01*
X109754762Y-61073857D02*
X109707143Y-61097666D01*
X114477190Y-56183333D02*
X114501000Y-56207142D01*
X114501000Y-56207142D02*
X114524809Y-56278571D01*
X114524809Y-56278571D02*
X114524809Y-56326190D01*
X114524809Y-56326190D02*
X114501000Y-56397618D01*
X114501000Y-56397618D02*
X114453380Y-56445237D01*
X114453380Y-56445237D02*
X114405761Y-56469047D01*
X114405761Y-56469047D02*
X114310523Y-56492856D01*
X114310523Y-56492856D02*
X114239095Y-56492856D01*
X114239095Y-56492856D02*
X114143857Y-56469047D01*
X114143857Y-56469047D02*
X114096238Y-56445237D01*
X114096238Y-56445237D02*
X114048619Y-56397618D01*
X114048619Y-56397618D02*
X114024809Y-56326190D01*
X114024809Y-56326190D02*
X114024809Y-56278571D01*
X114024809Y-56278571D02*
X114048619Y-56207142D01*
X114048619Y-56207142D02*
X114072428Y-56183333D01*
X114024809Y-56016666D02*
X114024809Y-55707142D01*
X114024809Y-55707142D02*
X114215285Y-55873809D01*
X114215285Y-55873809D02*
X114215285Y-55802380D01*
X114215285Y-55802380D02*
X114239095Y-55754761D01*
X114239095Y-55754761D02*
X114262904Y-55730952D01*
X114262904Y-55730952D02*
X114310523Y-55707142D01*
X114310523Y-55707142D02*
X114429571Y-55707142D01*
X114429571Y-55707142D02*
X114477190Y-55730952D01*
X114477190Y-55730952D02*
X114501000Y-55754761D01*
X114501000Y-55754761D02*
X114524809Y-55802380D01*
X114524809Y-55802380D02*
X114524809Y-55945237D01*
X114524809Y-55945237D02*
X114501000Y-55992856D01*
X114501000Y-55992856D02*
X114477190Y-56016666D01*
X107416666Y-59724809D02*
X107250000Y-59486714D01*
X107130952Y-59724809D02*
X107130952Y-59224809D01*
X107130952Y-59224809D02*
X107321428Y-59224809D01*
X107321428Y-59224809D02*
X107369047Y-59248619D01*
X107369047Y-59248619D02*
X107392857Y-59272428D01*
X107392857Y-59272428D02*
X107416666Y-59320047D01*
X107416666Y-59320047D02*
X107416666Y-59391476D01*
X107416666Y-59391476D02*
X107392857Y-59439095D01*
X107392857Y-59439095D02*
X107369047Y-59462904D01*
X107369047Y-59462904D02*
X107321428Y-59486714D01*
X107321428Y-59486714D02*
X107130952Y-59486714D01*
X107869047Y-59224809D02*
X107630952Y-59224809D01*
X107630952Y-59224809D02*
X107607143Y-59462904D01*
X107607143Y-59462904D02*
X107630952Y-59439095D01*
X107630952Y-59439095D02*
X107678571Y-59415285D01*
X107678571Y-59415285D02*
X107797619Y-59415285D01*
X107797619Y-59415285D02*
X107845238Y-59439095D01*
X107845238Y-59439095D02*
X107869047Y-59462904D01*
X107869047Y-59462904D02*
X107892857Y-59510523D01*
X107892857Y-59510523D02*
X107892857Y-59629571D01*
X107892857Y-59629571D02*
X107869047Y-59677190D01*
X107869047Y-59677190D02*
X107845238Y-59701000D01*
X107845238Y-59701000D02*
X107797619Y-59724809D01*
X107797619Y-59724809D02*
X107678571Y-59724809D01*
X107678571Y-59724809D02*
X107630952Y-59701000D01*
X107630952Y-59701000D02*
X107607143Y-59677190D01*
X105878571Y-67024809D02*
X105711905Y-66786714D01*
X105592857Y-67024809D02*
X105592857Y-66524809D01*
X105592857Y-66524809D02*
X105783333Y-66524809D01*
X105783333Y-66524809D02*
X105830952Y-66548619D01*
X105830952Y-66548619D02*
X105854762Y-66572428D01*
X105854762Y-66572428D02*
X105878571Y-66620047D01*
X105878571Y-66620047D02*
X105878571Y-66691476D01*
X105878571Y-66691476D02*
X105854762Y-66739095D01*
X105854762Y-66739095D02*
X105830952Y-66762904D01*
X105830952Y-66762904D02*
X105783333Y-66786714D01*
X105783333Y-66786714D02*
X105592857Y-66786714D01*
X106354762Y-67024809D02*
X106069048Y-67024809D01*
X106211905Y-67024809D02*
X106211905Y-66524809D01*
X106211905Y-66524809D02*
X106164286Y-66596238D01*
X106164286Y-66596238D02*
X106116667Y-66643857D01*
X106116667Y-66643857D02*
X106069048Y-66667666D01*
X106830952Y-67024809D02*
X106545238Y-67024809D01*
X106688095Y-67024809D02*
X106688095Y-66524809D01*
X106688095Y-66524809D02*
X106640476Y-66596238D01*
X106640476Y-66596238D02*
X106592857Y-66643857D01*
X106592857Y-66643857D02*
X106545238Y-66667666D01*
X108877190Y-72521428D02*
X108901000Y-72545237D01*
X108901000Y-72545237D02*
X108924809Y-72616666D01*
X108924809Y-72616666D02*
X108924809Y-72664285D01*
X108924809Y-72664285D02*
X108901000Y-72735713D01*
X108901000Y-72735713D02*
X108853380Y-72783332D01*
X108853380Y-72783332D02*
X108805761Y-72807142D01*
X108805761Y-72807142D02*
X108710523Y-72830951D01*
X108710523Y-72830951D02*
X108639095Y-72830951D01*
X108639095Y-72830951D02*
X108543857Y-72807142D01*
X108543857Y-72807142D02*
X108496238Y-72783332D01*
X108496238Y-72783332D02*
X108448619Y-72735713D01*
X108448619Y-72735713D02*
X108424809Y-72664285D01*
X108424809Y-72664285D02*
X108424809Y-72616666D01*
X108424809Y-72616666D02*
X108448619Y-72545237D01*
X108448619Y-72545237D02*
X108472428Y-72521428D01*
X108924809Y-72045237D02*
X108924809Y-72330951D01*
X108924809Y-72188094D02*
X108424809Y-72188094D01*
X108424809Y-72188094D02*
X108496238Y-72235713D01*
X108496238Y-72235713D02*
X108543857Y-72283332D01*
X108543857Y-72283332D02*
X108567666Y-72330951D01*
X108424809Y-71735714D02*
X108424809Y-71688095D01*
X108424809Y-71688095D02*
X108448619Y-71640476D01*
X108448619Y-71640476D02*
X108472428Y-71616666D01*
X108472428Y-71616666D02*
X108520047Y-71592857D01*
X108520047Y-71592857D02*
X108615285Y-71569047D01*
X108615285Y-71569047D02*
X108734333Y-71569047D01*
X108734333Y-71569047D02*
X108829571Y-71592857D01*
X108829571Y-71592857D02*
X108877190Y-71616666D01*
X108877190Y-71616666D02*
X108901000Y-71640476D01*
X108901000Y-71640476D02*
X108924809Y-71688095D01*
X108924809Y-71688095D02*
X108924809Y-71735714D01*
X108924809Y-71735714D02*
X108901000Y-71783333D01*
X108901000Y-71783333D02*
X108877190Y-71807142D01*
X108877190Y-71807142D02*
X108829571Y-71830952D01*
X108829571Y-71830952D02*
X108734333Y-71854761D01*
X108734333Y-71854761D02*
X108615285Y-71854761D01*
X108615285Y-71854761D02*
X108520047Y-71830952D01*
X108520047Y-71830952D02*
X108472428Y-71807142D01*
X108472428Y-71807142D02*
X108448619Y-71783333D01*
X108448619Y-71783333D02*
X108424809Y-71735714D01*
D11*
X118166666Y-38529819D02*
X118166666Y-39244104D01*
X118166666Y-39244104D02*
X118119047Y-39386961D01*
X118119047Y-39386961D02*
X118023809Y-39482200D01*
X118023809Y-39482200D02*
X117880952Y-39529819D01*
X117880952Y-39529819D02*
X117785714Y-39529819D01*
X119071428Y-38863152D02*
X119071428Y-39529819D01*
X118833333Y-38482200D02*
X118595238Y-39196485D01*
X118595238Y-39196485D02*
X119214285Y-39196485D01*
X123428571Y-53689700D02*
X124571429Y-53689700D01*
X112428571Y-53689700D02*
X113571429Y-53689700D01*
X113000000Y-54261128D02*
X113000000Y-53118271D01*
D10*
X106204809Y-68521428D02*
X105966714Y-68688094D01*
X106204809Y-68807142D02*
X105704809Y-68807142D01*
X105704809Y-68807142D02*
X105704809Y-68616666D01*
X105704809Y-68616666D02*
X105728619Y-68569047D01*
X105728619Y-68569047D02*
X105752428Y-68545237D01*
X105752428Y-68545237D02*
X105800047Y-68521428D01*
X105800047Y-68521428D02*
X105871476Y-68521428D01*
X105871476Y-68521428D02*
X105919095Y-68545237D01*
X105919095Y-68545237D02*
X105942904Y-68569047D01*
X105942904Y-68569047D02*
X105966714Y-68616666D01*
X105966714Y-68616666D02*
X105966714Y-68807142D01*
X106204809Y-68045237D02*
X106204809Y-68330951D01*
X106204809Y-68188094D02*
X105704809Y-68188094D01*
X105704809Y-68188094D02*
X105776238Y-68235713D01*
X105776238Y-68235713D02*
X105823857Y-68283332D01*
X105823857Y-68283332D02*
X105847666Y-68330951D01*
X105704809Y-67878571D02*
X105704809Y-67569047D01*
X105704809Y-67569047D02*
X105895285Y-67735714D01*
X105895285Y-67735714D02*
X105895285Y-67664285D01*
X105895285Y-67664285D02*
X105919095Y-67616666D01*
X105919095Y-67616666D02*
X105942904Y-67592857D01*
X105942904Y-67592857D02*
X105990523Y-67569047D01*
X105990523Y-67569047D02*
X106109571Y-67569047D01*
X106109571Y-67569047D02*
X106157190Y-67592857D01*
X106157190Y-67592857D02*
X106181000Y-67616666D01*
X106181000Y-67616666D02*
X106204809Y-67664285D01*
X106204809Y-67664285D02*
X106204809Y-67807142D01*
X106204809Y-67807142D02*
X106181000Y-67854761D01*
X106181000Y-67854761D02*
X106157190Y-67878571D01*
X120624809Y-66291666D02*
X120981952Y-66291666D01*
X120981952Y-66291666D02*
X121053380Y-66315475D01*
X121053380Y-66315475D02*
X121101000Y-66363094D01*
X121101000Y-66363094D02*
X121124809Y-66434523D01*
X121124809Y-66434523D02*
X121124809Y-66482142D01*
X121124809Y-66053571D02*
X120624809Y-66053571D01*
X120624809Y-66053571D02*
X120624809Y-65863095D01*
X120624809Y-65863095D02*
X120648619Y-65815476D01*
X120648619Y-65815476D02*
X120672428Y-65791666D01*
X120672428Y-65791666D02*
X120720047Y-65767857D01*
X120720047Y-65767857D02*
X120791476Y-65767857D01*
X120791476Y-65767857D02*
X120839095Y-65791666D01*
X120839095Y-65791666D02*
X120862904Y-65815476D01*
X120862904Y-65815476D02*
X120886714Y-65863095D01*
X120886714Y-65863095D02*
X120886714Y-66053571D01*
X121124809Y-65291666D02*
X121124809Y-65577380D01*
X121124809Y-65434523D02*
X120624809Y-65434523D01*
X120624809Y-65434523D02*
X120696238Y-65482142D01*
X120696238Y-65482142D02*
X120743857Y-65529761D01*
X120743857Y-65529761D02*
X120767666Y-65577380D01*
X126878571Y-72677190D02*
X126854762Y-72701000D01*
X126854762Y-72701000D02*
X126783333Y-72724809D01*
X126783333Y-72724809D02*
X126735714Y-72724809D01*
X126735714Y-72724809D02*
X126664286Y-72701000D01*
X126664286Y-72701000D02*
X126616667Y-72653380D01*
X126616667Y-72653380D02*
X126592857Y-72605761D01*
X126592857Y-72605761D02*
X126569048Y-72510523D01*
X126569048Y-72510523D02*
X126569048Y-72439095D01*
X126569048Y-72439095D02*
X126592857Y-72343857D01*
X126592857Y-72343857D02*
X126616667Y-72296238D01*
X126616667Y-72296238D02*
X126664286Y-72248619D01*
X126664286Y-72248619D02*
X126735714Y-72224809D01*
X126735714Y-72224809D02*
X126783333Y-72224809D01*
X126783333Y-72224809D02*
X126854762Y-72248619D01*
X126854762Y-72248619D02*
X126878571Y-72272428D01*
X127354762Y-72724809D02*
X127069048Y-72724809D01*
X127211905Y-72724809D02*
X127211905Y-72224809D01*
X127211905Y-72224809D02*
X127164286Y-72296238D01*
X127164286Y-72296238D02*
X127116667Y-72343857D01*
X127116667Y-72343857D02*
X127069048Y-72367666D01*
X127807142Y-72224809D02*
X127569047Y-72224809D01*
X127569047Y-72224809D02*
X127545238Y-72462904D01*
X127545238Y-72462904D02*
X127569047Y-72439095D01*
X127569047Y-72439095D02*
X127616666Y-72415285D01*
X127616666Y-72415285D02*
X127735714Y-72415285D01*
X127735714Y-72415285D02*
X127783333Y-72439095D01*
X127783333Y-72439095D02*
X127807142Y-72462904D01*
X127807142Y-72462904D02*
X127830952Y-72510523D01*
X127830952Y-72510523D02*
X127830952Y-72629571D01*
X127830952Y-72629571D02*
X127807142Y-72677190D01*
X127807142Y-72677190D02*
X127783333Y-72701000D01*
X127783333Y-72701000D02*
X127735714Y-72724809D01*
X127735714Y-72724809D02*
X127616666Y-72724809D01*
X127616666Y-72724809D02*
X127569047Y-72701000D01*
X127569047Y-72701000D02*
X127545238Y-72677190D01*
D11*
X96938095Y-54854819D02*
X97509523Y-54854819D01*
X97223809Y-55854819D02*
X97223809Y-54854819D01*
X97842857Y-55854819D02*
X97842857Y-54854819D01*
X97842857Y-54854819D02*
X98223809Y-54854819D01*
X98223809Y-54854819D02*
X98319047Y-54902438D01*
X98319047Y-54902438D02*
X98366666Y-54950057D01*
X98366666Y-54950057D02*
X98414285Y-55045295D01*
X98414285Y-55045295D02*
X98414285Y-55188152D01*
X98414285Y-55188152D02*
X98366666Y-55283390D01*
X98366666Y-55283390D02*
X98319047Y-55331009D01*
X98319047Y-55331009D02*
X98223809Y-55378628D01*
X98223809Y-55378628D02*
X97842857Y-55378628D01*
X99366666Y-55854819D02*
X98795238Y-55854819D01*
X99080952Y-55854819D02*
X99080952Y-54854819D01*
X99080952Y-54854819D02*
X98985714Y-54997676D01*
X98985714Y-54997676D02*
X98890476Y-55092914D01*
X98890476Y-55092914D02*
X98795238Y-55140533D01*
X98038095Y-71754819D02*
X98609523Y-71754819D01*
X98323809Y-72754819D02*
X98323809Y-71754819D01*
X98942857Y-72754819D02*
X98942857Y-71754819D01*
X98942857Y-71754819D02*
X99323809Y-71754819D01*
X99323809Y-71754819D02*
X99419047Y-71802438D01*
X99419047Y-71802438D02*
X99466666Y-71850057D01*
X99466666Y-71850057D02*
X99514285Y-71945295D01*
X99514285Y-71945295D02*
X99514285Y-72088152D01*
X99514285Y-72088152D02*
X99466666Y-72183390D01*
X99466666Y-72183390D02*
X99419047Y-72231009D01*
X99419047Y-72231009D02*
X99323809Y-72278628D01*
X99323809Y-72278628D02*
X98942857Y-72278628D01*
X99895238Y-71850057D02*
X99942857Y-71802438D01*
X99942857Y-71802438D02*
X100038095Y-71754819D01*
X100038095Y-71754819D02*
X100276190Y-71754819D01*
X100276190Y-71754819D02*
X100371428Y-71802438D01*
X100371428Y-71802438D02*
X100419047Y-71850057D01*
X100419047Y-71850057D02*
X100466666Y-71945295D01*
X100466666Y-71945295D02*
X100466666Y-72040533D01*
X100466666Y-72040533D02*
X100419047Y-72183390D01*
X100419047Y-72183390D02*
X99847619Y-72754819D01*
X99847619Y-72754819D02*
X100466666Y-72754819D01*
D10*
X122124809Y-60083928D02*
X121886714Y-60250594D01*
X122124809Y-60369642D02*
X121624809Y-60369642D01*
X121624809Y-60369642D02*
X121624809Y-60179166D01*
X121624809Y-60179166D02*
X121648619Y-60131547D01*
X121648619Y-60131547D02*
X121672428Y-60107737D01*
X121672428Y-60107737D02*
X121720047Y-60083928D01*
X121720047Y-60083928D02*
X121791476Y-60083928D01*
X121791476Y-60083928D02*
X121839095Y-60107737D01*
X121839095Y-60107737D02*
X121862904Y-60131547D01*
X121862904Y-60131547D02*
X121886714Y-60179166D01*
X121886714Y-60179166D02*
X121886714Y-60369642D01*
X122124809Y-59607737D02*
X122124809Y-59893451D01*
X122124809Y-59750594D02*
X121624809Y-59750594D01*
X121624809Y-59750594D02*
X121696238Y-59798213D01*
X121696238Y-59798213D02*
X121743857Y-59845832D01*
X121743857Y-59845832D02*
X121767666Y-59893451D01*
X121624809Y-59441071D02*
X121624809Y-59107738D01*
X121624809Y-59107738D02*
X122124809Y-59322023D01*
D12*
X109740580Y-54710000D02*
X109459420Y-54710000D01*
X109740580Y-53690000D02*
X109459420Y-53690000D01*
X112688748Y-71465000D02*
X113211252Y-71465000D01*
X112688748Y-72935000D02*
X113211252Y-72935000D01*
X112688748Y-69365000D02*
X113211252Y-69365000D01*
X112688748Y-70835000D02*
X113211252Y-70835000D01*
X129238748Y-61315000D02*
X129761252Y-61315000D01*
X129238748Y-62785000D02*
X129761252Y-62785000D01*
X107520000Y-56153641D02*
X107520000Y-55846359D01*
X108280000Y-56153641D02*
X108280000Y-55846359D01*
X112688748Y-62965000D02*
X113211252Y-62965000D01*
X112688748Y-64435000D02*
X113211252Y-64435000D01*
X127990000Y-65511252D02*
X127990000Y-64988748D01*
X130210000Y-65511252D02*
X130210000Y-64988748D01*
X123153641Y-64055000D02*
X122846359Y-64055000D01*
X123153641Y-63295000D02*
X122846359Y-63295000D01*
X104253641Y-52855000D02*
X103946359Y-52855000D01*
X104253641Y-52095000D02*
X103946359Y-52095000D01*
X101810000Y-55134420D02*
X101810000Y-55415580D01*
X100790000Y-55134420D02*
X100790000Y-55415580D01*
X112559420Y-59290000D02*
X112840580Y-59290000D01*
X112559420Y-60310000D02*
X112840580Y-60310000D01*
X109380000Y-55846359D02*
X109380000Y-56153641D01*
X108620000Y-55846359D02*
X108620000Y-56153641D01*
X124740000Y-59577064D02*
X124740000Y-58372936D01*
X127460000Y-59577064D02*
X127460000Y-58372936D01*
X107520000Y-58153641D02*
X107520000Y-57846359D01*
X108280000Y-58153641D02*
X108280000Y-57846359D01*
X118772936Y-67465000D02*
X119227064Y-67465000D01*
X118772936Y-68935000D02*
X119227064Y-68935000D01*
X109840000Y-70040580D02*
X109840000Y-69759420D01*
X110860000Y-70040580D02*
X110860000Y-69759420D01*
X124707836Y-68460000D02*
X124492164Y-68460000D01*
X124707836Y-67740000D02*
X124492164Y-67740000D01*
X102980000Y-54921359D02*
X102980000Y-55228641D01*
X102220000Y-54921359D02*
X102220000Y-55228641D01*
D11*
X139900000Y-70750000D02*
G75*
G03*
X139900000Y-70750000I-1400000J0D01*
G01*
D12*
X123840580Y-62785000D02*
X123559420Y-62785000D01*
X123840580Y-61765000D02*
X123559420Y-61765000D01*
X127059420Y-68590000D02*
X127340580Y-68590000D01*
X127059420Y-69610000D02*
X127340580Y-69610000D01*
D11*
X134150000Y-52750000D02*
G75*
G03*
X134150000Y-52750000I-1400000J0D01*
G01*
D12*
X103946359Y-55795000D02*
X104253641Y-55795000D01*
X103946359Y-56555000D02*
X104253641Y-56555000D01*
X113780000Y-57846359D02*
X113780000Y-58153641D01*
X113020000Y-57846359D02*
X113020000Y-58153641D01*
X118097936Y-70140000D02*
X119302064Y-70140000D01*
X118097936Y-72860000D02*
X119302064Y-72860000D01*
X129238748Y-59215000D02*
X129761252Y-59215000D01*
X129238748Y-60685000D02*
X129761252Y-60685000D01*
X108690000Y-65987836D02*
X108690000Y-65772164D01*
X109410000Y-65987836D02*
X109410000Y-65772164D01*
X107070000Y-70453641D02*
X107070000Y-70146359D01*
X107830000Y-70453641D02*
X107830000Y-70146359D01*
X112688748Y-60865000D02*
X113211252Y-60865000D01*
X112688748Y-62335000D02*
X113211252Y-62335000D01*
X116560000Y-66638748D02*
X116560000Y-67161252D01*
X114340000Y-66638748D02*
X114340000Y-67161252D01*
X107240000Y-65640580D02*
X107240000Y-65359420D01*
X108260000Y-65640580D02*
X108260000Y-65359420D01*
X109840000Y-64040580D02*
X109840000Y-63759420D01*
X110860000Y-64040580D02*
X110860000Y-63759420D01*
D11*
X127510000Y-66722500D02*
X127510000Y-63722500D01*
X124210000Y-65222500D02*
X124210000Y-63722500D01*
D12*
X103200000Y-55650000D02*
X103200000Y-53550000D01*
X103700000Y-53050000D02*
X106200000Y-53050000D01*
X106200000Y-53050000D02*
X106200000Y-55650000D01*
X106200000Y-55650000D02*
X103200000Y-55650000D01*
D11*
X103463500Y-53250000D02*
G75*
G03*
X103463500Y-53250000I-63500J0D01*
G01*
D12*
X129535000Y-56888748D02*
X129535000Y-57411252D01*
X128065000Y-56888748D02*
X128065000Y-57411252D01*
D11*
X109799998Y-55950000D02*
X110024999Y-55950000D01*
X109799998Y-58250000D02*
X110024999Y-58250000D01*
X112324999Y-58250000D02*
X112550000Y-58250000D01*
D12*
X109740580Y-60310000D02*
X109459420Y-60310000D01*
X109740580Y-59290000D02*
X109459420Y-59290000D01*
X113040000Y-56207836D02*
X113040000Y-55992164D01*
X113760000Y-56207836D02*
X113760000Y-55992164D01*
X109380000Y-57846359D02*
X109380000Y-58153641D01*
X108620000Y-57846359D02*
X108620000Y-58153641D01*
X108496359Y-67320000D02*
X108803641Y-67320000D01*
X108496359Y-68080000D02*
X108803641Y-68080000D01*
X108240000Y-70040580D02*
X108240000Y-69759420D01*
X109260000Y-70040580D02*
X109260000Y-69759420D01*
X112850000Y-42465000D02*
X113440000Y-42465000D01*
X112850000Y-44685000D02*
X113440000Y-44685000D01*
X113440000Y-40365000D02*
X113440000Y-42465000D01*
X113440000Y-40365000D02*
X123560000Y-40365000D01*
X113440000Y-44685000D02*
X113440000Y-49585000D01*
X113440000Y-49585000D02*
X123560000Y-49585000D01*
X123560000Y-40365000D02*
X123560000Y-42465000D01*
X123560000Y-42465000D02*
X124150000Y-42465000D01*
X123560000Y-44685000D02*
X123560000Y-49585000D01*
X123560000Y-44685000D02*
X124150000Y-44685000D01*
X112850000Y-42465000D02*
G75*
G03*
X112850000Y-44685000I0J-1110000D01*
G01*
X124150000Y-44685000D02*
G75*
G03*
X124150000Y-42465000I0J1110000D01*
G01*
X106770000Y-68353641D02*
X106770000Y-68046359D01*
X107530000Y-68353641D02*
X107530000Y-68046359D01*
X121700000Y-67275000D02*
X121700000Y-64475000D01*
X123700000Y-67275000D02*
X121700000Y-67275000D01*
X121700000Y-64475000D02*
X123700000Y-64475000D01*
X123700000Y-64475000D02*
X123700000Y-67275000D01*
X126938748Y-70265000D02*
X127461252Y-70265000D01*
X126938748Y-71735000D02*
X127461252Y-71735000D01*
D11*
X99600000Y-53000000D02*
G75*
G03*
X99600000Y-53000000I-1400000J0D01*
G01*
X100700000Y-69800000D02*
G75*
G03*
X100700000Y-69800000I-1400000J0D01*
G01*
D12*
X122665000Y-59989564D02*
X122665000Y-59535436D01*
X124135000Y-59989564D02*
X124135000Y-59535436D01*
%LPC*%
D13*
X110375000Y-54200000D03*
X108825000Y-54200000D03*
D14*
X112000000Y-72200000D03*
X113900000Y-72200000D03*
X112000000Y-70100000D03*
X113900000Y-70100000D03*
X128550000Y-62050000D03*
X130450000Y-62050000D03*
D15*
X107900000Y-56510000D03*
X107900000Y-55490000D03*
D14*
X112000000Y-63700000D03*
X113900000Y-63700000D03*
D16*
X129100000Y-66412500D03*
X129100000Y-64087500D03*
D17*
X123510000Y-63675000D03*
X122490000Y-63675000D03*
X104610000Y-52475000D03*
X103590000Y-52475000D03*
D18*
X101300000Y-54500000D03*
X101300000Y-56050000D03*
D19*
X111925000Y-59800000D03*
X113475000Y-59800000D03*
D20*
X109000000Y-55490000D03*
X109000000Y-56510000D03*
D21*
X126100000Y-60462500D03*
X126100000Y-57487500D03*
D15*
X107900000Y-58510000D03*
X107900000Y-57490000D03*
D22*
X118087500Y-68200000D03*
X119912500Y-68200000D03*
D23*
X110350000Y-70675000D03*
X110350000Y-69125000D03*
D24*
X125080000Y-68100000D03*
X124120000Y-68100000D03*
D25*
X110250000Y-66100000D03*
X110650000Y-66100000D03*
X111050000Y-66100000D03*
X111450000Y-66100000D03*
X111850000Y-66100000D03*
X112250000Y-66100000D03*
X112650000Y-66100000D03*
X110250000Y-66500000D03*
X110650000Y-66500000D03*
X111050000Y-66500000D03*
X111450000Y-66500000D03*
X111850000Y-66500000D03*
X112250000Y-66500000D03*
X112650000Y-66500000D03*
X110250000Y-66900000D03*
X110650000Y-66900000D03*
X111050000Y-66900000D03*
X111450000Y-66900000D03*
X111850000Y-66900000D03*
X112250000Y-66900000D03*
X112650000Y-66900000D03*
X110250000Y-67300000D03*
X110650000Y-67300000D03*
X111050000Y-67300000D03*
X111450000Y-67300000D03*
X111850000Y-67300000D03*
X112250000Y-67300000D03*
X112650000Y-67300000D03*
X110250000Y-67700000D03*
X110650000Y-67700000D03*
X111050000Y-67700000D03*
X111450000Y-67700000D03*
X111850000Y-67700000D03*
X112250000Y-67700000D03*
X112650000Y-67700000D03*
D20*
X102600000Y-54565000D03*
X102600000Y-55585000D03*
D26*
X138500000Y-70750000D03*
D13*
X124475000Y-62275000D03*
X122925000Y-62275000D03*
D19*
X126425000Y-69100000D03*
X127975000Y-69100000D03*
D26*
X132750000Y-52750000D03*
D27*
X103590000Y-56175000D03*
X104610000Y-56175000D03*
D20*
X113400000Y-57490000D03*
X113400000Y-58510000D03*
D28*
X117212500Y-71500000D03*
X120187500Y-71500000D03*
D14*
X128550000Y-59950000D03*
X130450000Y-59950000D03*
D29*
X109050000Y-66360000D03*
X109050000Y-65400000D03*
D15*
X107450000Y-70810000D03*
X107450000Y-69790000D03*
D14*
X112000000Y-61600000D03*
X113900000Y-61600000D03*
D30*
X115450000Y-65737500D03*
X115450000Y-68062500D03*
D23*
X107750000Y-66275000D03*
X107750000Y-64725000D03*
X110350000Y-64675000D03*
X110350000Y-63125000D03*
D31*
X124610000Y-66697500D03*
X125110000Y-66697500D03*
X125610000Y-66697500D03*
X126110000Y-66697500D03*
X126610000Y-66697500D03*
X127110000Y-66697500D03*
X127110000Y-63747500D03*
X126610000Y-63747500D03*
X126110000Y-63747500D03*
X125610000Y-63747500D03*
X125110000Y-63747500D03*
X124610000Y-63747500D03*
D32*
X125860000Y-65222500D03*
D33*
X103937500Y-53850000D03*
X103937500Y-54350000D03*
X103937500Y-54850000D03*
D34*
X105100000Y-54350000D03*
D35*
X128800000Y-56200000D03*
X128800000Y-58100000D03*
D36*
X111524998Y-56425000D03*
X110824999Y-56425000D03*
D37*
X110050000Y-56349999D03*
X110050000Y-56850000D03*
X110050000Y-57350000D03*
X110050000Y-57850001D03*
D36*
X110824999Y-57775000D03*
X111524998Y-57775000D03*
D37*
X112349998Y-57850001D03*
X112349998Y-57350000D03*
X112349998Y-56850000D03*
X112349998Y-56349999D03*
D13*
X110375000Y-59800000D03*
X108825000Y-59800000D03*
D29*
X113400000Y-56580000D03*
X113400000Y-55620000D03*
D20*
X109000000Y-57490000D03*
X109000000Y-58510000D03*
D27*
X108140000Y-67700000D03*
X109160000Y-67700000D03*
D23*
X108750000Y-70675000D03*
X108750000Y-69125000D03*
D38*
X113000000Y-43575000D03*
X124000000Y-43575000D03*
D39*
X121000000Y-53575000D03*
D40*
X116000000Y-53575000D03*
D15*
X107150000Y-68710000D03*
X107150000Y-67690000D03*
D41*
X122700000Y-66600000D03*
D42*
X122700000Y-65150000D03*
D14*
X126250000Y-71000000D03*
X128150000Y-71000000D03*
D26*
X98200000Y-53000000D03*
X99300000Y-69800000D03*
D43*
X123400000Y-60675000D03*
X123400000Y-58850000D03*
%LPD*%
M02*
