M48
; DRILL file {KiCad 7.0.5-0} date 2023 September 26, Tuesday 17:17:10
; FORMAT={-:-/ absolute / metric / decimal}
; #@! TF.CreationDate,2023-09-26T17:17:10-04:00
; #@! TF.GenerationSoftware,Kicad,Pcbnew,7.0.5-0
; #@! TF.FileFunction,Plated,1,4,PTH
FMAT,2
METRIC
; #@! TA.AperFunction,Plated,PTH,ViaDrill
T1C0.203
; #@! TA.AperFunction,Plated,PTH,ViaDrill
T2C0.300
; #@! TA.AperFunction,Plated,PTH,ComponentDrill
T3C0.300
; #@! TA.AperFunction,Plated,PTH,ViaDrill
T4C0.400
; #@! TA.AperFunction,Plated,PTH,ViaDrill
T5C0.600
; #@! TA.AperFunction,Plated,PTH,ComponentDrill
T6C1.000
; #@! TA.AperFunction,Plated,PTH,ComponentDrill
T7C1.900
%
G90
G05
T1
X110.85Y-66.5
T2
X113.1Y-65.6
X113.1Y-68.2
X113.15Y-66.3
X113.15Y-67.5
T3
X124.91Y-64.722
X124.91Y-65.722
X125.86Y-64.722
X125.86Y-65.722
X126.81Y-64.722
X126.81Y-65.722
T4
X100.6Y-60.8
X100.6Y-61.7
X104.0Y-64.5
X104.0Y-65.4
X105.7Y-52.4
X109.85Y-61.9
X109.85Y-71.9
X110.75Y-61.9
X110.75Y-71.9
X112.191Y-54.825
X115.55Y-64.4
X115.55Y-69.4
X116.45Y-64.4
X116.45Y-69.4
X121.6Y-63.675
X123.1Y-68.1
X123.3Y-56.5
X123.3Y-57.4
X126.9Y-62.55
X127.0Y-67.7
X129.5Y-69.4
X130.4Y-58.0
X132.5Y-69.5
X132.5Y-70.75
X132.5Y-72.0
X133.75Y-69.5
X133.75Y-70.75
X133.75Y-72.0
X134.75Y-54.25
X134.75Y-55.5
X134.75Y-56.75
X135.0Y-69.5
X135.0Y-70.75
X135.0Y-72.0
X136.0Y-54.25
X136.0Y-55.5
X136.0Y-56.75
X136.25Y-69.5
X136.25Y-70.75
X136.25Y-72.0
X137.25Y-54.25
X137.25Y-55.5
X137.25Y-56.75
X138.5Y-54.25
X138.5Y-55.5
X138.5Y-56.75
T5
X102.6Y-53.4
X134.4Y-60.0
X135.5Y-60.0
T6
X98.2Y-53.0
X99.3Y-69.8
X113.0Y-43.575
X124.0Y-43.575
X132.75Y-52.75
X138.5Y-70.75
T7
X116.0Y-53.575
X121.0Y-53.575
T0
M30
