G04 #@! TF.GenerationSoftware,KiCad,Pcbnew,7.0.5-0*
G04 #@! TF.CreationDate,2023-09-26T15:14:25-04:00*
G04 #@! TF.ProjectId,PowerPack,506f7765-7250-4616-936b-2e6b69636164,rev?*
G04 #@! TF.SameCoordinates,Original*
G04 #@! TF.FileFunction,Copper,L2,Inr*
G04 #@! TF.FilePolarity,Positive*
%FSLAX46Y46*%
G04 Gerber Fmt 4.6, Leading zero omitted, Abs format (unit mm)*
G04 Created by KiCad (PCBNEW 7.0.5-0) date 2023-09-26 15:14:25*
%MOMM*%
%LPD*%
G01*
G04 APERTURE LIST*
G04 #@! TA.AperFunction,ComponentPad*
%ADD10C,2.000000*%
G04 #@! TD*
G04 #@! TA.AperFunction,ComponentPad*
%ADD11C,0.600000*%
G04 #@! TD*
G04 #@! TA.AperFunction,ComponentPad*
%ADD12C,1.400000*%
G04 #@! TD*
G04 #@! TA.AperFunction,ComponentPad*
%ADD13R,3.500000X3.500000*%
G04 #@! TD*
G04 #@! TA.AperFunction,ComponentPad*
%ADD14C,3.500000*%
G04 #@! TD*
G04 #@! TA.AperFunction,ViaPad*
%ADD15C,1.000000*%
G04 #@! TD*
G04 #@! TA.AperFunction,ViaPad*
%ADD16C,0.800000*%
G04 #@! TD*
G04 #@! TA.AperFunction,ViaPad*
%ADD17C,0.450000*%
G04 #@! TD*
G04 #@! TA.AperFunction,ViaPad*
%ADD18C,0.406400*%
G04 #@! TD*
G04 APERTURE END LIST*
D10*
X138500000Y-70750000D03*
X132750000Y-52750000D03*
D11*
X124910000Y-65722500D03*
X125860000Y-65722500D03*
X126810000Y-65722500D03*
X124910000Y-64722500D03*
X125860000Y-64722500D03*
X126810000Y-64722500D03*
D12*
X113000000Y-43575000D03*
X124000000Y-43575000D03*
D13*
X121000000Y-53575000D03*
D14*
X116000000Y-53575000D03*
D10*
X98200000Y-53000000D03*
X99300000Y-69800000D03*
D15*
X135500000Y-60000000D03*
D16*
X129500000Y-69400000D03*
X130400000Y-58000000D03*
D15*
X134400000Y-60000000D03*
D16*
X104000000Y-64500000D03*
X104000000Y-65400000D03*
X105700000Y-52400000D03*
X112190828Y-54824535D03*
X109850000Y-61900000D03*
X115550000Y-64400000D03*
D17*
X113150000Y-66300000D03*
D16*
X116450000Y-64400000D03*
D17*
X113100000Y-65600000D03*
D16*
X110750000Y-61900000D03*
D17*
X113150000Y-67500000D03*
D16*
X116450000Y-69400000D03*
D17*
X113100000Y-68200000D03*
D16*
X115550000Y-69400000D03*
X109850000Y-71900000D03*
X110750000Y-71900000D03*
X132500000Y-72000000D03*
X135000000Y-69500000D03*
X135000000Y-70750000D03*
X133750000Y-72000000D03*
X133750000Y-70750000D03*
X135000000Y-72000000D03*
X133750000Y-69500000D03*
X136250000Y-70750000D03*
X136250000Y-72000000D03*
X132500000Y-69500000D03*
X132500000Y-70750000D03*
X136250000Y-69500000D03*
X127000000Y-67700000D03*
X123100000Y-68100000D03*
X126900000Y-62550000D03*
X121600000Y-63675000D03*
X123300000Y-57400000D03*
X138500000Y-55500000D03*
X100600000Y-61700000D03*
X123300000Y-56500000D03*
X134750000Y-54250000D03*
X100600000Y-60800000D03*
X138500000Y-54250000D03*
X136000000Y-54250000D03*
X137250000Y-55500000D03*
X136000000Y-56750000D03*
X138500000Y-56750000D03*
X137250000Y-54250000D03*
X136000000Y-55500000D03*
X134750000Y-56750000D03*
X134750000Y-55500000D03*
X137250000Y-56750000D03*
D15*
X102600000Y-53400000D03*
D18*
X110850000Y-66500000D03*
G04 #@! TA.AperFunction,Conductor*
G36*
X140842246Y-50795476D02*
G01*
X140847387Y-50795475D01*
X140847391Y-50795477D01*
X140892884Y-50795475D01*
X140897064Y-50795749D01*
X140937131Y-50801022D01*
X140990026Y-50807985D01*
X141006156Y-50812307D01*
X141086934Y-50845766D01*
X141101397Y-50854116D01*
X141170765Y-50907347D01*
X141182572Y-50919155D01*
X141235796Y-50988525D01*
X141244147Y-51002990D01*
X141277600Y-51083769D01*
X141281923Y-51099910D01*
X141290766Y-51167131D01*
X141294201Y-51193237D01*
X141294474Y-51197418D01*
X141294469Y-51247654D01*
X141294475Y-51247727D01*
X141294475Y-74745040D01*
X141294473Y-74745069D01*
X141294474Y-74792885D01*
X141294200Y-74797065D01*
X141281965Y-74890027D01*
X141277641Y-74906167D01*
X141244182Y-74986947D01*
X141235828Y-75001416D01*
X141182600Y-75070785D01*
X141170785Y-75082600D01*
X141101416Y-75135828D01*
X141086947Y-75144182D01*
X141006167Y-75177641D01*
X140990027Y-75181965D01*
X140897065Y-75194200D01*
X140892885Y-75194474D01*
X140851952Y-75194473D01*
X140847391Y-75194473D01*
X140847390Y-75194473D01*
X140842246Y-75194473D01*
X140842222Y-75194475D01*
X96697085Y-75194475D01*
X96692907Y-75194201D01*
X96670813Y-75191291D01*
X96599947Y-75181959D01*
X96583809Y-75177634D01*
X96503033Y-75144172D01*
X96488567Y-75135820D01*
X96419202Y-75082590D01*
X96407390Y-75070777D01*
X96380777Y-75036093D01*
X96354163Y-75001406D01*
X96345812Y-74986939D01*
X96312357Y-74906162D01*
X96308033Y-74890024D01*
X96307042Y-74882498D01*
X96295748Y-74796685D01*
X96295475Y-74792509D01*
X96295477Y-74747391D01*
X96295475Y-74747387D01*
X96295476Y-74745068D01*
X96295475Y-74745040D01*
X96295475Y-72336002D01*
X109314500Y-72336002D01*
X109324813Y-72387850D01*
X109324814Y-72387855D01*
X109336377Y-72415769D01*
X109343559Y-72433108D01*
X109343561Y-72433111D01*
X109343562Y-72433114D01*
X109357443Y-72458534D01*
X109416892Y-72506441D01*
X109462140Y-72525184D01*
X109462144Y-72525185D01*
X109462147Y-72525186D01*
X109482888Y-72529311D01*
X109513997Y-72535500D01*
X109514000Y-72535500D01*
X111123493Y-72535500D01*
X111149416Y-72530342D01*
X111175343Y-72525186D01*
X111220598Y-72506441D01*
X111264558Y-72477068D01*
X111741623Y-72000003D01*
X131964922Y-72000003D01*
X131983152Y-72138483D01*
X131983155Y-72138491D01*
X132036607Y-72267535D01*
X132036608Y-72267538D01*
X132036609Y-72267539D01*
X132121643Y-72378357D01*
X132232461Y-72463391D01*
X132361512Y-72516846D01*
X132361514Y-72516846D01*
X132361516Y-72516847D01*
X132499996Y-72535078D01*
X132500000Y-72535078D01*
X132500004Y-72535078D01*
X132638483Y-72516847D01*
X132638484Y-72516846D01*
X132638488Y-72516846D01*
X132767539Y-72463391D01*
X132878357Y-72378357D01*
X132963391Y-72267539D01*
X133016846Y-72138488D01*
X133035078Y-72000003D01*
X133214922Y-72000003D01*
X133233152Y-72138483D01*
X133233155Y-72138491D01*
X133286607Y-72267535D01*
X133286608Y-72267538D01*
X133286609Y-72267539D01*
X133371643Y-72378357D01*
X133482461Y-72463391D01*
X133611512Y-72516846D01*
X133611514Y-72516846D01*
X133611516Y-72516847D01*
X133749996Y-72535078D01*
X133750000Y-72535078D01*
X133750004Y-72535078D01*
X133888483Y-72516847D01*
X133888484Y-72516846D01*
X133888488Y-72516846D01*
X134017539Y-72463391D01*
X134128357Y-72378357D01*
X134213391Y-72267539D01*
X134266846Y-72138488D01*
X134285078Y-72000003D01*
X134464922Y-72000003D01*
X134483152Y-72138483D01*
X134483155Y-72138491D01*
X134536607Y-72267535D01*
X134536608Y-72267538D01*
X134536609Y-72267539D01*
X134621643Y-72378357D01*
X134732461Y-72463391D01*
X134861512Y-72516846D01*
X134861514Y-72516846D01*
X134861516Y-72516847D01*
X134999996Y-72535078D01*
X135000000Y-72535078D01*
X135000004Y-72535078D01*
X135138483Y-72516847D01*
X135138484Y-72516846D01*
X135138488Y-72516846D01*
X135267539Y-72463391D01*
X135378357Y-72378357D01*
X135463391Y-72267539D01*
X135516846Y-72138488D01*
X135535078Y-72000003D01*
X135714922Y-72000003D01*
X135733152Y-72138483D01*
X135733155Y-72138491D01*
X135786607Y-72267535D01*
X135786608Y-72267538D01*
X135786609Y-72267539D01*
X135871643Y-72378357D01*
X135982461Y-72463391D01*
X136111512Y-72516846D01*
X136111514Y-72516846D01*
X136111516Y-72516847D01*
X136249996Y-72535078D01*
X136250000Y-72535078D01*
X136250004Y-72535078D01*
X136388483Y-72516847D01*
X136388484Y-72516846D01*
X136388488Y-72516846D01*
X136517539Y-72463391D01*
X136628357Y-72378357D01*
X136713391Y-72267539D01*
X136766846Y-72138488D01*
X136785078Y-72000000D01*
X136785078Y-71999996D01*
X136766847Y-71861516D01*
X136766846Y-71861514D01*
X136766846Y-71861512D01*
X136713391Y-71732461D01*
X136628357Y-71621643D01*
X136517539Y-71536609D01*
X136517538Y-71536608D01*
X136517535Y-71536607D01*
X136388491Y-71483155D01*
X136388483Y-71483152D01*
X136250004Y-71464922D01*
X136249996Y-71464922D01*
X136111516Y-71483152D01*
X136111508Y-71483155D01*
X135982464Y-71536607D01*
X135982461Y-71536608D01*
X135871643Y-71621643D01*
X135786608Y-71732461D01*
X135786607Y-71732464D01*
X135733155Y-71861508D01*
X135733152Y-71861516D01*
X135714922Y-71999996D01*
X135714922Y-72000003D01*
X135535078Y-72000003D01*
X135535078Y-72000000D01*
X135535078Y-71999996D01*
X135516847Y-71861516D01*
X135516846Y-71861514D01*
X135516846Y-71861512D01*
X135463391Y-71732461D01*
X135378357Y-71621643D01*
X135267539Y-71536609D01*
X135267538Y-71536608D01*
X135267535Y-71536607D01*
X135138491Y-71483155D01*
X135138483Y-71483152D01*
X135000004Y-71464922D01*
X134999996Y-71464922D01*
X134861516Y-71483152D01*
X134861508Y-71483155D01*
X134732464Y-71536607D01*
X134732461Y-71536608D01*
X134621643Y-71621643D01*
X134536608Y-71732461D01*
X134536607Y-71732464D01*
X134483155Y-71861508D01*
X134483152Y-71861516D01*
X134464922Y-71999996D01*
X134464922Y-72000003D01*
X134285078Y-72000003D01*
X134285078Y-72000000D01*
X134285078Y-71999996D01*
X134266847Y-71861516D01*
X134266846Y-71861514D01*
X134266846Y-71861512D01*
X134213391Y-71732461D01*
X134128357Y-71621643D01*
X134017539Y-71536609D01*
X134017538Y-71536608D01*
X134017535Y-71536607D01*
X133888491Y-71483155D01*
X133888483Y-71483152D01*
X133750004Y-71464922D01*
X133749996Y-71464922D01*
X133611516Y-71483152D01*
X133611508Y-71483155D01*
X133482464Y-71536607D01*
X133482461Y-71536608D01*
X133371643Y-71621643D01*
X133286608Y-71732461D01*
X133286607Y-71732464D01*
X133233155Y-71861508D01*
X133233152Y-71861516D01*
X133214922Y-71999996D01*
X133214922Y-72000003D01*
X133035078Y-72000003D01*
X133035078Y-72000000D01*
X133035078Y-71999996D01*
X133016847Y-71861516D01*
X133016846Y-71861514D01*
X133016846Y-71861512D01*
X132963391Y-71732461D01*
X132878357Y-71621643D01*
X132767539Y-71536609D01*
X132767538Y-71536608D01*
X132767535Y-71536607D01*
X132638491Y-71483155D01*
X132638483Y-71483152D01*
X132500004Y-71464922D01*
X132499996Y-71464922D01*
X132361516Y-71483152D01*
X132361508Y-71483155D01*
X132232464Y-71536607D01*
X132232461Y-71536608D01*
X132121643Y-71621643D01*
X132036608Y-71732461D01*
X132036607Y-71732464D01*
X131983155Y-71861508D01*
X131983152Y-71861516D01*
X131964922Y-71999996D01*
X131964922Y-72000003D01*
X111741623Y-72000003D01*
X112991622Y-70750003D01*
X131964922Y-70750003D01*
X131983152Y-70888483D01*
X131983155Y-70888491D01*
X132036607Y-71017535D01*
X132036608Y-71017538D01*
X132036609Y-71017539D01*
X132121643Y-71128357D01*
X132232461Y-71213391D01*
X132361512Y-71266846D01*
X132361514Y-71266846D01*
X132361516Y-71266847D01*
X132499996Y-71285078D01*
X132500000Y-71285078D01*
X132500004Y-71285078D01*
X132638483Y-71266847D01*
X132638484Y-71266846D01*
X132638488Y-71266846D01*
X132767539Y-71213391D01*
X132878357Y-71128357D01*
X132963391Y-71017539D01*
X133016846Y-70888488D01*
X133016847Y-70888483D01*
X133035078Y-70750003D01*
X133214922Y-70750003D01*
X133233152Y-70888483D01*
X133233155Y-70888491D01*
X133286607Y-71017535D01*
X133286608Y-71017538D01*
X133286609Y-71017539D01*
X133371643Y-71128357D01*
X133482461Y-71213391D01*
X133611512Y-71266846D01*
X133611514Y-71266846D01*
X133611516Y-71266847D01*
X133749996Y-71285078D01*
X133750000Y-71285078D01*
X133750004Y-71285078D01*
X133888483Y-71266847D01*
X133888484Y-71266846D01*
X133888488Y-71266846D01*
X134017539Y-71213391D01*
X134128357Y-71128357D01*
X134213391Y-71017539D01*
X134266846Y-70888488D01*
X134266847Y-70888483D01*
X134285078Y-70750003D01*
X134464922Y-70750003D01*
X134483152Y-70888483D01*
X134483155Y-70888491D01*
X134536607Y-71017535D01*
X134536608Y-71017538D01*
X134536609Y-71017539D01*
X134621643Y-71128357D01*
X134732461Y-71213391D01*
X134861512Y-71266846D01*
X134861514Y-71266846D01*
X134861516Y-71266847D01*
X134999996Y-71285078D01*
X135000000Y-71285078D01*
X135000004Y-71285078D01*
X135138483Y-71266847D01*
X135138484Y-71266846D01*
X135138488Y-71266846D01*
X135267539Y-71213391D01*
X135378357Y-71128357D01*
X135463391Y-71017539D01*
X135516846Y-70888488D01*
X135516847Y-70888483D01*
X135535078Y-70750003D01*
X135714922Y-70750003D01*
X135733152Y-70888483D01*
X135733155Y-70888491D01*
X135786607Y-71017535D01*
X135786608Y-71017538D01*
X135786609Y-71017539D01*
X135871643Y-71128357D01*
X135982461Y-71213391D01*
X136111512Y-71266846D01*
X136111514Y-71266846D01*
X136111516Y-71266847D01*
X136249996Y-71285078D01*
X136250000Y-71285078D01*
X136250004Y-71285078D01*
X136388483Y-71266847D01*
X136388484Y-71266846D01*
X136388488Y-71266846D01*
X136517539Y-71213391D01*
X136628357Y-71128357D01*
X136713391Y-71017539D01*
X136766846Y-70888488D01*
X136766847Y-70888483D01*
X136785078Y-70750003D01*
X136785078Y-70750000D01*
X137364657Y-70750000D01*
X137383988Y-70958620D01*
X137441325Y-71160137D01*
X137534708Y-71347675D01*
X137534710Y-71347678D01*
X137660968Y-71514873D01*
X137815799Y-71656020D01*
X137815801Y-71656021D01*
X137815803Y-71656023D01*
X137993934Y-71766317D01*
X137993933Y-71766317D01*
X138189296Y-71842001D01*
X138189299Y-71842002D01*
X138189302Y-71842002D01*
X138189308Y-71842004D01*
X138275730Y-71858158D01*
X138395244Y-71880500D01*
X138604756Y-71880500D01*
X138775135Y-71848650D01*
X138810691Y-71842004D01*
X138810693Y-71842003D01*
X138810701Y-71842002D01*
X139006066Y-71766317D01*
X139184197Y-71656023D01*
X139339029Y-71514876D01*
X139465288Y-71347681D01*
X139558676Y-71160133D01*
X139616012Y-70958619D01*
X139635343Y-70750000D01*
X139616012Y-70541381D01*
X139558676Y-70339867D01*
X139532157Y-70286609D01*
X139465291Y-70152324D01*
X139465289Y-70152321D01*
X139465288Y-70152320D01*
X139465288Y-70152319D01*
X139362983Y-70016844D01*
X139339031Y-69985126D01*
X139184200Y-69843979D01*
X139006065Y-69733682D01*
X139006066Y-69733682D01*
X138810703Y-69657998D01*
X138810691Y-69657995D01*
X138604758Y-69619500D01*
X138604756Y-69619500D01*
X138395244Y-69619500D01*
X138395241Y-69619500D01*
X138189308Y-69657995D01*
X138189296Y-69657998D01*
X137993934Y-69733682D01*
X137815799Y-69843979D01*
X137660968Y-69985126D01*
X137534710Y-70152321D01*
X137534708Y-70152324D01*
X137441325Y-70339862D01*
X137383988Y-70541379D01*
X137364657Y-70749999D01*
X137364657Y-70750000D01*
X136785078Y-70750000D01*
X136785078Y-70749996D01*
X136766847Y-70611516D01*
X136766846Y-70611514D01*
X136766846Y-70611512D01*
X136713391Y-70482461D01*
X136628357Y-70371643D01*
X136517539Y-70286609D01*
X136517538Y-70286608D01*
X136517535Y-70286607D01*
X136388491Y-70233155D01*
X136388483Y-70233152D01*
X136250004Y-70214922D01*
X136249996Y-70214922D01*
X136111516Y-70233152D01*
X136111508Y-70233155D01*
X135982464Y-70286607D01*
X135982461Y-70286608D01*
X135871643Y-70371643D01*
X135786608Y-70482461D01*
X135786607Y-70482464D01*
X135733155Y-70611508D01*
X135733152Y-70611516D01*
X135714922Y-70749996D01*
X135714922Y-70750003D01*
X135535078Y-70750003D01*
X135535078Y-70749996D01*
X135516847Y-70611516D01*
X135516846Y-70611514D01*
X135516846Y-70611512D01*
X135463391Y-70482461D01*
X135378357Y-70371643D01*
X135267539Y-70286609D01*
X135267538Y-70286608D01*
X135267535Y-70286607D01*
X135138491Y-70233155D01*
X135138483Y-70233152D01*
X135000004Y-70214922D01*
X134999996Y-70214922D01*
X134861516Y-70233152D01*
X134861508Y-70233155D01*
X134732464Y-70286607D01*
X134732461Y-70286608D01*
X134621643Y-70371643D01*
X134536608Y-70482461D01*
X134536607Y-70482464D01*
X134483155Y-70611508D01*
X134483152Y-70611516D01*
X134464922Y-70749996D01*
X134464922Y-70750003D01*
X134285078Y-70750003D01*
X134285078Y-70749996D01*
X134266847Y-70611516D01*
X134266846Y-70611514D01*
X134266846Y-70611512D01*
X134213391Y-70482461D01*
X134128357Y-70371643D01*
X134017539Y-70286609D01*
X134017538Y-70286608D01*
X134017535Y-70286607D01*
X133888491Y-70233155D01*
X133888483Y-70233152D01*
X133750004Y-70214922D01*
X133749996Y-70214922D01*
X133611516Y-70233152D01*
X133611508Y-70233155D01*
X133482464Y-70286607D01*
X133482461Y-70286608D01*
X133371643Y-70371643D01*
X133286608Y-70482461D01*
X133286607Y-70482464D01*
X133233155Y-70611508D01*
X133233152Y-70611516D01*
X133214922Y-70749996D01*
X133214922Y-70750003D01*
X133035078Y-70750003D01*
X133035078Y-70749996D01*
X133016847Y-70611516D01*
X133016846Y-70611514D01*
X133016846Y-70611512D01*
X132963391Y-70482461D01*
X132878357Y-70371643D01*
X132767539Y-70286609D01*
X132767538Y-70286608D01*
X132767535Y-70286607D01*
X132638491Y-70233155D01*
X132638483Y-70233152D01*
X132500004Y-70214922D01*
X132499996Y-70214922D01*
X132361516Y-70233152D01*
X132361508Y-70233155D01*
X132232464Y-70286607D01*
X132232461Y-70286608D01*
X132121643Y-70371643D01*
X132036608Y-70482461D01*
X132036607Y-70482464D01*
X131983155Y-70611508D01*
X131983152Y-70611516D01*
X131964922Y-70749996D01*
X131964922Y-70750003D01*
X112991622Y-70750003D01*
X114204745Y-69536879D01*
X114249999Y-69518135D01*
X114295252Y-69536879D01*
X114635442Y-69877068D01*
X114679402Y-69906441D01*
X114707937Y-69918260D01*
X114724651Y-69925184D01*
X114724653Y-69925184D01*
X114724657Y-69925186D01*
X114745398Y-69929311D01*
X114776507Y-69935500D01*
X114776510Y-69935500D01*
X116786003Y-69935500D01*
X116811926Y-69930343D01*
X116837853Y-69925186D01*
X116883108Y-69906441D01*
X116908534Y-69892557D01*
X116956441Y-69833108D01*
X116975186Y-69787853D01*
X116985500Y-69736000D01*
X116985500Y-69500003D01*
X131964922Y-69500003D01*
X131983152Y-69638483D01*
X131983155Y-69638491D01*
X132036607Y-69767535D01*
X132036608Y-69767538D01*
X132052201Y-69787859D01*
X132121643Y-69878357D01*
X132232461Y-69963391D01*
X132361512Y-70016846D01*
X132361514Y-70016846D01*
X132361516Y-70016847D01*
X132499996Y-70035078D01*
X132500000Y-70035078D01*
X132500004Y-70035078D01*
X132638483Y-70016847D01*
X132638484Y-70016846D01*
X132638488Y-70016846D01*
X132767539Y-69963391D01*
X132878357Y-69878357D01*
X132963391Y-69767539D01*
X133016846Y-69638488D01*
X133035078Y-69500003D01*
X133214922Y-69500003D01*
X133233152Y-69638483D01*
X133233155Y-69638491D01*
X133286607Y-69767535D01*
X133286608Y-69767538D01*
X133302201Y-69787859D01*
X133371643Y-69878357D01*
X133482461Y-69963391D01*
X133611512Y-70016846D01*
X133611514Y-70016846D01*
X133611516Y-70016847D01*
X133749996Y-70035078D01*
X133750000Y-70035078D01*
X133750004Y-70035078D01*
X133888483Y-70016847D01*
X133888484Y-70016846D01*
X133888488Y-70016846D01*
X134017539Y-69963391D01*
X134128357Y-69878357D01*
X134213391Y-69767539D01*
X134266846Y-69638488D01*
X134285078Y-69500003D01*
X134464922Y-69500003D01*
X134483152Y-69638483D01*
X134483155Y-69638491D01*
X134536607Y-69767535D01*
X134536608Y-69767538D01*
X134552201Y-69787859D01*
X134621643Y-69878357D01*
X134732461Y-69963391D01*
X134861512Y-70016846D01*
X134861514Y-70016846D01*
X134861516Y-70016847D01*
X134999996Y-70035078D01*
X135000000Y-70035078D01*
X135000004Y-70035078D01*
X135138483Y-70016847D01*
X135138484Y-70016846D01*
X135138488Y-70016846D01*
X135267539Y-69963391D01*
X135378357Y-69878357D01*
X135463391Y-69767539D01*
X135516846Y-69638488D01*
X135535078Y-69500003D01*
X135714922Y-69500003D01*
X135733152Y-69638483D01*
X135733155Y-69638491D01*
X135786607Y-69767535D01*
X135786608Y-69767538D01*
X135802201Y-69787859D01*
X135871643Y-69878357D01*
X135982461Y-69963391D01*
X136111512Y-70016846D01*
X136111514Y-70016846D01*
X136111516Y-70016847D01*
X136249996Y-70035078D01*
X136250000Y-70035078D01*
X136250004Y-70035078D01*
X136388483Y-70016847D01*
X136388484Y-70016846D01*
X136388488Y-70016846D01*
X136517539Y-69963391D01*
X136628357Y-69878357D01*
X136713391Y-69767539D01*
X136766846Y-69638488D01*
X136785078Y-69500000D01*
X136785078Y-69499996D01*
X136766847Y-69361516D01*
X136766846Y-69361514D01*
X136766846Y-69361512D01*
X136713391Y-69232461D01*
X136628357Y-69121643D01*
X136517539Y-69036609D01*
X136517538Y-69036608D01*
X136517535Y-69036607D01*
X136388491Y-68983155D01*
X136388483Y-68983152D01*
X136250004Y-68964922D01*
X136249996Y-68964922D01*
X136111516Y-68983152D01*
X136111508Y-68983155D01*
X135982464Y-69036607D01*
X135982461Y-69036608D01*
X135871643Y-69121643D01*
X135786608Y-69232461D01*
X135786607Y-69232464D01*
X135733155Y-69361508D01*
X135733152Y-69361516D01*
X135714922Y-69499996D01*
X135714922Y-69500003D01*
X135535078Y-69500003D01*
X135535078Y-69500000D01*
X135535078Y-69499996D01*
X135516847Y-69361516D01*
X135516846Y-69361514D01*
X135516846Y-69361512D01*
X135463391Y-69232461D01*
X135378357Y-69121643D01*
X135267539Y-69036609D01*
X135267538Y-69036608D01*
X135267535Y-69036607D01*
X135138491Y-68983155D01*
X135138483Y-68983152D01*
X135000004Y-68964922D01*
X134999996Y-68964922D01*
X134861516Y-68983152D01*
X134861508Y-68983155D01*
X134732464Y-69036607D01*
X134732461Y-69036608D01*
X134621643Y-69121643D01*
X134536608Y-69232461D01*
X134536607Y-69232464D01*
X134483155Y-69361508D01*
X134483152Y-69361516D01*
X134464922Y-69499996D01*
X134464922Y-69500003D01*
X134285078Y-69500003D01*
X134285078Y-69500000D01*
X134285078Y-69499996D01*
X134266847Y-69361516D01*
X134266846Y-69361514D01*
X134266846Y-69361512D01*
X134213391Y-69232461D01*
X134128357Y-69121643D01*
X134017539Y-69036609D01*
X134017538Y-69036608D01*
X134017535Y-69036607D01*
X133888491Y-68983155D01*
X133888483Y-68983152D01*
X133750004Y-68964922D01*
X133749996Y-68964922D01*
X133611516Y-68983152D01*
X133611508Y-68983155D01*
X133482464Y-69036607D01*
X133482461Y-69036608D01*
X133371643Y-69121643D01*
X133286608Y-69232461D01*
X133286607Y-69232464D01*
X133233155Y-69361508D01*
X133233152Y-69361516D01*
X133214922Y-69499996D01*
X133214922Y-69500003D01*
X133035078Y-69500003D01*
X133035078Y-69500000D01*
X133035078Y-69499996D01*
X133016847Y-69361516D01*
X133016846Y-69361514D01*
X133016846Y-69361512D01*
X132963391Y-69232461D01*
X132878357Y-69121643D01*
X132767539Y-69036609D01*
X132767538Y-69036608D01*
X132767535Y-69036607D01*
X132638491Y-68983155D01*
X132638483Y-68983152D01*
X132500004Y-68964922D01*
X132499996Y-68964922D01*
X132361516Y-68983152D01*
X132361508Y-68983155D01*
X132232464Y-69036607D01*
X132232461Y-69036608D01*
X132121643Y-69121643D01*
X132036608Y-69232461D01*
X132036607Y-69232464D01*
X131983155Y-69361508D01*
X131983152Y-69361516D01*
X131964922Y-69499996D01*
X131964922Y-69500003D01*
X116985500Y-69500003D01*
X116985500Y-68100003D01*
X122564922Y-68100003D01*
X122583152Y-68238483D01*
X122583155Y-68238491D01*
X122636607Y-68367535D01*
X122636608Y-68367538D01*
X122636609Y-68367539D01*
X122721643Y-68478357D01*
X122832461Y-68563391D01*
X122961512Y-68616846D01*
X122961514Y-68616846D01*
X122961516Y-68616847D01*
X123099996Y-68635078D01*
X123100000Y-68635078D01*
X123100004Y-68635078D01*
X123238483Y-68616847D01*
X123238484Y-68616846D01*
X123238488Y-68616846D01*
X123367539Y-68563391D01*
X123478357Y-68478357D01*
X123563391Y-68367539D01*
X123616846Y-68238488D01*
X123619695Y-68216847D01*
X123635078Y-68100003D01*
X123635078Y-68099996D01*
X123616847Y-67961516D01*
X123616846Y-67961514D01*
X123616846Y-67961512D01*
X123563391Y-67832461D01*
X123478357Y-67721643D01*
X123450155Y-67700003D01*
X126464922Y-67700003D01*
X126483152Y-67838483D01*
X126483155Y-67838491D01*
X126536607Y-67967535D01*
X126536608Y-67967538D01*
X126536609Y-67967539D01*
X126621643Y-68078357D01*
X126732461Y-68163391D01*
X126861512Y-68216846D01*
X126861514Y-68216846D01*
X126861516Y-68216847D01*
X126999996Y-68235078D01*
X127000000Y-68235078D01*
X127000004Y-68235078D01*
X127138483Y-68216847D01*
X127138484Y-68216846D01*
X127138488Y-68216846D01*
X127267539Y-68163391D01*
X127378357Y-68078357D01*
X127463391Y-67967539D01*
X127516846Y-67838488D01*
X127517639Y-67832464D01*
X127535078Y-67700003D01*
X127535078Y-67699996D01*
X127516847Y-67561516D01*
X127516846Y-67561514D01*
X127516846Y-67561512D01*
X127463391Y-67432461D01*
X127378357Y-67321643D01*
X127267539Y-67236609D01*
X127267538Y-67236608D01*
X127267535Y-67236607D01*
X127138491Y-67183155D01*
X127138483Y-67183152D01*
X127000004Y-67164922D01*
X126999996Y-67164922D01*
X126861516Y-67183152D01*
X126861508Y-67183155D01*
X126732464Y-67236607D01*
X126732461Y-67236608D01*
X126621643Y-67321643D01*
X126536608Y-67432461D01*
X126536607Y-67432464D01*
X126483155Y-67561508D01*
X126483152Y-67561516D01*
X126464922Y-67699996D01*
X126464922Y-67700003D01*
X123450155Y-67700003D01*
X123367539Y-67636609D01*
X123367538Y-67636608D01*
X123367535Y-67636607D01*
X123238491Y-67583155D01*
X123238483Y-67583152D01*
X123100004Y-67564922D01*
X123099996Y-67564922D01*
X122961516Y-67583152D01*
X122961508Y-67583155D01*
X122832464Y-67636607D01*
X122832461Y-67636608D01*
X122721643Y-67721643D01*
X122636608Y-67832461D01*
X122636607Y-67832464D01*
X122583155Y-67961508D01*
X122583152Y-67961516D01*
X122564922Y-68099996D01*
X122564922Y-68100003D01*
X116985500Y-68100003D01*
X116985500Y-67064000D01*
X116985500Y-67063997D01*
X116975186Y-67012149D01*
X116975185Y-67012144D01*
X116971798Y-67003968D01*
X116956441Y-66966892D01*
X116942557Y-66941466D01*
X116942554Y-66941463D01*
X116938851Y-66937032D01*
X116924215Y-66890286D01*
X116938127Y-66855834D01*
X116956441Y-66833108D01*
X116965072Y-66812269D01*
X116975184Y-66787859D01*
X116975185Y-66787855D01*
X116975186Y-66787853D01*
X116985500Y-66736000D01*
X116985500Y-64064000D01*
X116985500Y-64063997D01*
X116975186Y-64012149D01*
X116975185Y-64012144D01*
X116963177Y-63983155D01*
X116956441Y-63966892D01*
X116942557Y-63941466D01*
X116919557Y-63922931D01*
X116883107Y-63893558D01*
X116837859Y-63874815D01*
X116837850Y-63874813D01*
X116786003Y-63864500D01*
X116786000Y-63864500D01*
X114776510Y-63864500D01*
X114776507Y-63864500D01*
X114724659Y-63874813D01*
X114724651Y-63874815D01*
X114679404Y-63893558D01*
X114679396Y-63893562D01*
X114635442Y-63922931D01*
X114295255Y-64263119D01*
X114250000Y-64281864D01*
X114204745Y-64263119D01*
X113616629Y-63675003D01*
X121064922Y-63675003D01*
X121083152Y-63813483D01*
X121083155Y-63813491D01*
X121136607Y-63942535D01*
X121136608Y-63942538D01*
X121136609Y-63942539D01*
X121221643Y-64053357D01*
X121332461Y-64138391D01*
X121461512Y-64191846D01*
X121461514Y-64191846D01*
X121461516Y-64191847D01*
X121599996Y-64210078D01*
X121600000Y-64210078D01*
X121600004Y-64210078D01*
X121738483Y-64191847D01*
X121738484Y-64191846D01*
X121738488Y-64191846D01*
X121867539Y-64138391D01*
X121978357Y-64053357D01*
X122063391Y-63942539D01*
X122116846Y-63813488D01*
X122135078Y-63675000D01*
X122135078Y-63674996D01*
X122116847Y-63536516D01*
X122116846Y-63536514D01*
X122116846Y-63536512D01*
X122063391Y-63407461D01*
X121978357Y-63296643D01*
X121867539Y-63211609D01*
X121867538Y-63211608D01*
X121867535Y-63211607D01*
X121738491Y-63158155D01*
X121738483Y-63158152D01*
X121600004Y-63139922D01*
X121599996Y-63139922D01*
X121461516Y-63158152D01*
X121461508Y-63158155D01*
X121332464Y-63211607D01*
X121332461Y-63211608D01*
X121221643Y-63296643D01*
X121136608Y-63407461D01*
X121136607Y-63407464D01*
X121083155Y-63536508D01*
X121083152Y-63536516D01*
X121064922Y-63674996D01*
X121064922Y-63675003D01*
X113616629Y-63675003D01*
X112491629Y-62550003D01*
X126364922Y-62550003D01*
X126383152Y-62688483D01*
X126383155Y-62688491D01*
X126436607Y-62817535D01*
X126436608Y-62817538D01*
X126436609Y-62817539D01*
X126521643Y-62928357D01*
X126632461Y-63013391D01*
X126761512Y-63066846D01*
X126761514Y-63066846D01*
X126761516Y-63066847D01*
X126899996Y-63085078D01*
X126900000Y-63085078D01*
X126900004Y-63085078D01*
X127038483Y-63066847D01*
X127038484Y-63066846D01*
X127038488Y-63066846D01*
X127167539Y-63013391D01*
X127278357Y-62928357D01*
X127363391Y-62817539D01*
X127416846Y-62688488D01*
X127435078Y-62550000D01*
X127435078Y-62549996D01*
X127416847Y-62411516D01*
X127416846Y-62411514D01*
X127416846Y-62411512D01*
X127363391Y-62282461D01*
X127278357Y-62171643D01*
X127167539Y-62086609D01*
X127167538Y-62086608D01*
X127167535Y-62086607D01*
X127038491Y-62033155D01*
X127038483Y-62033152D01*
X126900004Y-62014922D01*
X126899996Y-62014922D01*
X126761516Y-62033152D01*
X126761508Y-62033155D01*
X126632464Y-62086607D01*
X126632461Y-62086608D01*
X126521643Y-62171643D01*
X126436608Y-62282461D01*
X126436607Y-62282464D01*
X126383155Y-62411508D01*
X126383152Y-62411516D01*
X126364922Y-62549996D01*
X126364922Y-62550003D01*
X112491629Y-62550003D01*
X111264557Y-61322931D01*
X111220603Y-61293562D01*
X111220600Y-61293560D01*
X111220598Y-61293559D01*
X111209495Y-61288960D01*
X111175348Y-61274815D01*
X111175340Y-61274813D01*
X111123493Y-61264500D01*
X111123490Y-61264500D01*
X109514000Y-61264500D01*
X109513997Y-61264500D01*
X109462149Y-61274813D01*
X109462144Y-61274814D01*
X109427995Y-61288960D01*
X109416895Y-61293558D01*
X109416885Y-61293562D01*
X109391465Y-61307443D01*
X109343558Y-61366892D01*
X109324815Y-61412140D01*
X109324813Y-61412149D01*
X109314500Y-61463997D01*
X109314500Y-62173492D01*
X109324813Y-62225339D01*
X109324816Y-62225349D01*
X109343555Y-62270590D01*
X109343557Y-62270594D01*
X109343558Y-62270596D01*
X109372931Y-62314557D01*
X112595755Y-65537381D01*
X112614500Y-65582635D01*
X112614500Y-66736002D01*
X112624813Y-66787850D01*
X112624814Y-66787855D01*
X112636377Y-66815769D01*
X112643559Y-66833108D01*
X112643561Y-66833111D01*
X112643562Y-66833114D01*
X112657444Y-66858536D01*
X112661148Y-66862968D01*
X112675784Y-66909714D01*
X112661873Y-66944165D01*
X112643558Y-66966893D01*
X112624815Y-67012140D01*
X112624813Y-67012149D01*
X112614499Y-67063997D01*
X112614500Y-68217363D01*
X112595755Y-68262618D01*
X109372934Y-71485438D01*
X109343557Y-71529404D01*
X109343555Y-71529408D01*
X109324814Y-71574654D01*
X109324811Y-71574663D01*
X109314500Y-71626506D01*
X109314500Y-72336002D01*
X96295475Y-72336002D01*
X96295475Y-69800000D01*
X98164657Y-69800000D01*
X98183988Y-70008620D01*
X98241325Y-70210137D01*
X98334708Y-70397675D01*
X98334710Y-70397678D01*
X98460968Y-70564873D01*
X98615799Y-70706020D01*
X98615801Y-70706021D01*
X98615803Y-70706023D01*
X98793934Y-70816317D01*
X98793933Y-70816317D01*
X98980215Y-70888483D01*
X98989299Y-70892002D01*
X98989302Y-70892002D01*
X98989308Y-70892004D01*
X99075730Y-70908158D01*
X99195244Y-70930500D01*
X99404756Y-70930500D01*
X99575135Y-70898650D01*
X99610691Y-70892004D01*
X99610693Y-70892003D01*
X99610701Y-70892002D01*
X99806066Y-70816317D01*
X99984197Y-70706023D01*
X100139029Y-70564876D01*
X100265288Y-70397681D01*
X100358676Y-70210133D01*
X100416012Y-70008619D01*
X100435343Y-69800000D01*
X100416012Y-69591381D01*
X100358676Y-69389867D01*
X100344555Y-69361508D01*
X100265291Y-69202324D01*
X100265289Y-69202321D01*
X100265288Y-69202320D01*
X100265288Y-69202319D01*
X100200856Y-69116997D01*
X100139031Y-69035126D01*
X99984200Y-68893979D01*
X99806065Y-68783682D01*
X99806066Y-68783682D01*
X99610703Y-68707998D01*
X99610691Y-68707995D01*
X99404758Y-68669500D01*
X99404756Y-68669500D01*
X99195244Y-68669500D01*
X99195241Y-68669500D01*
X98989308Y-68707995D01*
X98989296Y-68707998D01*
X98793934Y-68783682D01*
X98615799Y-68893979D01*
X98460968Y-69035126D01*
X98334710Y-69202321D01*
X98334708Y-69202324D01*
X98241325Y-69389862D01*
X98183988Y-69591379D01*
X98164657Y-69799999D01*
X98164657Y-69800000D01*
X96295475Y-69800000D01*
X96295475Y-66500000D01*
X110511152Y-66500000D01*
X110531587Y-66615893D01*
X110590428Y-66717809D01*
X110669601Y-66784242D01*
X110680576Y-66793451D01*
X110791160Y-66833700D01*
X110908840Y-66833700D01*
X111019424Y-66793451D01*
X111109573Y-66717807D01*
X111168413Y-66615893D01*
X111188848Y-66500000D01*
X111168413Y-66384107D01*
X111109573Y-66282193D01*
X111109572Y-66282192D01*
X111109571Y-66282190D01*
X111019424Y-66206549D01*
X111019423Y-66206548D01*
X110908840Y-66166300D01*
X110791160Y-66166300D01*
X110680576Y-66206548D01*
X110680575Y-66206549D01*
X110590428Y-66282190D01*
X110531587Y-66384106D01*
X110511152Y-66500000D01*
X96295475Y-66500000D01*
X96295475Y-65400003D01*
X103464922Y-65400003D01*
X103483152Y-65538483D01*
X103483155Y-65538491D01*
X103536607Y-65667535D01*
X103536608Y-65667538D01*
X103536609Y-65667539D01*
X103621643Y-65778357D01*
X103732461Y-65863391D01*
X103861512Y-65916846D01*
X103861514Y-65916846D01*
X103861516Y-65916847D01*
X103999996Y-65935078D01*
X104000000Y-65935078D01*
X104000004Y-65935078D01*
X104138483Y-65916847D01*
X104138484Y-65916846D01*
X104138488Y-65916846D01*
X104267539Y-65863391D01*
X104378357Y-65778357D01*
X104463391Y-65667539D01*
X104516846Y-65538488D01*
X104535078Y-65400000D01*
X104535078Y-65399996D01*
X104516847Y-65261516D01*
X104516846Y-65261514D01*
X104516846Y-65261512D01*
X104463391Y-65132461D01*
X104378357Y-65021643D01*
X104378355Y-65021642D01*
X104378355Y-65021641D01*
X104351161Y-65000775D01*
X104326669Y-64958355D01*
X104339346Y-64911040D01*
X104351161Y-64899225D01*
X104378357Y-64878357D01*
X104463391Y-64767539D01*
X104516846Y-64638488D01*
X104535078Y-64500000D01*
X104535078Y-64499996D01*
X104516847Y-64361516D01*
X104516846Y-64361514D01*
X104516846Y-64361512D01*
X104463391Y-64232461D01*
X104378357Y-64121643D01*
X104267539Y-64036609D01*
X104267538Y-64036608D01*
X104267535Y-64036607D01*
X104138491Y-63983155D01*
X104138483Y-63983152D01*
X104000004Y-63964922D01*
X103999996Y-63964922D01*
X103861516Y-63983152D01*
X103861508Y-63983155D01*
X103732464Y-64036607D01*
X103732461Y-64036608D01*
X103621643Y-64121643D01*
X103536608Y-64232461D01*
X103536607Y-64232464D01*
X103483155Y-64361508D01*
X103483152Y-64361516D01*
X103464922Y-64499996D01*
X103464922Y-64500003D01*
X103483152Y-64638483D01*
X103483155Y-64638491D01*
X103536607Y-64767535D01*
X103536608Y-64767538D01*
X103536609Y-64767539D01*
X103621643Y-64878357D01*
X103648839Y-64899225D01*
X103673330Y-64941646D01*
X103660653Y-64988961D01*
X103648840Y-65000773D01*
X103621646Y-65021641D01*
X103621643Y-65021643D01*
X103536608Y-65132461D01*
X103536607Y-65132464D01*
X103483155Y-65261508D01*
X103483152Y-65261516D01*
X103464922Y-65399996D01*
X103464922Y-65400003D01*
X96295475Y-65400003D01*
X96295475Y-61700003D01*
X100064922Y-61700003D01*
X100083152Y-61838483D01*
X100083155Y-61838491D01*
X100136607Y-61967535D01*
X100136608Y-61967538D01*
X100136609Y-61967539D01*
X100221643Y-62078357D01*
X100332461Y-62163391D01*
X100461512Y-62216846D01*
X100461514Y-62216846D01*
X100461516Y-62216847D01*
X100599996Y-62235078D01*
X100600000Y-62235078D01*
X100600004Y-62235078D01*
X100738483Y-62216847D01*
X100738484Y-62216846D01*
X100738488Y-62216846D01*
X100867539Y-62163391D01*
X100978357Y-62078357D01*
X101063391Y-61967539D01*
X101116846Y-61838488D01*
X101135078Y-61700000D01*
X101135078Y-61699996D01*
X101116847Y-61561516D01*
X101116846Y-61561514D01*
X101116846Y-61561512D01*
X101063391Y-61432461D01*
X100978357Y-61321643D01*
X100978355Y-61321642D01*
X100978355Y-61321641D01*
X100978353Y-61321639D01*
X100951160Y-61300773D01*
X100926668Y-61258352D01*
X100939347Y-61211038D01*
X100951157Y-61199227D01*
X100978357Y-61178357D01*
X101063391Y-61067539D01*
X101116846Y-60938488D01*
X101135078Y-60800000D01*
X101135078Y-60799996D01*
X101116847Y-60661516D01*
X101116846Y-60661514D01*
X101116846Y-60661512D01*
X101063391Y-60532461D01*
X100978357Y-60421643D01*
X100867539Y-60336609D01*
X100867538Y-60336608D01*
X100867535Y-60336607D01*
X100738491Y-60283155D01*
X100738483Y-60283152D01*
X100600004Y-60264922D01*
X100599996Y-60264922D01*
X100461516Y-60283152D01*
X100461508Y-60283155D01*
X100332464Y-60336607D01*
X100332461Y-60336608D01*
X100221643Y-60421643D01*
X100136608Y-60532461D01*
X100136607Y-60532464D01*
X100083155Y-60661508D01*
X100083152Y-60661516D01*
X100064922Y-60799996D01*
X100064922Y-60800003D01*
X100083152Y-60938483D01*
X100083155Y-60938491D01*
X100136607Y-61067535D01*
X100136608Y-61067538D01*
X100136609Y-61067539D01*
X100221643Y-61178357D01*
X100248838Y-61199224D01*
X100273329Y-61241645D01*
X100260652Y-61288960D01*
X100248840Y-61300772D01*
X100221644Y-61321641D01*
X100136608Y-61432461D01*
X100136607Y-61432464D01*
X100083155Y-61561508D01*
X100083152Y-61561516D01*
X100064922Y-61699996D01*
X100064922Y-61700003D01*
X96295475Y-61700003D01*
X96295475Y-57400003D01*
X122764922Y-57400003D01*
X122783152Y-57538483D01*
X122783155Y-57538491D01*
X122836607Y-57667535D01*
X122836608Y-57667538D01*
X122836609Y-57667539D01*
X122921643Y-57778357D01*
X123032461Y-57863391D01*
X123161512Y-57916846D01*
X123161514Y-57916846D01*
X123161516Y-57916847D01*
X123299996Y-57935078D01*
X123300000Y-57935078D01*
X123300004Y-57935078D01*
X123438483Y-57916847D01*
X123438484Y-57916846D01*
X123438488Y-57916846D01*
X123567539Y-57863391D01*
X123678357Y-57778357D01*
X123763391Y-57667539D01*
X123816846Y-57538488D01*
X123835078Y-57400000D01*
X123835078Y-57399996D01*
X123816847Y-57261516D01*
X123816846Y-57261514D01*
X123816846Y-57261512D01*
X123763391Y-57132461D01*
X123678357Y-57021643D01*
X123678355Y-57021642D01*
X123678355Y-57021641D01*
X123678353Y-57021639D01*
X123651160Y-57000773D01*
X123626668Y-56958352D01*
X123639347Y-56911038D01*
X123651157Y-56899227D01*
X123678357Y-56878357D01*
X123763391Y-56767539D01*
X123770655Y-56750003D01*
X134214922Y-56750003D01*
X134233152Y-56888483D01*
X134233155Y-56888491D01*
X134286607Y-57017535D01*
X134286608Y-57017538D01*
X134289758Y-57021643D01*
X134371643Y-57128357D01*
X134482461Y-57213391D01*
X134611512Y-57266846D01*
X134611514Y-57266846D01*
X134611516Y-57266847D01*
X134749996Y-57285078D01*
X134750000Y-57285078D01*
X134750004Y-57285078D01*
X134888483Y-57266847D01*
X134888484Y-57266846D01*
X134888488Y-57266846D01*
X135017539Y-57213391D01*
X135128357Y-57128357D01*
X135213391Y-57017539D01*
X135266846Y-56888488D01*
X135282769Y-56767539D01*
X135285078Y-56750003D01*
X135464922Y-56750003D01*
X135483152Y-56888483D01*
X135483155Y-56888491D01*
X135536607Y-57017535D01*
X135536608Y-57017538D01*
X135539758Y-57021643D01*
X135621643Y-57128357D01*
X135732461Y-57213391D01*
X135861512Y-57266846D01*
X135861514Y-57266846D01*
X135861516Y-57266847D01*
X135999996Y-57285078D01*
X136000000Y-57285078D01*
X136000004Y-57285078D01*
X136138483Y-57266847D01*
X136138484Y-57266846D01*
X136138488Y-57266846D01*
X136267539Y-57213391D01*
X136378357Y-57128357D01*
X136463391Y-57017539D01*
X136516846Y-56888488D01*
X136532769Y-56767539D01*
X136535078Y-56750003D01*
X136714922Y-56750003D01*
X136733152Y-56888483D01*
X136733155Y-56888491D01*
X136786607Y-57017535D01*
X136786608Y-57017538D01*
X136789758Y-57021643D01*
X136871643Y-57128357D01*
X136982461Y-57213391D01*
X137111512Y-57266846D01*
X137111514Y-57266846D01*
X137111516Y-57266847D01*
X137249996Y-57285078D01*
X137250000Y-57285078D01*
X137250004Y-57285078D01*
X137388483Y-57266847D01*
X137388484Y-57266846D01*
X137388488Y-57266846D01*
X137517539Y-57213391D01*
X137628357Y-57128357D01*
X137713391Y-57017539D01*
X137766846Y-56888488D01*
X137782769Y-56767539D01*
X137785078Y-56750003D01*
X137964922Y-56750003D01*
X137983152Y-56888483D01*
X137983155Y-56888491D01*
X138036607Y-57017535D01*
X138036608Y-57017538D01*
X138039758Y-57021643D01*
X138121643Y-57128357D01*
X138232461Y-57213391D01*
X138361512Y-57266846D01*
X138361514Y-57266846D01*
X138361516Y-57266847D01*
X138499996Y-57285078D01*
X138500000Y-57285078D01*
X138500004Y-57285078D01*
X138638483Y-57266847D01*
X138638484Y-57266846D01*
X138638488Y-57266846D01*
X138767539Y-57213391D01*
X138878357Y-57128357D01*
X138963391Y-57017539D01*
X139016846Y-56888488D01*
X139032769Y-56767539D01*
X139035078Y-56750003D01*
X139035078Y-56749996D01*
X139016847Y-56611516D01*
X139016846Y-56611514D01*
X139016846Y-56611512D01*
X138963391Y-56482461D01*
X138878357Y-56371643D01*
X138767539Y-56286609D01*
X138767538Y-56286608D01*
X138767535Y-56286607D01*
X138638491Y-56233155D01*
X138638483Y-56233152D01*
X138500004Y-56214922D01*
X138499996Y-56214922D01*
X138361516Y-56233152D01*
X138361508Y-56233155D01*
X138232464Y-56286607D01*
X138232461Y-56286608D01*
X138121643Y-56371643D01*
X138036608Y-56482461D01*
X138036607Y-56482464D01*
X137983155Y-56611508D01*
X137983152Y-56611516D01*
X137964922Y-56749996D01*
X137964922Y-56750003D01*
X137785078Y-56750003D01*
X137785078Y-56749996D01*
X137766847Y-56611516D01*
X137766846Y-56611514D01*
X137766846Y-56611512D01*
X137713391Y-56482461D01*
X137628357Y-56371643D01*
X137517539Y-56286609D01*
X137517538Y-56286608D01*
X137517535Y-56286607D01*
X137388491Y-56233155D01*
X137388483Y-56233152D01*
X137250004Y-56214922D01*
X137249996Y-56214922D01*
X137111516Y-56233152D01*
X137111508Y-56233155D01*
X136982464Y-56286607D01*
X136982461Y-56286608D01*
X136871643Y-56371643D01*
X136786608Y-56482461D01*
X136786607Y-56482464D01*
X136733155Y-56611508D01*
X136733152Y-56611516D01*
X136714922Y-56749996D01*
X136714922Y-56750003D01*
X136535078Y-56750003D01*
X136535078Y-56749996D01*
X136516847Y-56611516D01*
X136516846Y-56611514D01*
X136516846Y-56611512D01*
X136463391Y-56482461D01*
X136378357Y-56371643D01*
X136267539Y-56286609D01*
X136267538Y-56286608D01*
X136267535Y-56286607D01*
X136138491Y-56233155D01*
X136138483Y-56233152D01*
X136000004Y-56214922D01*
X135999996Y-56214922D01*
X135861516Y-56233152D01*
X135861508Y-56233155D01*
X135732464Y-56286607D01*
X135732461Y-56286608D01*
X135621643Y-56371643D01*
X135536608Y-56482461D01*
X135536607Y-56482464D01*
X135483155Y-56611508D01*
X135483152Y-56611516D01*
X135464922Y-56749996D01*
X135464922Y-56750003D01*
X135285078Y-56750003D01*
X135285078Y-56749996D01*
X135266847Y-56611516D01*
X135266846Y-56611514D01*
X135266846Y-56611512D01*
X135213391Y-56482461D01*
X135128357Y-56371643D01*
X135017539Y-56286609D01*
X135017538Y-56286608D01*
X135017535Y-56286607D01*
X134888491Y-56233155D01*
X134888483Y-56233152D01*
X134750004Y-56214922D01*
X134749996Y-56214922D01*
X134611516Y-56233152D01*
X134611508Y-56233155D01*
X134482464Y-56286607D01*
X134482461Y-56286608D01*
X134371643Y-56371643D01*
X134286608Y-56482461D01*
X134286607Y-56482464D01*
X134233155Y-56611508D01*
X134233152Y-56611516D01*
X134214922Y-56749996D01*
X134214922Y-56750003D01*
X123770655Y-56750003D01*
X123816846Y-56638488D01*
X123820397Y-56611516D01*
X123835078Y-56500003D01*
X123835078Y-56499996D01*
X123816847Y-56361516D01*
X123816846Y-56361514D01*
X123816846Y-56361512D01*
X123763391Y-56232461D01*
X123678357Y-56121643D01*
X123567539Y-56036609D01*
X123567538Y-56036608D01*
X123567535Y-56036607D01*
X123438491Y-55983155D01*
X123438483Y-55983152D01*
X123300004Y-55964922D01*
X123299996Y-55964922D01*
X123161516Y-55983152D01*
X123161508Y-55983155D01*
X123032464Y-56036607D01*
X123032461Y-56036608D01*
X122921643Y-56121643D01*
X122836608Y-56232461D01*
X122836607Y-56232464D01*
X122783155Y-56361508D01*
X122783152Y-56361516D01*
X122764922Y-56499996D01*
X122764922Y-56500003D01*
X122783152Y-56638483D01*
X122783155Y-56638491D01*
X122836607Y-56767535D01*
X122836608Y-56767538D01*
X122836609Y-56767539D01*
X122921643Y-56878357D01*
X122948838Y-56899224D01*
X122973329Y-56941645D01*
X122960652Y-56988960D01*
X122948840Y-57000772D01*
X122921644Y-57021641D01*
X122836608Y-57132461D01*
X122836607Y-57132464D01*
X122783155Y-57261508D01*
X122783152Y-57261516D01*
X122764922Y-57399996D01*
X122764922Y-57400003D01*
X96295475Y-57400003D01*
X96295475Y-55500003D01*
X134214922Y-55500003D01*
X134233152Y-55638483D01*
X134233155Y-55638491D01*
X134286607Y-55767535D01*
X134286608Y-55767538D01*
X134286609Y-55767539D01*
X134371643Y-55878357D01*
X134482461Y-55963391D01*
X134611512Y-56016846D01*
X134611514Y-56016846D01*
X134611516Y-56016847D01*
X134749996Y-56035078D01*
X134750000Y-56035078D01*
X134750004Y-56035078D01*
X134888483Y-56016847D01*
X134888484Y-56016846D01*
X134888488Y-56016846D01*
X135017539Y-55963391D01*
X135128357Y-55878357D01*
X135213391Y-55767539D01*
X135266846Y-55638488D01*
X135285078Y-55500003D01*
X135464922Y-55500003D01*
X135483152Y-55638483D01*
X135483155Y-55638491D01*
X135536607Y-55767535D01*
X135536608Y-55767538D01*
X135536609Y-55767539D01*
X135621643Y-55878357D01*
X135732461Y-55963391D01*
X135861512Y-56016846D01*
X135861514Y-56016846D01*
X135861516Y-56016847D01*
X135999996Y-56035078D01*
X136000000Y-56035078D01*
X136000004Y-56035078D01*
X136138483Y-56016847D01*
X136138484Y-56016846D01*
X136138488Y-56016846D01*
X136267539Y-55963391D01*
X136378357Y-55878357D01*
X136463391Y-55767539D01*
X136516846Y-55638488D01*
X136535078Y-55500003D01*
X136714922Y-55500003D01*
X136733152Y-55638483D01*
X136733155Y-55638491D01*
X136786607Y-55767535D01*
X136786608Y-55767538D01*
X136786609Y-55767539D01*
X136871643Y-55878357D01*
X136982461Y-55963391D01*
X137111512Y-56016846D01*
X137111514Y-56016846D01*
X137111516Y-56016847D01*
X137249996Y-56035078D01*
X137250000Y-56035078D01*
X137250004Y-56035078D01*
X137388483Y-56016847D01*
X137388484Y-56016846D01*
X137388488Y-56016846D01*
X137517539Y-55963391D01*
X137628357Y-55878357D01*
X137713391Y-55767539D01*
X137766846Y-55638488D01*
X137785078Y-55500003D01*
X137964922Y-55500003D01*
X137983152Y-55638483D01*
X137983155Y-55638491D01*
X138036607Y-55767535D01*
X138036608Y-55767538D01*
X138036609Y-55767539D01*
X138121643Y-55878357D01*
X138232461Y-55963391D01*
X138361512Y-56016846D01*
X138361514Y-56016846D01*
X138361516Y-56016847D01*
X138499996Y-56035078D01*
X138500000Y-56035078D01*
X138500004Y-56035078D01*
X138638483Y-56016847D01*
X138638484Y-56016846D01*
X138638488Y-56016846D01*
X138767539Y-55963391D01*
X138878357Y-55878357D01*
X138963391Y-55767539D01*
X139016846Y-55638488D01*
X139035078Y-55500000D01*
X139035078Y-55499996D01*
X139016847Y-55361516D01*
X139016846Y-55361514D01*
X139016846Y-55361512D01*
X138963391Y-55232461D01*
X138878357Y-55121643D01*
X138767539Y-55036609D01*
X138767538Y-55036608D01*
X138767535Y-55036607D01*
X138638491Y-54983155D01*
X138638483Y-54983152D01*
X138500004Y-54964922D01*
X138499996Y-54964922D01*
X138361516Y-54983152D01*
X138361508Y-54983155D01*
X138232464Y-55036607D01*
X138232461Y-55036608D01*
X138121643Y-55121643D01*
X138036608Y-55232461D01*
X138036607Y-55232464D01*
X137983155Y-55361508D01*
X137983152Y-55361516D01*
X137964922Y-55499996D01*
X137964922Y-55500003D01*
X137785078Y-55500003D01*
X137785078Y-55500000D01*
X137785078Y-55499996D01*
X137766847Y-55361516D01*
X137766846Y-55361514D01*
X137766846Y-55361512D01*
X137713391Y-55232461D01*
X137628357Y-55121643D01*
X137517539Y-55036609D01*
X137517538Y-55036608D01*
X137517535Y-55036607D01*
X137388491Y-54983155D01*
X137388483Y-54983152D01*
X137250004Y-54964922D01*
X137249996Y-54964922D01*
X137111516Y-54983152D01*
X137111508Y-54983155D01*
X136982464Y-55036607D01*
X136982461Y-55036608D01*
X136871643Y-55121643D01*
X136786608Y-55232461D01*
X136786607Y-55232464D01*
X136733155Y-55361508D01*
X136733152Y-55361516D01*
X136714922Y-55499996D01*
X136714922Y-55500003D01*
X136535078Y-55500003D01*
X136535078Y-55500000D01*
X136535078Y-55499996D01*
X136516847Y-55361516D01*
X136516846Y-55361514D01*
X136516846Y-55361512D01*
X136463391Y-55232461D01*
X136378357Y-55121643D01*
X136267539Y-55036609D01*
X136267538Y-55036608D01*
X136267535Y-55036607D01*
X136138491Y-54983155D01*
X136138483Y-54983152D01*
X136000004Y-54964922D01*
X135999996Y-54964922D01*
X135861516Y-54983152D01*
X135861508Y-54983155D01*
X135732464Y-55036607D01*
X135732461Y-55036608D01*
X135621643Y-55121643D01*
X135536608Y-55232461D01*
X135536607Y-55232464D01*
X135483155Y-55361508D01*
X135483152Y-55361516D01*
X135464922Y-55499996D01*
X135464922Y-55500003D01*
X135285078Y-55500003D01*
X135285078Y-55500000D01*
X135285078Y-55499996D01*
X135266847Y-55361516D01*
X135266846Y-55361514D01*
X135266846Y-55361512D01*
X135213391Y-55232461D01*
X135128357Y-55121643D01*
X135017539Y-55036609D01*
X135017538Y-55036608D01*
X135017535Y-55036607D01*
X134888491Y-54983155D01*
X134888483Y-54983152D01*
X134750004Y-54964922D01*
X134749996Y-54964922D01*
X134611516Y-54983152D01*
X134611508Y-54983155D01*
X134482464Y-55036607D01*
X134482461Y-55036608D01*
X134371643Y-55121643D01*
X134286608Y-55232461D01*
X134286607Y-55232464D01*
X134233155Y-55361508D01*
X134233152Y-55361516D01*
X134214922Y-55499996D01*
X134214922Y-55500003D01*
X96295475Y-55500003D01*
X96295475Y-54824538D01*
X111655750Y-54824538D01*
X111673980Y-54963018D01*
X111673983Y-54963026D01*
X111727435Y-55092070D01*
X111727436Y-55092073D01*
X111727437Y-55092074D01*
X111812471Y-55202892D01*
X111923289Y-55287926D01*
X112052340Y-55341381D01*
X112052342Y-55341381D01*
X112052344Y-55341382D01*
X112190824Y-55359613D01*
X112190828Y-55359613D01*
X112190832Y-55359613D01*
X112329311Y-55341382D01*
X112329312Y-55341381D01*
X112329316Y-55341381D01*
X112458367Y-55287926D01*
X112569185Y-55202892D01*
X112654219Y-55092074D01*
X112707674Y-54963023D01*
X112725906Y-54824535D01*
X112725906Y-54824531D01*
X112707675Y-54686051D01*
X112707674Y-54686049D01*
X112707674Y-54686047D01*
X112654219Y-54556996D01*
X112569185Y-54446178D01*
X112458367Y-54361144D01*
X112458366Y-54361143D01*
X112458363Y-54361142D01*
X112329319Y-54307690D01*
X112329311Y-54307687D01*
X112190832Y-54289457D01*
X112190824Y-54289457D01*
X112052344Y-54307687D01*
X112052336Y-54307690D01*
X111923292Y-54361142D01*
X111923289Y-54361143D01*
X111812471Y-54446178D01*
X111727436Y-54556996D01*
X111727435Y-54556999D01*
X111673983Y-54686043D01*
X111673980Y-54686051D01*
X111655750Y-54824531D01*
X111655750Y-54824538D01*
X96295475Y-54824538D01*
X96295475Y-53400003D01*
X101964869Y-53400003D01*
X101983324Y-53551995D01*
X102037619Y-53695161D01*
X102124598Y-53821170D01*
X102181569Y-53871643D01*
X102239204Y-53922703D01*
X102353070Y-53982464D01*
X102374781Y-53993859D01*
X102523436Y-54030499D01*
X102523441Y-54030499D01*
X102523443Y-54030500D01*
X102523445Y-54030500D01*
X102676555Y-54030500D01*
X102676557Y-54030500D01*
X102676559Y-54030499D01*
X102676563Y-54030499D01*
X102825218Y-53993859D01*
X102825218Y-53993858D01*
X102825221Y-53993858D01*
X102960796Y-53922703D01*
X103075402Y-53821170D01*
X103162381Y-53695160D01*
X103207951Y-53575000D01*
X114114696Y-53575000D01*
X114133885Y-53843302D01*
X114133887Y-53843314D01*
X114191061Y-54106144D01*
X114191062Y-54106147D01*
X114285069Y-54358190D01*
X114393628Y-54556999D01*
X114413981Y-54594272D01*
X114575182Y-54809612D01*
X114765388Y-54999818D01*
X114980728Y-55161019D01*
X115040100Y-55193438D01*
X115216809Y-55289930D01*
X115216813Y-55289931D01*
X115216816Y-55289933D01*
X115468848Y-55383936D01*
X115468851Y-55383936D01*
X115468852Y-55383937D01*
X115468855Y-55383938D01*
X115639060Y-55420963D01*
X115731693Y-55441114D01*
X116000000Y-55460304D01*
X116268307Y-55441114D01*
X116438519Y-55404086D01*
X116531144Y-55383938D01*
X116531147Y-55383937D01*
X116531146Y-55383937D01*
X116531152Y-55383936D01*
X116783184Y-55289933D01*
X116783188Y-55289930D01*
X116783190Y-55289930D01*
X116942587Y-55202892D01*
X117019272Y-55161019D01*
X117234612Y-54999818D01*
X117424818Y-54809612D01*
X117586019Y-54594272D01*
X117698386Y-54388488D01*
X117714930Y-54358190D01*
X117714930Y-54358188D01*
X117714933Y-54358184D01*
X117755282Y-54250003D01*
X134214922Y-54250003D01*
X134233152Y-54388483D01*
X134233155Y-54388491D01*
X134286607Y-54517535D01*
X134286608Y-54517538D01*
X134286609Y-54517539D01*
X134371643Y-54628357D01*
X134482461Y-54713391D01*
X134611512Y-54766846D01*
X134611514Y-54766846D01*
X134611516Y-54766847D01*
X134749996Y-54785078D01*
X134750000Y-54785078D01*
X134750004Y-54785078D01*
X134888483Y-54766847D01*
X134888484Y-54766846D01*
X134888488Y-54766846D01*
X135017539Y-54713391D01*
X135128357Y-54628357D01*
X135213391Y-54517539D01*
X135266846Y-54388488D01*
X135277483Y-54307690D01*
X135285078Y-54250003D01*
X135464922Y-54250003D01*
X135483152Y-54388483D01*
X135483155Y-54388491D01*
X135536607Y-54517535D01*
X135536608Y-54517538D01*
X135536609Y-54517539D01*
X135621643Y-54628357D01*
X135732461Y-54713391D01*
X135861512Y-54766846D01*
X135861514Y-54766846D01*
X135861516Y-54766847D01*
X135999996Y-54785078D01*
X136000000Y-54785078D01*
X136000004Y-54785078D01*
X136138483Y-54766847D01*
X136138484Y-54766846D01*
X136138488Y-54766846D01*
X136267539Y-54713391D01*
X136378357Y-54628357D01*
X136463391Y-54517539D01*
X136516846Y-54388488D01*
X136527483Y-54307690D01*
X136535078Y-54250003D01*
X136714922Y-54250003D01*
X136733152Y-54388483D01*
X136733155Y-54388491D01*
X136786607Y-54517535D01*
X136786608Y-54517538D01*
X136786609Y-54517539D01*
X136871643Y-54628357D01*
X136982461Y-54713391D01*
X137111512Y-54766846D01*
X137111514Y-54766846D01*
X137111516Y-54766847D01*
X137249996Y-54785078D01*
X137250000Y-54785078D01*
X137250004Y-54785078D01*
X137388483Y-54766847D01*
X137388484Y-54766846D01*
X137388488Y-54766846D01*
X137517539Y-54713391D01*
X137628357Y-54628357D01*
X137713391Y-54517539D01*
X137766846Y-54388488D01*
X137777483Y-54307690D01*
X137785078Y-54250003D01*
X137964922Y-54250003D01*
X137983152Y-54388483D01*
X137983155Y-54388491D01*
X138036607Y-54517535D01*
X138036608Y-54517538D01*
X138036609Y-54517539D01*
X138121643Y-54628357D01*
X138232461Y-54713391D01*
X138361512Y-54766846D01*
X138361514Y-54766846D01*
X138361516Y-54766847D01*
X138499996Y-54785078D01*
X138500000Y-54785078D01*
X138500004Y-54785078D01*
X138638483Y-54766847D01*
X138638484Y-54766846D01*
X138638488Y-54766846D01*
X138767539Y-54713391D01*
X138878357Y-54628357D01*
X138963391Y-54517539D01*
X139016846Y-54388488D01*
X139027483Y-54307690D01*
X139035078Y-54250003D01*
X139035078Y-54249996D01*
X139016847Y-54111516D01*
X139016846Y-54111514D01*
X139016846Y-54111512D01*
X138963391Y-53982461D01*
X138878357Y-53871643D01*
X138767539Y-53786609D01*
X138767538Y-53786608D01*
X138767535Y-53786607D01*
X138638491Y-53733155D01*
X138638483Y-53733152D01*
X138500004Y-53714922D01*
X138499996Y-53714922D01*
X138361516Y-53733152D01*
X138361508Y-53733155D01*
X138232464Y-53786607D01*
X138232461Y-53786608D01*
X138121643Y-53871643D01*
X138036608Y-53982461D01*
X138036607Y-53982464D01*
X137983155Y-54111508D01*
X137983152Y-54111516D01*
X137964922Y-54249996D01*
X137964922Y-54250003D01*
X137785078Y-54250003D01*
X137785078Y-54249996D01*
X137766847Y-54111516D01*
X137766846Y-54111514D01*
X137766846Y-54111512D01*
X137713391Y-53982461D01*
X137628357Y-53871643D01*
X137517539Y-53786609D01*
X137517538Y-53786608D01*
X137517535Y-53786607D01*
X137388491Y-53733155D01*
X137388483Y-53733152D01*
X137250004Y-53714922D01*
X137249996Y-53714922D01*
X137111516Y-53733152D01*
X137111508Y-53733155D01*
X136982464Y-53786607D01*
X136982461Y-53786608D01*
X136871643Y-53871643D01*
X136786608Y-53982461D01*
X136786607Y-53982464D01*
X136733155Y-54111508D01*
X136733152Y-54111516D01*
X136714922Y-54249996D01*
X136714922Y-54250003D01*
X136535078Y-54250003D01*
X136535078Y-54249996D01*
X136516847Y-54111516D01*
X136516846Y-54111514D01*
X136516846Y-54111512D01*
X136463391Y-53982461D01*
X136378357Y-53871643D01*
X136267539Y-53786609D01*
X136267538Y-53786608D01*
X136267535Y-53786607D01*
X136138491Y-53733155D01*
X136138483Y-53733152D01*
X136000004Y-53714922D01*
X135999996Y-53714922D01*
X135861516Y-53733152D01*
X135861508Y-53733155D01*
X135732464Y-53786607D01*
X135732461Y-53786608D01*
X135621643Y-53871643D01*
X135536608Y-53982461D01*
X135536607Y-53982464D01*
X135483155Y-54111508D01*
X135483152Y-54111516D01*
X135464922Y-54249996D01*
X135464922Y-54250003D01*
X135285078Y-54250003D01*
X135285078Y-54249996D01*
X135266847Y-54111516D01*
X135266846Y-54111514D01*
X135266846Y-54111512D01*
X135213391Y-53982461D01*
X135128357Y-53871643D01*
X135017539Y-53786609D01*
X135017538Y-53786608D01*
X135017535Y-53786607D01*
X134888491Y-53733155D01*
X134888483Y-53733152D01*
X134750004Y-53714922D01*
X134749996Y-53714922D01*
X134611516Y-53733152D01*
X134611508Y-53733155D01*
X134482464Y-53786607D01*
X134482461Y-53786608D01*
X134371643Y-53871643D01*
X134286608Y-53982461D01*
X134286607Y-53982464D01*
X134233155Y-54111508D01*
X134233152Y-54111516D01*
X134214922Y-54249996D01*
X134214922Y-54250003D01*
X117755282Y-54250003D01*
X117808936Y-54106152D01*
X117866114Y-53843307D01*
X117885304Y-53575000D01*
X117866114Y-53306693D01*
X117822204Y-53104840D01*
X117808938Y-53043855D01*
X117808937Y-53043852D01*
X117784685Y-52978830D01*
X117714933Y-52791816D01*
X117714931Y-52791813D01*
X117714930Y-52791809D01*
X117692100Y-52750000D01*
X131614657Y-52750000D01*
X131633988Y-52958620D01*
X131691325Y-53160137D01*
X131784708Y-53347675D01*
X131784710Y-53347678D01*
X131910968Y-53514873D01*
X132065799Y-53656020D01*
X132065801Y-53656021D01*
X132065803Y-53656023D01*
X132243934Y-53766317D01*
X132243933Y-53766317D01*
X132439296Y-53842001D01*
X132439299Y-53842002D01*
X132439302Y-53842002D01*
X132439308Y-53842004D01*
X132525730Y-53858158D01*
X132645244Y-53880500D01*
X132854756Y-53880500D01*
X133025135Y-53848650D01*
X133060691Y-53842004D01*
X133060693Y-53842003D01*
X133060701Y-53842002D01*
X133256066Y-53766317D01*
X133434197Y-53656023D01*
X133589029Y-53514876D01*
X133715288Y-53347681D01*
X133808676Y-53160133D01*
X133866012Y-52958619D01*
X133885343Y-52750000D01*
X133866012Y-52541381D01*
X133808676Y-52339867D01*
X133769658Y-52261508D01*
X133715291Y-52152324D01*
X133715289Y-52152321D01*
X133715288Y-52152320D01*
X133715288Y-52152319D01*
X133589029Y-51985124D01*
X133477174Y-51883155D01*
X133434200Y-51843979D01*
X133256065Y-51733682D01*
X133256066Y-51733682D01*
X133060703Y-51657998D01*
X133060691Y-51657995D01*
X132854758Y-51619500D01*
X132854756Y-51619500D01*
X132645244Y-51619500D01*
X132645241Y-51619500D01*
X132439308Y-51657995D01*
X132439296Y-51657998D01*
X132243934Y-51733682D01*
X132065799Y-51843979D01*
X131910968Y-51985126D01*
X131784710Y-52152321D01*
X131784708Y-52152324D01*
X131691325Y-52339862D01*
X131633988Y-52541379D01*
X131614657Y-52749999D01*
X131614657Y-52750000D01*
X117692100Y-52750000D01*
X117586022Y-52555734D01*
X117586019Y-52555728D01*
X117424818Y-52340388D01*
X117234612Y-52150182D01*
X117019272Y-51988981D01*
X117012212Y-51985126D01*
X116783190Y-51860069D01*
X116531147Y-51766062D01*
X116531144Y-51766061D01*
X116268314Y-51708887D01*
X116268302Y-51708885D01*
X116000000Y-51689696D01*
X115731697Y-51708885D01*
X115731685Y-51708887D01*
X115468855Y-51766061D01*
X115468852Y-51766062D01*
X115216809Y-51860069D01*
X114980734Y-51988977D01*
X114980730Y-51988979D01*
X114980728Y-51988981D01*
X114937097Y-52021643D01*
X114765387Y-52150182D01*
X114575182Y-52340387D01*
X114530560Y-52399996D01*
X114424723Y-52541379D01*
X114413977Y-52555734D01*
X114285069Y-52791809D01*
X114191062Y-53043852D01*
X114191061Y-53043855D01*
X114133887Y-53306685D01*
X114133885Y-53306697D01*
X114114696Y-53575000D01*
X103207951Y-53575000D01*
X103216675Y-53551997D01*
X103235131Y-53400000D01*
X103228778Y-53347681D01*
X103216675Y-53248004D01*
X103183350Y-53160133D01*
X103162381Y-53104840D01*
X103075402Y-52978830D01*
X103026017Y-52935078D01*
X102960800Y-52877300D01*
X102960793Y-52877295D01*
X102825218Y-52806140D01*
X102676563Y-52769500D01*
X102676557Y-52769500D01*
X102523443Y-52769500D01*
X102523436Y-52769500D01*
X102374781Y-52806140D01*
X102239206Y-52877295D01*
X102239199Y-52877300D01*
X102124598Y-52978829D01*
X102037619Y-53104838D01*
X101983324Y-53248004D01*
X101964869Y-53399996D01*
X101964869Y-53400003D01*
X96295475Y-53400003D01*
X96295475Y-52400003D01*
X105164922Y-52400003D01*
X105183152Y-52538483D01*
X105183155Y-52538491D01*
X105236607Y-52667535D01*
X105236608Y-52667538D01*
X105236609Y-52667539D01*
X105321643Y-52778357D01*
X105432461Y-52863391D01*
X105561512Y-52916846D01*
X105561514Y-52916846D01*
X105561516Y-52916847D01*
X105699996Y-52935078D01*
X105700000Y-52935078D01*
X105700004Y-52935078D01*
X105838483Y-52916847D01*
X105838484Y-52916846D01*
X105838488Y-52916846D01*
X105967539Y-52863391D01*
X106078357Y-52778357D01*
X106163391Y-52667539D01*
X106216846Y-52538488D01*
X106235078Y-52400000D01*
X106235078Y-52399996D01*
X106216847Y-52261516D01*
X106216846Y-52261514D01*
X106216846Y-52261512D01*
X106163391Y-52132461D01*
X106078357Y-52021643D01*
X105967539Y-51936609D01*
X105967538Y-51936608D01*
X105967535Y-51936607D01*
X105838491Y-51883155D01*
X105838483Y-51883152D01*
X105700004Y-51864922D01*
X105699996Y-51864922D01*
X105561516Y-51883152D01*
X105561508Y-51883155D01*
X105432464Y-51936607D01*
X105432461Y-51936608D01*
X105321643Y-52021643D01*
X105236608Y-52132461D01*
X105236607Y-52132464D01*
X105183155Y-52261508D01*
X105183152Y-52261516D01*
X105164922Y-52399996D01*
X105164922Y-52400003D01*
X96295475Y-52400003D01*
X96295475Y-51197085D01*
X96295749Y-51192903D01*
X96302874Y-51138797D01*
X96307991Y-51099935D01*
X96312312Y-51083809D01*
X96345781Y-51003013D01*
X96354129Y-50988553D01*
X96407367Y-50919172D01*
X96419172Y-50907367D01*
X96488553Y-50854129D01*
X96503013Y-50845781D01*
X96583809Y-50812312D01*
X96599935Y-50807991D01*
X96692907Y-50795748D01*
X96697085Y-50795475D01*
X140842222Y-50795475D01*
X140842246Y-50795476D01*
G37*
G04 #@! TD.AperFunction*
G04 #@! TA.AperFunction,Conductor*
G36*
X114650000Y-68900000D02*
G01*
X114250000Y-69300000D01*
X111168745Y-72381255D01*
X111123490Y-72400000D01*
X109514000Y-72400000D01*
X109468745Y-72381255D01*
X109450000Y-72336000D01*
X109450000Y-71626510D01*
X109468745Y-71581255D01*
X109468744Y-71581255D01*
X112750000Y-68300000D01*
X113400000Y-67650000D01*
X114650000Y-68900000D01*
G37*
G04 #@! TD.AperFunction*
G04 #@! TA.AperFunction,Conductor*
G36*
X116831255Y-67018745D02*
G01*
X116850000Y-67064000D01*
X116850000Y-69736000D01*
X116831255Y-69781255D01*
X116786000Y-69800000D01*
X114776510Y-69800000D01*
X114731255Y-69781255D01*
X114250000Y-69300000D01*
X114249999Y-69300000D01*
X114650000Y-68900000D01*
X113400000Y-67650000D01*
X112750000Y-68300000D01*
X112750000Y-67064000D01*
X112768745Y-67018745D01*
X112814000Y-67000000D01*
X116786000Y-67000000D01*
X116831255Y-67018745D01*
G37*
G04 #@! TD.AperFunction*
G04 #@! TA.AperFunction,Conductor*
G36*
X111168745Y-61418745D02*
G01*
X114650000Y-64900000D01*
X113400000Y-66150000D01*
X109468744Y-62218744D01*
X109450000Y-62173490D01*
X109450000Y-61464000D01*
X109468745Y-61418745D01*
X109514000Y-61400000D01*
X111123490Y-61400000D01*
X111168745Y-61418745D01*
G37*
G04 #@! TD.AperFunction*
G04 #@! TA.AperFunction,Conductor*
G36*
X116831255Y-64018745D02*
G01*
X116850000Y-64064000D01*
X116850000Y-66736000D01*
X116831255Y-66781255D01*
X116786000Y-66800000D01*
X112814000Y-66800000D01*
X112768745Y-66781255D01*
X112750000Y-66736000D01*
X112750000Y-65500000D01*
X113400000Y-66150000D01*
X114650000Y-64900000D01*
X114250000Y-64500000D01*
X114731255Y-64018745D01*
X114776510Y-64000000D01*
X116786000Y-64000000D01*
X116831255Y-64018745D01*
G37*
G04 #@! TD.AperFunction*
M02*
