G04 #@! TF.GenerationSoftware,KiCad,Pcbnew,7.0.5-0*
G04 #@! TF.CreationDate,2023-09-26T17:17:08-04:00*
G04 #@! TF.ProjectId,PowerPack,506f7765-7250-4616-936b-2e6b69636164,rev?*
G04 #@! TF.SameCoordinates,Original*
G04 #@! TF.FileFunction,Paste,Bot*
G04 #@! TF.FilePolarity,Positive*
%FSLAX46Y46*%
G04 Gerber Fmt 4.6, Leading zero omitted, Abs format (unit mm)*
G04 Created by KiCad (PCBNEW 7.0.5-0) date 2023-09-26 17:17:08*
%MOMM*%
%LPD*%
G01*
G04 APERTURE LIST*
%ADD10R,1.800000X0.250000*%
G04 APERTURE END LIST*
D10*
X135000001Y-65250001D03*
X135000001Y-64750002D03*
X135000001Y-64250000D03*
X135000001Y-63750001D03*
X135000001Y-63250000D03*
X135000001Y-62750000D03*
X135000001Y-62250002D03*
X135000001Y-61750000D03*
X135000001Y-61250001D03*
X135000001Y-60749999D03*
X139000001Y-65250001D03*
X139000001Y-64750002D03*
X139000001Y-64250000D03*
X139000001Y-63750001D03*
X139000001Y-63250000D03*
X139000001Y-62750000D03*
X139000001Y-62250002D03*
X139000001Y-61750000D03*
X139000001Y-61250001D03*
X139000001Y-60749999D03*
X98000001Y-65250001D03*
X98000001Y-64750002D03*
X98000001Y-64250000D03*
X98000001Y-63750001D03*
X98000001Y-63250000D03*
X98000001Y-62750000D03*
X98000001Y-62250002D03*
X98000001Y-61750000D03*
X98000001Y-61250001D03*
X98000001Y-60749999D03*
X102000001Y-65250001D03*
X102000001Y-64750002D03*
X102000001Y-64250000D03*
X102000001Y-63750001D03*
X102000001Y-63250000D03*
X102000001Y-62750000D03*
X102000001Y-62250002D03*
X102000001Y-61750000D03*
X102000001Y-61250001D03*
X102000001Y-60749999D03*
M02*
